<svg width="19" height="23" viewBox="0 0 19 23" fill="none" xmlns="http://www.w3.org/2000/svg">
<path d="M9.49196 0C4.38435 0 0.240821 4.21712 0.240821 9.41545C0.240821 11.7834 1.10416 13.9422 2.52347 15.5997L0.0639968 19.608C-0.115973 19.9082 0.106153 20.365 0.449796 20.4015L3.03787 20.6387L4.44442 22.7901C4.63726 23.0808 5.13583 23.0667 5.31247 22.7656L7.68353 18.6591C8.27069 18.7784 8.87058 18.8391 9.49196 18.8391C10.1161 18.8391 10.7266 18.7795 11.3165 18.6591L13.6875 22.7656C13.8642 23.0667 14.3627 23.0808 14.5556 22.7901L15.9621 20.6387L18.5502 20.4015C18.8938 20.365 19.116 19.9082 18.936 19.608L16.4765 15.5997C17.896 13.9427 18.7592 11.7814 18.7592 9.41545C18.7592 4.21712 14.5996 0 9.49196 0ZM9.49196 1.03889C14.0436 1.03889 17.7304 4.783 17.7304 9.41545C17.7304 14.0479 14.0436 17.792 9.49196 17.792C4.94036 17.792 1.27766 14.0479 1.27766 9.41545C1.27766 4.783 4.94036 1.03889 9.49196 1.03889ZM6.36538 5.22717C6.29782 5.23038 6.23154 5.2471 6.17033 5.27638C6.10912 5.30567 6.05418 5.34693 6.00864 5.39783C5.9631 5.44872 5.92786 5.50825 5.90493 5.57301C5.882 5.63777 5.87183 5.70649 5.87499 5.77525C5.87816 5.84401 5.8946 5.91146 5.92339 5.97375C5.95217 6.03605 5.99273 6.09195 6.04274 6.13829C6.09276 6.18463 6.15126 6.22048 6.21489 6.24381C6.27852 6.26714 6.34605 6.27748 6.41361 6.27424H12.5864C12.6546 6.27522 12.7222 6.2624 12.7855 6.23653C12.8487 6.21066 12.9063 6.17226 12.9549 6.12354C13.0034 6.07483 13.0419 6.01679 13.0683 5.95278C13.0946 5.88877 13.1081 5.82009 13.1081 5.7507C13.1081 5.68132 13.0946 5.61263 13.0683 5.54863C13.0419 5.48462 13.0034 5.42658 12.9549 5.37786C12.9063 5.32915 12.8487 5.29074 12.7855 5.26487C12.7222 5.239 12.6546 5.22619 12.5864 5.22717H6.41361C6.39754 5.2264 6.38145 5.2264 6.36538 5.22717ZM3.53619 8.89191C3.46863 8.89512 3.40235 8.91185 3.34114 8.94113C3.27993 8.97041 3.22499 9.01168 3.17945 9.06257C3.13391 9.11347 3.09867 9.17299 3.07574 9.23775C3.05281 9.30251 3.04263 9.37123 3.0458 9.43999C3.04897 9.50875 3.06541 9.57621 3.09419 9.6385C3.12298 9.70079 3.16354 9.7567 3.21355 9.80304C3.26357 9.84937 3.32206 9.88523 3.3857 9.90855C3.44933 9.93188 3.51685 9.94222 3.58441 9.93898H15.4156C15.4838 9.93996 15.5514 9.92715 15.6147 9.90128C15.6779 9.87541 15.7355 9.837 15.7841 9.78829C15.8326 9.73958 15.8711 9.68153 15.8975 9.61753C15.9238 9.55352 15.9373 9.48483 15.9373 9.41545C15.9373 9.34607 15.9238 9.27738 15.8975 9.21337C15.8711 9.14936 15.8326 9.09132 15.7841 9.04261C15.7355 8.9939 15.6779 8.95549 15.6147 8.92962C15.5514 8.90375 15.4838 8.89093 15.4156 8.89191H3.58441C3.56835 8.89115 3.55225 8.89115 3.53619 8.89191ZM6.36538 12.5567C6.29782 12.5599 6.23154 12.5766 6.17033 12.6059C6.10912 12.6352 6.05418 12.6764 6.00864 12.7273C5.9631 12.7782 5.92786 12.8377 5.90493 12.9025C5.882 12.9673 5.87183 13.036 5.87499 13.1047C5.87816 13.1735 5.8946 13.241 5.92339 13.3032C5.95217 13.3655 5.99273 13.4214 6.04274 13.4678C6.09276 13.5141 6.15126 13.55 6.21489 13.5733C6.27852 13.5966 6.34605 13.607 6.41361 13.6037H12.5864C12.6546 13.6047 12.7222 13.5919 12.7855 13.566C12.8487 13.5402 12.9063 13.5017 12.9549 13.453C13.0034 13.4043 13.0419 13.3463 13.0683 13.2823C13.0946 13.2183 13.1081 13.1496 13.1081 13.0802C13.1081 13.0108 13.0946 12.9421 13.0683 12.8781C13.0419 12.8141 13.0034 12.7561 12.9549 12.7074C12.9063 12.6586 12.8487 12.6202 12.7855 12.5944C12.7222 12.5685 12.6546 12.5557 12.5864 12.5567H6.41361C6.39754 12.5559 6.38145 12.5559 6.36538 12.5567ZM3.26291 16.3686C4.22947 17.2686 5.37975 17.9614 6.65473 18.381L4.8463 21.514L3.7532 19.8534C3.6687 19.7255 3.52619 19.6391 3.37544 19.6244L1.37411 19.4362L3.26291 16.3686ZM15.7371 16.3686L17.6259 19.4362L15.6246 19.6244C15.4738 19.639 15.3313 19.7255 15.2468 19.8534L14.1537 21.514L12.3453 18.381C13.6182 17.9612 14.771 17.2669 15.7371 16.3686Z" fill="white"/>
</svg>
