<svg width="21" height="21" viewBox="0 0 21 21" fill="none" xmlns="http://www.w3.org/2000/svg">
<path d="M10.0996 0.946689L1.26236 7.57469C1.09912 7.69847 0.998948 7.90144 1.00001 8.10631V19.153C1.00005 19.5 1.31576 19.8158 1.6628 19.8158H7.62791C7.97495 19.8158 8.29066 19.5 8.2907 19.153V14.5135C8.2907 13.278 9.26458 12.3041 10.5 12.3041C11.7354 12.3041 12.7093 13.278 12.7093 14.5135V19.153C12.7093 19.5 13.0251 19.8158 13.3721 19.8158H19.3372C19.6842 19.8158 20 19.5 20 19.153V8.10631C20 7.90144 19.9009 7.69847 19.7376 7.57469L10.9004 0.946689C10.611 0.762915 10.3697 0.781667 10.0996 0.946689ZM10.5 2.3068L18.6744 8.43771V18.4902H14.0349V14.5135C14.0349 12.5666 12.4469 10.9786 10.5 10.9786C8.55314 10.9786 6.96512 12.5666 6.96512 14.5135V18.4902H2.32559V8.43771L10.5 2.3068Z" fill="white" stroke="white" stroke-width="0.5"/>
</svg>
