<svg width="28" height="26" viewBox="0 0 28 26" fill="none" xmlns="http://www.w3.org/2000/svg">
<path d="M25.3105 1L22.7875 3.52299M22.7875 3.52299L26.572 7.30747L22.1567 11.7227L18.3723 7.93822M22.7875 3.52299L18.3723 7.93822M13.1875 13.123C13.8389 13.7656 14.3567 14.5308 14.7111 15.3745C15.0655 16.2181 15.2496 17.1235 15.2526 18.0385C15.2557 18.9536 15.0777 19.8602 14.729 20.7062C14.3802 21.5522 13.8675 22.3208 13.2205 22.9678C12.5735 23.6149 11.8048 24.1275 10.9588 24.4763C10.1129 24.8251 9.20624 25.003 8.2912 25C7.37615 24.9969 6.47075 24.8129 5.62712 24.4584C4.78349 24.104 4.01831 23.5862 3.37562 22.9349C2.11177 21.6263 1.41243 19.8737 1.42824 18.0545C1.44405 16.2353 2.17373 14.4951 3.46014 13.2087C4.74654 11.9223 6.48673 11.1927 8.30591 11.1768C10.1251 11.161 11.8777 11.8604 13.1863 13.1242L13.1875 13.123ZM13.1875 13.123L18.3723 7.93822" stroke="#E95345" stroke-width="2" stroke-linecap="round" stroke-linejoin="round"/>
</svg>
