<svg width="19" height="20" viewBox="0 0 19 20" fill="none" xmlns="http://www.w3.org/2000/svg">
<path d="M7.08746 0.315796H1.4215C0.640675 0.315796 0 0.95647 0 1.73729V7.38324C0 8.16406 0.640675 8.80473 1.4215 8.80473H7.06744C7.84826 8.80473 8.48894 8.16406 8.48894 7.38324V1.73729C8.50896 0.95647 7.86829 0.315796 7.08746 0.315796ZM7.08746 7.40326H1.40148L1.4215 1.71727H7.06744L7.08746 1.73729V7.40326Z" fill="white"/>
<path d="M17.5991 0.315796H11.9331C11.1523 0.315796 10.5116 0.95647 10.5116 1.73729V7.38324C10.5116 8.16406 11.1523 8.80473 11.9331 8.80473H17.579C18.3599 8.80473 19.0005 8.16406 19.0005 7.38324V1.73729C19.0206 0.95647 18.3799 0.315796 17.5991 0.315796ZM17.5991 7.40326L11.9331 7.38324L11.9531 1.71727H17.5991L17.6191 1.73729L17.5991 7.40326Z" fill="white"/>
<path d="M7.08795 10.8269H1.42199C0.641163 10.8269 0.000488281 11.4676 0.000488281 12.2484V17.8943C0.000488281 18.6752 0.641163 19.3158 1.42199 19.3158H7.06793C7.84875 19.3158 8.48943 18.6752 8.48943 17.8943V12.2484C8.50945 11.4676 7.86877 10.8269 7.08795 10.8269ZM7.08795 17.9344L1.40196 17.9144L1.42199 12.2484H7.06793L7.08795 12.2684V17.9344Z" fill="white"/>
<path d="M17.5991 10.8269H11.9331C11.1523 10.8269 10.5116 11.4676 10.5116 12.2484V17.8943C10.5116 18.6752 11.1523 19.3158 11.9331 19.3158H17.579C18.3599 19.3158 19.0005 18.6752 19.0005 17.8943V12.2484C19.0206 11.4676 18.3799 10.8269 17.5991 10.8269ZM17.5991 17.9344L11.9331 17.9144L11.9531 12.2484H17.5991L17.6191 12.2684L17.5991 17.9344Z" fill="white"/>
</svg>
