<svg width="23" height="21" viewBox="0 0 23 21" fill="none" xmlns="http://www.w3.org/2000/svg">
<path d="M1.52865 0.81647C1.38361 0.830845 1.24893 0.901767 1.15111 1.01529C1.05328 1.12881 0.999377 1.27671 1.00001 1.42991V16.4592C1.00002 16.6219 1.06148 16.7779 1.17088 16.893C1.28027 17.008 1.42863 17.0726 1.58334 17.0727H7.47136C9.08037 17.0727 10.4106 17.9894 10.9622 19.4402C11.0068 19.5515 11.0815 19.6465 11.1772 19.7133C11.2729 19.7802 11.3852 19.8158 11.5 19.8158C11.6148 19.8158 11.7271 19.7802 11.8228 19.7133C11.9185 19.6465 11.9932 19.5515 12.0378 19.4402C12.5895 17.9894 13.9196 17.0727 15.5286 17.0727H21.4167C21.5714 17.0726 21.7197 17.008 21.8291 16.893C21.9385 16.7779 22 16.6219 22 16.4592V1.42991C22 1.26722 21.9385 1.1112 21.8291 0.996161C21.7197 0.881122 21.5714 0.816486 21.4167 0.81647H15.5286C13.8432 0.81647 12.3867 1.73084 11.5 3.0977C10.6133 1.73084 9.15685 0.81647 7.47136 0.81647H1.58334C1.56512 0.815571 1.54687 0.815571 1.52865 0.81647ZM2.16667 2.04335H7.47136C9.01601 2.04335 10.3357 3.01363 10.9167 4.41085V17.3027C10.0293 16.3906 8.81297 15.8458 7.47136 15.8458H2.16667V2.04335ZM15.5286 2.04335H20.8333V15.8458H15.5286C14.187 15.8458 12.9707 16.3906 12.0833 17.3027V4.41085C12.6643 3.01363 13.984 2.04335 15.5286 2.04335Z" fill="white" stroke="white" stroke-width="0.5"/>
</svg>
