<svg width="25" height="25" viewBox="0 0 25 25" fill="none" xmlns="http://www.w3.org/2000/svg">
<path d="M10.8157 11.7255L14.953 7.58705C15.1576 7.38253 15.2725 7.10515 15.2725 6.81592C15.2725 6.52669 15.1576 6.2493 14.953 6.04479C14.7485 5.84027 14.4711 5.72538 14.1819 5.72538C13.8927 5.72538 13.6153 5.84027 13.4108 6.04479L7.4087 12.0448C7.30742 12.146 7.22708 12.2663 7.17226 12.3986C7.11745 12.5309 7.08924 12.6727 7.08924 12.8159C7.08924 12.9591 7.11745 13.1009 7.17226 13.2333C7.22708 13.3656 7.30742 13.4858 7.4087 13.587L13.4087 19.587C13.6132 19.7916 13.8906 19.9065 14.1798 19.9065C14.4691 19.9065 14.7464 19.7916 14.951 19.587C15.1555 19.3825 15.2704 19.1051 15.2704 18.8159C15.2704 18.5267 15.1555 18.2493 14.951 18.0448L10.8136 13.9074H22.9137C23.2031 13.9074 23.4806 13.7925 23.6852 13.5879C23.8898 13.3833 24.0047 13.1058 24.0047 12.8164C24.0047 12.5271 23.8898 12.2496 23.6852 12.045C23.4806 11.8404 23.2031 11.7255 22.9137 11.7255H10.8157ZM13.0915 2.99783C13.3808 2.99783 13.6583 2.88289 13.8629 2.6783C14.0675 2.4737 14.1824 2.19621 14.1824 1.90688C14.1824 1.61754 14.0675 1.34005 13.8629 1.13545C13.6583 0.930858 13.3808 0.815919 13.0915 0.815919H2.73183C2.37309 0.815644 2.01781 0.886083 1.68632 1.02321C1.35482 1.16033 1.05361 1.36145 0.799891 1.61507C0.546176 1.86869 0.34494 2.16983 0.207689 2.50127C0.0704377 2.83272 -0.000137037 3.18796 1.99765e-07 3.5467V22.0851C1.73577e-07 22.4438 0.0706685 22.799 0.207968 23.1304C0.345268 23.4618 0.54651 23.7629 0.800197 24.0165C1.05388 24.27 1.35505 24.4712 1.68648 24.6083C2.01792 24.7455 2.37313 24.8161 2.73183 24.8159H13.0904C13.3798 24.8159 13.6573 24.701 13.8619 24.4964C14.0665 24.2918 14.1814 24.0143 14.1814 23.725C14.1814 23.4356 14.0665 23.1581 13.8619 22.9535C13.6573 22.7489 13.3798 22.634 13.0904 22.634H2.73183C2.65966 22.6341 2.58818 22.62 2.52146 22.5925C2.45475 22.565 2.39412 22.5246 2.34304 22.4736C2.29196 22.4226 2.25144 22.3621 2.22379 22.2954C2.19614 22.2288 2.18191 22.1573 2.18191 22.0851V3.5467C2.18178 3.4745 2.19591 3.40298 2.22351 3.33625C2.25111 3.26953 2.29163 3.20892 2.34273 3.15791C2.39384 3.10691 2.45453 3.0665 2.5213 3.03903C2.58807 3.01156 2.65962 2.99756 2.73183 2.99783H13.0915Z" fill="white" fill-opacity="0.45"/>
</svg>
