<svg width="23" height="26" viewBox="0 0 23 26" fill="none" xmlns="http://www.w3.org/2000/svg">
<path d="M5.66667 11.8V7C5.66667 5.4087 6.28125 3.88258 7.37521 2.75736C8.46917 1.63214 9.9529 1 11.5 1C13.0471 1 14.5308 1.63214 15.6248 2.75736C16.7188 3.88258 17.3333 5.4087 17.3333 7V11.8M3.33333 11.8H19.6667C20.9553 11.8 22 12.8745 22 14.2V22.6C22 23.9255 20.9553 25 19.6667 25H3.33333C2.04467 25 1 23.9255 1 22.6V14.2C1 12.8745 2.04467 11.8 3.33333 11.8Z" stroke="#262626" stroke-width="2" stroke-linecap="round" stroke-linejoin="round"/>
</svg>
