<?xml version="1.0" standalone="no"?>
<!DOCTYPE svg PUBLIC "-//W3C//DTD SVG 1.1//EN" "http://www.w3.org/Graphics/SVG/1.1/DTD/svg11.dtd" >
<svg xmlns="http://www.w3.org/2000/svg" xmlns:xlink="http://www.w3.org/1999/xlink" version="1.1">
<metadata>
Created by FontForge 20170731 at Thu Jul 23 15:58:58 2020
 By Aleksey,,,
Copyright (c) 2017 by Timo Gaessner. All rights reserved.
</metadata>
<defs>
<font id="MaisonNeue-ExtraBold" horiz-adv-x="1331" >
  <font-face 
    font-family="Maison Neue ExtraBold"
    font-weight="800"
    font-stretch="normal"
    units-per-em="2048"
    panose-1="2 11 9 4 4 0 0 0 0 0"
    ascent="1638"
    descent="-410"
    x-height="1085"
    cap-height="1434"
    bbox="-1393 -659 4254 2222"
    underline-thickness="204"
    underline-position="-450"
    unicode-range="U+000D-FEFF"
  />
<missing-glyph horiz-adv-x="1431" 
d="M96 856q0 171 80.5 309t217 213.5t300.5 75.5q122 1 233.5 -44t193.5 -123.5t129.5 -191t45.5 -239.5v-866h-57l-133 133l-139 -133l-129 133l-146 -133l-141 133l-129 -133l-137 133l-135 -133h-54v866zM430 743l131 -129l29 29l-131 129l131 131l-29 29l-131 -131
l-129 131l-29 -29l129 -131l-129 -129l29 -29zM963 743l131 -129l28 29l-131 129l131 131l-28 29l-131 -131l-129 131l-29 -29l129 -131l-129 -129l29 -29z" />
    <glyph glyph-name="fi" unicode="fi" horiz-adv-x="1357" 
d="M1229 1270h-303v280h303v-280zM1262 0h-342v803h-355v-803h-342v803h-219v282h219v117q0 149 90.5 232.5t255.5 83.5h224v-283h-148q-80 0 -80 -76v-74h697v-1085z" />
    <glyph glyph-name="fl" unicode="fl" horiz-adv-x="1357" 
d="M1262 1495v-1495h-342v803h-355v-803h-342v803h-219v282h219v117q0 149 90.5 232.5t255.5 83.5h224v-283h-148q-80 0 -80 -76v-74h355v410h342z" />
    <glyph glyph-name="W_W_W" unicode="WWW" horiz-adv-x="4268" 
d="M14 1434h357l176 -883h4l258 883h272l258 -883h4l259 883h270l258 -883h4l258 883h272l258 -883h5l258 883h270l258 -883h4l176 883h361l-305 -1434h-357l-268 877h-4l-268 -877h-252l-269 877h-4l-268 -877h-250l-270 877h-4l-267 -877h-251l-269 877h-4l-268 -877h-359
z" />
    <glyph glyph-name="w_w_w" unicode="www" horiz-adv-x="3770" 
d="M25 1085h342l129 -634h4l198 634h293l199 -634h4l197 634h295l196 -634h4l199 634h293l198 -634h4l197 634h295l197 -634h4l131 634h342l-254 -1085h-348l-217 690h-5l-217 -690h-254l-217 690h-4l-217 -690h-256l-217 690h-4l-217 -690h-254l-217 690h-4l-219 -690h-346
z" />
    <glyph glyph-name=".notdef" horiz-adv-x="1431" 
d="M96 856q0 171 80.5 309t217 213.5t300.5 75.5q122 1 233.5 -44t193.5 -123.5t129.5 -191t45.5 -239.5v-866h-57l-133 133l-139 -133l-129 133l-146 -133l-141 133l-129 -133l-137 133l-135 -133h-54v866zM430 743l131 -129l29 29l-131 129l131 131l-29 29l-131 -131
l-129 131l-29 -29l129 -131l-129 -129l29 -29zM963 743l131 -129l28 29l-131 129l131 131l-28 29l-131 -131l-129 131l-29 -29l129 -131l-129 -129l29 -29z" />
    <glyph glyph-name=".null" horiz-adv-x="0" 
 />
    <glyph glyph-name="nonmarkingreturn" horiz-adv-x="682" 
 />
    <glyph glyph-name="CR" unicode="&#xd;" horiz-adv-x="681" 
 />
    <glyph glyph-name="space" unicode=" " horiz-adv-x="522" 
 />
    <glyph glyph-name="exclam" unicode="!" horiz-adv-x="837" 
d="M244 1434h352v-895h-352v895zM231 365h375v-365h-375v365z" />
    <glyph glyph-name="quotedbl" unicode="&#x22;" horiz-adv-x="974" 
d="M150 1434h276v-531h-276v531zM549 1434h276v-531h-276v531z" />
    <glyph glyph-name="numbersign" unicode="#" horiz-adv-x="1761" 
d="M1339 856l-47 -266h285l-49 -285h-287l-53 -305h-324l54 305h-226l-53 -305h-324l54 305h-281l51 285h281l47 266h-283l49 285h285l51 293h324l-51 -293h225l51 293h324l-51 -293h280l-49 -285h-283zM1016 856h-225l-48 -266h226z" />
    <glyph glyph-name="dollar" unicode="$" 
d="M750 -37v-199h-154v205q-235 25 -376.5 156.5t-172.5 357.5l332 60q23 -121 74.5 -185t142.5 -84v340q-175 56 -269 102.5t-161 125.5q-72 84 -72 211q0 173 140.5 289.5t361.5 125.5v179h154v-183q201 -26 333.5 -142t163.5 -290l-327 -63q-49 145 -170 186v-276
q177 -56 281 -110.5t173 -143.5q78 -96 78 -236q0 -182 -145.5 -299.5t-386.5 -126.5zM596 928v241q-76 -6 -119 -36.5t-43 -79.5q0 -37 39 -65.5t123 -59.5zM942 389q0 55 -47.5 96t-144.5 78v-299q92 4 142 36.5t50 88.5z" />
    <glyph glyph-name="percent" unicode="%" horiz-adv-x="2205" 
d="M465 -57l1028 1677l242 -139l-1028 -1678zM88 1004q0 207 104 327.5t283 120.5t283 -120.5t104 -327.5t-104.5 -328t-282.5 -121t-282.5 121t-104.5 328zM602 1004q0 206 -127 206t-127 -206q0 -205 127 -205t127 205zM1346 430q0 207 104.5 328t282.5 121t281.5 -121
t103.5 -328t-103.5 -327.5t-281.5 -120.5q-179 0 -283 120.5t-104 327.5zM1858 430q0 207 -125 207q-127 0 -127 -207q0 -205 127 -205q61 0 93 52.5t32 152.5z" />
    <glyph glyph-name="ampersand" unicode="&#x26;" horiz-adv-x="1468" 
d="M1235 23l-125 108q-162 -170 -451 -170q-272 0 -421.5 113.5t-149.5 320.5q0 121 67.5 227t186.5 175q-143 134 -143 293q0 166 129 273t331 107q199 0 327.5 -101t148.5 -279l-334 -37q-18 123 -142 123q-57 0 -89.5 -26t-32.5 -69q0 -29 16 -53t59 -61l328 -269v187
h303v-434l209 -172zM866 342l-311 270q-60 -36 -92.5 -81.5t-32.5 -90.5q0 -79 63 -125.5t169 -46.5q136 0 204 74z" />
    <glyph glyph-name="quotesingle" unicode="'" horiz-adv-x="575" 
d="M150 1434h276v-531h-276v531z" />
    <glyph glyph-name="parenleft" unicode="(" horiz-adv-x="772" 
d="M150 604q0 534 417 1008l197 -146q-165 -214 -244 -424q-74 -204 -74 -438t74 -438q79 -210 244 -424l-197 -145q-417 474 -417 1007z" />
    <glyph glyph-name="parenright" unicode=")" horiz-adv-x="772" 
d="M8 -258q167 217 242 424q76 201 76 438t-76 438q-75 207 -242 424l197 146q205 -233 311.5 -488.5t106.5 -519.5q0 -532 -418 -1007z" />
    <glyph glyph-name="asterisk" unicode="*" horiz-adv-x="1019" 
d="M141 770l178 211l-231 131l111 191l202 -119v250h217v-250l203 119l109 -191l-228 -131l177 -211l-164 -143l-205 241l-205 -241z" />
    <glyph glyph-name="plus" unicode="+" horiz-adv-x="1255" 
d="M1167 604h-395v-428h-287v428h-397v266h397v428h287v-428h395v-266z" />
    <glyph glyph-name="comma" unicode="," horiz-adv-x="677" 
d="M162 -156q72 17 98.5 50.5t26.5 105.5h-137v346h378v-295q0 -171 -93.5 -269.5t-272.5 -111.5v174z" />
    <glyph glyph-name="hyphen" unicode="-" horiz-adv-x="712" 
d="M68 743h577v-290h-577v290z" />
    <glyph glyph-name="period" unicode="." horiz-adv-x="673" 
d="M150 365h374v-365h-374v365z" />
    <glyph glyph-name="slash" unicode="/" horiz-adv-x="950" 
d="M-4 -37l762 1602l196 -95l-755 -1597z" />
    <glyph glyph-name="zero" unicode="0" horiz-adv-x="1337" 
d="M41 688q0 215 80.5 380.5t223.5 255t325 89.5q277 0 452.5 -200t175.5 -525t-175.5 -525t-452.5 -200q-182 0 -325 89.5t-223.5 255t-80.5 380.5zM956 688q0 201 -75 306.5t-211 105.5t-211.5 -105.5t-75.5 -306.5t75.5 -306.5t211.5 -105.5t211 105.5t75 306.5z" />
    <glyph glyph-name="one" unicode="1" horiz-adv-x="888" 
d="M387 1020l-350 -197v344l369 209h323v-1376h-342v1020z" />
    <glyph glyph-name="two" unicode="2" horiz-adv-x="1275" 
d="M475 309h709v-309h-1092v219q0 175 88 285q55 66 143.5 120.5t225.5 108.5q185 72 246 120.5t61 121.5q0 66 -50.5 101.5t-141.5 35.5q-106 0 -174.5 -63t-75.5 -168l-336 24q12 230 173.5 369t416.5 139q228 0 379 -125.5t151 -314.5q0 -165 -100 -274.5t-332 -196.5
q-125 -49 -179.5 -77t-80.5 -54q-25 -22 -31 -62z" />
    <glyph glyph-name="three" unicode="3" horiz-adv-x="1290" 
d="M57 459l336 59q23 -132 86 -191t183 -59q206 0 206 160q0 74 -55.5 114t-157.5 40h-141v247h133q91 0 142 35.5t51 98.5q0 66 -52 104.5t-139 38.5q-200 0 -235 -180l-334 55q28 192 185.5 312t383.5 120q230 0 377.5 -114.5t147.5 -294.5q0 -178 -179 -277v-4
q215 -97 215 -332q0 -190 -151.5 -309t-396.5 -119q-258 0 -417 131.5t-188 364.5z" />
    <glyph glyph-name="four" unicode="4" horiz-adv-x="1249" 
d="M711 217h-707v320l502 839h547v-844h170v-315h-170v-217h-342v217zM711 532v615h-4l-363 -615h367z" />
    <glyph glyph-name="five" unicode="5" horiz-adv-x="1249" 
d="M47 338l326 119q61 -181 270 -181q98 0 162.5 53.5t64.5 135.5q0 85 -64 137.5t-167 52.5q-143 0 -252 -100l-311 80l131 741h862v-309h-612l-41 -219l4 -2q115 74 282 74q219 0 364.5 -135t145.5 -334q0 -213 -159 -350.5t-410 -137.5q-221 0 -381.5 101t-214.5 274z
" />
    <glyph glyph-name="six" unicode="6" horiz-adv-x="1257" 
d="M1237 440q0 -209 -157.5 -343t-397.5 -134q-301 0 -471 193t-170 526q0 214 81 380.5t228 258.5t336 92q200 0 340 -98q142 -98 186 -258l-319 -96q-52 141 -207 141q-115 0 -186.5 -75.5t-85.5 -209.5h6q113 98 319 98q211 0 354.5 -136.5t143.5 -338.5zM901 463
q0 87 -63 139.5t-166 52.5q-101 0 -165.5 -52.5t-64.5 -139.5q0 -86 64 -137.5t172 -51.5q101 0 162 51t61 138z" />
    <glyph glyph-name="seven" unicode="7" horiz-adv-x="1099" 
d="M682 1057v4h-676v315h1067v-289l-545 -1087h-391z" />
    <glyph glyph-name="eight" unicode="8" horiz-adv-x="1261" 
d="M16 395q0 120 73 217t187 136v4q-184 86 -184 274q0 164 151.5 275.5t387.5 111.5q234 0 385 -111.5t151 -275.5q0 -188 -182 -274v-4q114 -39 186 -136t72 -217q0 -129 -82 -228.5t-221 -151.5t-309 -52q-171 0 -310.5 52t-222 151.5t-82.5 228.5zM827 993q0 66 -54 105
t-142 39q-90 0 -144.5 -40t-54.5 -104q0 -63 55.5 -102t143.5 -39t142 39t54 102zM866 426q0 73 -64 119.5t-171 46.5t-172.5 -46.5t-65.5 -119.5q0 -72 64 -113t174 -41t172.5 41t62.5 113z" />
    <glyph glyph-name="nine" unicode="9" horiz-adv-x="1230" 
d="M1192 737q0 -390 -147 -582t-441 -192q-190 0 -329 92t-195 252l307 111q29 -81 82 -118.5t135 -37.5q107 0 169.5 73t72.5 214h-4q-107 -88 -293 -88q-238 0 -383.5 127t-145.5 336q0 215 158.5 352t403.5 137q282 0 446 -181.5t164 -494.5zM590 727q109 0 172 51.5
t63 143.5q0 87 -64.5 138.5t-170.5 51.5q-109 0 -173.5 -51t-64.5 -139q0 -92 63.5 -143.5t174.5 -51.5z" />
    <glyph glyph-name="colon" unicode=":" horiz-adv-x="673" 
d="M150 1008h374v-365h-374v365zM150 365h374v-365h-374v365z" />
    <glyph glyph-name="semicolon" unicode=";" horiz-adv-x="677" 
d="M162 -156q72 17 98.5 50.5t26.5 105.5h-137v346h378v-295q0 -171 -93.5 -269.5t-272.5 -111.5v174zM152 1008h374v-365h-374v365z" />
    <glyph glyph-name="less" unicode="&#x3c;" horiz-adv-x="1130" 
d="M88 612v207l797 477l157 -254l-567 -325l567 -324l-157 -256z" />
    <glyph glyph-name="equal" unicode="=" horiz-adv-x="1150" 
d="M88 1053h975v-269h-975v269zM88 627h975v-269h-975v269z" />
    <glyph glyph-name="greater" unicode="&#x3e;" horiz-adv-x="1130" 
d="M88 393l567 324l-567 325l158 254l796 -477v-207l-796 -475z" />
    <glyph glyph-name="question" unicode="?" horiz-adv-x="1314" 
d="M465 596q0 85 43 145t147 123q104 62 139 96.5t35 77.5q0 55 -44.5 88t-116.5 33q-92 0 -147.5 -59.5t-59.5 -165.5l-352 20q6 232 161.5 375.5t403.5 143.5q143 0 260 -53.5t183.5 -147t66.5 -207.5q0 -107 -62 -188.5t-196 -161.5q-86 -54 -114 -90t-28 -90v-48h-319
v109zM442 365h375v-365h-375v365z" />
    <glyph glyph-name="at" unicode="@" horiz-adv-x="1587" 
d="M88 592q-3 214 93 389.5t261.5 273.5t362.5 95q153 0 282 -52t219 -144.5t140.5 -224.5t50.5 -288q0 -465 -305 -465q-139 0 -201 100h-4q-38 -47 -99.5 -73.5t-133.5 -26.5q-132 0 -206.5 64t-74.5 170q0 99 57 158t185 91q105 25 139.5 46t34.5 53q0 25 -22 41t-60 16
q-48 0 -79.5 -28t-41.5 -82l-211 53q23 117 112 186.5t218 69.5q148 0 231.5 -85.5t83.5 -234.5v-227q0 -51 17 -74.5t55 -23.5q46 0 72 68t26 204q0 233 -130.5 377.5t-354.5 144.5q-147 0 -264 -76t-181.5 -206.5t-64.5 -288.5q0 -274 130.5 -418.5t367.5 -144.5
q97 0 176 17.5t172 59.5l71 -178q-113 -47 -207 -66.5t-212 -19.5q-330 0 -517.5 198.5t-187.5 551.5zM885 465v100h-2q-4 -13 -24 -23.5t-89 -35.5q-65 -24 -65 -72q0 -59 71 -59q47 0 78 26t31 64z" />
    <glyph glyph-name="A" unicode="A" horiz-adv-x="1314" 
d="M918 203h-521l-65 -203h-348l501 1434h342l504 -1434h-348zM821 502l-162 497h-4l-161 -497h327z" />
    <glyph glyph-name="B" unicode="B" horiz-adv-x="1320" 
d="M129 1434h643q194 0 318 -108.5t124 -278.5q0 -85 -38.5 -155.5t-106.5 -113.5v-4q92 -44 144.5 -132t52.5 -198q0 -223 -139.5 -333.5t-421.5 -110.5h-576v1434zM717 874q72 0 109.5 34.5t37.5 97.5q0 127 -147 127h-242v-259h242zM750 301q87 0 127.5 37t40.5 117
q0 73 -43 112t-125 39h-275v-305h275z" />
    <glyph glyph-name="C" unicode="C" horiz-adv-x="1312" 
d="M41 715q0 340 179 547.5t472 207.5q235 0 401.5 -146t194.5 -374l-340 -59q-20 124 -86.5 190t-169.5 66q-140 0 -219.5 -115t-79.5 -317q0 -201 79.5 -314.5t219.5 -113.5q106 0 173 70t87 204l340 -59q-28 -242 -194 -390.5t-406 -148.5q-295 0 -473 206.5t-178 545.5z
" />
    <glyph glyph-name="D" unicode="D" horiz-adv-x="1333" 
d="M129 1434h539q132 0 245 -46.5t198 -135t133 -225.5t48 -308q0 -183 -48.5 -322.5t-135 -225t-200 -128.5t-249.5 -43h-530v1434zM643 324q297 0 297 395q0 197 -77 294t-220 97h-162v-786h162z" />
    <glyph glyph-name="E" unicode="E" horiz-adv-x="1157" 
d="M129 1434h948v-322h-596v-240h545v-294h-545v-256h600v-322h-952v1434z" />
    <glyph glyph-name="F" unicode="F" horiz-adv-x="1138" 
d="M129 1434h944v-324h-592v-313h563v-305h-563v-492h-352v1434z" />
    <glyph glyph-name="G" unicode="G" horiz-adv-x="1323" 
d="M41 715q-2 220 79.5 393t231.5 269t342 93q228 0 394 -140t194 -359l-336 -58q-23 111 -88.5 172.5t-163.5 61.5q-141 0 -221 -114t-80 -318t80.5 -316t231.5 -112q110 0 172 58t67 163h-248v264h578v-201q0 -276 -158.5 -442t-421.5 -166q-195 0 -343 93t-229 264
t-81 395z" />
    <glyph glyph-name="H" unicode="H" horiz-adv-x="1380" 
d="M129 1434h352v-537h416v537h352v-1434h-352v573h-416v-573h-352v1434z" />
    <glyph glyph-name="I" unicode="I" horiz-adv-x="612" 
d="M129 1434h352v-1434h-352v1434z" />
    <glyph glyph-name="J" unicode="J" horiz-adv-x="1173" 
d="M35 449l342 34q11 -106 49 -151t119 -45q157 0 157 202v945h353v-977q0 -223 -143 -358.5t-367 -135.5q-229 0 -363.5 127t-146.5 359z" />
    <glyph glyph-name="K" unicode="K" horiz-adv-x="1353" 
d="M129 1434h352v-553h4l437 553h411l-518 -633l555 -801h-422l-346 535h-4l-117 -144v-391h-352v1434z" />
    <glyph glyph-name="L" unicode="L" horiz-adv-x="1105" 
d="M129 1434h352v-1110h588v-324h-940v1434z" />
    <glyph glyph-name="M" unicode="M" horiz-adv-x="1800" 
d="M129 1434h397l371 -916h4l373 916h395v-1434h-344v829h-4l-338 -829h-166l-338 829h-4v-829h-346v1434z" />
    <glyph glyph-name="N" unicode="N" horiz-adv-x="1421" 
d="M129 1434h350l457 -842h4v842h352v-1434h-350l-457 842h-4v-842h-352v1434z" />
    <glyph glyph-name="O" unicode="O" horiz-adv-x="1398" 
d="M41 715q-3 219 80 392.5t234 269.5t343 93q145 0 268 -55t209 -153t134.5 -239t48.5 -308q0 -222 -83 -393t-233 -265t-344 -94q-293 0 -475 208t-182 544zM1006 715q0 201 -83 316.5t-225 115.5q-140 0 -222.5 -115.5t-82.5 -316.5q0 -200 81.5 -314t223.5 -114t225 114
t83 314z" />
    <glyph glyph-name="P" unicode="P" horiz-adv-x="1267" 
d="M129 1434h604q238 0 374 -130.5t136 -363.5t-135.5 -362t-376.5 -129h-250v-449h-352v1434zM709 766q83 0 132.5 46.5t49.5 131.5q0 172 -178 172h-232v-350h228z" />
    <glyph glyph-name="Q" unicode="Q" horiz-adv-x="1404" 
d="M1196 -37l-117 119q-162 -119 -381 -119q-293 0 -475 208t-182 544q-3 219 80 392.5t234 269.5t343 93q145 0 268 -55t209 -153t134.5 -239t48.5 -308q0 -271 -121 -463l127 -129zM842 324l-238 241l172 154l203 -205q27 95 27 201q0 201 -83 316.5t-225 115.5
q-140 0 -222.5 -115.5t-82.5 -316.5q0 -200 81.5 -314t223.5 -114q83 0 144 37z" />
    <glyph glyph-name="R" unicode="R" horiz-adv-x="1304" 
d="M1262 0h-377l-242 467h-162v-467h-352v1434h606q236 0 370 -127t134 -355q0 -155 -67.5 -268.5t-190.5 -169.5v-2zM887 952q0 164 -193 164h-213v-334h213q92 0 142.5 44t50.5 126z" />
    <glyph glyph-name="S" unicode="S" horiz-adv-x="1230" 
d="M27 485l333 60q26 -147 95.5 -212t199.5 -65q96 0 149.5 33t53.5 90q0 67 -66 112t-260 113q-244 85 -348 185t-104 250q0 184 144.5 301.5t369.5 117.5q222 0 379.5 -121.5t191.5 -318.5l-334 -63q-53 198 -237 198q-78 0 -124 -30.5t-46 -81.5q0 -47 61 -84t244 -97
q250 -86 362.5 -200.5t112.5 -282.5q0 -191 -152 -308.5t-401 -117.5q-266 0 -429 136t-195 386z" />
    <glyph glyph-name="T" unicode="T" horiz-adv-x="1239" 
d="M444 1110h-407v324h1165v-324h-405v-1110h-353v1110z" />
    <glyph glyph-name="U" unicode="U" horiz-adv-x="1384" 
d="M119 481v953h352v-924q0 -117 52.5 -170t168.5 -53q115 0 168 54t53 167v926h353v-953q0 -246 -151 -382t-423 -136q-275 0 -424 135t-149 383z" />
    <glyph glyph-name="V" unicode="V" horiz-adv-x="1339" 
d="M-16 1434h360l324 -983h4l323 983h363l-506 -1434h-365z" />
    <glyph glyph-name="W" unicode="W" horiz-adv-x="1888" 
d="M14 1434h357l176 -883h4l258 883h270l258 -883h4l177 883h358l-303 -1434h-356l-271 877h-4l-266 -877h-359z" />
    <glyph glyph-name="X" unicode="X" horiz-adv-x="1298" 
d="M444 729l-438 705h400l241 -441h4l244 441h399l-440 -705l451 -729h-400l-254 465h-4l-256 -465h-397z" />
    <glyph glyph-name="Y" unicode="Y" horiz-adv-x="1288" 
d="M469 584l-496 850h389l279 -531h6l281 531h389l-496 -850v-584h-352v584z" />
    <glyph glyph-name="Z" unicode="Z" horiz-adv-x="1202" 
d="M66 291l624 815v4h-606v324h1053v-291l-625 -815v-4h625v-324h-1071v291z" />
    <glyph glyph-name="bracketleft" unicode="[" horiz-adv-x="661" 
d="M129 1495h524v-262h-250v-1342h250v-264h-524v1868z" />
    <glyph glyph-name="backslash" unicode="\" horiz-adv-x="950" 
d="M-4 1470l197 95l761 -1602l-202 -90z" />
    <glyph glyph-name="bracketright" unicode="]" horiz-adv-x="661" 
d="M8 -373v264h250v1342h-250v262h524v-1868h-524z" />
    <glyph glyph-name="asciicircum" unicode="^" horiz-adv-x="1355" 
d="M909 666l-231 530l-232 -530h-337l362 768h414l360 -768h-336z" />
    <glyph glyph-name="underscore" unicode="_" horiz-adv-x="1230" 
d="M68 -129h1095v-250h-1095v250z" />
    <glyph glyph-name="grave" unicode="`" horiz-adv-x="710" 
d="M88 1505h336l197 -297h-271z" />
    <glyph glyph-name="a" unicode="a" horiz-adv-x="1075" 
d="M53 301q0 131 88.5 211t284.5 127q137 32 187.5 59t50.5 68t-35.5 63.5t-98.5 22.5q-153 0 -180 -166l-303 64q25 164 159.5 268t323.5 104q210 0 337.5 -115.5t127.5 -304.5v-702h-297v90h-4q-32 -57 -104.5 -89t-169.5 -32q-170 0 -268.5 89t-98.5 243zM670 375v133h-4
q-11 -23 -41 -40.5t-97 -37.5q-84 -25 -117.5 -49.5t-33.5 -61.5q0 -79 110 -79q75 0 129 40t54 95z" />
    <glyph glyph-name="b" unicode="b" horiz-adv-x="1243" 
d="M414 102h-4v-102h-314v1495h342v-483h4q47 50 118 77t153 27q134 3 246 -72.5t175.5 -208t61.5 -290.5q0 -248 -135.5 -409t-347.5 -161q-92 0 -170.5 33.5t-128.5 93.5zM854 543q0 127 -56 195.5t-159 68.5q-87 0 -144 -55.5t-57 -139.5v-129q0 -88 56.5 -144t144.5 -56
q102 0 158.5 68.5t56.5 191.5z" />
    <glyph glyph-name="c" unicode="c" horiz-adv-x="1136" 
d="M47 543q0 254 154 416.5t391 162.5q202 0 339 -113t169 -304l-320 -60q-14 82 -62 125t-126 43q-94 0 -148.5 -71.5t-54.5 -198.5t54.5 -199t148.5 -72q78 0 126 43t62 125l320 -59q-32 -191 -169 -304.5t-339 -113.5q-237 0 -391 163t-154 417z" />
    <glyph glyph-name="d" unicode="d" horiz-adv-x="1243" 
d="M47 545q-2 158 61.5 290.5t175.5 208t246 72.5q82 0 153 -27t118 -77h4v483h342v-1495h-313v102h-5q-50 -60 -128.5 -93.5t-170.5 -33.5q-212 0 -347.5 161t-135.5 409zM805 483v129q0 84 -57 139.5t-144 55.5q-103 0 -159 -68.5t-56 -195.5q0 -123 56.5 -191.5
t158.5 -68.5q88 0 144.5 56t56.5 144z" />
    <glyph glyph-name="e" unicode="e" horiz-adv-x="1165" 
d="M47 541q0 168 68.5 300.5t190.5 206.5t276 74q238 0 387 -160.5t149 -418.5v-97h-733q6 -100 61.5 -153t153.5 -53q140 0 252 147l221 -197q-184 -227 -473 -227q-249 0 -401 158.5t-152 419.5zM795 670q-8 88 -60.5 136t-144.5 48q-85 0 -140.5 -49t-62.5 -135h408z" />
    <glyph glyph-name="f" unicode="f" horiz-adv-x="854" 
d="M223 803h-219v282h219v117q0 149 90.5 232.5t255.5 83.5h224v-283h-148q-80 0 -80 -76v-74h287v-282h-287v-803h-342v803z" />
    <glyph glyph-name="g" unicode="g" horiz-adv-x="1226" 
d="M96 -240l240 189q67 -86 129.5 -122t144.5 -36q99 0 156 61.5t57 167.5v84h-4q-41 -54 -117.5 -84t-169.5 -30q-211 0 -348 161t-137 408q0 152 64.5 277.5t177 197.5t248.5 72q173 0 282 -115h4v94h326v-1073q0 -230 -148 -370t-391 -140q-161 0 -296.5 68t-217.5 190z
M807 492v124q0 78 -57 130.5t-142 52.5q-100 0 -159.5 -65t-59.5 -175q0 -123 57.5 -192.5t157.5 -69.5q91 0 147 53.5t56 141.5z" />
    <glyph glyph-name="h" unicode="h" horiz-adv-x="1202" 
d="M96 1495h342v-504h4q42 59 117.5 92t167.5 33q180 0 287 -110q108 -111 108 -291v-715h-342v635q0 82 -45 128t-123 46q-81 0 -127.5 -47t-46.5 -127v-635h-342v1495z" />
    <glyph glyph-name="i" unicode="i" horiz-adv-x="532" 
d="M96 1085h342v-1085h-342v1085zM100 1563h330v-308h-330v308z" />
    <glyph glyph-name="j" unicode="j" horiz-adv-x="550" 
d="M-106 -129h131q49 0 69.5 17.5t20.5 60.5v1136h342v-1153q0 -199 -91.5 -287.5t-297.5 -88.5h-174v315zM121 1563h330v-308h-330v308z" />
    <glyph glyph-name="k" unicode="k" horiz-adv-x="1208" 
d="M96 1495h342v-795h4l316 385h432l-395 -436l389 -649h-393l-220 416h-4l-129 -150v-266h-342v1495z" />
    <glyph glyph-name="l" unicode="l" horiz-adv-x="532" 
d="M96 1495h342v-1495h-342v1495z" />
    <glyph glyph-name="m" unicode="m" horiz-adv-x="1755" 
d="M96 1085h318v-98h4q49 61 124 95t160 34q83 0 161 -36t120 -95h4q107 131 295 131q176 0 285.5 -111t109.5 -284v-721h-331v653q0 73 -41 116.5t-109 43.5q-69 0 -110.5 -44t-41.5 -118v-651h-315v653q0 73 -40.5 116.5t-108.5 43.5q-69 0 -110.5 -44t-41.5 -118v-651
h-332v1085z" />
    <glyph glyph-name="n" unicode="n" horiz-adv-x="1202" 
d="M96 1085h326v-98h4q51 63 128.5 96t170.5 33q180 0 288.5 -117t108.5 -309v-690h-342v635q0 82 -45 128t-123 46q-81 0 -127.5 -47t-46.5 -127v-635h-342v1085z" />
    <glyph glyph-name="o" unicode="o" horiz-adv-x="1208" 
d="M47 541q0 256 155 418.5t400 162.5t402 -162.5t157 -418.5q0 -254 -157 -416t-402 -162t-400 161.5t-155 416.5zM819 541q0 129 -56 200.5t-159 71.5t-159 -71.5t-56 -200.5q0 -128 56 -198.5t159 -70.5t159 70.5t56 198.5z" />
    <glyph glyph-name="p" unicode="p" horiz-adv-x="1243" 
d="M96 1085h324v-90h4q112 115 285 115q211 0 349 -161t138 -404q0 -251 -133.5 -413.5t-343.5 -162.5q-175 0 -277 111h-4v-541h-342v1546zM854 543q0 122 -56.5 190t-158.5 68q-86 0 -143.5 -56t-57.5 -141v-127q0 -88 56.5 -144.5t144.5 -56.5q103 0 159 69.5t56 197.5z
" />
    <glyph glyph-name="q" unicode="q" horiz-adv-x="1243" 
d="M805 -461v541h-4q-102 -111 -277 -111q-210 0 -343.5 162.5t-133.5 413.5q0 242 138.5 403.5t349.5 161.5q172 0 284 -115h4v90h324v-1546h-342zM805 477v127q0 85 -57.5 141t-143.5 56q-102 0 -158.5 -68t-56.5 -190q0 -128 56 -197.5t159 -69.5q88 0 144.5 56.5
t56.5 144.5z" />
    <glyph glyph-name="r" unicode="r" horiz-adv-x="808" 
d="M96 1085h322v-98h4q37 59 102 90t142 31q51 0 133 -16l-47 -320q-58 10 -111 10q-203 0 -203 -243v-539h-342v1085z" />
    <glyph glyph-name="s" unicode="s" horiz-adv-x="1028" 
d="M27 342l295 76q26 -98 80 -141.5t151 -43.5q64 0 98.5 18.5t34.5 53.5q0 40 -42.5 64t-168.5 61q-213 62 -306 140t-93 210q0 148 122 245t310 97q178 0 303 -94q125 -91 160 -248l-289 -65q-46 141 -182 141q-51 0 -83 -20.5t-32 -51.5q0 -29 38.5 -48.5t147.5 -49.5
q227 -65 327.5 -149t100.5 -226q0 -154 -124 -251t-322 -97q-214 0 -351 98t-175 281z" />
    <glyph glyph-name="t" unicode="t" horiz-adv-x="837" 
d="M539 803v-393q0 -51 22.5 -72t79.5 -21h121v-317h-164q-210 0 -305.5 90.5t-95.5 286.5v426h-193v282h193v281h342v-281h264v-282h-264z" />
    <glyph glyph-name="u" unicode="u" horiz-adv-x="1183" 
d="M76 371v714h342v-634q0 -172 160 -172q77 0 122 46.5t45 125.5v634h342v-1085h-325v102h-4q-103 -133 -295 -133q-184 0 -285.5 105.5t-101.5 296.5z" />
    <glyph glyph-name="v" unicode="v" horiz-adv-x="1206" 
d="M-6 1085h364l244 -643h4l242 643h364l-456 -1085h-305z" />
    <glyph glyph-name="w" unicode="w" horiz-adv-x="1689" 
d="M25 1085h342l129 -634h4l198 634h293l199 -634h4l129 634h342l-254 -1085h-346l-217 690h-4l-219 -690h-346z" />
    <glyph glyph-name="x" unicode="x" horiz-adv-x="1153" 
d="M369 549l-377 536h405l178 -303h5l180 303h401l-375 -536l383 -549h-401l-188 315h-5l-186 -315h-405z" />
    <glyph glyph-name="y" unicode="y" horiz-adv-x="1196" 
d="M424 53l-430 1032h366l238 -641h4l236 641h364l-635 -1546h-356z" />
    <glyph glyph-name="z" unicode="z" horiz-adv-x="1095" 
d="M45 252l512 532v4h-504v297h965v-251l-512 -533v-4h545v-297h-1006v252z" />
    <glyph glyph-name="braceleft" unicode="{" horiz-adv-x="788" 
d="M258 -47v326q0 69 -23.5 94.5t-89.5 25.5h-57v365h57q66 0 89.5 26t23.5 95v284q0 177 79 251.5t269 74.5h176v-272h-139q-63 0 -88 -30.5t-25 -105.5v-296q0 -87 -53 -147t-131 -60v-4q78 0 131 -60t53 -147v-336q0 -75 25 -105t88 -30h139v-275h-176q-190 0 -269 74.5
t-79 251.5z" />
    <glyph glyph-name="bar" unicode="|" horiz-adv-x="563" 
d="M170 1587h223v-2201h-223v2201z" />
    <glyph glyph-name="braceright" unicode="}" horiz-adv-x="788" 
d="M6 -373v275h139q63 0 88 30t25 105v336q0 87 53 147t131 60v4q-78 0 -131 60t-53 147v296q0 75 -25 105.5t-88 30.5h-139v272h176q190 0 269 -74.5t79 -251.5v-284q0 -69 23.5 -95t89.5 -26h57v-365h-57q-66 0 -89.5 -25.5t-23.5 -94.5v-326q0 -177 -79 -251.5
t-269 -74.5h-176z" />
    <glyph glyph-name="asciitilde" unicode="~" horiz-adv-x="1470" 
d="M88 590q105 360 414 360q67 0 130.5 -23t160.5 -75q65 -35 97 -48t60 -13q84 0 140 159l292 -119q-105 -360 -413 -360q-66 0 -125 21t-166 75q-66 35 -98.5 48.5t-59.5 13.5q-86 0 -139 -158z" />
    <glyph glyph-name="uni00A0" unicode="&#xa0;" horiz-adv-x="522" 
 />
    <glyph glyph-name="exclamdown" unicode="&#xa1;" horiz-adv-x="673" 
d="M524 1085v-364h-374v364h374zM514 547v-895h-352v895h352z" />
    <glyph glyph-name="cent" unicode="&#xa2;" horiz-adv-x="1257" 
d="M887 436l313 -57q-31 -171 -153 -280.5t-306 -129.5v-205h-153v201q-231 22 -375.5 181.5t-144.5 396.5t144.5 396t375.5 181v178h153v-182q184 -20 306 -129t153 -280l-313 -58q-30 125 -146 160v-533q119 35 146 160zM588 270v545q-88 -20 -137.5 -91t-49.5 -181
t49.5 -181.5t137.5 -91.5z" />
    <glyph glyph-name="sterling" unicode="&#xa3;" horiz-adv-x="1302" 
d="M639 324h594v-324h-1124v324h63q97 0 154 46.5t57 127.5q0 40 -8 59h-266v256h120q-84 128 -84 234q0 193 147.5 308t395.5 115q234 0 387 -112q157 -114 191 -307l-342 -76q-40 172 -236 172q-81 0 -130.5 -39t-49.5 -102q0 -38 17 -78t61 -115h407v-256h-291
q7 -31 7 -61q0 -104 -70 -168v-4z" />
    <glyph glyph-name="currency" unicode="&#xa4;" horiz-adv-x="1157" 
d="M971 377l137 -137l-96 -97l-138 133q-124 -100 -294 -100q-171 0 -301 103l-134 -136l-98 97l139 139q-86 127 -86 297q0 164 84 295l-137 135l98 96l129 -131q128 107 306 107q175 0 303 -107l131 131l96 -96l-137 -135q86 -127 86 -295t-88 -299zM756 674
q0 110 -44.5 167.5t-129.5 57.5q-181 0 -181 -225q0 -106 46.5 -162.5t134.5 -56.5q85 0 129.5 56.5t44.5 162.5z" />
    <glyph glyph-name="yen" unicode="&#xa5;" horiz-adv-x="1329" 
d="M915 711h308v-222h-381v-88h381v-221h-381v-180h-353v180h-385v221h385v88h-385v222h312l-422 723h389l279 -531h6l280 531h389z" />
    <glyph glyph-name="brokenbar" unicode="&#xa6;" horiz-adv-x="563" 
d="M170 1587h223v-870h-223v870zM170 256h223v-870h-223v870z" />
    <glyph glyph-name="section" unicode="&#xa7;" horiz-adv-x="1341" 
d="M1149 -27q0 -165 -131.5 -279t-325.5 -114q-203 0 -332.5 108t-146.5 289l328 37q21 -141 149 -141q57 0 89 26t32 70q0 49 -41 76q-41 30 -162 82l-219 90q-135 57 -197.5 129t-62.5 170q0 93 42.5 166t133.5 139q-115 106 -115 258q0 166 131.5 278.5t327.5 112.5
q203 0 332.5 -108t146.5 -289l-329 -37q-21 144 -148 144q-56 0 -89.5 -27t-33.5 -70q0 -48 39 -77q40 -29 166 -82l219 -90q134 -55 196 -127.5t62 -171.5q0 -186 -176 -306q115 -106 115 -256zM817 358q52 36 73 64t21 63q0 32 -31 57t-114 56l-240 96q-54 -35 -75 -63.5
t-21 -65.5q0 -31 30 -54t115 -58z" />
    <glyph glyph-name="dieresis" unicode="&#xa8;" horiz-adv-x="901" 
d="M88 1468h283v-280h-283v280zM528 1468h285v-280h-285v280z" />
    <glyph glyph-name="copyright" unicode="&#xa9;" horiz-adv-x="1406" 
d="M68 662q-3 173 79 318t229 229t326 81q133 2 252.5 -47t204.5 -133.5t133.5 -201.5t46.5 -246q2 -129 -46.5 -246.5t-133.5 -202t-204.5 -133.5t-252.5 -47q-179 -3 -326 81t-229 229.5t-79 318.5zM1167 662q0 199 -131 336t-334 137q-201 0 -331.5 -137t-130.5 -336
q0 -130 58 -238.5t164.5 -172t239.5 -63.5q132 0 239 64t166.5 172.5t59.5 237.5zM383 664q0 158 90 262q90 100 238 100q124 0 208.5 -73.5t96.5 -190.5l-182 -33q-11 62 -41.5 91.5t-87.5 29.5q-62 0 -96 -48t-34 -138t34 -138.5t96 -48.5q57 0 87.5 29.5t41.5 91.5
l182 -33q-12 -117 -96.5 -190.5t-208.5 -73.5q-148 0 -238 100q-90 104 -90 263z" />
    <glyph glyph-name="ordfeminine" unicode="&#xaa;" horiz-adv-x="575" 
d="M20 1018q0 73 52.5 117t169.5 69q61 12 83.5 24t22.5 32q0 38 -65 38q-86 0 -101 -79l-168 36q13 86 87.5 139.5t177.5 53.5q116 0 183.5 -62t67.5 -167v-351h-159v47h-2q-39 -61 -154 -61q-88 0 -141.5 45t-53.5 119zM354 1073v51h-2q-6 -22 -71 -37
q-45 -11 -64.5 -22.5t-19.5 -28.5q0 -35 61 -35q41 0 68.5 20.5t27.5 51.5z" />
    <glyph glyph-name="guillemotleft" unicode="&#xab;" horiz-adv-x="1159" 
d="M547 561l229 397h295l-237 -397l237 -399h-295zM109 561l229 397h295l-238 -397l238 -399h-295z" />
    <glyph glyph-name="logicalnot" unicode="&#xac;" horiz-adv-x="1380" 
d="M940 625h-852v323h1204v-682h-352v359z" />
    <glyph glyph-name="uni00AD" unicode="&#xad;" horiz-adv-x="712" 
d="M68 743h577v-290h-577v290z" />
    <glyph glyph-name="registered" unicode="&#xae;" horiz-adv-x="1406" 
d="M1339 662q2 -129 -46.5 -246.5t-133.5 -202t-204.5 -133.5t-252.5 -47q-179 -3 -326 81t-229 229.5t-79 318.5q-3 173 79 318t229 229t326 81q133 2 252.5 -47t204.5 -133.5t133.5 -201.5t46.5 -246zM1167 662q0 199 -131 336t-334 137q-201 0 -331.5 -137t-130.5 -336
q0 -130 58 -238.5t164.5 -172t239.5 -63.5q132 0 239 64t166.5 172.5t59.5 237.5zM862 571l127 -252h-194l-105 236h-49v-236h-180v695h293q121 0 187.5 -60.5t66.5 -167.5q0 -78 -38.5 -134t-107.5 -81zM643 705h100q82 0 82 81q0 74 -82 74h-100v-155z" />
    <glyph glyph-name="macron" unicode="&#xaf;" horiz-adv-x="860" 
d="M88 1411h684v-203h-684v203z" />
    <glyph glyph-name="degree" unicode="&#xb0;" horiz-adv-x="948" 
d="M47 1049q0 169 122 282t306 113q182 0 304 -114t122 -281q0 -170 -121.5 -284t-304.5 -114q-184 0 -306 113.5t-122 284.5zM643 1049q0 72 -46.5 115.5t-121.5 43.5t-121.5 -43.5t-46.5 -115.5q0 -73 46.5 -117.5t121.5 -44.5t121.5 44.5t46.5 117.5z" />
    <glyph glyph-name="plusminus" unicode="&#xb1;" horiz-adv-x="1257" 
d="M1167 1069v-268h-395v-338h-287v338h-397v268h397v338h287v-338h395zM90 344h1077v-272h-1077v272z" />
    <glyph glyph-name="acute" unicode="&#xb4;" horiz-adv-x="710" 
d="M287 1505h334l-261 -297h-272z" />
    <glyph glyph-name="paragraph" unicode="&#xb6;" horiz-adv-x="1464" 
d="M354 764q-140 3 -233.5 97t-93.5 239q0 153 93 243.5t242 90.5h953v-1713h-352v1387h-256v-1387h-353v1043z" />
    <glyph glyph-name="periodcentered" unicode="&#xb7;" horiz-adv-x="550" 
d="M90 952h375v-364h-375v364z" />
    <glyph glyph-name="cedilla" unicode="&#xb8;" horiz-adv-x="690" 
d="M596 -287q0 -109 -71 -175t-187 -66q-143 0 -250 82l102 155q74 -51 134 -51q38 0 61 19.5t23 50.5q0 29 -22.5 47t-57.5 18q-56 0 -103 -41l-125 51l158 277l121 -68l-47 -80q6 2 24 2q108 0 174 -61t66 -160z" />
    <glyph glyph-name="ordmasculine" unicode="&#xba;" horiz-adv-x="636" 
d="M14 1151q0 131 85 214t220 83q133 0 220 -84q86 -83 86 -213q0 -132 -86 -215q-85 -82 -220 -82t-220 83t-85 214zM422 1151q0 56 -28 88.5t-75 32.5q-49 0 -76.5 -32.5t-27.5 -88.5t27.5 -88.5t76.5 -32.5q47 0 75 32.5t28 88.5z" />
    <glyph glyph-name="guillemotright" unicode="&#xbb;" horiz-adv-x="1159" 
d="M88 162l238 399l-238 397h295l229 -397l-229 -399h-295zM526 162l238 399l-238 397h295l230 -397l-230 -399h-295z" />
    <glyph glyph-name="onequarter" unicode="&#xbc;" horiz-adv-x="1728" 
d="M227 1188l-200 -115v236l219 125h205v-861h-224v615zM195 -63l1011 1665l201 -117l-1012 -1663zM1391 147h-422v207l299 506h348v-506h98v-207h-98v-147h-225v147zM1391 354v344h-2l-199 -344h201z" />
    <glyph glyph-name="onehalf" unicode="&#xbd;" horiz-adv-x="1800" 
d="M227 1188l-200 -115v236l219 125h205v-861h-224v615zM195 -63l1011 1665l201 -117l-1012 -1663zM1327 211h420v-211h-662v150q0 114 58 184q59 74 217 135q104 38 137 64t33 67q0 35 -29 56.5t-78 21.5q-56 0 -91.5 -35t-39.5 -96l-223 14q8 142 105 230t249 88
q147 0 239.5 -79t92.5 -204q0 -96 -62.5 -163t-199.5 -118q-124 -47 -147 -67q-16 -16 -19 -37z" />
    <glyph glyph-name="threequarters" unicode="&#xbe;" horiz-adv-x="1916" 
d="M35 854l209 49q12 -80 46.5 -115.5t100.5 -35.5q51 0 80 23.5t29 64.5q0 39 -30 62.5t-83 23.5h-78v166h74q102 0 102 82q0 38 -27.5 59.5t-74.5 21.5q-108 0 -129 -108l-207 37q19 122 110 195t226 73t223 -70t88 -178q0 -123 -100 -176v-2q60 -31 93.5 -85t33.5 -118
q0 -123 -88 -195.5t-240 -72.5q-149 0 -243.5 79t-114.5 220zM383 -63l1012 1665l200 -117l-1011 -1663zM1579 147h-422v207l299 506h348v-506h99v-207h-99v-147h-225v147zM1579 354v344h-2l-199 -344h201z" />
    <glyph glyph-name="questiondown" unicode="&#xbf;" horiz-adv-x="1314" 
d="M872 721h-374v364h374v-364zM850 489q0 -84 -43 -144.5t-148 -123.5q-104 -61 -139 -96t-35 -78q0 -55 44.5 -88t117.5 -33q92 0 147.5 60t59.5 166l352 -21q-6 -232 -161.5 -375t-403.5 -143q-218 0 -364 117t-146 290q0 108 62 189.5t196 161.5q85 53 113 89t28 91v47
h320v-109z" />
    <glyph glyph-name="Agrave" unicode="&#xc0;" horiz-adv-x="1314" 
d="M918 203h-521l-65 -203h-348l501 1434h342l504 -1434h-348zM821 502l-162 497h-4l-161 -497h327zM291 1853h336l196 -297h-270z" />
    <glyph glyph-name="Aacute" unicode="&#xc1;" horiz-adv-x="1314" 
d="M918 203h-521l-65 -203h-348l501 1434h342l504 -1434h-348zM821 502l-162 497h-4l-161 -497h327zM678 1853h334l-260 -297h-273z" />
    <glyph glyph-name="Acircumflex" unicode="&#xc2;" horiz-adv-x="1314" 
d="M918 203h-521l-65 -203h-348l501 1434h342l504 -1434h-348zM821 502l-162 497h-4l-161 -497h327zM795 1516l-138 176l-139 -176l-180 133l145 182h346l148 -182z" />
    <glyph glyph-name="Atilde" unicode="&#xc3;" horiz-adv-x="1314" 
d="M918 203h-521l-65 -203h-348l501 1434h342l504 -1434h-348zM821 502l-162 497h-4l-161 -497h327zM637 1595q-72 35 -102 35q-58 0 -70 -74h-160q6 129 60 200t147 71q40 0 75 -11t91 -38q72 -33 102 -33q58 0 70 72h160q-4 -130 -58 -201.5t-147 -71.5q-77 0 -168 51z
" />
    <glyph glyph-name="Adieresis" unicode="&#xc4;" horiz-adv-x="1314" 
d="M918 203h-521l-65 -203h-348l501 1434h342l504 -1434h-348zM821 502l-162 497h-4l-161 -497h327zM295 1817h283v-281h-283v281zM735 1817h285v-281h-285v281z" />
    <glyph glyph-name="Aring" unicode="&#xc5;" horiz-adv-x="1314" 
d="M918 203h-521l-65 -203h-348l501 1434h342l504 -1434h-348zM821 502l-162 497h-4l-161 -497h327zM326 1569q0 125 94.5 208t236.5 83t237 -83t95 -208t-95 -208t-237 -83t-236.5 83t-94.5 208zM795 1569q0 60 -39 97.5t-99 37.5q-61 0 -99 -37.5t-38 -97.5t38 -97.5
t99 -37.5q60 0 99 37.5t39 97.5z" />
    <glyph glyph-name="AE" unicode="&#xc6;" horiz-adv-x="1789" 
d="M1716 297v-297h-817v209h-465l-80 -209h-370l579 1434h1149v-297h-485v-271h434v-276h-434v-293h489zM899 500v637h-106l-246 -637h352z" />
    <glyph glyph-name="Ccedilla" unicode="&#xc7;" horiz-adv-x="1312" 
d="M41 715q0 340 179 547.5t472 207.5q235 0 401.5 -146t194.5 -374l-340 -59q-20 124 -86.5 190t-169.5 66q-140 0 -219.5 -115t-79.5 -317q0 -201 79.5 -314.5t219.5 -113.5q106 0 173 70t87 204l340 -59q-28 -242 -194 -390.5t-406 -148.5q-295 0 -473 206.5t-178 545.5z
M975 -322q0 -109 -71 -175t-187 -66q-143 0 -250 82l102 155q74 -51 133 -51q38 0 61 19.5t23 50.5q0 29 -22 47t-57 18q-56 0 -103 -41l-125 52l158 276l121 -68l-47 -79q6 2 24 2q108 0 174 -61.5t66 -160.5z" />
    <glyph glyph-name="Egrave" unicode="&#xc8;" horiz-adv-x="1157" 
d="M129 1434h948v-322h-596v-240h545v-294h-545v-256h600v-322h-952v1434zM238 1853h335l197 -297h-270z" />
    <glyph glyph-name="Eacute" unicode="&#xc9;" horiz-adv-x="1157" 
d="M129 1434h948v-322h-596v-240h545v-294h-545v-256h600v-322h-952v1434zM625 1853h333l-260 -297h-272z" />
    <glyph glyph-name="Ecircumflex" unicode="&#xca;" horiz-adv-x="1157" 
d="M129 1434h948v-322h-596v-240h545v-294h-545v-256h600v-322h-952v1434zM741 1516l-137 176l-139 -176l-180 133l145 182h346l148 -182z" />
    <glyph glyph-name="Edieresis" unicode="&#xcb;" horiz-adv-x="1157" 
d="M129 1434h948v-322h-596v-240h545v-294h-545v-256h600v-322h-952v1434zM242 1817h282v-281h-282v281zM682 1817h285v-281h-285v281z" />
    <glyph glyph-name="Igrave" unicode="&#xcc;" horiz-adv-x="612" 
d="M129 1434h352v-1434h-352v1434zM-59 1853h335l197 -297h-270z" />
    <glyph glyph-name="Iacute" unicode="&#xcd;" horiz-adv-x="612" 
d="M129 1434h352v-1434h-352v1434zM328 1853h334l-261 -297h-272z" />
    <glyph glyph-name="Icircumflex" unicode="&#xce;" horiz-adv-x="612" 
d="M129 1434h352v-1434h-352v1434zM444 1516l-137 176l-139 -176l-180 133l145 182h346l148 -182z" />
    <glyph glyph-name="Idieresis" unicode="&#xcf;" horiz-adv-x="612" 
d="M129 1434h352v-1434h-352v1434zM-55 1817h282v-281h-282v281zM385 1817h285v-281h-285v281z" />
    <glyph glyph-name="Eth" unicode="&#xd0;" horiz-adv-x="1333" 
d="M129 1434h539q132 0 245 -46.5t198 -135t133 -225.5t48 -308q0 -183 -48.5 -322.5t-135 -225t-200 -128.5t-249.5 -43h-530v1434zM643 324q297 0 297 395q0 197 -77 294t-220 97h-162v-786h162zM-37 850h770v-262h-770v262z" />
    <glyph glyph-name="Ntilde" unicode="&#xd1;" horiz-adv-x="1421" 
d="M129 1434h350l457 -842h4v842h352v-1434h-350l-457 842h-4v-842h-352v1434zM690 1595q-72 35 -102 35q-58 0 -70 -74h-160q6 129 60 200t147 71q40 0 75 -11t91 -38q72 -33 103 -33q57 0 69 72h160q-4 -130 -58 -201.5t-147 -71.5q-77 0 -168 51z" />
    <glyph glyph-name="Ograve" unicode="&#xd2;" horiz-adv-x="1398" 
d="M41 715q-3 219 80 392.5t234 269.5t343 93q145 0 268 -55t209 -153t134.5 -239t48.5 -308q0 -222 -83 -393t-233 -265t-344 -94q-293 0 -475 208t-182 544zM1006 715q0 201 -83 316.5t-225 115.5q-140 0 -222.5 -115.5t-82.5 -316.5q0 -200 81.5 -314t223.5 -114t225 114
t83 314zM332 1890h336l196 -297h-270z" />
    <glyph glyph-name="Oacute" unicode="&#xd3;" horiz-adv-x="1398" 
d="M41 715q-3 219 80 392.5t234 269.5t343 93q145 0 268 -55t209 -153t134.5 -239t48.5 -308q0 -222 -83 -393t-233 -265t-344 -94q-293 0 -475 208t-182 544zM1006 715q0 201 -83 316.5t-225 115.5q-140 0 -222.5 -115.5t-82.5 -316.5q0 -200 81.5 -314t223.5 -114t225 114
t83 314zM719 1890h334l-260 -297h-273z" />
    <glyph glyph-name="Ocircumflex" unicode="&#xd4;" horiz-adv-x="1398" 
d="M41 715q-3 219 80 392.5t234 269.5t343 93q145 0 268 -55t209 -153t134.5 -239t48.5 -308q0 -222 -83 -393t-233 -265t-344 -94q-293 0 -475 208t-182 544zM1006 715q0 201 -83 316.5t-225 115.5q-140 0 -222.5 -115.5t-82.5 -316.5q0 -200 81.5 -314t223.5 -114t225 114
t83 314zM836 1552l-138 177l-139 -177l-180 134l145 182h346l148 -182z" />
    <glyph glyph-name="Otilde" unicode="&#xd5;" horiz-adv-x="1398" 
d="M41 715q-3 219 80 392.5t234 269.5t343 93q145 0 268 -55t209 -153t134.5 -239t48.5 -308q0 -222 -83 -393t-233 -265t-344 -94q-293 0 -475 208t-182 544zM1006 715q0 201 -83 316.5t-225 115.5q-140 0 -222.5 -115.5t-82.5 -316.5q0 -200 81.5 -314t223.5 -114t225 114
t83 314zM678 1632q-72 35 -103 35q-57 0 -69 -74h-160q6 129 60 200t147 71q40 0 75 -11t91 -38q72 -33 102 -33q58 0 70 71h160q-4 -130 -58 -201t-147 -71q-77 0 -168 51z" />
    <glyph glyph-name="Odieresis" unicode="&#xd6;" horiz-adv-x="1398" 
d="M41 715q-3 219 80 392.5t234 269.5t343 93q145 0 268 -55t209 -153t134.5 -239t48.5 -308q0 -222 -83 -393t-233 -265t-344 -94q-293 0 -475 208t-182 544zM1006 715q0 201 -83 316.5t-225 115.5q-140 0 -222.5 -115.5t-82.5 -316.5q0 -200 81.5 -314t223.5 -114t225 114
t83 314zM336 1853h282v-280h-282v280zM776 1853h285v-280h-285v280z" />
    <glyph glyph-name="multiply" unicode="&#xd7;" horiz-adv-x="1196" 
d="M88 387l324 318l-324 319l193 188l317 -321l317 321l191 -188l-322 -319l322 -318l-191 -188l-317 321l-317 -321z" />
    <glyph glyph-name="Oslash" unicode="&#xd8;" horiz-adv-x="1398" 
d="M1358 715q0 -222 -83 -393t-233 -265t-344 -94q-151 0 -274 57l-64 -116l-161 90l69 129q-110 100 -168.5 252t-58.5 340q-3 219 80 392.5t234 269.5t343 93q150 0 279 -57l63 117l160 -92l-70 -129q110 -100 169 -253t59 -341zM442 438l381 695q-56 26 -125 26
q-146 0 -229.5 -118.5t-83.5 -325.5q0 -169 57 -277zM1014 715q0 168 -58 278l-378 -694q58 -25 120 -25q147 0 231.5 118t84.5 323z" />
    <glyph glyph-name="Ugrave" unicode="&#xd9;" horiz-adv-x="1384" 
d="M119 481v953h352v-924q0 -117 52.5 -170t168.5 -53q115 0 168 54t53 167v926h353v-953q0 -246 -151 -382t-423 -136q-275 0 -424 135t-149 383zM326 1853h336l196 -297h-270z" />
    <glyph glyph-name="Uacute" unicode="&#xda;" horiz-adv-x="1384" 
d="M119 481v953h352v-924q0 -117 52.5 -170t168.5 -53q115 0 168 54t53 167v926h353v-953q0 -246 -151 -382t-423 -136q-275 0 -424 135t-149 383zM713 1853h334l-261 -297h-272z" />
    <glyph glyph-name="Ucircumflex" unicode="&#xdb;" horiz-adv-x="1384" 
d="M119 481v953h352v-924q0 -117 52.5 -170t168.5 -53q115 0 168 54t53 167v926h353v-953q0 -246 -151 -382t-423 -136q-275 0 -424 135t-149 383zM829 1516l-137 176l-139 -176l-180 133l145 182h346l148 -182z" />
    <glyph glyph-name="Udieresis" unicode="&#xdc;" horiz-adv-x="1384" 
d="M119 481v953h352v-924q0 -117 52.5 -170t168.5 -53q115 0 168 54t53 167v926h353v-953q0 -246 -151 -382t-423 -136q-275 0 -424 135t-149 383zM330 1817h282v-281h-282v281zM770 1817h285v-281h-285v281z" />
    <glyph glyph-name="Yacute" unicode="&#xdd;" horiz-adv-x="1288" 
d="M469 584l-496 850h389l279 -531h6l281 531h389l-496 -850v-584h-352v584zM666 1853h333l-260 -297h-272z" />
    <glyph glyph-name="Thorn" unicode="&#xde;" horiz-adv-x="1267" 
d="M1243 725q0 -232 -136 -360.5t-376 -128.5h-250v-236h-352v1434h352v-213h252q238 0 374 -131.5t136 -364.5zM891 729q0 174 -178 174h-232v-352h228q83 0 132.5 47t49.5 131z" />
    <glyph glyph-name="germandbls" unicode="&#xdf;" horiz-adv-x="1165" 
d="M96 985q0 226 132.5 355.5t359.5 129.5q199 0 332 -108t133 -270q0 -93 -44.5 -170.5t-125.5 -124.5v-4q112 -47 172.5 -141.5t60.5 -219.5q0 -197 -139 -314.5t-373 -117.5h-78v305h54q99 0 150.5 42t51.5 124q0 72 -48.5 114t-133.5 42h-74v256h49q76 0 120 37t44 102
q0 66 -40.5 105.5t-108.5 39.5q-75 0 -117.5 -45.5t-42.5 -126.5v-995h-334v985z" />
    <glyph glyph-name="agrave" unicode="&#xe0;" horiz-adv-x="1075" 
d="M53 301q0 131 88.5 211t284.5 127q137 32 187.5 59t50.5 68t-35.5 63.5t-98.5 22.5q-153 0 -180 -166l-303 64q25 164 159.5 268t323.5 104q210 0 337.5 -115.5t127.5 -304.5v-702h-297v90h-4q-32 -57 -104.5 -89t-169.5 -32q-170 0 -268.5 89t-98.5 243zM670 375v133h-4
q-11 -23 -41 -40.5t-97 -37.5q-84 -25 -117.5 -49.5t-33.5 -61.5q0 -79 110 -79q75 0 129 40t54 95zM164 1542h336l196 -297h-270z" />
    <glyph glyph-name="aacute" unicode="&#xe1;" horiz-adv-x="1075" 
d="M53 301q0 131 88.5 211t284.5 127q137 32 187.5 59t50.5 68t-35.5 63.5t-98.5 22.5q-153 0 -180 -166l-303 64q25 164 159.5 268t323.5 104q210 0 337.5 -115.5t127.5 -304.5v-702h-297v90h-4q-32 -57 -104.5 -89t-169.5 -32q-170 0 -268.5 89t-98.5 243zM670 375v133h-4
q-11 -23 -41 -40.5t-97 -37.5q-84 -25 -117.5 -49.5t-33.5 -61.5q0 -79 110 -79q75 0 129 40t54 95zM551 1542h334l-260 -297h-273z" />
    <glyph glyph-name="acircumflex" unicode="&#xe2;" horiz-adv-x="1075" 
d="M53 301q0 131 88.5 211t284.5 127q137 32 187.5 59t50.5 68t-35.5 63.5t-98.5 22.5q-153 0 -180 -166l-303 64q25 164 159.5 268t323.5 104q210 0 337.5 -115.5t127.5 -304.5v-702h-297v90h-4q-32 -57 -104.5 -89t-169.5 -32q-170 0 -268.5 89t-98.5 243zM670 375v133h-4
q-11 -23 -41 -40.5t-97 -37.5q-84 -25 -117.5 -49.5t-33.5 -61.5q0 -79 110 -79q75 0 129 40t54 95zM668 1204l-138 176l-139 -176l-180 133l145 183h346l148 -183z" />
    <glyph glyph-name="atilde" unicode="&#xe3;" horiz-adv-x="1075" 
d="M53 301q0 131 88.5 211t284.5 127q137 32 187.5 59t50.5 68t-35.5 63.5t-98.5 22.5q-153 0 -180 -166l-303 64q25 164 159.5 268t323.5 104q210 0 337.5 -115.5t127.5 -304.5v-702h-297v90h-4q-32 -57 -104.5 -89t-169.5 -32q-170 0 -268.5 89t-98.5 243zM670 375v133h-4
q-11 -23 -41 -40.5t-97 -37.5q-84 -25 -117.5 -49.5t-33.5 -61.5q0 -79 110 -79q75 0 129 40t54 95zM510 1284q-72 35 -102 35q-58 0 -70 -74h-160q6 129 60 200t147 71q40 0 74.5 -11t91.5 -39q70 -32 102 -32q58 0 70 71h160q-4 -130 -58 -201t-147 -71q-77 0 -168 51z
" />
    <glyph glyph-name="adieresis" unicode="&#xe4;" horiz-adv-x="1075" 
d="M53 301q0 131 88.5 211t284.5 127q137 32 187.5 59t50.5 68t-35.5 63.5t-98.5 22.5q-153 0 -180 -166l-303 64q25 164 159.5 268t323.5 104q210 0 337.5 -115.5t127.5 -304.5v-702h-297v90h-4q-32 -57 -104.5 -89t-169.5 -32q-170 0 -268.5 89t-98.5 243zM670 375v133h-4
q-11 -23 -41 -40.5t-97 -37.5q-84 -25 -117.5 -49.5t-33.5 -61.5q0 -79 110 -79q75 0 129 40t54 95zM168 1505h283v-280h-283v280zM608 1505h285v-280h-285v280z" />
    <glyph glyph-name="aring" unicode="&#xe5;" horiz-adv-x="1075" 
d="M238 1423q0 115 84 189t215 74q128 0 213 -76q86 -74 86 -187q0 -112 -86 -186t-213 -74q-130 0 -214.5 73.5t-84.5 186.5zM659 1423q0 54 -34 88.5t-88 34.5q-55 0 -90 -34.5t-35 -88.5t34.5 -87t90.5 -33q54 0 88 33t34 87zM53 301q0 131 88.5 211t284.5 127
q137 32 187.5 59t50.5 68t-35.5 63.5t-98.5 22.5q-153 0 -180 -166l-303 64q25 164 159.5 268t323.5 104q210 0 337.5 -115.5t127.5 -304.5v-702h-297v90h-4q-32 -57 -104.5 -89t-169.5 -32q-170 0 -268.5 89t-98.5 243zM670 375v133h-4q-11 -23 -41 -40.5t-97 -37.5
q-84 -25 -117.5 -49.5t-33.5 -61.5q0 -79 110 -79q75 0 129 40t54 95z" />
    <glyph glyph-name="ae" unicode="&#xe6;" horiz-adv-x="1740" 
d="M1692 446h-703q6 -100 60 -153t151 -53q142 0 248 149l219 -192q-167 -234 -455 -234q-246 0 -383 162q-138 -162 -383 -162q-177 0 -280 89t-103 243q0 110 55.5 182t145.5 107q73 30 203 63q123 33 166 56t43 65q0 43 -35.5 67.5t-103.5 24.5q-84 0 -136 -43t-65 -129
l-289 62q25 166 161.5 269t330.5 103q212 0 323 -123q129 123 324 123q222 0 364 -161t142 -418v-97zM1380 670q-7 88 -58 136t-136 48q-80 0 -133.5 -49t-63.5 -135h391zM684 514h-4q-11 -25 -44.5 -42.5t-100.5 -37.5q-87 -27 -123.5 -51t-36.5 -66q0 -43 31.5 -66.5
t91.5 -23.5q81 0 133.5 41.5t52.5 104.5v141z" />
    <glyph glyph-name="ccedilla" unicode="&#xe7;" horiz-adv-x="1136" 
d="M47 543q0 254 154 416.5t391 162.5q202 0 339 -113t169 -304l-320 -60q-14 82 -62 125t-126 43q-94 0 -148.5 -71.5t-54.5 -198.5t54.5 -199t148.5 -72q78 0 126 43t62 125l320 -59q-32 -191 -169 -304.5t-339 -113.5q-237 0 -391 163t-154 417zM874 -322
q0 -109 -71 -175t-187 -66q-142 0 -249 82l102 155q74 -51 133 -51q38 0 61 19.5t23 50.5q0 29 -22.5 47t-57.5 18q-55 0 -102 -41l-125 52l158 276l120 -68l-47 -79q6 2 25 2q108 0 173.5 -61.5t65.5 -160.5z" />
    <glyph glyph-name="egrave" unicode="&#xe8;" horiz-adv-x="1165" 
d="M47 541q0 168 68.5 300.5t190.5 206.5t276 74q238 0 387 -160.5t149 -418.5v-97h-733q6 -100 61.5 -153t153.5 -53q140 0 252 147l221 -197q-184 -227 -473 -227q-249 0 -401 158.5t-152 419.5zM795 670q-8 88 -60.5 136t-144.5 48q-85 0 -140.5 -49t-62.5 -135h408z
M215 1542h336l197 -297h-271z" />
    <glyph glyph-name="eacute" unicode="&#xe9;" horiz-adv-x="1165" 
d="M47 541q0 168 68.5 300.5t190.5 206.5t276 74q238 0 387 -160.5t149 -418.5v-97h-733q6 -100 61.5 -153t153.5 -53q140 0 252 147l221 -197q-184 -227 -473 -227q-249 0 -401 158.5t-152 419.5zM795 670q-8 88 -60.5 136t-144.5 48q-85 0 -140.5 -49t-62.5 -135h408z
M602 1542h334l-260 -297h-273z" />
    <glyph glyph-name="ecircumflex" unicode="&#xea;" horiz-adv-x="1165" 
d="M47 541q0 168 68.5 300.5t190.5 206.5t276 74q238 0 387 -160.5t149 -418.5v-97h-733q6 -100 61.5 -153t153.5 -53q140 0 252 147l221 -197q-184 -227 -473 -227q-249 0 -401 158.5t-152 419.5zM795 670q-8 88 -60.5 136t-144.5 48q-85 0 -140.5 -49t-62.5 -135h408z
M719 1204l-137 176l-140 -176l-180 133l146 183h346l147 -183z" />
    <glyph glyph-name="edieresis" unicode="&#xeb;" horiz-adv-x="1165" 
d="M47 541q0 168 68.5 300.5t190.5 206.5t276 74q238 0 387 -160.5t149 -418.5v-97h-733q6 -100 61.5 -153t153.5 -53q140 0 252 147l221 -197q-184 -227 -473 -227q-249 0 -401 158.5t-152 419.5zM795 670q-8 88 -60.5 136t-144.5 48q-85 0 -140.5 -49t-62.5 -135h408z
M219 1505h283v-280h-283v280zM659 1505h285v-280h-285v280z" />
    <glyph glyph-name="igrave" unicode="&#xec;" horiz-adv-x="532" 
d="M96 1085h342v-1085h-342v1085zM-100 1505h336l196 -297h-270z" />
    <glyph glyph-name="iacute" unicode="&#xed;" horiz-adv-x="532" 
d="M96 1085h342v-1085h-342v1085zM287 1505h334l-261 -297h-272z" />
    <glyph glyph-name="icircumflex" unicode="&#xee;" horiz-adv-x="532" 
d="M96 1085h342v-1085h-342v1085zM403 1167l-137 176l-139 -176l-180 133l145 183h346l148 -183z" />
    <glyph glyph-name="idieresis" unicode="&#xef;" horiz-adv-x="520" 
d="M-82 1468h283v-280h-283v280zM317 1468h285v-280h-285v280zM96 1085h342v-1085h-342v1085z" />
    <glyph glyph-name="eth" unicode="&#xf0;" horiz-adv-x="1210" 
d="M1163 584q0 -286 -152 -453.5t-409 -167.5q-245 0 -400 159.5t-155 416.5q0 248 144.5 411.5t361.5 163.5q140 0 229 -65h4q-49 113 -133 223l-284 -80l-37 133l225 64q-62 68 -195 194v4h326q70 -72 117 -131l272 76l39 -131l-221 -62q268 -388 268 -755zM819 541
q0 129 -56 200.5t-159 71.5t-159 -71.5t-56 -200.5q0 -128 56 -198.5t159 -70.5t159 70.5t56 198.5z" />
    <glyph glyph-name="ntilde" unicode="&#xf1;" horiz-adv-x="1202" 
d="M96 1085h326v-98h4q51 63 128.5 96t170.5 33q180 0 288.5 -117t108.5 -309v-690h-342v635q0 82 -45 128t-123 46q-81 0 -127.5 -47t-46.5 -127v-635h-342v1085zM635 1278q-72 35 -103 35q-57 0 -69 -74h-160q6 129 59.5 199.5t147.5 70.5q40 0 75 -11t91 -38
q72 -33 102 -33q58 0 70 72h160q-4 -130 -58 -201t-147 -71q-77 0 -168 51z" />
    <glyph glyph-name="ograve" unicode="&#xf2;" horiz-adv-x="1208" 
d="M47 541q0 256 155 418.5t400 162.5t402 -162.5t157 -418.5q0 -254 -157 -416t-402 -162t-400 161.5t-155 416.5zM819 541q0 129 -56 200.5t-159 71.5t-159 -71.5t-56 -200.5q0 -128 56 -198.5t159 -70.5t159 70.5t56 198.5zM236 1542h335l197 -297h-270z" />
    <glyph glyph-name="oacute" unicode="&#xf3;" horiz-adv-x="1208" 
d="M47 541q0 256 155 418.5t400 162.5t402 -162.5t157 -418.5q0 -254 -157 -416t-402 -162t-400 161.5t-155 416.5zM819 541q0 129 -56 200.5t-159 71.5t-159 -71.5t-56 -200.5q0 -128 56 -198.5t159 -70.5t159 70.5t56 198.5zM623 1542h333l-260 -297h-272z" />
    <glyph glyph-name="ocircumflex" unicode="&#xf4;" horiz-adv-x="1208" 
d="M47 541q0 256 155 418.5t400 162.5t402 -162.5t157 -418.5q0 -254 -157 -416t-402 -162t-400 161.5t-155 416.5zM819 541q0 129 -56 200.5t-159 71.5t-159 -71.5t-56 -200.5q0 -128 56 -198.5t159 -70.5t159 70.5t56 198.5zM739 1204l-137 176l-139 -176l-180 133
l145 183h346l148 -183z" />
    <glyph glyph-name="otilde" unicode="&#xf5;" horiz-adv-x="1208" 
d="M47 541q0 256 155 418.5t400 162.5t402 -162.5t157 -418.5q0 -254 -157 -416t-402 -162t-400 161.5t-155 416.5zM819 541q0 129 -56 200.5t-159 71.5t-159 -71.5t-56 -200.5q0 -128 56 -198.5t159 -70.5t159 70.5t56 198.5zM582 1284q-72 35 -103 35q-57 0 -69 -74h-160
q6 129 60 200t147 71q40 0 74.5 -11t91.5 -39q70 -32 102 -32q58 0 70 71h159q-4 -130 -57.5 -201t-146.5 -71q-77 0 -168 51z" />
    <glyph glyph-name="odieresis" unicode="&#xf6;" horiz-adv-x="1208" 
d="M47 541q0 256 155 418.5t400 162.5t402 -162.5t157 -418.5q0 -254 -157 -416t-402 -162t-400 161.5t-155 416.5zM819 541q0 129 -56 200.5t-159 71.5t-159 -71.5t-56 -200.5q0 -128 56 -198.5t159 -70.5t159 70.5t56 198.5zM240 1505h282v-280h-282v280zM680 1505h285
v-280h-285v280z" />
    <glyph glyph-name="divide" unicode="&#xf7;" horiz-adv-x="1153" 
d="M362 1196q0 93 61 154t152 61q93 0 154.5 -61t61.5 -154q0 -92 -61.5 -152.5t-154.5 -60.5q-91 0 -152 60.5t-61 152.5zM88 870h977v-266h-977v266zM362 268q0 93 61 154t152 61q93 0 154.5 -61t61.5 -154q0 -91 -62 -152t-154 -61q-91 0 -152 61t-61 152z" />
    <glyph glyph-name="oslash" unicode="&#xf8;" horiz-adv-x="1208" 
d="M1161 541q0 -254 -157 -416t-402 -162q-166 0 -291 76l-78 -100l-122 94l79 102q-143 162 -143 406q0 256 155 418.5t400 162.5q169 0 297 -78l84 109l121 -94l-86 -111q143 -162 143 -407zM401 406l308 395q-43 24 -105 24q-106 0 -164.5 -74.5t-58.5 -209.5
q0 -82 20 -135zM829 541q0 83 -20 139l-307 -397q51 -23 102 -23q106 0 165.5 74t59.5 207z" />
    <glyph glyph-name="ugrave" unicode="&#xf9;" horiz-adv-x="1183" 
d="M76 371v714h342v-634q0 -172 160 -172q77 0 122 46.5t45 125.5v634h342v-1085h-325v102h-4q-103 -133 -295 -133q-184 0 -285.5 105.5t-101.5 296.5zM215 1505h336l197 -297h-271z" />
    <glyph glyph-name="uacute" unicode="&#xfa;" horiz-adv-x="1183" 
d="M76 371v714h342v-634q0 -172 160 -172q77 0 122 46.5t45 125.5v634h342v-1085h-325v102h-4q-103 -133 -295 -133q-184 0 -285.5 105.5t-101.5 296.5zM602 1505h334l-260 -297h-273z" />
    <glyph glyph-name="ucircumflex" unicode="&#xfb;" horiz-adv-x="1183" 
d="M76 371v714h342v-634q0 -172 160 -172q77 0 122 46.5t45 125.5v634h342v-1085h-325v102h-4q-103 -133 -295 -133q-184 0 -285.5 105.5t-101.5 296.5zM719 1167l-137 176l-140 -176l-180 133l146 183h346l147 -183z" />
    <glyph glyph-name="udieresis" unicode="&#xfc;" horiz-adv-x="1183" 
d="M76 371v714h342v-634q0 -172 160 -172q77 0 122 46.5t45 125.5v634h342v-1085h-325v102h-4q-103 -133 -295 -133q-184 0 -285.5 105.5t-101.5 296.5zM219 1468h283v-280h-283v280zM659 1468h285v-280h-285v280z" />
    <glyph glyph-name="yacute" unicode="&#xfd;" horiz-adv-x="1196" 
d="M424 53l-430 1032h366l238 -641h4l236 641h364l-635 -1546h-356zM618 1505h334l-260 -297h-272z" />
    <glyph glyph-name="thorn" unicode="&#xfe;" horiz-adv-x="1243" 
d="M1196 545q0 -250 -133.5 -413t-337.5 -163q-181 0 -283 111h-4v-541h-342v1970h342v-475q104 88 271 88q139 0 250.5 -74.5t174 -206.5t62.5 -296zM854 543q0 131 -55.5 200.5t-159.5 69.5q-87 0 -144 -55.5t-57 -139.5v-141q0 -88 56.5 -144.5t144.5 -56.5
q103 0 159 69.5t56 197.5z" />
    <glyph glyph-name="ydieresis" unicode="&#xff;" horiz-adv-x="1196" 
d="M424 53l-430 1032h366l238 -641h4l236 641h364l-635 -1546h-356zM236 1468h282v-280h-282v280zM676 1468h285v-280h-285v280z" />
    <glyph glyph-name="Amacron" unicode="&#x100;" horiz-adv-x="1314" 
d="M918 203h-521l-65 -203h-348l501 1434h342l504 -1434h-348zM821 502l-162 497h-4l-161 -497h327zM315 1759h684v-203h-684v203z" />
    <glyph glyph-name="amacron" unicode="&#x101;" horiz-adv-x="1075" 
d="M53 301q0 131 88.5 211t284.5 127q137 32 187.5 59t50.5 68t-35.5 63.5t-98.5 22.5q-153 0 -180 -166l-303 64q25 164 159.5 268t323.5 104q210 0 337.5 -115.5t127.5 -304.5v-702h-297v90h-4q-32 -57 -104.5 -89t-169.5 -32q-170 0 -268.5 89t-98.5 243zM670 375v133h-4
q-11 -23 -41 -40.5t-97 -37.5q-84 -25 -117.5 -49.5t-33.5 -61.5q0 -79 110 -79q75 0 129 40t54 95zM188 1448h684v-203h-684v203z" />
    <glyph glyph-name="Abreve" unicode="&#x102;" horiz-adv-x="1314" 
d="M918 203h-521l-65 -203h-348l501 1434h342l504 -1434h-348zM821 502l-162 497h-4l-161 -497h327zM330 1831h176q14 -45 54.5 -69.5t101.5 -24.5q60 0 99.5 24.5t53.5 69.5h176q-8 -137 -95.5 -216t-233.5 -79t-235 79t-97 216z" />
    <glyph glyph-name="abreve" unicode="&#x103;" horiz-adv-x="1075" 
d="M53 301q0 131 88.5 211t284.5 127q137 32 187.5 59t50.5 68t-35.5 63.5t-98.5 22.5q-153 0 -180 -166l-303 64q25 164 159.5 268t323.5 104q210 0 337.5 -115.5t127.5 -304.5v-702h-297v90h-4q-32 -57 -104.5 -89t-169.5 -32q-170 0 -268.5 89t-98.5 243zM670 375v133h-4
q-11 -23 -41 -40.5t-97 -37.5q-84 -25 -117.5 -49.5t-33.5 -61.5q0 -79 110 -79q75 0 129 40t54 95zM203 1520h176q14 -45 54.5 -70t101.5 -25q59 0 99 25t54 70h176q-8 -137 -95.5 -216t-233.5 -79t-235 79t-97 216z" />
    <glyph glyph-name="Aogonek" unicode="&#x104;" horiz-adv-x="1314" 
d="M918 203h-521l-65 -203h-348l501 1434h342l504 -1434h-348zM821 502l-162 497h-4l-161 -497h327zM907 -254q0 159 221 285l140 -31q-142 -103 -142 -182q0 -26 14.5 -40t39.5 -14q50 0 112 33l76 -186q-109 -53 -225 -53q-110 0 -173 49t-63 139z" />
    <glyph glyph-name="aogonek" unicode="&#x105;" horiz-adv-x="1075" 
d="M53 301q0 131 88.5 211t284.5 127q137 32 187.5 59t50.5 68t-35.5 63.5t-98.5 22.5q-153 0 -180 -166l-303 64q25 164 159.5 268t323.5 104q210 0 337.5 -115.5t127.5 -304.5v-702h-297v90h-4q-32 -57 -104.5 -89t-169.5 -32q-170 0 -268.5 89t-98.5 243zM670 375v133h-4
q-11 -23 -41 -40.5t-97 -37.5q-84 -25 -117.5 -49.5t-33.5 -61.5q0 -79 110 -79q75 0 129 40t54 95zM606 -254q0 159 221 285l140 -31q-142 -103 -142 -182q0 -26 14.5 -40t39.5 -14q50 0 112 33l76 -186q-109 -53 -225 -53q-110 0 -173 49t-63 139z" />
    <glyph glyph-name="Cacute" unicode="&#x106;" horiz-adv-x="1312" 
d="M41 715q0 340 179 547.5t472 207.5q235 0 401.5 -146t194.5 -374l-340 -59q-20 124 -86.5 190t-169.5 66q-140 0 -219.5 -115t-79.5 -317q0 -201 79.5 -314.5t219.5 -113.5q106 0 173 70t87 204l340 -59q-28 -242 -194 -390.5t-406 -148.5q-295 0 -473 206.5t-178 545.5z
M713 1890h334l-261 -297h-272z" />
    <glyph glyph-name="cacute" unicode="&#x107;" horiz-adv-x="1136" 
d="M47 543q0 254 154 416.5t391 162.5q202 0 339 -113t169 -304l-320 -60q-14 82 -62 125t-126 43q-94 0 -148.5 -71.5t-54.5 -198.5t54.5 -199t148.5 -72q78 0 126 43t62 125l320 -59q-32 -191 -169 -304.5t-339 -113.5q-237 0 -391 163t-154 417zM612 1542h334l-260 -297
h-272z" />
    <glyph glyph-name="Ccircumflex" unicode="&#x108;" horiz-adv-x="1312" 
d="M41 715q0 340 179 547.5t472 207.5q235 0 401.5 -146t194.5 -374l-340 -59q-20 124 -86.5 190t-169.5 66q-140 0 -219.5 -115t-79.5 -317q0 -201 79.5 -314.5t219.5 -113.5q106 0 173 70t87 204l340 -59q-28 -242 -194 -390.5t-406 -148.5q-295 0 -473 206.5t-178 545.5z
M829 1552l-137 177l-139 -177l-180 134l145 182h346l148 -182z" />
    <glyph glyph-name="ccircumflex" unicode="&#x109;" horiz-adv-x="1136" 
d="M47 543q0 254 154 416.5t391 162.5q202 0 339 -113t169 -304l-320 -60q-14 82 -62 125t-126 43q-94 0 -148.5 -71.5t-54.5 -198.5t54.5 -199t148.5 -72q78 0 126 43t62 125l320 -59q-32 -191 -169 -304.5t-339 -113.5q-237 0 -391 163t-154 417zM729 1204l-137 176
l-139 -176l-181 133l146 183h346l147 -183z" />
    <glyph glyph-name="Cdotaccent" unicode="&#x10a;" horiz-adv-x="1312" 
d="M41 715q0 340 179 547.5t472 207.5q235 0 401.5 -146t194.5 -374l-340 -59q-20 124 -86.5 190t-169.5 66q-140 0 -219.5 -115t-79.5 -317q0 -201 79.5 -314.5t219.5 -113.5q106 0 173 70t87 204l340 -59q-28 -242 -194 -390.5t-406 -148.5q-295 0 -473 206.5t-178 545.5z
M549 1874h282v-281h-282v281z" />
    <glyph glyph-name="cdotaccent" unicode="&#x10b;" horiz-adv-x="1136" 
d="M47 543q0 254 154 416.5t391 162.5q202 0 339 -113t169 -304l-320 -60q-14 82 -62 125t-126 43q-94 0 -148.5 -71.5t-54.5 -198.5t54.5 -199t148.5 -72q78 0 126 43t62 125l320 -59q-32 -191 -169 -304.5t-339 -113.5q-237 0 -391 163t-154 417zM449 1526h282v-281h-282
v281z" />
    <glyph glyph-name="Ccaron" unicode="&#x10c;" horiz-adv-x="1312" 
d="M41 715q0 340 179 547.5t472 207.5q235 0 401.5 -146t194.5 -374l-340 -59q-20 124 -86.5 190t-169.5 66q-140 0 -219.5 -115t-79.5 -317q0 -201 79.5 -314.5t219.5 -113.5q106 0 173 70t87 204l340 -59q-28 -242 -194 -390.5t-406 -148.5q-295 0 -473 206.5t-178 545.5z
M1012 1755l-148 -182h-346l-145 182l180 133l139 -176l137 176z" />
    <glyph glyph-name="ccaron" unicode="&#x10d;" horiz-adv-x="1136" 
d="M47 543q0 254 154 416.5t391 162.5q202 0 339 -113t169 -304l-320 -60q-14 82 -62 125t-126 43q-94 0 -148.5 -71.5t-54.5 -198.5t54.5 -199t148.5 -72q78 0 126 43t62 125l320 -59q-32 -191 -169 -304.5t-339 -113.5q-237 0 -391 163t-154 417zM911 1407l-147 -182h-346
l-146 182l181 133l139 -176l137 176z" />
    <glyph glyph-name="Dcaron" unicode="&#x10e;" horiz-adv-x="1333" 
d="M129 1434h539q132 0 245 -46.5t198 -135t133 -225.5t48 -308q0 -183 -48.5 -322.5t-135 -225t-200 -128.5t-249.5 -43h-530v1434zM643 324q297 0 297 395q0 197 -77 294t-220 97h-162v-786h162zM915 1718l-147 -182h-346l-146 182l181 133l139 -176l137 176z" />
    <glyph glyph-name="dcaron" unicode="&#x10f;" horiz-adv-x="1556" 
d="M47 545q-2 158 61.5 290.5t175.5 208t246 72.5q82 0 153 -27t118 -77h4v483h342v-1495h-313v102h-5q-50 -60 -128.5 -93.5t-170.5 -33.5q-212 0 -347.5 161t-135.5 409zM805 483v129q0 84 -57 139.5t-144 55.5q-103 0 -159 -68.5t-56 -195.5q0 -123 56.5 -191.5
t158.5 -68.5q88 0 144.5 56t56.5 144zM1262 1106q55 13 75.5 39t20.5 82h-107v266h293v-227q0 -131 -72.5 -207t-209.5 -86v133z" />
    <glyph glyph-name="Dcroat" unicode="&#x110;" horiz-adv-x="1333" 
d="M129 1434h539q132 0 245 -46.5t198 -135t133 -225.5t48 -308q0 -183 -48.5 -322.5t-135 -225t-200 -128.5t-249.5 -43h-530v1434zM643 324q297 0 297 395q0 197 -77 294t-220 97h-162v-786h162zM-37 850h770v-262h-770v262z" />
    <glyph glyph-name="dcroat" unicode="&#x111;" horiz-adv-x="1243" 
d="M47 545q-2 158 61.5 290.5t175.5 208t246 72.5q82 0 153 -27t118 -77h4v483h342v-1495h-313v102h-5q-50 -60 -128.5 -93.5t-170.5 -33.5q-212 0 -347.5 161t-135.5 409zM805 483v129q0 84 -57 139.5t-144 55.5q-103 0 -159 -68.5t-56 -195.5q0 -123 56.5 -191.5
t158.5 -68.5q88 0 144.5 56t56.5 144zM455 1389h798v-209h-798v209z" />
    <glyph glyph-name="Emacron" unicode="&#x112;" horiz-adv-x="1157" 
d="M129 1434h948v-322h-596v-240h545v-294h-545v-256h600v-322h-952v1434zM262 1759h684v-203h-684v203z" />
    <glyph glyph-name="emacron" unicode="&#x113;" horiz-adv-x="1165" 
d="M47 541q0 168 68.5 300.5t190.5 206.5t276 74q238 0 387 -160.5t149 -418.5v-97h-733q6 -100 61.5 -153t153.5 -53q140 0 252 147l221 -197q-184 -227 -473 -227q-249 0 -401 158.5t-152 419.5zM795 670q-8 88 -60.5 136t-144.5 48q-85 0 -140.5 -49t-62.5 -135h408z
M240 1448h684v-203h-684v203z" />
    <glyph glyph-name="Ebreve" unicode="&#x114;" horiz-adv-x="1157" 
d="M129 1434h948v-322h-596v-240h545v-294h-545v-256h600v-322h-952v1434zM276 1831h177q14 -45 54 -69.5t101 -24.5q60 0 100 25t54 69h176q-8 -137 -96 -216t-234 -79t-235 79t-97 216z" />
    <glyph glyph-name="ebreve" unicode="&#x115;" horiz-adv-x="1165" 
d="M47 541q0 168 68.5 300.5t190.5 206.5t276 74q238 0 387 -160.5t149 -418.5v-97h-733q6 -100 61.5 -153t153.5 -53q140 0 252 147l221 -197q-184 -227 -473 -227q-249 0 -401 158.5t-152 419.5zM795 670q-8 88 -60.5 136t-144.5 48q-85 0 -140.5 -49t-62.5 -135h408z
M254 1520h176q14 -45 54.5 -70t101.5 -25q59 0 99 25t54 70h176q-8 -137 -95.5 -216t-233.5 -79t-235 79t-97 216z" />
    <glyph glyph-name="Edotaccent" unicode="&#x116;" horiz-adv-x="1157" 
d="M129 1434h948v-322h-596v-240h545v-294h-545v-256h600v-322h-952v1434zM461 1837h282v-281h-282v281z" />
    <glyph glyph-name="edotaccent" unicode="&#x117;" horiz-adv-x="1165" 
d="M47 541q0 168 68.5 300.5t190.5 206.5t276 74q238 0 387 -160.5t149 -418.5v-97h-733q6 -100 61.5 -153t153.5 -53q140 0 252 147l221 -197q-184 -227 -473 -227q-249 0 -401 158.5t-152 419.5zM795 670q-8 88 -60.5 136t-144.5 48q-85 0 -140.5 -49t-62.5 -135h408z
M438 1526h283v-281h-283v281z" />
    <glyph glyph-name="Eogonek" unicode="&#x118;" horiz-adv-x="1157" 
d="M129 1434h948v-322h-596v-240h545v-294h-545v-256h600v-322h-952v1434zM614 -254q0 158 222 285l139 -31q-141 -102 -141 -182q0 -54 53 -54q50 0 112 33l76 -186q-109 -53 -225 -53q-110 0 -173 49t-63 139z" />
    <glyph glyph-name="eogonek" unicode="&#x119;" horiz-adv-x="1165" 
d="M47 541q0 168 68.5 300.5t190.5 206.5t276 74q238 0 387 -160.5t149 -418.5v-97h-733q6 -100 61.5 -153t153.5 -53q140 0 252 147l221 -197q-184 -227 -473 -227q-249 0 -401 158.5t-152 419.5zM795 670q-8 88 -60.5 136t-144.5 48q-85 0 -140.5 -49t-62.5 -135h408z
M457 -254q0 159 221 285l139 -31q-141 -102 -141 -182q0 -54 53 -54q51 0 113 33l76 -186q-109 -53 -226 -53q-110 0 -172.5 49t-62.5 139z" />
    <glyph glyph-name="Ecaron" unicode="&#x11a;" horiz-adv-x="1157" 
d="M129 1434h948v-322h-596v-240h545v-294h-545v-256h600v-322h-952v1434zM924 1718l-148 -182h-346l-145 182l180 133l139 -176l137 176z" />
    <glyph glyph-name="ecaron" unicode="&#x11b;" horiz-adv-x="1165" 
d="M47 541q0 168 68.5 300.5t190.5 206.5t276 74q238 0 387 -160.5t149 -418.5v-97h-733q6 -100 61.5 -153t153.5 -53q140 0 252 147l221 -197q-184 -227 -473 -227q-249 0 -401 158.5t-152 419.5zM795 670q-8 88 -60.5 136t-144.5 48q-85 0 -140.5 -49t-62.5 -135h408z
M901 1407l-147 -182h-346l-146 182l180 133l140 -176l137 176z" />
    <glyph glyph-name="Gcircumflex" unicode="&#x11c;" horiz-adv-x="1323" 
d="M41 715q-2 220 79.5 393t231.5 269t342 93q228 0 394 -140t194 -359l-336 -58q-23 111 -88.5 172.5t-163.5 61.5q-141 0 -221 -114t-80 -318t80.5 -316t231.5 -112q110 0 172 58t67 163h-248v264h578v-201q0 -276 -158.5 -442t-421.5 -166q-195 0 -343 93t-229 264
t-81 395zM831 1552l-137 177l-139 -177l-180 134l145 182h346l148 -182z" />
    <glyph glyph-name="gcircumflex" unicode="&#x11d;" horiz-adv-x="1247" 
d="M96 -240l240 189q67 -86 129.5 -122t144.5 -36q99 0 156 61.5t57 167.5v84h-4q-41 -54 -117.5 -84t-169.5 -30q-211 0 -348 161t-137 408q0 152 64.5 277.5t177 197.5t248.5 72q173 0 282 -115h4v94h326v-1073q0 -230 -148 -370t-391 -140q-161 0 -296.5 68t-217.5 190z
M807 492v124q0 78 -57 130.5t-142 52.5q-100 0 -159.5 -65t-59.5 -175q0 -123 57.5 -192.5t157.5 -69.5q91 0 147 53.5t56 141.5zM741 1204l-137 176l-139 -176l-180 133l145 183h346l148 -183z" />
    <glyph glyph-name="Gbreve" unicode="&#x11e;" horiz-adv-x="1323" 
d="M41 715q-2 220 79.5 393t231.5 269t342 93q228 0 394 -140t194 -359l-336 -58q-23 111 -88.5 172.5t-163.5 61.5q-141 0 -221 -114t-80 -318t80.5 -316t231.5 -112q110 0 172 58t67 163h-248v264h578v-201q0 -276 -158.5 -442t-421.5 -166q-195 0 -343 93t-229 264
t-81 395zM367 1868h176q14 -45 54 -69.5t101 -24.5q60 0 100 25t54 69h176q-8 -137 -96 -216t-234 -79t-234.5 79t-96.5 216z" />
    <glyph glyph-name="gbreve" unicode="&#x11f;" horiz-adv-x="1247" 
d="M96 -240l240 189q67 -86 129.5 -122t144.5 -36q99 0 156 61.5t57 167.5v84h-4q-41 -54 -117.5 -84t-169.5 -30q-211 0 -348 161t-137 408q0 152 64.5 277.5t177 197.5t248.5 72q173 0 282 -115h4v94h326v-1073q0 -230 -148 -370t-391 -140q-161 0 -296.5 68t-217.5 190z
M807 492v124q0 78 -57 130.5t-142 52.5q-100 0 -159.5 -65t-59.5 -175q0 -123 57.5 -192.5t157.5 -69.5q91 0 147 53.5t56 141.5zM297 1520h176q14 -45 54.5 -70t101.5 -25q59 0 99 25t54 70h176q-8 -137 -95.5 -216t-233.5 -79t-235 79t-97 216z" />
    <glyph glyph-name="Gdotaccent" unicode="&#x120;" horiz-adv-x="1323" 
d="M41 715q-2 220 79.5 393t231.5 269t342 93q228 0 394 -140t194 -359l-336 -58q-23 111 -88.5 172.5t-163.5 61.5q-141 0 -221 -114t-80 -318t80.5 -316t231.5 -112q110 0 172 58t67 163h-248v264h578v-201q0 -276 -158.5 -442t-421.5 -166q-195 0 -343 93t-229 264
t-81 395zM551 1874h283v-281h-283v281z" />
    <glyph glyph-name="gdotaccent" unicode="&#x121;" horiz-adv-x="1226" 
d="M96 -240l240 189q67 -86 129.5 -122t144.5 -36q99 0 156 61.5t57 167.5v84h-4q-41 -54 -117.5 -84t-169.5 -30q-211 0 -348 161t-137 408q0 152 64.5 277.5t177 197.5t248.5 72q173 0 282 -115h4v94h326v-1073q0 -230 -148 -370t-391 -140q-161 0 -296.5 68t-217.5 190z
M807 492v124q0 78 -57 130.5t-142 52.5q-100 0 -159.5 -65t-59.5 -175q0 -123 57.5 -192.5t157.5 -69.5q91 0 147 53.5t56 141.5zM414 1509h282v-280h-282v280z" />
    <glyph glyph-name="uni0122" unicode="&#x122;" horiz-adv-x="1323" 
d="M41 715q-2 220 79.5 393t231.5 269t342 93q228 0 394 -140t194 -359l-336 -58q-23 111 -88.5 172.5t-163.5 61.5q-141 0 -221 -114t-80 -318t80.5 -316t231.5 -112q110 0 172 58t67 163h-248v264h578v-201q0 -276 -158.5 -442t-421.5 -166q-195 0 -343 93t-229 264
t-81 395zM557 -526q55 13 75.5 38.5t20.5 81.5h-106v267h293v-228q0 -131 -72.5 -206.5t-210.5 -85.5v133z" />
    <glyph glyph-name="uni0123" unicode="&#x123;" horiz-adv-x="1226" 
d="M96 -240l240 189q67 -86 129.5 -122t144.5 -36q99 0 156 61.5t57 167.5v84h-4q-41 -54 -117.5 -84t-169.5 -30q-211 0 -348 161t-137 408q0 152 64.5 277.5t177 197.5t248.5 72q173 0 282 -115h4v94h326v-1073q0 -230 -148 -370t-391 -140q-161 0 -296.5 68t-217.5 190z
M807 492v124q0 78 -57 130.5t-142 52.5q-100 0 -159.5 -65t-59.5 -175q0 -123 57.5 -192.5t157.5 -69.5q91 0 147 53.5t56 141.5zM711 1616q-63 -13 -86 -39t-23 -82h121v-266h-330v227q0 131 81.5 207t236.5 86v-133z" />
    <glyph glyph-name="Hcircumflex" unicode="&#x124;" horiz-adv-x="1380" 
d="M129 1434h352v-537h416v537h352v-1434h-352v573h-416v-573h-352v1434zM827 1516l-137 176l-139 -176l-180 133l145 182h346l148 -182z" />
    <glyph glyph-name="hcircumflex" unicode="&#x125;" horiz-adv-x="1202" 
d="M96 1495h342v-504h4q42 59 117.5 92t167.5 33q180 0 287 -110q108 -111 108 -291v-715h-342v635q0 82 -45 128t-123 46q-81 0 -127.5 -47t-46.5 -127v-635h-342v1495zM797 1516l-138 176l-139 -176l-180 133l145 182h346l148 -182z" />
    <glyph glyph-name="Hbar" unicode="&#x126;" horiz-adv-x="1378" 
d="M1393 1016h-144v-1016h-344v590h-432v-590h-344v1016h-143v256h143v162h344v-162h432v162h344v-162h144v-256zM905 1016h-432v-137h432v137z" />
    <glyph glyph-name="hbar" unicode="&#x127;" horiz-adv-x="1202" 
d="M96 1495h342v-504h4q42 59 117.5 92t167.5 33q180 0 287 -110q108 -111 108 -291v-715h-342v635q0 82 -45 128t-123 46q-81 0 -127.5 -47t-46.5 -127v-635h-342v1495zM-10 1389h798v-209h-798v209z" />
    <glyph glyph-name="Itilde" unicode="&#x128;" horiz-adv-x="612" 
d="M129 1434h352v-1434h-352v1434zM287 1595q-72 35 -103 35q-57 0 -69 -74h-160q6 129 60 200t147 71q40 0 75 -11t91 -38q72 -33 102 -33q58 0 70 72h159q-4 -130 -58 -201.5t-146 -71.5q-77 0 -168 51z" />
    <glyph glyph-name="itilde" unicode="&#x129;" horiz-adv-x="532" 
d="M96 1085h342v-1085h-342v1085zM246 1247q-72 35 -103 35q-57 0 -69 -74h-160q6 129 60 200t147 71q40 0 75 -11t91 -38q72 -33 102 -33q58 0 70 71h159q-4 -130 -57.5 -201t-146.5 -71q-77 0 -168 51z" />
    <glyph glyph-name="Imacron" unicode="&#x12a;" horiz-adv-x="612" 
d="M129 1434h352v-1434h-352v1434zM-35 1759h684v-203h-684v203z" />
    <glyph glyph-name="imacron" unicode="&#x12b;" horiz-adv-x="532" 
d="M96 1085h342v-1085h-342v1085zM-76 1411h684v-203h-684v203z" />
    <glyph glyph-name="Ibreve" unicode="&#x12c;" horiz-adv-x="612" 
d="M129 1434h352v-1434h-352v1434zM-20 1831h176q14 -45 54 -69.5t101 -24.5q60 0 100 25t54 69h176q-8 -137 -96 -216t-234 -79t-234.5 79t-96.5 216z" />
    <glyph glyph-name="ibreve" unicode="&#x12d;" horiz-adv-x="532" 
d="M96 1085h342v-1085h-342v1085zM-61 1483h176q14 -45 54 -69.5t101 -24.5q60 0 100 25t54 69h176q-8 -137 -96 -216t-234 -79t-234.5 79t-96.5 216z" />
    <glyph glyph-name="Iogonek" unicode="&#x12e;" horiz-adv-x="612" 
d="M129 1434h352v-1434h-352v1434zM59 -254q0 158 222 285l139 -31q-141 -102 -141 -182q0 -54 53 -54q50 0 112 33l76 -186q-109 -53 -225 -53q-110 0 -173 49t-63 139z" />
    <glyph glyph-name="iogonek" unicode="&#x12f;" horiz-adv-x="532" 
d="M96 1085h342v-1085h-342v1085zM12 -254q0 159 221 285l140 -31q-142 -103 -142 -182q0 -26 14.5 -40t39.5 -14q50 0 112 33l76 -186q-109 -53 -225 -53q-110 0 -173 49t-63 139zM100 1563h330v-308h-330v308z" />
    <glyph glyph-name="Idotaccent" unicode="&#x130;" horiz-adv-x="612" 
d="M129 1434h352v-1434h-352v1434zM164 1837h282v-281h-282v281z" />
    <glyph glyph-name="dotlessi" unicode="&#x131;" horiz-adv-x="532" 
d="M96 1085h342v-1085h-342v1085z" />
    <glyph glyph-name="Jcircumflex" unicode="&#x134;" horiz-adv-x="1173" 
d="M35 449l342 34q11 -106 49 -151t119 -45q157 0 157 202v945h353v-977q0 -223 -143 -358.5t-367 -135.5q-229 0 -363.5 127t-146.5 359zM1016 1516l-137 176l-140 -176l-180 133l146 182h346l147 -182z" />
    <glyph glyph-name="jcircumflex" unicode="&#x135;" horiz-adv-x="550" 
d="M-106 -129h131q49 0 69.5 17.5t20.5 60.5v1136h342v-1153q0 -199 -91.5 -287.5t-297.5 -88.5h-174v315zM422 1167l-137 176l-140 -176l-180 133l146 183h346l147 -183z" />
    <glyph glyph-name="uni0136" unicode="&#x136;" horiz-adv-x="1353" 
d="M129 1434h352v-553h4l437 553h411l-518 -633l555 -801h-422l-346 535h-4l-117 -144v-391h-352v1434zM582 -489q55 13 75.5 38.5t20.5 81.5h-107v267h293v-228q0 -131 -72.5 -207t-209.5 -86v134z" />
    <glyph glyph-name="uni0137" unicode="&#x137;" horiz-adv-x="1208" 
d="M96 1495h342v-795h4l316 385h432l-395 -436l389 -649h-393l-220 416h-4l-129 -150v-266h-342v1495zM483 -489q56 14 76.5 39.5t20.5 80.5h-107v267h293v-228q0 -131 -72.5 -207t-210.5 -86v134z" />
    <glyph glyph-name="kgreenlandic" unicode="&#x138;" horiz-adv-x="1241" 
d="M96 1085h342v-374h4l346 374h433l-416 -436l414 -649h-390l-245 416h-4l-142 -150v-266h-342v1085z" />
    <glyph glyph-name="Lacute" unicode="&#x139;" horiz-adv-x="1105" 
d="M129 1434h352v-1110h588v-324h-940v1434zM328 1853h334l-261 -297h-272z" />
    <glyph glyph-name="lacute" unicode="&#x13a;" horiz-adv-x="532" 
d="M96 1495h342v-1495h-342v1495zM287 1915h334l-261 -297h-272z" />
    <glyph glyph-name="uni013B" unicode="&#x13b;" horiz-adv-x="1105" 
d="M129 1434h352v-1110h588v-324h-940v1434zM463 -489q55 13 75.5 38.5t20.5 81.5h-106v267h292v-228q0 -131 -72.5 -207t-209.5 -86v134z" />
    <glyph glyph-name="uni013C" unicode="&#x13c;" horiz-adv-x="532" 
d="M96 1495h342v-1495h-342v1495zM129 -489q55 13 75.5 38.5t20.5 81.5h-106v267h293v-228q0 -131 -72.5 -207t-210.5 -86v134z" />
    <glyph glyph-name="Lcaron" unicode="&#x13d;" horiz-adv-x="1126" 
d="M129 1434h352v-1110h588v-324h-940v1434zM844 1044q55 13 75.5 39t20.5 82h-106v267h292v-228q0 -131 -72.5 -207t-209.5 -86v133z" />
    <glyph glyph-name="lcaron" unicode="&#x13e;" horiz-adv-x="839" 
d="M96 1495h342v-1495h-342v1495zM543 1106q55 13 75.5 39t20.5 82h-107v266h293v-227q0 -131 -72.5 -207t-209.5 -86v133z" />
    <glyph glyph-name="Ldot" unicode="&#x13f;" horiz-adv-x="1110" 
d="M129 1434h352v-1110h588v-324h-940v1434zM680 1028h375v-364h-375v364z" />
    <glyph glyph-name="ldot" unicode="&#x140;" horiz-adv-x="946" 
d="M96 1495h342v-1495h-342v1495zM539 952h374v-364h-374v364z" />
    <glyph glyph-name="Lslash" unicode="&#x141;" horiz-adv-x="1284" 
d="M305 1434h352v-1110h588v-324h-940v1434zM422 463v55l-313 -293l-109 115l469 440v-39l432 408l115 -123z" />
    <glyph glyph-name="lslash" unicode="&#x142;" horiz-adv-x="804" 
d="M240 1495h342v-1495h-342v1495zM367 643v59l-299 -278l-109 115l408 381v-60l372 348l107 -114z" />
    <glyph glyph-name="Nacute" unicode="&#x143;" horiz-adv-x="1421" 
d="M129 1434h350l457 -842h4v842h352v-1434h-350l-457 842h-4v-842h-352v1434zM731 1853h334l-260 -297h-273z" />
    <glyph glyph-name="nacute" unicode="&#x144;" horiz-adv-x="1202" 
d="M96 1085h326v-98h4q51 63 128.5 96t170.5 33q180 0 288.5 -117t108.5 -309v-690h-342v635q0 82 -45 128t-123 46q-81 0 -127.5 -47t-46.5 -127v-635h-342v1085zM676 1536h334l-260 -297h-273z" />
    <glyph glyph-name="uni0145" unicode="&#x145;" horiz-adv-x="1421" 
d="M129 1434h350l457 -842h4v842h352v-1434h-350l-457 842h-4v-842h-352v1434zM594 -489q55 13 75.5 38.5t20.5 81.5h-106v267h293v-228q0 -131 -72.5 -207t-210.5 -86v134z" />
    <glyph glyph-name="uni0146" unicode="&#x146;" horiz-adv-x="1202" 
d="M96 1085h326v-98h4q51 63 128.5 96t170.5 33q180 0 288.5 -117t108.5 -309v-690h-342v635q0 82 -45 128t-123 46q-81 0 -127.5 -47t-46.5 -127v-635h-342v1085zM471 -489q55 13 75.5 38.5t20.5 81.5h-106v267h293v-228q0 -131 -72.5 -207t-210.5 -86v134z" />
    <glyph glyph-name="Ncaron" unicode="&#x147;" horiz-adv-x="1421" 
d="M129 1434h350l457 -842h4v842h352v-1434h-350l-457 842h-4v-842h-352v1434zM1030 1718l-147 -182h-346l-146 182l180 133l140 -176l137 176z" />
    <glyph glyph-name="ncaron" unicode="&#x148;" horiz-adv-x="1202" 
d="M96 1085h326v-98h4q51 63 128.5 96t170.5 33q180 0 288.5 -117t108.5 -309v-690h-342v635q0 82 -45 128t-123 46q-81 0 -127.5 -47t-46.5 -127v-635h-342v1085zM975 1401l-148 -182h-346l-145 182l180 133l139 -176l138 176z" />
    <glyph glyph-name="Eng" unicode="&#x14a;" horiz-adv-x="1421" 
d="M1292 1434v-1528q0 -175 -89.5 -258.5t-284.5 -83.5h-144v315h139q64 0 64 64v57l-492 807h-4v-807h-352v1434h315l492 -807h4v807h352z" />
    <glyph glyph-name="eng" unicode="&#x14b;" horiz-adv-x="1202" 
d="M1122 690v-784q0 -175 -89.5 -258.5t-282.5 -83.5h-144v315h109q65 0 65 66v690q0 82 -45 128t-123 46q-81 0 -127.5 -47t-46.5 -127v-635h-342v1085h326v-94h4q51 60 129.5 92.5t169.5 32.5q180 0 288.5 -117t108.5 -309z" />
    <glyph glyph-name="Omacron" unicode="&#x14c;" horiz-adv-x="1398" 
d="M41 715q-3 219 80 392.5t234 269.5t343 93q145 0 268 -55t209 -153t134.5 -239t48.5 -308q0 -222 -83 -393t-233 -265t-344 -94q-293 0 -475 208t-182 544zM1006 715q0 201 -83 316.5t-225 115.5q-140 0 -222.5 -115.5t-82.5 -316.5q0 -200 81.5 -314t223.5 -114t225 114
t83 314zM356 1796h684v-203h-684v203z" />
    <glyph glyph-name="omacron" unicode="&#x14d;" horiz-adv-x="1208" 
d="M47 541q0 256 155 418.5t400 162.5t402 -162.5t157 -418.5q0 -254 -157 -416t-402 -162t-400 161.5t-155 416.5zM819 541q0 129 -56 200.5t-159 71.5t-159 -71.5t-56 -200.5q0 -128 56 -198.5t159 -70.5t159 70.5t56 198.5zM260 1448h684v-203h-684v203z" />
    <glyph glyph-name="Obreve" unicode="&#x14e;" horiz-adv-x="1398" 
d="M41 715q-3 219 80 392.5t234 269.5t343 93q145 0 268 -55t209 -153t134.5 -239t48.5 -308q0 -222 -83 -393t-233 -265t-344 -94q-293 0 -475 208t-182 544zM1006 715q0 201 -83 316.5t-225 115.5q-140 0 -222.5 -115.5t-82.5 -316.5q0 -200 81.5 -314t223.5 -114t225 114
t83 314zM371 1868h176q14 -45 54 -69.5t101 -24.5q60 0 100 25t54 69h176q-8 -137 -96 -216t-234 -79t-234.5 79t-96.5 216z" />
    <glyph glyph-name="obreve" unicode="&#x14f;" horiz-adv-x="1208" 
d="M47 541q0 256 155 418.5t400 162.5t402 -162.5t157 -418.5q0 -254 -157 -416t-402 -162t-400 161.5t-155 416.5zM819 541q0 129 -56 200.5t-159 71.5t-159 -71.5t-56 -200.5q0 -128 56 -198.5t159 -70.5t159 70.5t56 198.5zM274 1520h177q14 -45 54 -70t101 -25
q60 0 100 25t54 70h176q-8 -137 -96 -216t-234 -79t-235 79t-97 216z" />
    <glyph glyph-name="Ohungarumlaut" unicode="&#x150;" horiz-adv-x="1398" 
d="M41 715q-3 219 80 392.5t234 269.5t343 93q145 0 268 -55t209 -153t134.5 -239t48.5 -308q0 -222 -83 -393t-233 -265t-344 -94q-293 0 -475 208t-182 544zM1006 715q0 201 -83 316.5t-225 115.5q-140 0 -222.5 -115.5t-82.5 -316.5q0 -200 81.5 -314t223.5 -114t225 114
t83 314zM522 1890h318l-262 -297h-254zM946 1890h318l-263 -297h-253z" />
    <glyph glyph-name="ohungarumlaut" unicode="&#x151;" horiz-adv-x="1208" 
d="M47 541q0 256 155 418.5t400 162.5t402 -162.5t157 -418.5q0 -254 -157 -416t-402 -162t-400 161.5t-155 416.5zM819 541q0 129 -56 200.5t-159 71.5t-159 -71.5t-56 -200.5q0 -128 56 -198.5t159 -70.5t159 70.5t56 198.5zM426 1542h317l-262 -297h-254zM850 1542h317
l-262 -297h-254z" />
    <glyph glyph-name="OE" unicode="&#x152;" horiz-adv-x="1914" 
d="M41 717q-3 217 76 389t220.5 266.5t317.5 91.5q180 0 295 -88h4v58h881v-314h-539v-250h488v-288h-488v-269h543v-313h-885v57h-4q-109 -88 -295 -88q-132 -2 -247 53t-196.5 153.5t-127 239t-43.5 302.5zM954 426v580q-86 147 -258 147q-148 0 -229.5 -114.5
t-81.5 -321.5q0 -205 82 -320.5t229 -115.5q175 0 258 145z" />
    <glyph glyph-name="oe" unicode="&#x153;" horiz-adv-x="1937" 
d="M1890 446h-735q6 -97 60.5 -147.5t152.5 -50.5q71 0 131 34.5t121 108.5l223 -205q-192 -223 -475 -223q-240 0 -383 143q-69 -69 -166.5 -106t-210.5 -37q-246 0 -403.5 162.5t-157.5 415.5q0 256 157.5 418.5t403.5 162.5q228 0 379 -145q142 145 361 145
q240 0 391 -161t151 -418v-97zM1559 670q-8 86 -59 132t-142 46q-85 0 -138 -46.5t-63 -131.5h402zM825 541q0 133 -56 205.5t-159 72.5q-104 0 -160.5 -72t-56.5 -206q0 -130 56.5 -202.5t160.5 -72.5q102 0 158.5 72.5t56.5 202.5z" />
    <glyph glyph-name="Racute" unicode="&#x154;" horiz-adv-x="1304" 
d="M1262 0h-377l-242 467h-162v-467h-352v1434h606q236 0 370 -127t134 -355q0 -155 -67.5 -268.5t-190.5 -169.5v-2zM887 952q0 164 -193 164h-213v-334h213q92 0 142.5 44t50.5 126zM655 1853h334l-260 -297h-272z" />
    <glyph glyph-name="racute" unicode="&#x155;" horiz-adv-x="808" 
d="M96 1085h322v-98h4q37 59 102 90t142 31q51 0 133 -16l-47 -320q-58 10 -111 10q-203 0 -203 -243v-539h-342v1085zM412 1505h333l-260 -297h-272z" />
    <glyph glyph-name="uni0156" unicode="&#x156;" horiz-adv-x="1304" 
d="M1262 0h-377l-242 467h-162v-467h-352v1434h606q236 0 370 -127t134 -355q0 -155 -67.5 -268.5t-190.5 -169.5v-2zM887 952q0 164 -193 164h-213v-334h213q92 0 142.5 44t50.5 126zM518 -489q55 13 75.5 38.5t20.5 81.5h-106v267h293v-228q0 -131 -72.5 -207t-210.5 -86
v134z" />
    <glyph glyph-name="uni0157" unicode="&#x157;" horiz-adv-x="808" 
d="M96 1085h322v-98h4q37 59 102 90t142 31q51 0 133 -16l-47 -320q-58 10 -111 10q-203 0 -203 -243v-539h-342v1085zM129 -489q55 13 75.5 38.5t20.5 81.5h-106v267h293v-228q0 -131 -72.5 -207t-210.5 -86v134z" />
    <glyph glyph-name="Rcaron" unicode="&#x158;" horiz-adv-x="1304" 
d="M1262 0h-377l-242 467h-162v-467h-352v1434h606q236 0 370 -127t134 -355q0 -155 -67.5 -268.5t-190.5 -169.5v-2zM887 952q0 164 -193 164h-213v-334h213q92 0 142.5 44t50.5 126zM954 1718l-147 -182h-346l-146 182l181 133l139 -176l137 176z" />
    <glyph glyph-name="rcaron" unicode="&#x159;" horiz-adv-x="808" 
d="M96 1085h322v-98h4q37 59 102 90t142 31q51 0 133 -16l-47 -320q-58 10 -111 10q-203 0 -203 -243v-539h-342v1085zM711 1370l-148 -182h-346l-145 182l180 133l139 -176l137 176z" />
    <glyph glyph-name="Sacute" unicode="&#x15a;" horiz-adv-x="1230" 
d="M27 485l333 60q26 -147 95.5 -212t199.5 -65q96 0 149.5 33t53.5 90q0 67 -66 112t-260 113q-244 85 -348 185t-104 250q0 184 144.5 301.5t369.5 117.5q222 0 379.5 -121.5t191.5 -318.5l-334 -63q-53 198 -237 198q-78 0 -124 -30.5t-46 -81.5q0 -47 61 -84t244 -97
q250 -86 362.5 -200.5t112.5 -282.5q0 -191 -152 -308.5t-401 -117.5q-266 0 -429 136t-195 386zM614 1890h334l-260 -297h-272z" />
    <glyph glyph-name="sacute" unicode="&#x15b;" horiz-adv-x="1028" 
d="M27 342l295 76q26 -98 80 -141.5t151 -43.5q64 0 98.5 18.5t34.5 53.5q0 40 -42.5 64t-168.5 61q-213 62 -306 140t-93 210q0 148 122 245t310 97q178 0 303 -94q125 -91 160 -248l-289 -65q-46 141 -182 141q-51 0 -83 -20.5t-32 -51.5q0 -29 38.5 -48.5t147.5 -49.5
q227 -65 327.5 -149t100.5 -226q0 -154 -124 -251t-322 -97q-214 0 -351 98t-175 281zM528 1542h334l-260 -297h-272z" />
    <glyph glyph-name="Scircumflex" unicode="&#x15c;" horiz-adv-x="1230" 
d="M27 485l333 60q26 -147 95.5 -212t199.5 -65q96 0 149.5 33t53.5 90q0 67 -66 112t-260 113q-244 85 -348 185t-104 250q0 184 144.5 301.5t369.5 117.5q222 0 379.5 -121.5t191.5 -318.5l-334 -63q-53 198 -237 198q-78 0 -124 -30.5t-46 -81.5q0 -47 61 -84t244 -97
q250 -86 362.5 -200.5t112.5 -282.5q0 -191 -152 -308.5t-401 -117.5q-266 0 -429 136t-195 386zM731 1552l-137 177l-139 -177l-181 134l146 182h346l147 -182z" />
    <glyph glyph-name="scircumflex" unicode="&#x15d;" horiz-adv-x="1028" 
d="M27 342l295 76q26 -98 80 -141.5t151 -43.5q64 0 98.5 18.5t34.5 53.5q0 40 -42.5 64t-168.5 61q-213 62 -306 140t-93 210q0 148 122 245t310 97q178 0 303 -94q125 -91 160 -248l-289 -65q-46 141 -182 141q-51 0 -83 -20.5t-32 -51.5q0 -29 38.5 -48.5t147.5 -49.5
q227 -65 327.5 -149t100.5 -226q0 -154 -124 -251t-322 -97q-214 0 -351 98t-175 281zM645 1204l-137 176l-139 -176l-181 133l146 183h346l147 -183z" />
    <glyph glyph-name="Scedilla" unicode="&#x15e;" horiz-adv-x="1230" 
d="M27 485l333 60q26 -147 95.5 -212t199.5 -65q96 0 149.5 33t53.5 90q0 67 -66 112t-260 113q-244 85 -348 185t-104 250q0 184 144.5 301.5t369.5 117.5q222 0 379.5 -121.5t191.5 -318.5l-334 -63q-53 198 -237 198q-78 0 -124 -30.5t-46 -81.5q0 -47 61 -84t244 -97
q250 -86 362.5 -200.5t112.5 -282.5q0 -191 -152 -308.5t-401 -117.5q-266 0 -429 136t-195 386zM934 -322q0 -109 -71 -175t-187 -66q-143 0 -250 82l102 155q74 -51 134 -51q38 0 60.5 19.5t22.5 50.5q0 29 -22 47t-57 18q-56 0 -103 -41l-125 52l158 276l121 -68l-47 -79
q6 2 24 2q108 0 174 -61.5t66 -160.5z" />
    <glyph glyph-name="scedilla" unicode="&#x15f;" horiz-adv-x="1028" 
d="M27 342l295 76q26 -98 80 -141.5t151 -43.5q64 0 98.5 18.5t34.5 53.5q0 40 -42.5 64t-168.5 61q-213 62 -306 140t-93 210q0 148 122 245t310 97q178 0 303 -94q125 -91 160 -248l-289 -65q-46 141 -182 141q-51 0 -83 -20.5t-32 -51.5q0 -29 38.5 -48.5t147.5 -49.5
q227 -65 327.5 -149t100.5 -226q0 -154 -124 -251t-322 -97q-214 0 -351 98t-175 281zM836 -322q0 -109 -71 -175t-187 -66q-143 0 -250 82l102 155q74 -51 133 -51q38 0 61 19.5t23 50.5q0 29 -22.5 47t-57.5 18q-55 0 -102 -41l-125 52l158 276l120 -68l-47 -79q6 2 25 2
q108 0 174 -61.5t66 -160.5z" />
    <glyph glyph-name="Scaron" unicode="&#x160;" horiz-adv-x="1230" 
d="M27 485l333 60q26 -147 95.5 -212t199.5 -65q96 0 149.5 33t53.5 90q0 67 -66 112t-260 113q-244 85 -348 185t-104 250q0 184 144.5 301.5t369.5 117.5q222 0 379.5 -121.5t191.5 -318.5l-334 -63q-53 198 -237 198q-78 0 -124 -30.5t-46 -81.5q0 -47 61 -84t244 -97
q250 -86 362.5 -200.5t112.5 -282.5q0 -191 -152 -308.5t-401 -117.5q-266 0 -429 136t-195 386zM913 1755l-147 -182h-346l-146 182l181 133l139 -176l137 176z" />
    <glyph glyph-name="scaron" unicode="&#x161;" horiz-adv-x="1028" 
d="M27 342l295 76q26 -98 80 -141.5t151 -43.5q64 0 98.5 18.5t34.5 53.5q0 40 -42.5 64t-168.5 61q-213 62 -306 140t-93 210q0 148 122 245t310 97q178 0 303 -94q125 -91 160 -248l-289 -65q-46 141 -182 141q-51 0 -83 -20.5t-32 -51.5q0 -29 38.5 -48.5t147.5 -49.5
q227 -65 327.5 -149t100.5 -226q0 -154 -124 -251t-322 -97q-214 0 -351 98t-175 281zM827 1407l-147 -182h-346l-146 182l181 133l139 -176l137 176z" />
    <glyph glyph-name="uni0162" unicode="&#x162;" horiz-adv-x="1239" 
d="M444 1110h-407v324h1165v-324h-405v-1110h-353v1110zM903 -287q0 -109 -71 -175t-187 -66q-143 0 -250 82l103 155q74 -51 133 -51q38 0 61 19.5t23 50.5q0 29 -22.5 47t-57.5 18q-56 0 -103 -41l-124 51l157 277l121 -68l-47 -80q6 2 25 2q108 0 173.5 -61t65.5 -160z
" />
    <glyph glyph-name="uni0163" unicode="&#x163;" horiz-adv-x="837" 
d="M539 803v-393q0 -51 22.5 -72t79.5 -21h121v-317h-164q-210 0 -305.5 90.5t-95.5 286.5v426h-193v282h193v281h342v-281h264v-282h-264zM758 -287q0 -109 -71 -175t-187 -66q-143 0 -250 82l102 155q74 -51 133 -51q38 0 61 19.5t23 50.5q0 29 -22.5 47t-57.5 18
q-55 0 -102 -41l-125 51l158 277l121 -68l-47 -80q6 2 24 2q108 0 174 -61t66 -160z" />
    <glyph glyph-name="Tcaron" unicode="&#x164;" horiz-adv-x="1239" 
d="M444 1110h-407v324h1165v-324h-405v-1110h-353v1110zM940 1718l-147 -182h-347l-145 182l180 133l140 -176l137 176z" />
    <glyph glyph-name="tcaron" unicode="&#x165;" horiz-adv-x="876" 
d="M539 803v-393q0 -51 22.5 -72t79.5 -21h121v-317h-164q-210 0 -305.5 90.5t-95.5 286.5v426h-193v282h193v281h342v-281h264v-282h-264zM664 1311q55 13 75.5 39t20.5 82h-107v266h293v-228q0 -131 -72 -206.5t-210 -85.5v133z" />
    <glyph glyph-name="Tbar" unicode="&#x166;" horiz-adv-x="1239" 
d="M444 1110h-407v324h1165v-324h-405v-1110h-353v1110zM236 795h770v-263h-770v263z" />
    <glyph glyph-name="tbar" unicode="&#x167;" horiz-adv-x="837" 
d="M539 803v-393q0 -51 22.5 -72t79.5 -21h121v-317h-164q-210 0 -305.5 90.5t-95.5 286.5v426h-193v282h193v281h342v-281h264v-282h-264zM4 680h799v-209h-799v209z" />
    <glyph glyph-name="Utilde" unicode="&#x168;" horiz-adv-x="1384" 
d="M119 481v953h352v-924q0 -117 52.5 -170t168.5 -53q115 0 168 54t53 167v926h353v-953q0 -246 -151 -382t-423 -136q-275 0 -424 135t-149 383zM672 1595q-72 35 -103 35q-57 0 -69 -74h-160q6 129 60 200t147 71q40 0 75 -11t91 -38q72 -33 102 -33q58 0 70 72h159
q-4 -130 -58 -201.5t-146 -71.5q-77 0 -168 51z" />
    <glyph glyph-name="utilde" unicode="&#x169;" horiz-adv-x="1183" 
d="M76 371v714h342v-634q0 -172 160 -172q77 0 122 46.5t45 125.5v634h342v-1085h-325v102h-4q-103 -133 -295 -133q-184 0 -285.5 105.5t-101.5 296.5zM561 1247q-72 35 -102 35q-58 0 -70 -74h-160q6 129 60 200t147 71q40 0 75 -11t91 -38q72 -33 103 -33q57 0 69 71h160
q-4 -130 -58 -201t-147 -71q-77 0 -168 51z" />
    <glyph glyph-name="Umacron" unicode="&#x16a;" horiz-adv-x="1384" 
d="M119 481v953h352v-924q0 -117 52.5 -170t168.5 -53q115 0 168 54t53 167v926h353v-953q0 -246 -151 -382t-423 -136q-275 0 -424 135t-149 383zM350 1759h684v-203h-684v203z" />
    <glyph glyph-name="umacron" unicode="&#x16b;" horiz-adv-x="1183" 
d="M76 371v714h342v-634q0 -172 160 -172q77 0 122 46.5t45 125.5v634h342v-1085h-325v102h-4q-103 -133 -295 -133q-184 0 -285.5 105.5t-101.5 296.5zM240 1411h684v-203h-684v203z" />
    <glyph glyph-name="Ubreve" unicode="&#x16c;" horiz-adv-x="1384" 
d="M119 481v953h352v-924q0 -117 52.5 -170t168.5 -53q115 0 168 54t53 167v926h353v-953q0 -246 -151 -382t-423 -136q-275 0 -424 135t-149 383zM365 1831h176q14 -45 54 -69.5t101 -24.5q60 0 100 25t54 69h176q-8 -137 -96 -216t-234 -79t-234.5 79t-96.5 216z" />
    <glyph glyph-name="ubreve" unicode="&#x16d;" horiz-adv-x="1183" 
d="M76 371v714h342v-634q0 -172 160 -172q77 0 122 46.5t45 125.5v634h342v-1085h-325v102h-4q-103 -133 -295 -133q-184 0 -285.5 105.5t-101.5 296.5zM254 1483h176q14 -45 54.5 -69.5t101.5 -24.5q60 0 99.5 24.5t53.5 69.5h176q-8 -137 -95.5 -216t-233.5 -79t-235 79
t-97 216z" />
    <glyph glyph-name="Uring" unicode="&#x16e;" horiz-adv-x="1384" 
d="M119 481v953h352v-924q0 -117 52.5 -170t168.5 -53q115 0 168 54t53 167v926h353v-953q0 -246 -151 -382t-423 -136q-275 0 -424 135t-149 383zM362 1712q0 125 95 208t237 83t237 -83t95 -208t-95 -208t-237 -83t-237 83t-95 208zM831 1712q0 60 -38.5 97.5t-98.5 37.5
q-61 0 -99 -37.5t-38 -97.5t38 -97.5t99 -37.5q60 0 98.5 37.5t38.5 97.5z" />
    <glyph glyph-name="uring" unicode="&#x16f;" horiz-adv-x="1183" 
d="M76 371v714h342v-634q0 -172 160 -172q77 0 122 46.5t45 125.5v634h342v-1085h-325v102h-4q-103 -133 -295 -133q-184 0 -285.5 105.5t-101.5 296.5zM264 1405q0 125 95 208t237 83t237 -83t95 -208t-95 -208t-237 -83t-237 83t-95 208zM733 1405q0 60 -38.5 97.5
t-98.5 37.5q-61 0 -99 -37.5t-38 -97.5t38 -97.5t99 -37.5q60 0 98.5 37.5t38.5 97.5z" />
    <glyph glyph-name="Uhungarumlaut" unicode="&#x170;" horiz-adv-x="1384" 
d="M119 481v953h352v-924q0 -117 52.5 -170t168.5 -53q115 0 168 54t53 167v926h353v-953q0 -246 -151 -382t-423 -136q-275 0 -424 135t-149 383zM516 1853h318l-263 -297h-254zM940 1853h317l-262 -297h-254z" />
    <glyph glyph-name="uhungarumlaut" unicode="&#x171;" horiz-adv-x="1183" 
d="M76 371v714h342v-634q0 -172 160 -172q77 0 122 46.5t45 125.5v634h342v-1085h-325v102h-4q-103 -133 -295 -133q-184 0 -285.5 105.5t-101.5 296.5zM406 1505h317l-262 -297h-254zM829 1505h318l-262 -297h-254z" />
    <glyph glyph-name="Uogonek" unicode="&#x172;" horiz-adv-x="1384" 
d="M119 481v953h352v-924q0 -117 52.5 -170t168.5 -53q115 0 168 54t53 167v926h353v-953q0 -246 -151 -382t-423 -136q-275 0 -424 135t-149 383zM580 -254q0 159 221 285l139 -31q-141 -102 -141 -182q0 -54 53 -54q51 0 113 33l75 -186q-109 -53 -225 -53
q-110 0 -172.5 49t-62.5 139z" />
    <glyph glyph-name="uogonek" unicode="&#x173;" horiz-adv-x="1183" 
d="M76 371v714h342v-634q0 -172 160 -172q77 0 122 46.5t45 125.5v634h342v-1085h-325v102h-4q-103 -133 -295 -133q-184 0 -285.5 105.5t-101.5 296.5zM676 -254q0 159 221 285l139 -31q-141 -102 -141 -182q0 -54 53 -54q51 0 113 33l76 -186q-109 -53 -226 -53
q-110 0 -172.5 49t-62.5 139z" />
    <glyph glyph-name="Wcircumflex" unicode="&#x174;" horiz-adv-x="1888" 
d="M14 1434h357l176 -883h4l258 883h270l258 -883h4l177 883h358l-303 -1434h-356l-271 877h-4l-266 -877h-359zM1081 1516l-137 176l-139 -176l-180 133l145 182h346l148 -182z" />
    <glyph glyph-name="wcircumflex" unicode="&#x175;" horiz-adv-x="1689" 
d="M25 1085h342l129 -634h4l198 634h293l199 -634h4l129 634h342l-254 -1085h-346l-217 690h-4l-219 -690h-346zM983 1167l-137 176l-139 -176l-181 133l146 183h346l147 -183z" />
    <glyph glyph-name="Ycircumflex" unicode="&#x176;" horiz-adv-x="1288" 
d="M469 584l-496 850h389l279 -531h6l281 531h389l-496 -850v-584h-352v584zM782 1516l-137 176l-139 -176l-180 133l145 182h346l148 -182z" />
    <glyph glyph-name="ycircumflex" unicode="&#x177;" horiz-adv-x="1196" 
d="M424 53l-430 1032h366l238 -641h4l236 641h364l-635 -1546h-356zM735 1167l-137 176l-139 -176l-180 133l145 183h346l148 -183z" />
    <glyph glyph-name="Ydieresis" unicode="&#x178;" horiz-adv-x="1288" 
d="M469 584l-496 850h389l279 -531h6l281 531h389l-496 -850v-584h-352v584zM283 1817h282v-281h-282v281zM723 1817h285v-281h-285v281z" />
    <glyph glyph-name="Zacute" unicode="&#x179;" horiz-adv-x="1202" 
d="M66 291l624 815v4h-606v324h1053v-291l-625 -815v-4h625v-324h-1071v291zM631 1853h334l-260 -297h-273z" />
    <glyph glyph-name="zacute" unicode="&#x17a;" horiz-adv-x="1095" 
d="M45 252l512 532v4h-504v297h965v-251l-512 -533v-4h545v-297h-1006v252zM567 1505h334l-260 -297h-272z" />
    <glyph glyph-name="Zdotaccent" unicode="&#x17b;" horiz-adv-x="1202" 
d="M66 291l624 815v4h-606v324h1053v-291l-625 -815v-4h625v-324h-1071v291zM467 1837h283v-281h-283v281z" />
    <glyph glyph-name="zdotaccent" unicode="&#x17c;" horiz-adv-x="1095" 
d="M45 252l512 532v4h-504v297h965v-251l-512 -533v-4h545v-297h-1006v252zM381 1563h330v-308h-330v308z" />
    <glyph glyph-name="Zcaron" unicode="&#x17d;" horiz-adv-x="1202" 
d="M66 291l624 815v4h-606v324h1053v-291l-625 -815v-4h625v-324h-1071v291zM930 1718l-148 -182h-346l-145 182l180 133l139 -176l138 176z" />
    <glyph glyph-name="zcaron" unicode="&#x17e;" horiz-adv-x="1095" 
d="M45 252l512 532v4h-504v297h965v-251l-512 -533v-4h545v-297h-1006v252zM866 1370l-147 -182h-346l-146 182l181 133l139 -176l137 176z" />
    <glyph glyph-name="longs" unicode="&#x17f;" horiz-adv-x="692" 
d="M203 805h-199v280h199v117q0 149 90.5 232.5t255.5 83.5h223v-283h-147q-80 0 -80 -76v-1159h-342v805z" />
    <glyph glyph-name="uni018E" unicode="&#x18e;" horiz-adv-x="1157" 
d="M76 0v322h600v256h-545v294h545v240h-596v322h948v-1434h-952z" />
    <glyph glyph-name="uni018F" unicode="&#x18f;" horiz-adv-x="1357" 
d="M41 715v125h917q-12 146 -86.5 226.5t-197.5 80.5q-201 0 -262 -205l-332 92q63 209 218 322.5t376 113.5q299 0 471 -202t172 -551t-172.5 -551.5t-470.5 -202.5q-296 0 -464.5 200.5t-168.5 551.5zM952 565h-544q11 -131 80.5 -204.5t187.5 -73.5q117 0 191.5 74.5
t84.5 203.5z" />
    <glyph glyph-name="florin" unicode="&#x192;" horiz-adv-x="974" 
d="M662 1147l-9 -62h260v-282h-311l-162 -922q-59 -317 -393 -317h-166v282h119q49 0 73.5 20.5t32.5 67.5l154 869h-237v282h288l19 115q53 318 391 318h209v-283h-162q-94 0 -106 -88z" />
    <glyph glyph-name="uni01CD" unicode="&#x1cd;" horiz-adv-x="1314" 
d="M918 203h-521l-65 -203h-348l501 1434h342l504 -1434h-348zM821 502l-162 497h-4l-161 -497h327zM977 1718l-148 -182h-346l-145 182l180 133l139 -176l138 176z" />
    <glyph glyph-name="uni01CE" unicode="&#x1ce;" horiz-adv-x="1075" 
d="M53 301q0 131 88.5 211t284.5 127q137 32 187.5 59t50.5 68t-35.5 63.5t-98.5 22.5q-153 0 -180 -166l-303 64q25 164 159.5 268t323.5 104q210 0 337.5 -115.5t127.5 -304.5v-702h-297v90h-4q-32 -57 -104.5 -89t-169.5 -32q-170 0 -268.5 89t-98.5 243zM670 375v133h-4
q-11 -23 -41 -40.5t-97 -37.5q-84 -25 -117.5 -49.5t-33.5 -61.5q0 -79 110 -79q75 0 129 40t54 95zM850 1407l-148 -182h-346l-145 182l180 133l139 -176l138 176z" />
    <glyph glyph-name="uni01CF" unicode="&#x1cf;" horiz-adv-x="612" 
d="M129 1434h352v-1434h-352v1434zM627 1718l-148 -182h-346l-145 182l180 133l139 -176l137 176z" />
    <glyph glyph-name="uni01D0" unicode="&#x1d0;" horiz-adv-x="532" 
d="M96 1085h342v-1085h-342v1085zM586 1370l-148 -182h-346l-145 182l180 133l139 -176l137 176z" />
    <glyph glyph-name="uni01D1" unicode="&#x1d1;" horiz-adv-x="1398" 
d="M41 715q-3 219 80 392.5t234 269.5t343 93q145 0 268 -55t209 -153t134.5 -239t48.5 -308q0 -222 -83 -393t-233 -265t-344 -94q-293 0 -475 208t-182 544zM1006 715q0 201 -83 316.5t-225 115.5q-140 0 -222.5 -115.5t-82.5 -316.5q0 -200 81.5 -314t223.5 -114t225 114
t83 314zM1018 1755l-148 -182h-346l-145 182l180 133l139 -176l138 176z" />
    <glyph glyph-name="uni01D2" unicode="&#x1d2;" horiz-adv-x="1208" 
d="M47 541q0 256 155 418.5t400 162.5t402 -162.5t157 -418.5q0 -254 -157 -416t-402 -162t-400 161.5t-155 416.5zM819 541q0 129 -56 200.5t-159 71.5t-159 -71.5t-56 -200.5q0 -128 56 -198.5t159 -70.5t159 70.5t56 198.5zM922 1407l-148 -182h-346l-145 182l180 133
l139 -176l137 176z" />
    <glyph glyph-name="uni01D3" unicode="&#x1d3;" horiz-adv-x="1384" 
d="M119 481v953h352v-924q0 -117 52.5 -170t168.5 -53q115 0 168 54t53 167v926h353v-953q0 -246 -151 -382t-423 -136q-275 0 -424 135t-149 383zM1012 1718l-148 -182h-346l-145 182l180 133l139 -176l137 176z" />
    <glyph glyph-name="uni01D4" unicode="&#x1d4;" horiz-adv-x="1183" 
d="M76 371v714h342v-634q0 -172 160 -172q77 0 122 46.5t45 125.5v634h342v-1085h-325v102h-4q-103 -133 -295 -133q-184 0 -285.5 105.5t-101.5 296.5zM901 1370l-147 -182h-346l-146 182l180 133l140 -176l137 176z" />
    <glyph glyph-name="uni01D5" unicode="&#x1d5;" horiz-adv-x="1384" 
d="M119 481v953h352v-924q0 -117 52.5 -170t168.5 -53q115 0 168 54t53 167v926h353v-953q0 -246 -151 -382t-423 -136q-275 0 -424 135t-149 383zM330 1817h282v-281h-282v281zM770 1817h285v-281h-285v281zM350 2101h684v-203h-684v203z" />
    <glyph glyph-name="uni01D6" unicode="&#x1d6;" horiz-adv-x="1183" 
d="M76 371v714h342v-634q0 -172 160 -172q77 0 122 46.5t45 125.5v634h342v-1085h-325v102h-4q-103 -133 -295 -133q-184 0 -285.5 105.5t-101.5 296.5zM219 1468h283v-280h-283v280zM659 1468h285v-280h-285v280zM240 1753h684v-203h-684v203z" />
    <glyph glyph-name="uni01D7" unicode="&#x1d7;" horiz-adv-x="1384" 
d="M119 481v953h352v-924q0 -117 52.5 -170t168.5 -53q115 0 168 54t53 167v926h353v-953q0 -246 -151 -382t-423 -136q-275 0 -424 135t-149 383zM330 1817h282v-281h-282v281zM770 1817h285v-281h-285v281zM713 2195h334l-261 -297h-272z" />
    <glyph glyph-name="uni01D8" unicode="&#x1d8;" horiz-adv-x="1183" 
d="M76 371v714h342v-634q0 -172 160 -172q77 0 122 46.5t45 125.5v634h342v-1085h-325v102h-4q-103 -133 -295 -133q-184 0 -285.5 105.5t-101.5 296.5zM219 1468h283v-280h-283v280zM659 1468h285v-280h-285v280zM602 1847h334l-260 -297h-273z" />
    <glyph glyph-name="uni01D9" unicode="&#x1d9;" horiz-adv-x="1384" 
d="M119 481v953h352v-924q0 -117 52.5 -170t168.5 -53q115 0 168 54t53 167v926h353v-953q0 -246 -151 -382t-423 -136q-275 0 -424 135t-149 383zM330 1817h282v-281h-282v281zM770 1817h285v-281h-285v281zM1012 2060l-148 -182h-346l-145 182l180 133l139 -176l137 176z
" />
    <glyph glyph-name="uni01DA" unicode="&#x1da;" horiz-adv-x="1183" 
d="M76 371v714h342v-634q0 -172 160 -172q77 0 122 46.5t45 125.5v634h342v-1085h-325v102h-4q-103 -133 -295 -133q-184 0 -285.5 105.5t-101.5 296.5zM219 1468h283v-280h-283v280zM659 1468h285v-280h-285v280zM901 1712l-147 -182h-346l-146 182l180 133l140 -176
l137 176z" />
    <glyph glyph-name="uni01DB" unicode="&#x1db;" horiz-adv-x="1384" 
d="M119 481v953h352v-924q0 -117 52.5 -170t168.5 -53q115 0 168 54t53 167v926h353v-953q0 -246 -151 -382t-423 -136q-275 0 -424 135t-149 383zM330 1817h282v-281h-282v281zM770 1817h285v-281h-285v281zM326 2195h336l196 -297h-270z" />
    <glyph glyph-name="uni01DC" unicode="&#x1dc;" horiz-adv-x="1183" 
d="M76 371v714h342v-634q0 -172 160 -172q77 0 122 46.5t45 125.5v634h342v-1085h-325v102h-4q-103 -133 -295 -133q-184 0 -285.5 105.5t-101.5 296.5zM219 1468h283v-280h-283v280zM659 1468h285v-280h-285v280zM215 1847h336l197 -297h-271z" />
    <glyph glyph-name="uni01DE" unicode="&#x1de;" horiz-adv-x="1314" 
d="M918 203h-521l-65 -203h-348l501 1434h342l504 -1434h-348zM821 502l-162 497h-4l-161 -497h327zM295 1817h283v-281h-283v281zM735 1817h285v-281h-285v281zM315 2101h684v-203h-684v203z" />
    <glyph glyph-name="uni01DF" unicode="&#x1df;" horiz-adv-x="1075" 
d="M53 301q0 131 88.5 211t284.5 127q137 32 187.5 59t50.5 68t-35.5 63.5t-98.5 22.5q-153 0 -180 -166l-303 64q25 164 159.5 268t323.5 104q210 0 337.5 -115.5t127.5 -304.5v-702h-297v90h-4q-32 -57 -104.5 -89t-169.5 -32q-170 0 -268.5 89t-98.5 243zM670 375v133h-4
q-11 -23 -41 -40.5t-97 -37.5q-84 -25 -117.5 -49.5t-33.5 -61.5q0 -79 110 -79q75 0 129 40t54 95zM168 1505h283v-280h-283v280zM608 1505h285v-280h-285v280zM188 1790h684v-203h-684v203z" />
    <glyph glyph-name="Aringacute" unicode="&#x1fa;" horiz-adv-x="1314" 
d="M918 203h-521l-65 -203h-348l501 1434h342l504 -1434h-348zM821 502l-162 497h-4l-161 -497h327zM326 1569q0 125 94.5 208t236.5 83t237 -83t95 -208t-95 -208t-237 -83t-236.5 83t-94.5 208zM795 1569q0 60 -39 97.5t-99 37.5q-61 0 -99 -37.5t-38 -97.5t38 -97.5
t99 -37.5q60 0 99 37.5t39 97.5zM678 2107h334l-260 -297h-273z" />
    <glyph glyph-name="aringacute" unicode="&#x1fb;" horiz-adv-x="1095" 
d="M238 1430q0 84 46.5 146.5t127.5 92.5l174 262h334l-238 -270q73 -32 113.5 -93t40.5 -138q0 -113 -86 -187t-213 -74q-130 0 -214.5 74t-84.5 187zM659 1430q0 54 -34 88t-88 34q-55 0 -90 -34t-35 -88t34.5 -87.5t90.5 -33.5q54 0 88 33.5t34 87.5zM995 702v-702h-297
v90h-4q-32 -57 -104.5 -89t-169.5 -32q-170 0 -268.5 89t-98.5 243q0 131 88.5 211t284.5 127q137 32 187.5 59t50.5 68t-35.5 63.5t-98.5 22.5q-153 0 -180 -166l-303 64q25 164 159.5 268t323.5 104q210 0 337.5 -115.5t127.5 -304.5zM670 508h-4q-11 -23 -41 -40.5
t-97 -37.5q-84 -25 -117.5 -49.5t-33.5 -61.5q0 -79 110 -79q75 0 129 40t54 95v133z" />
    <glyph glyph-name="AEacute" unicode="&#x1fc;" horiz-adv-x="1789" 
d="M1716 297v-297h-817v209h-465l-80 -209h-370l579 1434h1149v-297h-485v-271h434v-276h-434v-293h489zM899 500v637h-106l-246 -637h352zM924 1853h333l-260 -297h-272z" />
    <glyph glyph-name="aeacute" unicode="&#x1fd;" horiz-adv-x="1740" 
d="M1692 446h-703q6 -100 60 -153t151 -53q142 0 248 149l219 -192q-167 -234 -455 -234q-246 0 -383 162q-138 -162 -383 -162q-177 0 -280 89t-103 243q0 110 55.5 182t145.5 107q73 30 203 63q123 33 166 56t43 65q0 43 -35.5 67.5t-103.5 24.5q-84 0 -136 -43t-65 -129
l-289 62q25 166 161.5 269t330.5 103q212 0 323 -123q129 123 324 123q222 0 364 -161t142 -418v-97zM1380 670q-7 88 -58 136t-136 48q-80 0 -133.5 -49t-63.5 -135h391zM684 514h-4q-11 -25 -44.5 -42.5t-100.5 -37.5q-87 -27 -123.5 -51t-36.5 -66q0 -43 31.5 -66.5
t91.5 -23.5q81 0 133.5 41.5t52.5 104.5v141zM889 1505h334l-260 -297h-273z" />
    <glyph glyph-name="Oslashacute" unicode="&#x1fe;" horiz-adv-x="1398" 
d="M1358 715q0 -222 -83 -393t-233 -265t-344 -94q-151 0 -274 57l-64 -116l-161 90l69 129q-110 100 -168.5 252t-58.5 340q-3 219 80 392.5t234 269.5t343 93q150 0 279 -57l63 117l160 -92l-70 -129q110 -100 169 -253t59 -341zM442 438l381 695q-56 26 -125 26
q-146 0 -229.5 -118.5t-83.5 -325.5q0 -169 57 -277zM1014 715q0 168 -58 278l-378 -694q58 -25 120 -25q147 0 231.5 118t84.5 323zM719 1890h334l-260 -297h-273z" />
    <glyph glyph-name="oslashacute" unicode="&#x1ff;" horiz-adv-x="1208" 
d="M1161 541q0 -254 -157 -416t-402 -162q-166 0 -291 76l-78 -100l-122 94l79 102q-143 162 -143 406q0 256 155 418.5t400 162.5q169 0 297 -78l84 109l121 -94l-86 -111q143 -162 143 -407zM401 406l308 395q-43 24 -105 24q-106 0 -164.5 -74.5t-58.5 -209.5
q0 -82 20 -135zM829 541q0 83 -20 139l-307 -397q51 -23 102 -23q106 0 165.5 74t59.5 207zM623 1542h333l-260 -297h-272z" />
    <glyph glyph-name="uni0218" unicode="&#x218;" horiz-adv-x="1230" 
d="M27 485l333 60q26 -147 95.5 -212t199.5 -65q96 0 149.5 33t53.5 90q0 67 -66 112t-260 113q-244 85 -348 185t-104 250q0 184 144.5 301.5t369.5 117.5q222 0 379.5 -121.5t191.5 -318.5l-334 -63q-53 198 -237 198q-78 0 -124 -30.5t-46 -81.5q0 -47 61 -84t244 -97
q250 -86 362.5 -200.5t112.5 -282.5q0 -191 -152 -308.5t-401 -117.5q-266 0 -429 136t-195 386zM514 -526q55 13 75.5 38.5t20.5 81.5h-106v267h293v-228q0 -131 -72.5 -206.5t-210.5 -85.5v133z" />
    <glyph glyph-name="uni0219" unicode="&#x219;" horiz-adv-x="1028" 
d="M27 342l295 76q26 -98 80 -141.5t151 -43.5q64 0 98.5 18.5t34.5 53.5q0 40 -42.5 64t-168.5 61q-213 62 -306 140t-93 210q0 148 122 245t310 97q178 0 303 -94q125 -91 160 -248l-289 -65q-46 141 -182 141q-51 0 -83 -20.5t-32 -51.5q0 -29 38.5 -48.5t147.5 -49.5
q227 -65 327.5 -149t100.5 -226q0 -154 -124 -251t-322 -97q-214 0 -351 98t-175 281zM416 -526q55 13 75.5 38.5t20.5 81.5h-106v267h292v-228q0 -131 -72 -206.5t-210 -85.5v133z" />
    <glyph glyph-name="uni021A" unicode="&#x21a;" horiz-adv-x="1239" 
d="M444 1110h-407v324h1165v-324h-405v-1110h-353v1110zM483 -489q56 14 76.5 39.5t20.5 80.5h-107v267h293v-228q0 -131 -72.5 -207t-210.5 -86v134z" />
    <glyph glyph-name="uni021B" unicode="&#x21b;" horiz-adv-x="837" 
d="M539 803v-393q0 -51 22.5 -72t79.5 -21h121v-317h-164q-210 0 -305.5 90.5t-95.5 286.5v426h-193v282h193v281h342v-281h264v-282h-264zM338 -489q55 13 75.5 38.5t20.5 81.5h-106v267h293v-228q0 -131 -72.5 -207t-210.5 -86v134z" />
    <glyph glyph-name="uni0228" unicode="&#x228;" horiz-adv-x="1157" 
d="M129 1434h948v-322h-596v-240h545v-294h-545v-256h600v-322h-952v1434zM889 -287q0 -109 -71 -175t-187 -66q-143 0 -250 82l102 155q74 -51 133 -51q38 0 61 19.5t23 50.5q0 29 -22 47t-57 18q-56 0 -103 -41l-125 51l158 277l121 -68l-47 -80q6 2 24 2q108 0 174 -61
t66 -160z" />
    <glyph glyph-name="uni0229" unicode="&#x229;" horiz-adv-x="1165" 
d="M47 541q0 168 68.5 300.5t190.5 206.5t276 74q238 0 387 -160.5t149 -418.5v-97h-733q6 -100 61.5 -153t153.5 -53q140 0 252 147l221 -197q-184 -227 -473 -227q-249 0 -401 158.5t-152 419.5zM795 670q-8 88 -60.5 136t-144.5 48q-85 0 -140.5 -49t-62.5 -135h408z
M883 -322q0 -109 -71 -175t-187 -66q-143 0 -250 82l102 155q74 -51 133 -51q38 0 61 19.5t23 50.5q0 29 -22.5 47t-57.5 18q-55 0 -102 -41l-125 52l158 276l121 -68l-48 -79q6 2 25 2q108 0 174 -61.5t66 -160.5z" />
    <glyph glyph-name="uni0237" unicode="&#x237;" horiz-adv-x="550" 
d="M-106 -129h131q49 0 69.5 17.5t20.5 60.5v1136h342v-1153q0 -199 -91.5 -287.5t-297.5 -88.5h-174v315z" />
    <glyph glyph-name="uni0258" unicode="&#x258;" horiz-adv-x="1165" 
d="M92 190l221 197q112 -147 252 -147q98 0 153.5 53t61.5 153h-733v97q0 258 149.5 418.5t387.5 160.5q154 0 275.5 -74t190 -206.5t68.5 -300.5q0 -261 -152 -419.5t-401 -158.5q-289 0 -473 227zM575 854q-92 0 -144 -48t-60 -136h407q-7 86 -62.5 135t-140.5 49z" />
    <glyph glyph-name="uni0259" unicode="&#x259;" horiz-adv-x="1165" 
d="M47 543v96h733q-6 100 -61.5 153.5t-153.5 53.5q-72 0 -132.5 -36t-121.5 -112l-221 195q186 229 475 229q249 0 401 -158t152 -419q0 -255 -150.5 -418.5t-383.5 -163.5q-238 0 -387.5 161t-149.5 419zM778 416h-407q8 -88 60 -136.5t144 -48.5q85 0 140.5 49.5
t62.5 135.5z" />
    <glyph glyph-name="circumflex" unicode="&#x2c6;" horiz-adv-x="815" 
d="M545 1167l-137 176l-140 -176l-180 133l145 183h347l147 -183z" />
    <glyph glyph-name="caron" unicode="&#x2c7;" horiz-adv-x="815" 
d="M727 1370l-147 -182h-347l-145 182l180 133l140 -176l137 176z" />
    <glyph glyph-name="breve" unicode="&#x2d8;" horiz-adv-x="792" 
d="M88 1483h176q14 -45 54.5 -69.5t101.5 -24.5q60 0 99.5 24.5t53.5 69.5h177q-8 -137 -96 -216t-234 -79t-235 79t-97 216z" />
    <glyph glyph-name="dotaccent" unicode="&#x2d9;" horiz-adv-x="460" 
d="M88 1489h283v-281h-283v281z" />
    <glyph glyph-name="ring" unicode="&#x2da;" horiz-adv-x="839" 
d="M88 1221q0 124 94.5 207t237.5 83t237.5 -83t94.5 -207q0 -125 -95 -208t-237 -83t-237 83t-95 208zM557 1221q0 60 -38.5 97.5t-98.5 37.5q-61 0 -99 -37.5t-38 -97.5t38 -98t99 -38q60 0 98.5 38t38.5 98z" />
    <glyph glyph-name="ogonek" unicode="&#x2db;" horiz-adv-x="638" 
d="M80 -254q0 159 221 285l139 -31q-141 -102 -141 -182q0 -54 53 -54q51 0 113 33l76 -186q-109 -53 -226 -53q-110 0 -172.5 49t-62.5 139z" />
    <glyph glyph-name="tilde" unicode="&#x2dc;" horiz-adv-x="882" 
d="M420 1247q-72 35 -103 35q-57 0 -69 -74h-160q6 129 60 200t147 71q40 0 75 -11t91 -38q72 -33 102 -33q58 0 70 71h160q-4 -130 -58 -201t-147 -71q-77 0 -168 51z" />
    <glyph glyph-name="hungarumlaut" unicode="&#x2dd;" horiz-adv-x="1134" 
d="M287 1505h317l-262 -297h-254zM711 1505h317l-262 -297h-254z" />
    <glyph glyph-name="gravecomb" unicode="&#x300;" horiz-adv-x="0" 
d="M-532 1505h335l197 -297h-270z" />
    <glyph glyph-name="acutecomb" unicode="&#x301;" horiz-adv-x="0" 
d="M-334 1505h334l-260 -297h-272z" />
    <glyph glyph-name="uni0302" unicode="&#x302;" horiz-adv-x="0" 
d="M-182 1167l-137 176l-140 -176l-180 133l145 183h347l147 -183z" />
    <glyph glyph-name="tildecomb" unicode="&#x303;" horiz-adv-x="0" 
d="M-373 1247q-72 35 -102 35q-58 0 -70 -74h-160q6 129 60 200t147 71q40 0 75 -11t91 -38q72 -33 103 -33q57 0 69 71h160q-4 -130 -58 -201t-147 -71q-77 0 -168 51z" />
    <glyph glyph-name="uni0304" unicode="&#x304;" horiz-adv-x="0" 
d="M-684 1411h684v-203h-684v203z" />
    <glyph glyph-name="uni0306" unicode="&#x306;" horiz-adv-x="0" 
d="M-662 1483h177q14 -45 54 -69.5t101 -24.5q60 0 100 25t54 69h176q-8 -137 -96 -216t-234 -79t-235 79t-97 216z" />
    <glyph glyph-name="uni0307" unicode="&#x307;" horiz-adv-x="0" 
d="M-283 1489h283v-281h-283v281z" />
    <glyph glyph-name="uni0308" unicode="&#x308;" horiz-adv-x="0" 
d="M-725 1468h283v-280h-283v280zM-285 1468h285v-280h-285v280z" />
    <glyph glyph-name="uni030A" unicode="&#x30a;" horiz-adv-x="0" 
d="M-664 1221q0 124 94.5 207t237.5 83t237.5 -83t94.5 -207q0 -125 -95 -208t-237 -83t-237 83t-95 208zM-195 1221q0 60 -38.5 97.5t-98.5 37.5q-61 0 -99 -37.5t-38 -97.5t38 -98t99 -38q60 0 98.5 38t38.5 98z" />
    <glyph glyph-name="uni030B" unicode="&#x30b;" horiz-adv-x="0" 
d="M-741 1505h317l-262 -297h-254zM-317 1505h317l-262 -297h-254z" />
    <glyph glyph-name="uni030C" unicode="&#x30c;" horiz-adv-x="0" 
d="M0 1370l-147 -182h-347l-145 182l180 133l140 -176l137 176z" />
    <glyph glyph-name="uni0312" unicode="&#x312;" horiz-adv-x="0" 
d="M-10 1595q-63 -13 -86 -38.5t-23 -81.5h121v-267h-330v228q0 131 81.5 207t236.5 86v-134z" />
    <glyph glyph-name="dotbelowcomb" unicode="&#x323;" horiz-adv-x="0" 
d="M-283 -100h283v-281h-283v281z" />
    <glyph glyph-name="uni0326" unicode="&#x326;" horiz-adv-x="0" 
d="M-283 -492q55 13 76 39t21 82h-107v267h293v-228q0 -131 -72 -207t-211 -86v133z" />
    <glyph glyph-name="uni0327" unicode="&#x327;" horiz-adv-x="0" 
d="M-4 -287q0 -109 -71 -175t-187 -66q-143 0 -250 82l102 155q74 -51 134 -51q38 0 60.5 19.5t22.5 50.5q0 29 -22 47t-57 18q-56 0 -103 -41l-125 51l158 277l121 -68l-47 -80q6 2 24 2q108 0 174 -61t66 -160z" />
    <glyph glyph-name="uni0328" unicode="&#x328;" horiz-adv-x="0" 
d="M-461 -254q0 159 221 285l140 -31q-142 -103 -142 -182q0 -26 14.5 -40t39.5 -14q50 0 112 33l76 -186q-109 -53 -225 -53q-110 0 -173 49t-63 139z" />
    <glyph glyph-name="uni0335" unicode="&#x335;" horiz-adv-x="0" 
d="M-770 858h770v-262h-770v262z" />
    <glyph glyph-name="uni0336" unicode="&#x336;" horiz-adv-x="0" 
d="M-1393 856h1407v-256h-1407v256z" />
    <glyph glyph-name="uni0337" unicode="&#x337;" horiz-adv-x="0" 
d="M-995 33l874 1120l121 -94l-872 -1120z" />
    <glyph glyph-name="uni0338" unicode="&#x338;" horiz-adv-x="0" 
d="M-1001 -6l841 1538l160 -92l-840 -1534z" />
    <glyph glyph-name="uni0394" unicode="&#x394;" horiz-adv-x="1314" 
d="M1331 0h-1347l503 1434h342zM883 307l-224 692h-4l-223 -692h451z" />
    <glyph glyph-name="uni03A9" unicode="&#x3a9;" horiz-adv-x="1384" 
d="M1116 246h201v-246h-553v227q99 23 164 166q63 138 63 342q0 191 -80 301.5t-219 110.5t-219 -110.5t-80 -301.5q0 -200 64 -340q65 -142 164 -168v-227h-553v246h200v4q-108 72 -167.5 203t-59.5 297q-3 207 80.5 373t233 258t335.5 89q189 0 338 -91t232 -255.5
t83 -373.5q0 -166 -59.5 -297t-167.5 -203v-4z" />
    <glyph glyph-name="uni03BC" unicode="&#x3bc;" horiz-adv-x="1204" 
d="M1108 1085v-1085h-326v94h-4q-55 -125 -211 -125q-75 0 -125 33h-4v-463h-342v1546h342v-634q0 -172 160 -172q78 0 123 46t45 126v634h342z" />
    <glyph glyph-name="pi" unicode="&#x3c0;" horiz-adv-x="1478" 
d="M1169 776v-368q0 -54 20 -72.5t77 -18.5h129v-317h-219q-179 0 -264 81.5t-85 254.5v440h-239v-776h-342v776h-242v309h1399v-309h-234z" />
    <glyph glyph-name="uni0E3F" unicode="&#xe3f;" horiz-adv-x="1361" 
d="M762 0v-236h-154v236h-458v1434h458v213h154v-213h31q194 0 318 -108.5t124 -278.5q0 -85 -38.5 -155.5t-106.5 -113.5v-4q92 -44 144 -132t52 -198q0 -217 -130 -326.5t-394 -117.5zM475 874h133v259h-133v-259zM762 1133v-259q143 3 143 132q0 124 -143 127zM608 301
v305h-133v-305h133zM958 455q0 74 -42.5 112.5t-124.5 38.5h-29v-305h29q87 0 127 37t40 117z" />
    <glyph glyph-name="uni1E04" unicode="&#x1e04;" horiz-adv-x="1320" 
d="M129 1434h643q194 0 318 -108.5t124 -278.5q0 -85 -38.5 -155.5t-106.5 -113.5v-4q92 -44 144.5 -132t52.5 -198q0 -223 -139.5 -333.5t-421.5 -110.5h-576v1434zM717 874q72 0 109.5 34.5t37.5 97.5q0 127 -147 127h-242v-259h242zM750 301q87 0 127.5 37t40.5 117
q0 73 -43 112t-125 39h-275v-305h275zM514 -100h283v-281h-283v281z" />
    <glyph glyph-name="uni1E05" unicode="&#x1e05;" horiz-adv-x="1243" 
d="M414 102h-4v-102h-314v1495h342v-483h4q47 50 118 77t153 27q134 3 246 -72.5t175.5 -208t61.5 -290.5q0 -248 -135.5 -409t-347.5 -161q-92 0 -170.5 33.5t-128.5 93.5zM854 543q0 127 -56 195.5t-159 68.5q-87 0 -144 -55.5t-57 -139.5v-129q0 -88 56.5 -144t144.5 -56
q102 0 158.5 68.5t56.5 191.5zM537 -125h282v-281h-282v281z" />
    <glyph glyph-name="uni1E0C" unicode="&#x1e0c;" horiz-adv-x="1333" 
d="M129 1434h539q132 0 245 -46.5t198 -135t133 -225.5t48 -308q0 -183 -48.5 -322.5t-135 -225t-200 -128.5t-249.5 -43h-530v1434zM643 324q297 0 297 395q0 197 -77 294t-220 97h-162v-786h162zM522 -100h283v-281h-283v281z" />
    <glyph glyph-name="uni1E0D" unicode="&#x1e0d;" horiz-adv-x="1243" 
d="M47 545q-2 158 61.5 290.5t175.5 208t246 72.5q82 0 153 -27t118 -77h4v483h342v-1495h-313v102h-5q-50 -60 -128.5 -93.5t-170.5 -33.5q-212 0 -347.5 161t-135.5 409zM805 483v129q0 84 -57 139.5t-144 55.5q-103 0 -159 -68.5t-56 -195.5q0 -123 56.5 -191.5
t158.5 -68.5q88 0 144.5 56t56.5 144zM485 -100h283v-281h-283v281z" />
    <glyph glyph-name="uni1E24" unicode="&#x1e24;" horiz-adv-x="1380" 
d="M129 1434h352v-537h416v537h352v-1434h-352v573h-416v-573h-352v1434zM547 -100h282v-281h-282v281z" />
    <glyph glyph-name="uni1E25" unicode="&#x1e25;" horiz-adv-x="1202" 
d="M96 1495h342v-504h4q42 59 117.5 92t167.5 33q180 0 287 -110q108 -111 108 -291v-715h-342v635q0 82 -45 128t-123 46q-81 0 -127.5 -47t-46.5 -127v-635h-342v1495zM465 -100h283v-281h-283v281z" />
    <glyph glyph-name="uni1E36" unicode="&#x1e36;" horiz-adv-x="1105" 
d="M129 1434h352v-1110h588v-324h-940v1434zM457 -100h282v-281h-282v281z" />
    <glyph glyph-name="uni1E37" unicode="&#x1e37;" horiz-adv-x="532" 
d="M96 1495h342v-1495h-342v1495zM123 -100h283v-281h-283v281z" />
    <glyph glyph-name="uni1E44" unicode="&#x1e44;" horiz-adv-x="1421" 
d="M129 1434h350l457 -842h4v842h352v-1434h-350l-457 842h-4v-842h-352v1434zM567 1837h283v-281h-283v281z" />
    <glyph glyph-name="uni1E45" unicode="&#x1e45;" horiz-adv-x="1202" 
d="M96 1085h326v-98h4q51 63 128.5 96t170.5 33q180 0 288.5 -117t108.5 -309v-690h-342v635q0 82 -45 128t-123 46q-81 0 -127.5 -47t-46.5 -127v-635h-342v1085zM512 1520h283v-281h-283v281z" />
    <glyph glyph-name="uni1E46" unicode="&#x1e46;" horiz-adv-x="1421" 
d="M129 1434h350l457 -842h4v842h352v-1434h-350l-457 842h-4v-842h-352v1434zM588 -100h282v-281h-282v281z" />
    <glyph glyph-name="uni1E47" unicode="&#x1e47;" horiz-adv-x="1202" 
d="M96 1085h326v-98h4q51 63 128.5 96t170.5 33q180 0 288.5 -117t108.5 -309v-690h-342v635q0 82 -45 128t-123 46q-81 0 -127.5 -47t-46.5 -127v-635h-342v1085zM465 -100h283v-281h-283v281z" />
    <glyph glyph-name="uni1E4C" unicode="&#x1e4c;" horiz-adv-x="1398" 
d="M41 715q-3 219 80 392.5t234 269.5t343 93q145 0 268 -55t209 -153t134.5 -239t48.5 -308q0 -222 -83 -393t-233 -265t-344 -94q-293 0 -475 208t-182 544zM1006 715q0 201 -83 316.5t-225 115.5q-140 0 -222.5 -115.5t-82.5 -316.5q0 -200 81.5 -314t223.5 -114t225 114
t83 314zM678 1632q-72 35 -103 35q-57 0 -69 -74h-160q6 129 60 200t147 71q40 0 75 -11t91 -38q72 -33 102 -33q58 0 70 71h160q-4 -130 -58 -201t-147 -71q-77 0 -168 51zM719 2222h334l-260 -297h-273z" />
    <glyph glyph-name="uni1E4D" unicode="&#x1e4d;" horiz-adv-x="1208" 
d="M47 541q0 256 155 418.5t400 162.5t402 -162.5t157 -418.5q0 -254 -157 -416t-402 -162t-400 161.5t-155 416.5zM819 541q0 129 -56 200.5t-159 71.5t-159 -71.5t-56 -200.5q0 -128 56 -198.5t159 -70.5t159 70.5t56 198.5zM582 1284q-72 35 -103 35q-57 0 -69 -74h-160
q6 129 60 200t147 71q40 0 74.5 -11t91.5 -39q70 -32 102 -32q58 0 70 71h159q-4 -130 -57.5 -201t-146.5 -71q-77 0 -168 51zM623 1874h333l-260 -297h-272z" />
    <glyph glyph-name="uni1E62" unicode="&#x1e62;" horiz-adv-x="1230" 
d="M27 485l333 60q26 -147 95.5 -212t199.5 -65q96 0 149.5 33t53.5 90q0 67 -66 112t-260 113q-244 85 -348 185t-104 250q0 184 144.5 301.5t369.5 117.5q222 0 379.5 -121.5t191.5 -318.5l-334 -63q-53 198 -237 198q-78 0 -124 -30.5t-46 -81.5q0 -47 61 -84t244 -97
q250 -86 362.5 -200.5t112.5 -282.5q0 -191 -152 -308.5t-401 -117.5q-266 0 -429 136t-195 386zM508 -137h283v-281h-283v281z" />
    <glyph glyph-name="uni1E63" unicode="&#x1e63;" horiz-adv-x="1028" 
d="M27 342l295 76q26 -98 80 -141.5t151 -43.5q64 0 98.5 18.5t34.5 53.5q0 40 -42.5 64t-168.5 61q-213 62 -306 140t-93 210q0 148 122 245t310 97q178 0 303 -94q125 -91 160 -248l-289 -65q-46 141 -182 141q-51 0 -83 -20.5t-32 -51.5q0 -29 38.5 -48.5t147.5 -49.5
q227 -65 327.5 -149t100.5 -226q0 -154 -124 -251t-322 -97q-214 0 -351 98t-175 281zM410 -137h282v-281h-282v281z" />
    <glyph glyph-name="uni1E6C" unicode="&#x1e6c;" horiz-adv-x="1239" 
d="M444 1110h-407v324h1165v-324h-405v-1110h-353v1110zM477 -100h283v-281h-283v281z" />
    <glyph glyph-name="uni1E6D" unicode="&#x1e6d;" horiz-adv-x="837" 
d="M539 803v-393q0 -51 22.5 -72t79.5 -21h121v-317h-164q-210 0 -305.5 90.5t-95.5 286.5v426h-193v282h193v281h342v-281h264v-282h-264zM332 -100h282v-281h-282v281z" />
    <glyph glyph-name="Wgrave" unicode="&#x1e80;" horiz-adv-x="1888" 
d="M14 1434h357l176 -883h4l258 883h270l258 -883h4l177 883h358l-303 -1434h-356l-271 877h-4l-266 -877h-359zM578 1853h335l197 -297h-270z" />
    <glyph glyph-name="wgrave" unicode="&#x1e81;" horiz-adv-x="1689" 
d="M25 1085h342l129 -634h4l198 634h293l199 -634h4l129 634h342l-254 -1085h-346l-217 690h-4l-219 -690h-346zM479 1505h336l197 -297h-271z" />
    <glyph glyph-name="Wacute" unicode="&#x1e82;" horiz-adv-x="1888" 
d="M14 1434h357l176 -883h4l258 883h270l258 -883h4l177 883h358l-303 -1434h-356l-271 877h-4l-266 -877h-359zM965 1853h333l-260 -297h-272z" />
    <glyph glyph-name="wacute" unicode="&#x1e83;" horiz-adv-x="1689" 
d="M25 1085h342l129 -634h4l198 634h293l199 -634h4l129 634h342l-254 -1085h-346l-217 690h-4l-219 -690h-346zM866 1505h334l-260 -297h-272z" />
    <glyph glyph-name="Wdieresis" unicode="&#x1e84;" horiz-adv-x="1888" 
d="M14 1434h357l176 -883h4l258 883h270l258 -883h4l177 883h358l-303 -1434h-356l-271 877h-4l-266 -877h-359zM582 1817h282v-281h-282v281zM1022 1817h285v-281h-285v281z" />
    <glyph glyph-name="wdieresis" unicode="&#x1e85;" horiz-adv-x="1689" 
d="M25 1085h342l129 -634h4l198 634h293l199 -634h4l129 634h342l-254 -1085h-346l-217 690h-4l-219 -690h-346zM483 1468h283v-280h-283v280zM924 1468h284v-280h-284v280z" />
    <glyph glyph-name="uni1E92" unicode="&#x1e92;" horiz-adv-x="1202" 
d="M66 291l624 815v4h-606v324h1053v-291l-625 -815v-4h625v-324h-1071v291zM459 -100h282v-281h-282v281z" />
    <glyph glyph-name="uni1E93" unicode="&#x1e93;" horiz-adv-x="1095" 
d="M45 252l512 532v4h-504v297h965v-251l-512 -533v-4h545v-297h-1006v252zM403 -100h283v-281h-283v281z" />
    <glyph glyph-name="uni1EA0" unicode="&#x1ea0;" horiz-adv-x="1314" 
d="M918 203h-521l-65 -203h-348l501 1434h342l504 -1434h-348zM821 502l-162 497h-4l-161 -497h327zM514 -100h283v-281h-283v281z" />
    <glyph glyph-name="uni1EA1" unicode="&#x1ea1;" horiz-adv-x="1075" 
d="M53 301q0 131 88.5 211t284.5 127q137 32 187.5 59t50.5 68t-35.5 63.5t-98.5 22.5q-153 0 -180 -166l-303 64q25 164 159.5 268t323.5 104q210 0 337.5 -115.5t127.5 -304.5v-702h-297v90h-4q-32 -57 -104.5 -89t-169.5 -32q-170 0 -268.5 89t-98.5 243zM670 375v133h-4
q-11 -23 -41 -40.5t-97 -37.5q-84 -25 -117.5 -49.5t-33.5 -61.5q0 -79 110 -79q75 0 129 40t54 95zM401 -131h283v-281h-283v281z" />
    <glyph glyph-name="uni1EAC" unicode="&#x1eac;" horiz-adv-x="1314" 
d="M918 203h-521l-65 -203h-348l501 1434h342l504 -1434h-348zM821 502l-162 497h-4l-161 -497h327zM795 1516l-138 176l-139 -176l-180 133l145 182h346l148 -182zM514 -100h283v-281h-283v281z" />
    <glyph glyph-name="uni1EAD" unicode="&#x1ead;" horiz-adv-x="1075" 
d="M53 301q0 131 88.5 211t284.5 127q137 32 187.5 59t50.5 68t-35.5 63.5t-98.5 22.5q-153 0 -180 -166l-303 64q25 164 159.5 268t323.5 104q210 0 337.5 -115.5t127.5 -304.5v-702h-297v90h-4q-32 -57 -104.5 -89t-169.5 -32q-170 0 -268.5 89t-98.5 243zM670 375v133h-4
q-11 -23 -41 -40.5t-97 -37.5q-84 -25 -117.5 -49.5t-33.5 -61.5q0 -79 110 -79q75 0 129 40t54 95zM668 1204l-138 176l-139 -176l-180 133l145 183h346l148 -183zM401 -131h283v-281h-283v281z" />
    <glyph glyph-name="uni1EB8" unicode="&#x1eb8;" horiz-adv-x="1157" 
d="M129 1434h948v-322h-596v-240h545v-294h-545v-256h600v-322h-952v1434zM463 -100h282v-281h-282v281z" />
    <glyph glyph-name="uni1EB9" unicode="&#x1eb9;" horiz-adv-x="1165" 
d="M47 541q0 168 68.5 300.5t190.5 206.5t276 74q238 0 387 -160.5t149 -418.5v-97h-733q6 -100 61.5 -153t153.5 -53q140 0 252 147l221 -197q-184 -227 -473 -227q-249 0 -401 158.5t-152 419.5zM795 670q-8 88 -60.5 136t-144.5 48q-85 0 -140.5 -49t-62.5 -135h408z
M457 -137h282v-281h-282v281z" />
    <glyph glyph-name="uni1EBC" unicode="&#x1ebc;" horiz-adv-x="1157" 
d="M129 1434h948v-322h-596v-240h545v-294h-545v-256h600v-322h-952v1434zM584 1595q-72 35 -103 35q-57 0 -69 -74h-160q6 129 60 200t147 71q40 0 75 -11t91 -38q72 -33 102 -33q58 0 70 72h159q-4 -130 -58 -201.5t-146 -71.5q-77 0 -168 51z" />
    <glyph glyph-name="uni1EBD" unicode="&#x1ebd;" horiz-adv-x="1165" 
d="M47 541q0 168 68.5 300.5t190.5 206.5t276 74q238 0 387 -160.5t149 -418.5v-97h-733q6 -100 61.5 -153t153.5 -53q140 0 252 147l221 -197q-184 -227 -473 -227q-249 0 -401 158.5t-152 419.5zM795 670q-8 88 -60.5 136t-144.5 48q-85 0 -140.5 -49t-62.5 -135h408z
M561 1284q-72 35 -102 35q-58 0 -70 -74h-160q6 129 60 200t147 71q40 0 74.5 -11t91.5 -39q70 -32 103 -32q57 0 69 71h160q-4 -130 -58 -201t-147 -71q-77 0 -168 51z" />
    <glyph glyph-name="uni1EC6" unicode="&#x1ec6;" horiz-adv-x="1157" 
d="M129 1434h948v-322h-596v-240h545v-294h-545v-256h600v-322h-952v1434zM741 1516l-137 176l-139 -176l-180 133l145 182h346l148 -182zM463 -100h282v-281h-282v281z" />
    <glyph glyph-name="uni1EC7" unicode="&#x1ec7;" horiz-adv-x="1165" 
d="M47 541q0 168 68.5 300.5t190.5 206.5t276 74q238 0 387 -160.5t149 -418.5v-97h-733q6 -100 61.5 -153t153.5 -53q140 0 252 147l221 -197q-184 -227 -473 -227q-249 0 -401 158.5t-152 419.5zM795 670q-8 88 -60.5 136t-144.5 48q-85 0 -140.5 -49t-62.5 -135h408z
M719 1204l-137 176l-140 -176l-180 133l146 183h346l147 -183zM457 -137h282v-281h-282v281z" />
    <glyph glyph-name="uni1ECA" unicode="&#x1eca;" horiz-adv-x="612" 
d="M129 1434h352v-1434h-352v1434zM164 -100h282v-281h-282v281z" />
    <glyph glyph-name="uni1ECB" unicode="&#x1ecb;" horiz-adv-x="532" 
d="M96 1085h342v-1085h-342v1085zM100 1563h330v-308h-330v308zM123 -100h283v-281h-283v281z" />
    <glyph glyph-name="uni1ECC" unicode="&#x1ecc;" horiz-adv-x="1398" 
d="M41 715q-3 219 80 392.5t234 269.5t343 93q145 0 268 -55t209 -153t134.5 -239t48.5 -308q0 -222 -83 -393t-233 -265t-344 -94q-293 0 -475 208t-182 544zM1006 715q0 201 -83 316.5t-225 115.5q-140 0 -222.5 -115.5t-82.5 -316.5q0 -200 81.5 -314t223.5 -114t225 114
t83 314zM555 -137h283v-281h-283v281z" />
    <glyph glyph-name="uni1ECD" unicode="&#x1ecd;" horiz-adv-x="1208" 
d="M47 541q0 256 155 418.5t400 162.5t402 -162.5t157 -418.5q0 -254 -157 -416t-402 -162t-400 161.5t-155 416.5zM819 541q0 129 -56 200.5t-159 71.5t-159 -71.5t-56 -200.5q0 -128 56 -198.5t159 -70.5t159 70.5t56 198.5zM459 -137h282v-281h-282v281z" />
    <glyph glyph-name="uni1ED8" unicode="&#x1ed8;" horiz-adv-x="1398" 
d="M41 715q-3 219 80 392.5t234 269.5t343 93q145 0 268 -55t209 -153t134.5 -239t48.5 -308q0 -222 -83 -393t-233 -265t-344 -94q-293 0 -475 208t-182 544zM1006 715q0 201 -83 316.5t-225 115.5q-140 0 -222.5 -115.5t-82.5 -316.5q0 -200 81.5 -314t223.5 -114t225 114
t83 314zM836 1552l-138 177l-139 -177l-180 134l145 182h346l148 -182zM555 -137h283v-281h-283v281z" />
    <glyph glyph-name="uni1ED9" unicode="&#x1ed9;" horiz-adv-x="1208" 
d="M47 541q0 256 155 418.5t400 162.5t402 -162.5t157 -418.5q0 -254 -157 -416t-402 -162t-400 161.5t-155 416.5zM819 541q0 129 -56 200.5t-159 71.5t-159 -71.5t-56 -200.5q0 -128 56 -198.5t159 -70.5t159 70.5t56 198.5zM739 1204l-137 176l-139 -176l-180 133
l145 183h346l148 -183zM459 -137h282v-281h-282v281z" />
    <glyph glyph-name="uni1EE4" unicode="&#x1ee4;" horiz-adv-x="1384" 
d="M119 481v953h352v-924q0 -117 52.5 -170t168.5 -53q115 0 168 54t53 167v926h353v-953q0 -246 -151 -382t-423 -136q-275 0 -424 135t-149 383zM549 -137h282v-281h-282v281z" />
    <glyph glyph-name="uni1EE5" unicode="&#x1ee5;" horiz-adv-x="1183" 
d="M76 371v714h342v-634q0 -172 160 -172q77 0 122 46.5t45 125.5v634h342v-1085h-325v102h-4q-103 -133 -295 -133q-184 0 -285.5 105.5t-101.5 296.5zM391 -131h283v-281h-283v281z" />
    <glyph glyph-name="Ygrave" unicode="&#x1ef2;" horiz-adv-x="1288" 
d="M469 584l-496 850h389l279 -531h6l281 531h389l-496 -850v-584h-352v584zM279 1853h335l197 -297h-270z" />
    <glyph glyph-name="ygrave" unicode="&#x1ef3;" horiz-adv-x="1196" 
d="M424 53l-430 1032h366l238 -641h4l236 641h364l-635 -1546h-356zM231 1505h336l197 -297h-270z" />
    <glyph glyph-name="uni1EF4" unicode="&#x1ef4;" horiz-adv-x="1288" 
d="M469 584l-496 850h389l279 -531h6l281 531h389l-496 -850v-584h-352v584zM502 -100h282v-281h-282v281z" />
    <glyph glyph-name="uni1EF5" unicode="&#x1ef5;" horiz-adv-x="1196" 
d="M424 53l-430 1032h366l238 -641h4l236 641h364l-635 -1546h-356zM803 -100h282v-281h-282v281z" />
    <glyph glyph-name="uni1EF8" unicode="&#x1ef8;" horiz-adv-x="1288" 
d="M469 584l-496 850h389l279 -531h6l281 531h389l-496 -850v-584h-352v584zM625 1595q-72 35 -103 35q-57 0 -69 -74h-160q6 129 60 200t147 71q40 0 75 -11t91 -38q72 -33 102 -33q58 0 70 72h159q-4 -130 -58 -201.5t-146 -71.5q-77 0 -168 51z" />
    <glyph glyph-name="uni1EF9" unicode="&#x1ef9;" horiz-adv-x="1196" 
d="M424 53l-430 1032h366l238 -641h4l236 641h364l-635 -1546h-356zM578 1247q-72 35 -103 35q-57 0 -69 -74h-160q6 129 60 200t147 71q40 0 74.5 -11t90.5 -38q72 -33 103 -33q58 0 70 71h159q-4 -130 -58 -201t-147 -71q-76 0 -167 51z" />
    <glyph glyph-name="uni2002" unicode="&#x2002;" horiz-adv-x="1486" 
 />
    <glyph glyph-name="uni2003" unicode="&#x2003;" horiz-adv-x="1982" 
 />
    <glyph glyph-name="uni2004" unicode="&#x2004;" horiz-adv-x="694" 
 />
    <glyph glyph-name="uni2005" unicode="&#x2005;" horiz-adv-x="495" 
 />
    <glyph glyph-name="uni2007" unicode="&#x2007;" 
 />
    <glyph glyph-name="uni2008" unicode="&#x2008;" horiz-adv-x="673" 
 />
    <glyph glyph-name="uni2009" unicode="&#x2009;" horiz-adv-x="296" 
 />
    <glyph glyph-name="uni200A" unicode="&#x200a;" horiz-adv-x="149" 
 />
    <glyph glyph-name="uni200B" unicode="&#x200b;" horiz-adv-x="0" 
 />
    <glyph glyph-name="endash" unicode="&#x2013;" horiz-adv-x="1153" 
d="M68 743h1015v-290h-1015v290z" />
    <glyph glyph-name="emdash" unicode="&#x2014;" horiz-adv-x="1738" 
d="M68 743h1601v-290h-1601v290z" />
    <glyph glyph-name="quoteleft" unicode="&#x2018;" horiz-adv-x="595" 
d="M475 1260q-72 -17 -98.5 -50.5t-26.5 -105.5h137v-346h-378v295q0 171 93.5 269.5t272.5 111.5v-174z" />
    <glyph glyph-name="quoteright" unicode="&#x2019;" horiz-adv-x="595" 
d="M121 932q72 17 98.5 50t26.5 105h-137v347h378v-295q0 -171 -93.5 -269.5t-272.5 -111.5v174z" />
    <glyph glyph-name="quotesinglbase" unicode="&#x201a;" horiz-adv-x="677" 
d="M162 -156q72 17 98.5 50.5t26.5 105.5h-137v346h378v-295q0 -171 -93.5 -269.5t-272.5 -111.5v174z" />
    <glyph glyph-name="quotedblleft" unicode="&#x201c;" horiz-adv-x="1181" 
d="M516 1260q-72 -17 -98.5 -50.5t-26.5 -105.5h137v-346h-378v295q0 171 93.5 269.5t272.5 111.5v-174zM1020 1260q-72 -17 -98.5 -50.5t-26.5 -105.5h137v-346h-379v295q0 171 94 269.5t273 111.5v-174z" />
    <glyph glyph-name="quotedblright" unicode="&#x201d;" horiz-adv-x="1181" 
d="M162 932q72 17 98.5 50t26.5 105h-137v347h378v-295q0 -171 -93.5 -269.5t-272.5 -111.5v174zM666 932q72 17 98.5 50t26.5 105h-138v347h379v-295q0 -171 -93.5 -269.5t-272.5 -111.5v174z" />
    <glyph glyph-name="quotedblbase" unicode="&#x201e;" horiz-adv-x="1181" 
d="M162 -156q72 17 98.5 50.5t26.5 105.5h-137v346h378v-295q0 -171 -93.5 -269.5t-272.5 -111.5v174zM666 -156q72 17 98.5 50.5t26.5 105.5h-138v346h379v-295q0 -171 -93.5 -269.5t-272.5 -111.5v174z" />
    <glyph glyph-name="dagger" unicode="&#x2020;" horiz-adv-x="1394" 
d="M522 760h-454v325h454v469h352v-469h453v-325h-453v-1161h-352v1161z" />
    <glyph glyph-name="daggerdbl" unicode="&#x2021;" horiz-adv-x="1394" 
d="M522 43h-454v326h454v391h-454v325h454v469h352v-469h453v-325h-453v-391h453v-326h-453v-444h-352v444z" />
    <glyph glyph-name="bullet" unicode="&#x2022;" horiz-adv-x="856" 
d="M150 743q0 124 77 203.5t201 79.5t201.5 -79.5t77.5 -203.5t-77.5 -203t-201.5 -79q-123 0 -200.5 79.5t-77.5 202.5z" />
    <glyph glyph-name="ellipsis" unicode="&#x2026;" horiz-adv-x="1810" 
d="M719 367h375v-365h-375v365zM150 365h374v-365h-374v365zM1286 367h375v-365h-375v365z" />
    <glyph glyph-name="perthousand" unicode="&#x2030;" horiz-adv-x="3045" 
d="M465 -57l1028 1677l242 -139l-1028 -1678zM88 1004q0 207 104 327.5t283 120.5t283 -120.5t104 -327.5t-104.5 -328t-282.5 -121t-282.5 121t-104.5 328zM602 1004q0 206 -127 206t-127 -206q0 -205 127 -205t127 205zM1346 430q0 207 104.5 328t282.5 121t281.5 -121
t103.5 -328t-103.5 -327.5t-281.5 -120.5q-179 0 -283 120.5t-104 327.5zM2185 430q0 207 104.5 328t282.5 121t281.5 -121t103.5 -328t-103.5 -327.5t-281.5 -120.5q-179 0 -283 120.5t-104 327.5zM1858 430q0 207 -125 207q-127 0 -127 -207q0 -205 127 -205q61 0 93 52.5
t32 152.5zM2697 430q0 207 -125 207q-127 0 -127 -207q0 -205 127 -205q61 0 93 52.5t32 152.5z" />
    <glyph glyph-name="guilsinglleft" unicode="&#x2039;" horiz-adv-x="720" 
d="M109 561l229 397h295l-238 -397l238 -399h-295z" />
    <glyph glyph-name="guilsinglright" unicode="&#x203a;" horiz-adv-x="720" 
d="M88 162l238 399l-238 397h295l229 -397l-229 -399h-295z" />
    <glyph glyph-name="fraction" unicode="&#x2044;" horiz-adv-x="446" 
d="M-383 -63l1012 1665l200 -117l-1011 -1663z" />
    <glyph glyph-name="uni207A" unicode="&#x207a;" horiz-adv-x="866" 
d="M778 332h-243v-264h-201v264h-246v190h246v256h201v-256h243v-190z" />
    <glyph glyph-name="uni207B" unicode="&#x207b;" horiz-adv-x="772" 
d="M88 522h594v-190h-594v190z" />
    <glyph glyph-name="lira" unicode="&#x20a4;" horiz-adv-x="1318" 
d="M1292 754q0 -222 -83 -393.5t-233 -266t-343 -94.5h-352v600l-160 -59l-74 204l234 84v103l-160 -60l-74 205l234 86v271h352v-142l244 88l73 -204l-317 -117v-101l244 89l73 -203l-317 -117v-403q142 0 224.5 115t82.5 315h352z" />
    <glyph glyph-name="uni20A8" unicode="&#x20a8;" horiz-adv-x="1126" 
d="M809 1237v-4q74 -77 98 -184h172v-193h-170q-35 -238 -250 -340v-4l281 -512h-377l-241 467h-234v303h285q139 0 186 86h-471v193h471q-40 81 -186 81h-285v304h991v-197h-270z" />
    <glyph glyph-name="uni20A9" unicode="&#x20a9;" horiz-adv-x="2023" 
d="M1833 946l-23 -104h199v-193h-240l-137 -649h-342l-194 649h-164l-199 -649h-340l-137 649h-242v193h201l-22 104h-179v193h138l-64 295h338l59 -295h306l86 295h270l84 -295h309l59 295h336l-61 -295h135v-193h-176zM545 842h160l30 104h-211zM1499 946h-213l31 -104
h162zM1038 842l-22 71h-4l-23 -71h49zM649 649h-65l24 -127h4zM1440 649h-68l37 -127h4z" />
    <glyph glyph-name="Euro" unicode="&#x20ac;" horiz-adv-x="1628" 
d="M1589 502q-31 -244 -206 -391.5t-437 -147.5q-248 0 -423.5 130.5t-243.5 359.5h-228v221h193v41v47h-193v221h230q68 229 242 358t423 129q253 0 431 -146t206 -374l-334 -57q-26 128 -104 195t-199 67q-209 0 -299 -172h344v-221h-399q-2 -10 -2 -47q0 -31 2 -41h291
v-221h-238q91 -174 301 -174q257 0 307 282z" />
    <glyph glyph-name="uni20BD" unicode="&#x20bd;" horiz-adv-x="1435" 
d="M604 354h316v-198h-316v-156h-352v156h-205v198h205v97h-205v198h205v785h604q238 0 374 -130.5t136 -363.5q0 -234 -134.5 -361.5t-377.5 -127.5h-250v-97zM604 766h227q83 0 133 46.5t50 131.5q0 172 -178 172h-232v-350z" />
    <glyph glyph-name="uni2116" unicode="&#x2116;" horiz-adv-x="2269" 
d="M1425 1004q0 204 103 326t276 122q176 0 278.5 -121.5t102.5 -326.5t-102.5 -327t-278.5 -122q-173 0 -276 122.5t-103 326.5zM129 1434h350l457 -842h4v842h352v-1434h-350l-457 842h-4v-842h-352v1434zM1939 1004q0 100 -34.5 153t-100.5 53t-100.5 -53t-34.5 -153
t34.5 -153.5t100.5 -53.5t100.5 53.5t34.5 153.5zM1425 463h760v-270h-760v270z" />
    <glyph glyph-name="uni2117" unicode="&#x2117;" horiz-adv-x="1406" 
d="M68 662q-3 173 79 318t229 229t326 81q133 2 252.5 -47t204.5 -133.5t133.5 -201.5t46.5 -246q2 -129 -46.5 -246.5t-133.5 -202t-204.5 -133.5t-252.5 -47q-179 -3 -326 81t-229 229.5t-79 318.5zM1167 662q0 199 -131 336t-334 137q-201 0 -331.5 -137t-130.5 -336
q0 -130 58 -238.5t164.5 -172t239.5 -63.5q132 0 239 64t166.5 172.5t59.5 237.5zM496 1006h274q113 0 177.5 -65t64.5 -181t-63.5 -179t-176.5 -63h-94v-209h-182v697zM743 672q48 0 67 19.5t19 68.5q0 90 -81 90h-70v-178h65z" />
    <glyph glyph-name="trademark" unicode="&#x2122;" horiz-adv-x="1755" 
d="M250 1217h-203v217h643v-217h-203v-478h-237v478zM782 1434h265l186 -414h2l188 414h265v-695h-228v328h-2l-158 -328h-131l-157 328h-2v-328h-228v695z" />
    <glyph glyph-name="oneeighth" unicode="&#x215b;" horiz-adv-x="1841" 
d="M227 1188l-200 -115v236l219 125h205v-861h-224v615zM195 -63l1011 1665l201 -117l-1012 -1663zM1069 250q0 74 44 134t116 85v2q-51 23 -82 70t-31 102q0 101 88 168q89 68 230 68q138 0 226.5 -67.5t88.5 -168.5q0 -57 -29.5 -103t-83.5 -69v-2q72 -25 117 -85.5
t45 -133.5q0 -123 -98.5 -195.5t-265.5 -72.5t-266 72.5t-99 195.5zM1538 625q0 35 -28.5 56t-75.5 21q-49 0 -78 -21t-29 -56q0 -37 29 -58.5t78 -21.5t76.5 21.5t27.5 58.5zM1573 281q0 48 -36.5 75t-102.5 27t-104 -27.5t-38 -74.5t38 -75t104 -28q65 0 102 27.5t37 75.5
z" />
    <glyph glyph-name="threeeighths" unicode="&#x215c;" horiz-adv-x="2029" 
d="M35 854l209 49q12 -80 46.5 -115.5t100.5 -35.5q51 0 80 23.5t29 64.5q0 39 -30 62.5t-83 23.5h-78v166h74q102 0 102 82q0 38 -27.5 59.5t-74.5 21.5q-108 0 -129 -108l-207 37q19 122 110 195t226 73t223 -70t88 -178q0 -123 -100 -176v-2q60 -31 93.5 -85t33.5 -118
q0 -123 -88 -195.5t-240 -72.5q-149 0 -243.5 79t-114.5 220zM383 -63l1012 1665l200 -117l-1011 -1663zM1257 250q0 74 44 134t116 85v2q-51 23 -81.5 70t-30.5 102q0 101 88 168q89 68 229 68q138 0 226.5 -67.5t88.5 -168.5q0 -58 -29.5 -103.5t-82.5 -68.5v-2
q72 -25 117 -85.5t45 -133.5q0 -123 -99 -195.5t-266 -72.5t-266 72.5t-99 195.5zM1726 625q0 35 -28.5 56t-75.5 21q-49 0 -77.5 -21t-28.5 -56q0 -37 28.5 -58.5t77.5 -21.5t76.5 21.5t27.5 58.5zM1761 281q0 48 -36.5 75t-102.5 27t-103.5 -27.5t-37.5 -74.5t37.5 -75
t103.5 -28q65 0 102 27.5t37 75.5z" />
    <glyph glyph-name="fiveeighths" unicode="&#x215d;" horiz-adv-x="2058" 
d="M45 764l197 102q25 -55 62.5 -80.5t94.5 -25.5t92 33t35 84q0 47 -33.5 75.5t-89.5 28.5q-81 0 -137 -59l-200 55l77 457h512v-203h-350l-22 -115l2 -2q73 37 157 37q133 0 220 -78q88 -76 88 -196q0 -136 -97 -229t-252 -93q-124 0 -218 55t-138 154zM412 -63l1011 1665
l201 -117l-1012 -1663zM1286 250q0 74 44 134t116 85v2q-51 23 -82 70t-31 102q0 101 88 168q89 68 230 68q138 0 226.5 -67.5t88.5 -168.5q0 -57 -29.5 -103t-83.5 -69v-2q72 -25 117 -85.5t45 -133.5q0 -123 -98.5 -195.5t-265.5 -72.5t-266 72.5t-99 195.5zM1755 625
q0 35 -28.5 56t-75.5 21q-49 0 -78 -21t-29 -56q0 -37 29 -58.5t78 -21.5t76.5 21.5t27.5 58.5zM1790 281q0 48 -36.5 75t-102.5 27t-104 -27.5t-38 -74.5t38 -75t104 -28q65 0 102 27.5t37 75.5z" />
    <glyph glyph-name="seveneighths" unicode="&#x215e;" horiz-adv-x="1832" 
d="M381 1223v2h-381v209h635v-201l-313 -660h-261zM186 -63l1012 1665l201 -117l-1012 -1663zM1061 250q0 74 44 134t116 85v2q-51 23 -82 70t-31 102q0 101 88 168q89 68 229 68q138 0 227 -67.5t89 -168.5q0 -57 -29.5 -103t-83.5 -69v-2q72 -25 117 -85.5t45 -133.5
q0 -123 -99 -195.5t-266 -72.5t-265.5 72.5t-98.5 195.5zM1530 625q0 35 -29 56t-76 21q-49 0 -77.5 -21t-28.5 -56q0 -37 28.5 -58.5t77.5 -21.5t77 21.5t28 58.5zM1565 281q0 47 -37 74.5t-103 27.5t-103.5 -27.5t-37.5 -74.5t37.5 -75t103.5 -28t103 27.5t37 75.5z" />
    <glyph glyph-name="arrowleft" unicode="&#x2190;" horiz-adv-x="1513" 
d="M1446 551h-782l288 -254l-225 -223l-659 633l659 630l225 -221l-290 -256h784v-309z" />
    <glyph glyph-name="arrowup" unicode="&#x2191;" horiz-adv-x="1398" 
d="M1104 516l-240 270v-757h-329v757l-240 -270l-227 229l632 660l631 -660z" />
    <glyph glyph-name="arrowright" unicode="&#x2192;" horiz-adv-x="1513" 
d="M1446 707l-660 -633l-225 223l289 254h-782v309h784l-291 256l225 221z" />
    <glyph glyph-name="arrowdown" unicode="&#x2193;" horiz-adv-x="1398" 
d="M1331 690l-631 -659l-632 659l227 230l240 -271v758h329v-758l240 271z" />
    <glyph glyph-name="arrowboth" unicode="&#x2194;" horiz-adv-x="2095" 
d="M2028 707l-662 -633l-215 213l317 280h-841l315 -280l-213 -213l-661 633l661 630l213 -213l-313 -276h837l-315 276l215 213z" />
    <glyph glyph-name="arrowupdn" unicode="&#x2195;" horiz-adv-x="1400" 
d="M1112 657l221 -225l-631 -659l-634 661l223 225l264 -301v715l-264 -299l-221 225l632 658l631 -660l-221 -223l-262 299v-713z" />
    <glyph glyph-name="uni2196" unicode="&#x2196;" horiz-adv-x="1220" 
d="M932 170l-557 561l24 -391h-311l-20 913l913 -20l2 -311l-387 24l557 -553z" />
    <glyph glyph-name="uni2197" unicode="&#x2197;" horiz-adv-x="1220" 
d="M625 946l-387 -24l2 311l913 20l-20 -913h-312l25 391l-557 -561l-221 223z" />
    <glyph glyph-name="uni2198" unicode="&#x2198;" horiz-adv-x="1220" 
d="M289 1253l557 -561l-25 391h312l20 -913l-913 20l-2 312l387 -25l-557 553z" />
    <glyph glyph-name="uni2199" unicode="&#x2199;" horiz-adv-x="1220" 
d="M596 489l387 25l-2 -311l-913 -21l20 914h311l-24 -391l557 561l221 -224z" />
    <glyph glyph-name="uni21B3" unicode="&#x21b3;" horiz-adv-x="1632" 
d="M1565 707l-660 -633l-225 223l289 254h-799v860h328v-551h473l-291 256l225 221z" />
    <glyph glyph-name="partialdiff" unicode="&#x2202;" horiz-adv-x="1179" 
d="M1139 834q0 -431 -146.5 -651t-435.5 -220q-237 0 -373.5 135.5t-136.5 370.5q0 263 130.5 414t361.5 151q118 0 239 -37q-17 152 -69.5 222.5t-145.5 70.5q-82 0 -166 -96l-223 221q184 199 408 199q258 0 407.5 -206.5t149.5 -573.5zM782 700q-93 35 -190 35
q-92 0 -142.5 -66.5t-50.5 -189.5q0 -94 40 -143t118 -49q201 0 225 413z" />
    <glyph glyph-name="emptyset" unicode="&#x2205;" horiz-adv-x="1738" 
d="M1671 717q3 -159 -59 -300.5t-169.5 -241.5t-257 -157t-315.5 -55q-236 0 -428 107l-182 -205l-172 139l178 201q-198 204 -198 512q-3 159 58.5 300t169 241t257.5 157t317 55q236 0 422 -104l185 209l176 -141l-180 -205q198 -204 198 -512zM498 467l567 643
q-84 37 -195 37q-198 0 -320 -118.5t-122 -311.5q0 -146 70 -250zM1313 717q0 142 -72 252l-571 -643q85 -39 200 -39q199 0 321 118t122 312z" />
    <glyph glyph-name="product" unicode="&#x220f;" horiz-adv-x="1660" 
d="M303 1110h-266v324h1587v-324h-266v-1399h-352v1399h-351v-1399h-352v1399z" />
    <glyph glyph-name="summation" unicode="&#x2211;" horiz-adv-x="1259" 
d="M98 80l482 534l-482 535v285h1104v-324h-608l442 -496l-442 -495h608v-324h-1104v285z" />
    <glyph glyph-name="minus" unicode="&#x2212;" horiz-adv-x="1153" 
d="M88 870h977v-266h-977v266z" />
    <glyph glyph-name="radical" unicode="&#x221a;" horiz-adv-x="1497" 
d="M1493 1434l-586 -1434h-340l-243 586h-318v323h563l162 -442h4l365 967h393z" />
    <glyph glyph-name="infinity" unicode="&#x221e;" horiz-adv-x="1425" 
d="M88 621q0 183 102 302t259 119q72 0 146.5 -40t117.5 -101q43 61 117.5 101t146.5 40q157 0 258.5 -119t101.5 -302t-101.5 -302.5t-258.5 -119.5q-72 0 -146.5 40t-117.5 101q-43 -61 -117.5 -101t-146.5 -40q-157 0 -259 119.5t-102 302.5zM625 621q-43 159 -152 159
q-57 0 -90 -42t-33 -117t33 -117.5t90 -42.5q108 0 152 160zM1075 621q0 75 -33 117t-90 42q-108 0 -151 -159q44 -160 151 -160q57 0 90 42.5t33 117.5z" />
    <glyph glyph-name="integral" unicode="&#x222b;" horiz-adv-x="976" 
d="M88 -170q128 5 175.5 51t47.5 164v942q2 127 21 215t58 151.5t107.5 100t161.5 53.5t228 19v-322q-125 -5 -174 -51t-49 -164v-942q-2 -160 -29 -259t-95.5 -163t-174.5 -89.5t-277 -27.5v322z" />
    <glyph glyph-name="approxequal" unicode="&#x2248;" horiz-adv-x="1409" 
d="M88 877q99 344 393 344q64 0 125 -22t152 -71q104 -59 151 -59q80 0 133 152l279 -113q-102 -344 -395 -344q-63 0 -124 21.5t-151 70.5q-106 57 -151 57q-87 0 -133 -149zM88 348q99 344 393 344q65 0 126 -21.5t151 -70.5q104 -59 151 -59q80 0 133 151l279 -112
q-102 -344 -395 -344q-63 0 -124 21.5t-151 70.5q-106 57 -151 57q-87 0 -133 -149z" />
    <glyph glyph-name="notequal" unicode="&#x2260;" horiz-adv-x="1150" 
d="M719 784l-90 -157h434v-269h-588l-141 -245l-148 86l93 159h-191v269h344l90 157h-434v269h590l141 247l146 -86l-93 -161h191v-269h-344z" />
    <glyph glyph-name="lessequal" unicode="&#x2264;" horiz-adv-x="1138" 
d="M90 766v190l797 449l137 -242l-571 -301l571 -301l-137 -239zM90 0v270h961v-270h-961z" />
    <glyph glyph-name="greaterequal" unicode="&#x2265;" horiz-adv-x="1138" 
d="M115 561l571 301l-571 301l137 242l797 -449v-190l-797 -444zM88 270h961v-270h-961v270z" />
    <glyph glyph-name="lozenge" unicode="&#x25ca;" horiz-adv-x="1484" 
d="M88 717l483 717h342l484 -717l-484 -717h-342zM1040 717l-299 448l-297 -448l297 -449z" />
    <glyph glyph-name="uniF8FF" unicode="&#xf8ff;" horiz-adv-x="1404" 
d="M102 866q-3 115 46.5 226.5t132 193.5t193.5 131t226 47q116 2 228.5 -47t195.5 -131t132.5 -193.5t46.5 -226.5v-866h-58l-133 133l-139 -133l-129 133l-146 -133l-141 133l-129 -133l-137 133l-135 -133h-54v866zM588 772q0 62 -42.5 105t-103.5 43q-60 0 -102.5 -43.5
t-42.5 -104.5q0 -60 42.5 -101.5t102.5 -41.5t103 41.5t43 101.5zM1110 772q0 62 -43 105t-104 43q-60 0 -102 -43t-42 -105q0 -57 43.5 -100t100.5 -43q60 0 103.5 43t43.5 100z" />
    <glyph glyph-name="uniFEFF" unicode="&#xfeff;" horiz-adv-x="0" 
 />
    <glyph glyph-name="NULL" horiz-adv-x="0" 
 />
    <glyph glyph-name="T.ordn" horiz-adv-x="1239" 
d="M444 1151h-407v324h1165v-324h-405v-1151h-353v1151z" />
    <glyph glyph-name="Tbar.ordn" horiz-adv-x="1239" 
d="M444 1151h-407v324h1165v-324h-405v-1151h-353v1151zM236 850h770v-262h-770v262z" />
    <glyph glyph-name="Tcaron.ordn" horiz-adv-x="1239" 
d="M444 1151h-407v324h1165v-324h-405v-1151h-353v1151zM940 1759l-147 -182h-347l-145 182l180 133l140 -176l137 176z" />
    <glyph glyph-name="uni0162.ordn" horiz-adv-x="1239" 
d="M444 1151h-407v324h1165v-324h-405v-1151h-353v1151zM903 -287q0 -109 -71 -175t-187 -66q-143 0 -250 82l103 155q74 -51 133 -51q38 0 61 19.5t23 50.5q0 29 -22.5 47t-57.5 18q-56 0 -103 -41l-124 51l157 277l121 -68l-47 -80q6 2 25 2q108 0 173.5 -61t65.5 -160z
" />
    <glyph glyph-name="uni021A.ordn" horiz-adv-x="1239" 
d="M444 1151h-407v324h1165v-324h-405v-1151h-353v1151zM483 -489q56 14 76.5 39.5t20.5 80.5h-107v267h293v-228q0 -131 -72.5 -207t-210.5 -86v134z" />
    <glyph glyph-name="uni1E6C.ordn" horiz-adv-x="1239" 
d="M444 1151h-407v324h1165v-324h-405v-1151h-353v1151zM477 -100h283v-281h-283v281z" />
    <glyph glyph-name="i.locl" horiz-adv-x="532" 
d="M96 1085h342v-1085h-342v1085zM100 1563h330v-308h-330v308z" />
    <glyph glyph-name="A.ordn" horiz-adv-x="575" 
d="M20 1018q0 73 52.5 117t169.5 69q61 12 83.5 24t22.5 32q0 38 -65 38q-86 0 -101 -79l-168 36q13 86 87.5 139.5t177.5 53.5q116 0 183.5 -62t67.5 -167v-351h-159v47h-2q-39 -61 -154 -61q-88 0 -141.5 45t-53.5 119zM354 1073v51h-2q-6 -22 -71 -37
q-45 -11 -64.5 -22.5t-19.5 -28.5q0 -35 61 -35q41 0 68.5 20.5t27.5 51.5z" />
    <glyph glyph-name="B.ccmp" horiz-adv-x="663" 
d="M649 1151q0 -129 -73.5 -213t-184.5 -84q-107 0 -155 64h-3v-50h-188v779h201v-248h2q52 49 143 49q111 0 184.5 -84t73.5 -213zM449 1151q0 56 -28.5 88.5t-76.5 32.5q-41 0 -69.5 -28.5t-28.5 -69.5v-46q0 -41 28.5 -69.5t69.5 -28.5q48 0 76.5 32.5t28.5 88.5z" />
    <glyph glyph-name="C.ccmp" horiz-adv-x="608" 
d="M14 1151q0 130 84 213.5t215 83.5q112 0 189 -60t94 -159l-190 -35q-8 37 -32 57.5t-61 20.5q-47 0 -72.5 -32t-25.5 -89t25.5 -89t72.5 -32q37 0 61 20.5t32 57.5l190 -35q-17 -99 -94 -159t-189 -60q-131 0 -215 83.5t-84 213.5z" />
    <glyph glyph-name="D.ccmp" horiz-adv-x="663" 
d="M416 1399h2v248h200v-779h-188v50h-2q-48 -64 -156 -64q-111 0 -184.5 84t-73.5 213t73.5 213t184.5 84q92 0 144 -49zM418 1128v46q0 41 -29 69.5t-70 28.5q-48 0 -76 -32t-28 -89t28 -89t76 -32q41 0 70 28.5t29 69.5z" />
    <glyph glyph-name="E.ccmp" horiz-adv-x="610" 
d="M596 1094h-385q8 -38 38 -60t77 -22q77 0 153 55l88 -139q-109 -74 -248 -74t-222 82t-83 217q0 129 82 211q84 84 211 84q128 0 208.5 -81t80.5 -210v-63zM410 1217q-4 35 -30.5 56t-64.5 21q-88 0 -104 -77h199z" />
    <glyph glyph-name="F.ccmp" horiz-adv-x="468" 
d="M115 1260h-115v174h115v59q0 188 209 188h114v-165h-82q-41 0 -41 -43v-39h154v-174h-154v-392h-200v392z" />
    <glyph glyph-name="G.ccmp" horiz-adv-x="669" 
d="M37 735l125 119q71 -80 155 -80q56 0 85.5 29t29.5 84v31h-2q-51 -54 -151 -54q-118 0 -191.5 81t-73.5 212q0 127 76 209t193 82q95 0 151 -59h2v45h189v-553q0 -122 -86 -198.5t-222 -76.5q-82 0 -156 34.5t-124 94.5zM424 1126v56q0 42 -28.5 69t-73.5 27
q-51 0 -79 -32t-28 -89t29 -91t78 -34q44 0 73 26.5t29 67.5z" />
    <glyph glyph-name="H.ccmp" horiz-adv-x="663" 
d="M45 1647h201v-252h2q59 53 153 53q106 0 167 -63t61 -173v-344h-201v308q0 94 -88 94q-44 0 -69 -25.5t-25 -68.5v-308h-201v779z" />
    <glyph glyph-name="I.ordn" horiz-adv-x="292" 
d="M49 1716h197v-186h-197v186zM45 1434h203v-566h-203v566z" />
    <glyph glyph-name="J.ordn" horiz-adv-x="294" 
d="M51 1716h199v-186h-199v186zM-61 801h65q25 0 35 9t10 32v592h203v-607q0 -110 -54 -164.5t-171 -54.5h-88v193z" />
    <glyph glyph-name="K.ccmp" horiz-adv-x="630" 
d="M45 1647h201v-385h2l149 172h252l-215 -224l203 -342h-227l-105 207h-2l-57 -59v-148h-201v779z" />
    <glyph glyph-name="L.ccmp" horiz-adv-x="290" 
d="M45 1647h201v-779h-201v779z" />
    <glyph glyph-name="M.ccmp" horiz-adv-x="964" 
d="M45 1434h191v-50h2q51 64 147 64q47 0 89 -17.5t67 -48.5h2q56 66 162 66q100 0 162.5 -58.5t62.5 -156.5v-365h-201v334q0 32 -20.5 51t-55.5 19t-55 -19.5t-20 -54.5v-330h-181v334q0 32 -20 51t-55 19q-76 0 -76 -76v-328h-201v566z" />
    <glyph glyph-name="N.ccmp" horiz-adv-x="663" 
d="M45 1434h191v-50h2q58 64 163 64q106 0 167 -63t61 -173v-344h-201v308q0 45 -23 70.5t-65 25.5q-44 0 -69 -26.5t-25 -69.5v-308h-201v566z" />
    <glyph glyph-name="O.ordn" horiz-adv-x="636" 
d="M14 1151q0 131 85 214t220 83q133 0 220 -84q86 -83 86 -213q0 -132 -86 -215q-85 -82 -220 -82t-220 83t-85 214zM422 1151q0 56 -28 88.5t-75 32.5q-49 0 -76.5 -32.5t-27.5 -88.5t27.5 -88.5t76.5 -32.5q47 0 75 32.5t28 88.5z" />
    <glyph glyph-name="P.ccmp" horiz-adv-x="655" 
d="M641 1151q0 -129 -73 -213t-183 -84q-85 0 -137 43h-2v-276h-201v813h191v-37h2q51 51 147 51q110 0 183 -84t73 -213zM440 1151q0 57 -27.5 89t-74.5 32q-42 0 -70 -28t-28 -70v-46q0 -42 28 -70t70 -28q47 0 74.5 32t27.5 89z" />
    <glyph glyph-name="Q.ccmp" horiz-adv-x="655" 
d="M418 1397h2v37h190v-813h-200v276h-2q-52 -43 -138 -43q-110 0 -183 84t-73 213t73 213t183 84q97 0 148 -51zM416 1128v46q0 42 -28 70t-71 28q-47 0 -74.5 -32t-27.5 -89t27.5 -89t74.5 -32q43 0 71 28t28 70z" />
    <glyph glyph-name="R.ccmp" horiz-adv-x="446" 
d="M463 1436l-31 -183q-35 9 -59 9q-63 0 -95 -42.5t-32 -144.5v-207h-201v566h186v-50h2q49 62 148 62q24 0 82 -10z" />
    <glyph glyph-name="S.ccmp" horiz-adv-x="589" 
d="M35 1044l164 48q14 -47 41.5 -69t74.5 -22q29 0 46.5 10t17.5 27t-21.5 29t-83.5 29q-111 29 -161 70t-50 104q0 79 64.5 128.5t167.5 49.5q93 0 161 -44.5t93 -119.5l-158 -47q-21 68 -96 68q-25 0 -40 -8.5t-15 -22.5q0 -13 18 -22t76 -27q121 -35 171 -77t50 -108
q0 -84 -66.5 -135t-173.5 -51q-112 0 -186.5 51t-93.5 139z" />
    <glyph glyph-name="T.ccmp" horiz-adv-x="440" 
d="M299 1270v-176q0 -23 11 -32t38 -9h68v-185h-90q-122 0 -175 48.5t-53 160.5v193h-98v164h98v147h201v-147h141v-164h-141z" />
    <glyph glyph-name="U.ccmp" horiz-adv-x="647" 
d="M602 1434v-566h-192v56h-2q-52 -70 -158 -70q-215 0 -215 244v336h201v-320q0 -84 79 -84q41 0 63.5 25t22.5 69v310h201z" />
    <glyph glyph-name="V.ccmp" horiz-adv-x="661" 
d="M4 1434h227l99 -310h2l98 310h227l-237 -566h-178z" />
    <glyph glyph-name="W.ccmp" horiz-adv-x="905" 
d="M4 1434h203l65 -297h2l93 297h172l92 -297h2l65 297h205l-143 -566h-203l-102 324h-2l-105 -324h-201z" />
    <glyph glyph-name="X.ccmp" horiz-adv-x="671" 
d="M209 1151l-205 283h236l94 -156h2l94 156h238l-205 -283l205 -283h-238l-94 156h-2l-92 -156h-238z" />
    <glyph glyph-name="Y.ccmp" horiz-adv-x="679" 
d="M676 1434l-350 -813h-211l118 280l-229 533h211l123 -312h2l123 312h213z" />
    <glyph glyph-name="Z.ccmp" horiz-adv-x="555" 
d="M4 1014l275 250v2h-269v168h537v-146l-275 -250v-2h279v-168h-547v146z" />
    <glyph glyph-name="a.salt" horiz-adv-x="1224" 
d="M1130 1085v-1085h-329v92h-4q-88 -117 -262 -117q-215 0 -351.5 158.5t-136.5 409.5q0 250 136.5 408.5t351.5 158.5q81 0 150 -29t112 -80h4v84h329zM788 469v145q0 86 -53.5 139.5t-138.5 53.5q-97 0 -152 -70t-55 -192q0 -123 54 -192.5t151 -69.5q86 0 140 52t54 134
z" />
    <glyph glyph-name="aacute.salt" horiz-adv-x="1224" 
d="M1130 1085v-1085h-329v92h-4q-88 -117 -262 -117q-215 0 -351.5 158.5t-136.5 409.5q0 250 136.5 408.5t351.5 158.5q81 0 150 -29t112 -80h4v84h329zM788 469v145q0 86 -53.5 139.5t-138.5 53.5q-97 0 -152 -70t-55 -192q0 -123 54 -192.5t151 -69.5q86 0 140 52t54 134
zM639 1536h334l-260 -297h-273z" />
    <glyph glyph-name="abreve.salt" horiz-adv-x="1224" 
d="M1130 1085v-1085h-329v92h-4q-88 -117 -262 -117q-215 0 -351.5 158.5t-136.5 409.5q0 250 136.5 408.5t351.5 158.5q81 0 150 -29t112 -80h4v84h329zM788 469v145q0 86 -53.5 139.5t-138.5 53.5q-97 0 -152 -70t-55 -192q0 -123 54 -192.5t151 -69.5q86 0 140 52t54 134
zM291 1513h176q14 -45 54.5 -69.5t101.5 -24.5q60 0 99.5 24.5t53.5 69.5h176q-8 -137 -95.5 -215.5t-233.5 -78.5t-235.5 79t-96.5 215z" />
    <glyph glyph-name="uni01CE.salt" horiz-adv-x="1224" 
d="M1130 1085v-1085h-329v92h-4q-88 -117 -262 -117q-215 0 -351.5 158.5t-136.5 409.5q0 250 136.5 408.5t351.5 158.5q81 0 150 -29t112 -80h4v84h329zM788 469v145q0 86 -53.5 139.5t-138.5 53.5q-97 0 -152 -70t-55 -192q0 -123 54 -192.5t151 -69.5q86 0 140 52t54 134
zM938 1401l-147 -182h-347l-145 182l180 133l139 -176l138 176z" />
    <glyph glyph-name="acircumflex.salt" horiz-adv-x="1224" 
d="M1130 1085v-1085h-329v92h-4q-88 -117 -262 -117q-215 0 -351.5 158.5t-136.5 409.5q0 250 136.5 408.5t351.5 158.5q81 0 150 -29t112 -80h4v84h329zM788 469v145q0 86 -53.5 139.5t-138.5 53.5q-97 0 -152 -70t-55 -192q0 -123 54 -192.5t151 -69.5q86 0 140 52t54 134
zM756 1198l-138 176l-139 -176l-180 133l145 182h347l147 -182z" />
    <glyph glyph-name="uni1EAD.salt" horiz-adv-x="1224" 
d="M1130 1085v-1085h-329v92h-4q-88 -117 -262 -117q-215 0 -351.5 158.5t-136.5 409.5q0 250 136.5 408.5t351.5 158.5q81 0 150 -29t112 -80h4v84h329zM788 469v145q0 86 -53.5 139.5t-138.5 53.5q-97 0 -152 -70t-55 -192q0 -123 54 -192.5t151 -69.5q86 0 140 52t54 134
zM756 1198l-138 176l-139 -176l-180 133l145 182h347l147 -182zM475 -131h283v-281h-283v281z" />
    <glyph glyph-name="adieresis.salt" horiz-adv-x="1224" 
d="M1130 1085v-1085h-329v92h-4q-88 -117 -262 -117q-215 0 -351.5 158.5t-136.5 409.5q0 250 136.5 408.5t351.5 158.5q81 0 150 -29t112 -80h4v84h329zM788 469v145q0 86 -53.5 139.5t-138.5 53.5q-97 0 -152 -70t-55 -192q0 -123 54 -192.5t151 -69.5q86 0 140 52t54 134
zM256 1499h283v-280h-283v280zM696 1499h285v-280h-285v280z" />
    <glyph glyph-name="uni01DF.salt" horiz-adv-x="1224" 
d="M1130 1085v-1085h-329v92h-4q-88 -117 -262 -117q-215 0 -351.5 158.5t-136.5 409.5q0 250 136.5 408.5t351.5 158.5q81 0 150 -29t112 -80h4v84h329zM788 469v145q0 86 -53.5 139.5t-138.5 53.5q-97 0 -152 -70t-55 -192q0 -123 54 -192.5t151 -69.5q86 0 140 52t54 134
zM256 1499h283v-280h-283v280zM696 1499h285v-280h-285v280zM276 1784h685v-203h-685v203z" />
    <glyph glyph-name="uni1EA1.salt" horiz-adv-x="1224" 
d="M1130 1085v-1085h-329v92h-4q-88 -117 -262 -117q-215 0 -351.5 158.5t-136.5 409.5q0 250 136.5 408.5t351.5 158.5q81 0 150 -29t112 -80h4v84h329zM788 469v145q0 86 -53.5 139.5t-138.5 53.5q-97 0 -152 -70t-55 -192q0 -123 54 -192.5t151 -69.5q86 0 140 52t54 134
zM475 -131h283v-281h-283v281z" />
    <glyph glyph-name="agrave.salt" horiz-adv-x="1224" 
d="M1130 1085v-1085h-329v92h-4q-88 -117 -262 -117q-215 0 -351.5 158.5t-136.5 409.5q0 250 136.5 408.5t351.5 158.5q81 0 150 -29t112 -80h4v84h329zM788 469v145q0 86 -53.5 139.5t-138.5 53.5q-97 0 -152 -70t-55 -192q0 -123 54 -192.5t151 -69.5q86 0 140 52t54 134
zM252 1536h336l196 -297h-270z" />
    <glyph glyph-name="amacron.salt" horiz-adv-x="1224" 
d="M1130 1085v-1085h-329v92h-4q-88 -117 -262 -117q-215 0 -351.5 158.5t-136.5 409.5q0 250 136.5 408.5t351.5 158.5q81 0 150 -29t112 -80h4v84h329zM788 469v145q0 86 -53.5 139.5t-138.5 53.5q-97 0 -152 -70t-55 -192q0 -123 54 -192.5t151 -69.5q86 0 140 52t54 134
zM276 1442h685v-203h-685v203z" />
    <glyph glyph-name="aogonek.salt" horiz-adv-x="1224" 
d="M1130 1085v-1085h-329v92h-4q-88 -117 -262 -117q-215 0 -351.5 158.5t-136.5 409.5q0 250 136.5 408.5t351.5 158.5q81 0 150 -29t112 -80h4v84h329zM788 469v145q0 86 -53.5 139.5t-138.5 53.5q-97 0 -152 -70t-55 -192q0 -123 54 -192.5t151 -69.5q86 0 140 52t54 134
zM717 -254q0 159 221 285l139 -31q-141 -102 -141 -182q0 -54 53 -54q51 0 113 33l76 -186q-109 -53 -226 -53q-110 0 -172.5 49t-62.5 139z" />
    <glyph glyph-name="aring.salt" horiz-adv-x="1239" 
d="M283 1430q0 115 84 188.5t215 73.5q128 0 213 -76q86 -74 86 -186q0 -113 -86 -187t-213 -74q-130 0 -214.5 74t-84.5 187zM705 1430q0 54 -34.5 88t-88.5 34q-55 0 -90 -34t-35 -88t34.5 -87.5t90.5 -33.5q54 0 88.5 33.5t34.5 87.5zM1130 1085v-1085h-329v92h-4
q-88 -117 -262 -117q-215 0 -351.5 158.5t-136.5 409.5q0 250 136.5 408.5t351.5 158.5q81 0 150 -29t112 -80h4v84h329zM788 469v145q0 86 -53.5 139.5t-138.5 53.5q-97 0 -152 -70t-55 -192q0 -123 54 -192.5t151 -69.5q86 0 140 52t54 134z" />
    <glyph glyph-name="aringacute.salt" horiz-adv-x="1218" 
d="M338 1415q0 84 47.5 148t128.5 94l184 274h334l-250 -284q72 -32 113 -93t41 -139q0 -112 -86 -186t-213 -74q-130 0 -214.5 73.5t-84.5 186.5zM760 1415q0 54 -34.5 88.5t-88.5 34.5q-55 0 -90 -34.5t-35 -88.5t34.5 -87.5t90.5 -33.5q54 0 88.5 33.5t34.5 87.5z
M1130 1085v-1085h-329v92h-4q-88 -117 -262 -117q-215 0 -351.5 158.5t-136.5 409.5q0 250 136.5 408.5t351.5 158.5q81 0 150 -29t112 -80h4v84h329zM788 614q0 86 -53.5 139.5t-138.5 53.5q-97 0 -152 -70t-55 -192q0 -123 54 -192.5t151 -69.5q86 0 140 52t54 134v145z
" />
    <glyph glyph-name="atilde.salt" horiz-adv-x="1224" 
d="M1130 1085v-1085h-329v92h-4q-88 -117 -262 -117q-215 0 -351.5 158.5t-136.5 409.5q0 250 136.5 408.5t351.5 158.5q81 0 150 -29t112 -80h4v84h329zM788 469v145q0 86 -53.5 139.5t-138.5 53.5q-97 0 -152 -70t-55 -192q0 -123 54 -192.5t151 -69.5q86 0 140 52t54 134
zM598 1278q-72 35 -102 35q-58 0 -70 -74h-160q6 129 59.5 199.5t147.5 70.5q40 0 75 -11t91 -38q72 -33 102 -33q58 0 70 72h160q-4 -130 -58 -201t-147 -71q-77 0 -168 51z" />
    <glyph glyph-name="aring.ss02" horiz-adv-x="1075" 
d="M53 301q0 131 88.5 211t284.5 127q137 32 187.5 59t50.5 68t-35.5 63.5t-98.5 22.5q-153 0 -180 -166l-303 64q25 164 159.5 268t323.5 104q210 0 337.5 -115.5t127.5 -304.5v-702h-297v90h-4q-32 -57 -104.5 -89t-169.5 -32q-170 0 -268.5 89t-98.5 243zM670 375v133h-4
q-11 -23 -41 -40.5t-97 -37.5q-84 -25 -117.5 -49.5t-33.5 -61.5q0 -79 110 -79q75 0 129 40t54 95zM199 1257q0 125 94.5 208t236.5 83t237 -83t95 -208q0 -124 -94.5 -207t-237.5 -83q-142 0 -236.5 82.5t-94.5 207.5zM668 1257q0 60 -39 98t-99 38q-61 0 -99 -38t-38 -98
t38 -97.5t99 -37.5q60 0 99 37.5t39 97.5z" />
    <glyph glyph-name="aringacute.ss02" horiz-adv-x="1075" 
d="M53 301q0 131 88.5 211t284.5 127q137 32 187.5 59t50.5 68t-35.5 63.5t-98.5 22.5q-153 0 -180 -166l-303 64q25 164 159.5 268t323.5 104q210 0 337.5 -115.5t127.5 -304.5v-702h-297v90h-4q-32 -57 -104.5 -89t-169.5 -32q-170 0 -268.5 89t-98.5 243zM670 375v133h-4
q-11 -23 -41 -40.5t-97 -37.5q-84 -25 -117.5 -49.5t-33.5 -61.5q0 -79 110 -79q75 0 129 40t54 95zM199 1257q0 125 94.5 208t236.5 83t237 -83t95 -208q0 -124 -94.5 -207t-237.5 -83q-142 0 -236.5 82.5t-94.5 207.5zM668 1257q0 60 -39 98t-99 38q-61 0 -99 -38t-38 -98
t38 -97.5t99 -37.5q60 0 99 37.5t39 97.5zM551 1796h334l-260 -297h-273z" />
    <glyph glyph-name="f.ss03" horiz-adv-x="815" 
d="M223 803h-219v282h219v117q0 149 90.5 232.5t255.5 83.5h224v-283h-148q-80 0 -80 -76v-74h203v-282h-203v-803h-342v803z" />
    <glyph glyph-name="j.ss03" horiz-adv-x="532" 
d="M100 1563h330v-308h-330v308zM94 1085h342v-1546h-342v1546z" />
    <glyph glyph-name="t.ss03" horiz-adv-x="796" 
d="M762 317v-317h-164q-210 0 -305.5 90.5t-95.5 286.5v426h-193v282h193v281h342v-281h194v-282h-194v-393q0 -51 22.5 -72t79.5 -21h121z" />
    <glyph glyph-name="zero.ccmp" horiz-adv-x="1351" 
d="M41 717q0 337 177.5 545t457.5 208t457.5 -208t177.5 -545q0 -223 -81 -395t-225.5 -265.5t-328.5 -93.5t-328.5 93.5t-225.5 265.5t-81 395zM958 717q0 206 -75 315t-207 109t-207.5 -109.5t-75.5 -314.5t75.5 -314.5t207.5 -109.5t207 109t75 315z" />
    <glyph glyph-name="one.ccmp" horiz-adv-x="901" 
d="M389 1063l-352 -207v361l371 217h333v-1434h-352v1063z" />
    <glyph glyph-name="two.ccmp" horiz-adv-x="1284" 
d="M481 322h711v-322h-1104v229q0 185 92 297q105 125 371 236q181 74 241 125t60 127q0 68 -49.5 107.5t-136.5 39.5q-105 0 -171 -65.5t-73 -177.5l-344 26q12 239 174 382.5t420 143.5q228 0 380 -130.5t152 -325.5q0 -171 -100 -283q-97 -112 -334 -211
q-135 -60 -182 -84q-52 -24 -74 -49q-27 -24 -33 -65z" />
    <glyph glyph-name="three.ccmp" horiz-adv-x="1298" 
d="M57 477l346 64q19 -137 82 -201t181 -64q96 0 146 43t50 125q0 78 -51.5 120t-148.5 42h-144v258h135q91 0 140 37t49 105t-52.5 109.5t-138.5 41.5q-196 0 -231 -190l-342 57q28 198 187.5 322t385.5 124q233 0 382 -119t149 -304q0 -193 -178 -287v-4
q217 -102 217 -348q0 -196 -154.5 -320.5t-400.5 -124.5q-261 0 -419.5 135.5t-189.5 378.5z" />
    <glyph glyph-name="four.ccmp" horiz-adv-x="1257" 
d="M711 240h-707v319l498 875h561v-879h168v-315h-168v-240h-352v240zM711 555v641h-4l-357 -641h361z" />
    <glyph glyph-name="five.ccmp" horiz-adv-x="1259" 
d="M47 354l334 121q59 -188 266 -188q97 0 160 55t63 141q0 88 -64.5 144.5t-164.5 56.5q-146 0 -246 -106l-321 86l131 770h868v-320h-612l-39 -229l4 -2q118 75 283 75q219 0 366.5 -141t147.5 -348q0 -221 -162 -363.5t-414 -142.5q-223 0 -384 104t-216 287z" />
    <glyph glyph-name="six.ccmp" horiz-adv-x="1257" 
d="M1237 461q0 -145 -72 -259t-198.5 -176.5t-284.5 -62.5q-301 0 -471 199.5t-170 548.5q0 222 81 395t228 268.5t336 95.5q199 0 340 -102q142 -101 186 -268l-319 -94q-53 153 -207 153q-117 0 -188.5 -83t-85.5 -232h4q122 110 323 110q211 0 354.5 -141.5t143.5 -351.5
zM901 481q0 94 -63 151.5t-166 57.5q-104 0 -167 -56.5t-63 -152.5q0 -94 64 -150.5t172 -56.5q101 0 162 55.5t61 151.5z" />
    <glyph glyph-name="seven.ccmp" horiz-adv-x="1107" 
d="M678 1106v4h-672v324h1075v-297l-546 -1137h-402z" />
    <glyph glyph-name="eight.ccmp" horiz-adv-x="1261" 
d="M16 414q0 121 73 223t187 145v4q-184 93 -184 283q0 171 151.5 286t387.5 115q235 0 385.5 -115t150.5 -286q0 -190 -182 -283v-4q114 -43 186 -144.5t72 -223.5q0 -133 -82.5 -236.5t-221.5 -159t-308 -55.5q-167 -2 -308.5 53.5t-226 161t-80.5 236.5zM827 1040
q0 68 -54 110t-142 42q-87 0 -143 -43t-56 -109q0 -69 54 -111t145 -42q88 0 142 42t54 111zM866 446q0 77 -64.5 128t-170.5 51q-107 0 -172.5 -51t-65.5 -128q0 -80 63 -125t175 -45q110 0 172.5 45t62.5 125z" />
    <glyph glyph-name="nine.ccmp" horiz-adv-x="1234" 
d="M1196 768q0 -805 -590 -805q-193 0 -331.5 96.5t-194.5 264.5l311 108q50 -164 215 -164q110 0 171.5 76.5t68.5 228.5h-4q-107 -94 -293 -94q-238 0 -383.5 133.5t-145.5 350.5q0 222 159.5 364.5t404.5 142.5q284 0 448 -188t164 -514zM592 754q109 0 171 55t62 152
q0 93 -64 148.5t-169 55.5q-109 0 -171.5 -54t-62.5 -150q0 -97 62.5 -152t171.5 -55z" />
    <glyph glyph-name="zero.tnum" 
d="M31 717q0 337 177.5 545t457.5 208q184 0 328 -93t225 -265t81 -395t-81 -395t-225 -265.5t-328 -93.5t-328.5 93.5t-225.5 265.5t-81 395zM948 717q0 206 -75 315t-207 109t-207.5 -109.5t-75.5 -314.5t75.5 -314.5t207.5 -109.5t207 109t75 315z" />
    <glyph glyph-name="one.tnum" 
d="M1202 317v-317h-1073v317h371v746l-353 -207v361l371 217h334v-1117h350z" />
    <glyph glyph-name="two.tnum" 
d="M504 322h710v-322h-1103v229q0 185 92 297q106 126 370 236q181 74 241 125t60 127q0 68 -49.5 107.5t-136.5 39.5q-105 0 -171 -65.5t-73 -177.5l-344 26q12 239 174 382.5t420 143.5q229 0 381 -130.5t152 -325.5q0 -170 -101 -283q-98 -113 -333 -211
q-142 -63 -183 -84q-50 -23 -73 -49q-27 -24 -33 -65z" />
    <glyph glyph-name="three.tnum" 
d="M84 477l346 64q19 -137 81.5 -201t180.5 -64q97 0 147 43t50 125q0 78 -52 120t-149 42h-143v258h135q90 0 139 37t49 105t-52 109.5t-138 41.5q-197 0 -232 -190l-342 57q28 198 188 322t386 124q233 0 381.5 -119t148.5 -304q0 -193 -178 -287v-4q217 -102 217 -348
q0 -196 -154.5 -320.5t-400.5 -124.5q-261 0 -419 135.5t-189 378.5z" />
    <glyph glyph-name="four.tnum" 
d="M760 240h-707v319l498 875h561v-879h168v-315h-168v-240h-352v240zM760 555v641h-4l-357 -641h361z" />
    <glyph glyph-name="five.tnum" 
d="M78 354l334 121q59 -188 266 -188q97 0 160 55t63 141q0 88 -64.5 144.5t-164.5 56.5q-146 0 -246 -106l-322 86l132 770h868v-320h-612l-39 -229l4 -2q118 75 282 75q219 0 366.5 -141t147.5 -348q0 -221 -161.5 -363.5t-413.5 -142.5q-223 0 -384 104t-216 287z" />
    <glyph glyph-name="six.tnum" 
d="M1257 461q0 -145 -72 -259t-198.5 -176.5t-284.5 -62.5q-301 0 -471 199.5t-170 548.5q0 222 81 395t228.5 268.5t336.5 95.5q199 0 340 -102q142 -101 186 -268l-320 -94q-53 153 -206 153q-117 0 -189 -83t-86 -232h4q122 110 324 110q211 0 354 -141.5t143 -351.5z
M922 481q0 94 -63.5 151.5t-166.5 57.5q-104 0 -166.5 -56.5t-62.5 -152.5q0 -94 63.5 -150.5t171.5 -56.5q101 0 162.5 55.5t61.5 151.5z" />
    <glyph glyph-name="seven.tnum" 
d="M801 1106v4h-672v324h1075v-297l-547 -1137h-401z" />
    <glyph glyph-name="eight.tnum" 
d="M63 414q0 121 73.5 223t187.5 145v4q-185 93 -185 283q0 171 151.5 286t387.5 115q235 0 385.5 -115t150.5 -286q0 -190 -182 -283v-4q114 -43 186 -144.5t72 -223.5q0 -133 -82.5 -236.5t-221.5 -159t-308 -55.5q-167 -2 -308.5 53.5t-226 161t-80.5 236.5zM874 1040
q0 68 -54 110t-142 42q-87 0 -143 -43t-56 -109q0 -69 54 -111t145 -42q88 0 142 42t54 111zM913 446q0 77 -64.5 128t-170.5 51q-107 0 -172.5 -51t-65.5 -128q0 -80 63 -125t175 -45q110 0 172.5 45t62.5 125z" />
    <glyph glyph-name="nine.tnum" 
d="M1247 768q0 -805 -590 -805q-193 0 -331.5 96.5t-194.5 264.5l311 108q50 -164 215 -164q110 0 171.5 76.5t68.5 228.5h-4q-107 -94 -293 -94q-237 0 -382.5 133.5t-145.5 350.5q0 222 159 364.5t404 142.5q284 0 448 -188t164 -514zM643 754q109 0 171.5 55t62.5 152
q0 93 -64.5 148.5t-169.5 55.5q-109 0 -171 -54t-62 -150q0 -97 62 -152t171 -55z" />
    <glyph glyph-name="zero.zero" horiz-adv-x="1337" 
d="M1298 688q0 -325 -175.5 -525t-452.5 -200q-182 0 -325 89.5t-223.5 255t-80.5 380.5t80.5 380.5t223.5 255t325 89.5q277 0 452.5 -200t175.5 -525zM375 688q0 -157 45 -256l319 672q-27 8 -69 8q-138 0 -216.5 -109t-78.5 -315zM965 688q0 168 -54 273l-323 -687
q52 -10 82 -10q138 0 216.5 109t78.5 315z" />
    <glyph glyph-name="zero.ordn" horiz-adv-x="1351" 
d="M1311 717q0 -223 -81 -395t-225.5 -265.5t-328.5 -93.5t-328.5 93.5t-225.5 265.5t-81 395q0 337 177.5 545t457.5 208t457.5 -208t177.5 -545zM379 717q0 -166 47 -275l338 711q-38 14 -88 14q-139 0 -218 -115.5t-79 -334.5zM971 717q0 167 -45 272l-334 -710
q44 -13 84 -13q138 0 216.5 115t78.5 336z" />
    <glyph glyph-name="zero.tnum_zero" 
d="M1303 717q0 -223 -81 -395t-225.5 -265.5t-328.5 -93.5t-328.5 93.5t-225.5 265.5t-81 395q0 337 177.5 545t457.5 208t457.5 -208t177.5 -545zM371 717q0 -166 47 -275l338 711q-38 14 -88 14q-139 0 -218 -115.5t-79 -334.5zM963 717q0 167 -45 272l-334 -710
q44 -13 84 -13q138 0 216.5 115t78.5 336z" />
    <glyph glyph-name="zero.subs" horiz-adv-x="862" 
d="M45 125q0 205 104 326.5t283 121.5q178 0 282.5 -121.5t104.5 -326.5t-104.5 -327t-282.5 -122q-179 0 -283 122t-104 327zM596 125q0 117 -42.5 179.5t-121.5 62.5q-164 0 -164 -242t164 -242q79 0 121.5 62.5t42.5 179.5z" />
    <glyph glyph-name="one.subs" horiz-adv-x="577" 
d="M227 309l-200 -114v235l219 125h205v-860h-224v614z" />
    <glyph glyph-name="two.subs" horiz-adv-x="776" 
d="M303 -94h420v-211h-662v149q0 115 58 185q59 74 217 135q104 38 137 64t33 67q0 35 -29 56.5t-78 21.5q-56 0 -91.5 -35t-39.5 -96l-223 14q8 142 105 229.5t249 87.5q147 0 239.5 -78.5t92.5 -203.5q0 -96 -62.5 -163t-199.5 -118q-124 -47 -147 -67q-16 -16 -19 -37z
" />
    <glyph glyph-name="three.subs" horiz-adv-x="765" 
d="M35 -25l209 50q12 -80 46.5 -116t100.5 -36q51 0 80 23.5t29 64.5q0 39 -30 62.5t-83 23.5h-78v166h74q102 0 102 82q0 38 -27.5 60t-74.5 22q-108 0 -129 -109l-207 37q19 122 110 195t226 73t223 -69.5t88 -177.5q0 -123 -100 -176v-3q60 -31 93.5 -85t33.5 -117
q0 -123 -88 -196t-240 -73q-149 0 -243.5 79t-114.5 220z" />
    <glyph glyph-name="four.subs" horiz-adv-x="780" 
d="M442 -158h-422v207l299 506h349v-506h98v-207h-98v-147h-226v147zM442 49v344h-2l-198 -344h200z" />
    <glyph glyph-name="five.subs" horiz-adv-x="794" 
d="M45 -115l197 103q25 -56 62.5 -81.5t94.5 -25.5t92 33t35 84q0 47 -33.5 75.5t-89.5 28.5q-81 0 -137 -59l-200 55l77 457h512v-203h-350l-22 -114l2 -2q71 36 157 36q134 0 220 -77q88 -76 88 -197q0 -136 -97 -229t-252 -93q-124 0 -218 55t-138 154z" />
    <glyph glyph-name="six.subs" horiz-adv-x="819" 
d="M776 -14q0 -139 -96 -226q-96 -84 -242 -84q-185 0 -289 117t-104 322q0 204 106.5 331t276.5 127q124 0 209.5 -59t114.5 -164l-211 -53q-11 37 -40.5 57.5t-72.5 20.5q-62 0 -104 -50t-48 -124h3q73 67 194 67q131 0 217 -78t86 -204zM553 -14q0 49 -34 77.5t-91 28.5
t-91 -28.5t-34 -79.5t34 -80t91 -29t91 30t34 81z" />
    <glyph glyph-name="seven.subs" horiz-adv-x="645" 
d="M381 344v2h-381v209h635v-201l-313 -659h-261z" />
    <glyph glyph-name="eight.subs" horiz-adv-x="817" 
d="M45 -55q0 74 44 134t116 85v2q-51 23 -82 70t-31 102q0 101 88 168t230 67q138 0 226.5 -67t88.5 -168q0 -57 -29.5 -103t-83.5 -69v-2q72 -25 117 -85.5t45 -133.5q0 -123 -98.5 -196t-265.5 -73t-266 73t-99 196zM514 319q0 35 -28.5 56.5t-75.5 21.5q-49 0 -78 -21.5
t-29 -56.5q0 -37 28.5 -58t78.5 -21q49 0 76.5 21t27.5 58zM549 -25q0 48 -37 75.5t-102 27.5q-66 0 -104 -28t-38 -75t38 -74.5t104 -27.5t102.5 27t36.5 75z" />
    <glyph glyph-name="nine.subs" horiz-adv-x="802" 
d="M760 158q0 -235 -93 -358.5t-270 -123.5q-117 0 -200.5 54.5t-118.5 152.5l198 80q37 -92 121 -92q56 0 91.5 43.5t39.5 116.5q-60 -45 -163 -45q-143 0 -231.5 77.5t-88.5 204.5q0 135 95.5 220t248.5 85q172 0 271.5 -110.5t99.5 -304.5zM393 164q60 0 92.5 27.5
t32.5 78.5q0 49 -34 78t-91 29t-91 -29t-34 -78t34 -77.5t91 -28.5z" />
    <glyph glyph-name="zero.dnom" horiz-adv-x="862" 
d="M45 430q0 205 104 327t283 122q178 0 282.5 -122t104.5 -327t-104.5 -326.5t-282.5 -121.5q-179 0 -283 121.5t-104 326.5zM596 430q0 117 -42.5 179.5t-121.5 62.5q-164 0 -164 -242t164 -242q79 0 121.5 62.5t42.5 179.5z" />
    <glyph glyph-name="one.dnom" horiz-adv-x="577" 
d="M227 614l-200 -114v235l219 125h205v-860h-224v614z" />
    <glyph glyph-name="two.dnom" horiz-adv-x="776" 
d="M303 211h420v-211h-662v150q0 114 58 184q59 74 217 135q104 38 137 64t33 67q0 35 -29 56.5t-78 21.5q-56 0 -91.5 -35t-39.5 -96l-223 14q8 142 105 230t249 88q147 0 239.5 -79t92.5 -204q0 -96 -62.5 -163t-199.5 -118q-124 -47 -147 -67q-16 -16 -19 -37z" />
    <glyph glyph-name="three.dnom" horiz-adv-x="765" 
d="M35 281l209 49q12 -80 46.5 -116t100.5 -36q51 0 80 23.5t29 64.5q0 39 -30 62.5t-83 23.5h-78v166h74q102 0 102 82q0 38 -27.5 60t-74.5 22q-108 0 -129 -109l-207 37q19 122 110 195.5t226 73.5t223 -70t88 -178q0 -123 -100 -176v-2q60 -31 93.5 -85t33.5 -118
q0 -123 -88 -195.5t-240 -72.5q-149 0 -243.5 79t-114.5 220z" />
    <glyph glyph-name="four.dnom" horiz-adv-x="780" 
d="M442 147h-422v207l299 506h349v-506h98v-207h-98v-147h-226v147zM442 354v344h-2l-198 -344h200z" />
    <glyph glyph-name="five.dnom" horiz-adv-x="794" 
d="M45 190l197 103q25 -56 62.5 -81.5t94.5 -25.5t92 33t35 84q0 47 -34 76t-89 29q-80 0 -137 -60l-200 55l77 457h512v-203h-350l-22 -114l2 -2q73 37 157 37q133 0 220 -78q88 -76 88 -197q0 -136 -97 -228.5t-252 -92.5q-124 0 -218 55t-138 153z" />
    <glyph glyph-name="six.dnom" horiz-adv-x="819" 
d="M776 291q0 -138 -96 -225q-96 -84 -242 -84q-185 0 -289 116.5t-104 321.5q0 204 106.5 331.5t276.5 127.5q124 0 209.5 -59.5t114.5 -164.5l-211 -53q-11 37 -40.5 57.5t-72.5 20.5q-62 0 -104 -50t-48 -124h3q73 67 194 67q131 0 217 -78t86 -204zM553 291
q0 49 -34 77.5t-91 28.5t-91 -28.5t-34 -79.5t34 -80t91 -29t91 30t34 81z" />
    <glyph glyph-name="seven.dnom" horiz-adv-x="645" 
d="M381 649v2h-381v209h635v-201l-313 -659h-261z" />
    <glyph glyph-name="eight.dnom" horiz-adv-x="817" 
d="M45 250q0 74 44 134t116 85v2q-51 23 -82 70t-31 102q0 101 88 168q89 68 230 68q138 0 226.5 -67.5t88.5 -168.5q0 -57 -29.5 -103t-83.5 -69v-2q72 -25 117 -85.5t45 -133.5q0 -123 -98.5 -195.5t-265.5 -72.5t-266 72.5t-99 195.5zM514 625q0 35 -28.5 56t-75.5 21
q-49 0 -78 -21t-29 -56q0 -37 29 -58.5t78 -21.5t76.5 21.5t27.5 58.5zM549 281q0 48 -36.5 75t-102.5 27t-104 -27.5t-38 -74.5t38 -75t104 -28q65 0 102 27.5t37 75.5z" />
    <glyph glyph-name="nine.dnom" horiz-adv-x="802" 
d="M760 463q0 -235 -93 -358t-270 -123q-117 0 -200.5 54t-118.5 152l198 80q37 -92 121 -92q56 0 91.5 43.5t39.5 116.5q-60 -45 -163 -45q-143 0 -231.5 77.5t-88.5 204.5q0 135 95.5 220.5t248.5 85.5q172 0 271.5 -111t99.5 -305zM393 469q60 0 92.5 27.5t32.5 78.5
q0 49 -34 78t-91 29t-91 -29t-34 -78t34 -77.5t91 -28.5z" />
    <glyph glyph-name="zero.numr" horiz-adv-x="862" 
d="M45 1004q0 205 104 326.5t283 121.5q178 0 282.5 -121.5t104.5 -326.5t-104.5 -327t-282.5 -122q-179 0 -283 122t-104 327zM596 1004q0 117 -42 179t-122 62q-164 0 -164 -241q0 -242 164 -242q79 0 121.5 62.5t42.5 179.5z" />
    <glyph glyph-name="one.numr" horiz-adv-x="577" 
d="M227 1188l-200 -115v236l219 125h205v-861h-224v615z" />
    <glyph glyph-name="two.numr" horiz-adv-x="776" 
d="M303 784h420v-211h-662v150q0 114 58 184q59 74 217 135q103 38 136.5 64t33.5 68q0 35 -29 56t-78 21q-56 0 -91.5 -35t-39.5 -96l-223 15q8 142 105 229.5t249 87.5q147 0 239.5 -79t92.5 -204q0 -96 -62.5 -162.5t-199.5 -117.5q-122 -46 -147 -68q-16 -16 -19 -37z
" />
    <glyph glyph-name="three.numr" horiz-adv-x="765" 
d="M35 854l209 49q12 -80 46.5 -115.5t100.5 -35.5q51 0 80 23.5t29 64.5q0 39 -30 62.5t-83 23.5h-78v166h74q102 0 102 82q0 38 -27.5 59.5t-74.5 21.5q-108 0 -129 -108l-207 37q19 122 110 195t226 73t223 -70t88 -178q0 -123 -100 -176v-2q60 -31 93.5 -85t33.5 -118
q0 -123 -88 -195.5t-240 -72.5q-149 0 -243.5 79t-114.5 220z" />
    <glyph glyph-name="four.numr" horiz-adv-x="780" 
d="M442 721h-422v207l299 506h349v-506h98v-207h-98v-148h-226v148zM442 928v344h-2l-198 -344h200z" />
    <glyph glyph-name="five.numr" horiz-adv-x="794" 
d="M45 764l197 102q25 -55 62.5 -80.5t94.5 -25.5t92 33t35 84q0 47 -33.5 75.5t-89.5 28.5q-81 0 -137 -59l-200 55l77 457h512v-203h-350l-22 -115l2 -2q73 37 157 37q133 0 220 -78q88 -76 88 -196q0 -136 -97 -229t-252 -93q-124 0 -218 55t-138 154z" />
    <glyph glyph-name="six.numr" horiz-adv-x="819" 
d="M776 864q0 -138 -96 -225q-96 -84 -242 -84q-185 0 -289 116.5t-104 321.5q0 204 106.5 331.5t276.5 127.5q124 0 209.5 -59t114.5 -164l-211 -53q-10 37 -40 57t-73 20q-62 0 -104 -50t-48 -124h3q74 68 194 68q131 0 217 -78.5t86 -204.5zM553 864q0 49 -34 78t-91 29
t-91 -29t-34 -80t34 -79.5t91 -28.5t91 29.5t34 80.5z" />
    <glyph glyph-name="seven.numr" horiz-adv-x="645" 
d="M381 1223v2h-381v209h635v-201l-313 -660h-261z" />
    <glyph glyph-name="eight.numr" horiz-adv-x="817" 
d="M45 823q0 74 44 134t116 85v2q-51 23 -82 70.5t-31 102.5q0 100 88 167q89 68 230 68q138 0 226.5 -67t88.5 -168q0 -58 -30 -104t-83 -69v-2q72 -25 117 -85.5t45 -133.5q0 -123 -98.5 -195.5t-265.5 -72.5t-266 72.5t-99 195.5zM514 1198q0 35 -28.5 56.5t-75.5 21.5
q-49 0 -78 -21.5t-29 -56.5q0 -37 29 -58.5t78 -21.5t76.5 21.5t27.5 58.5zM549 854q0 48 -36.5 75t-102.5 27t-104 -27.5t-38 -74.5t38 -74.5t104 -27.5t102.5 27t36.5 75z" />
    <glyph glyph-name="nine.numr" horiz-adv-x="802" 
d="M760 1036q0 -235 -93 -358t-270 -123q-117 0 -200.5 54.5t-118.5 152.5l198 80q37 -92 121 -92q56 0 91.5 43t39.5 116q-60 -45 -163 -45q-143 0 -231.5 78t-88.5 205q0 135 95.5 220t248.5 85q172 0 271.5 -111t99.5 -305zM393 1042q60 0 92.5 28t32.5 79q0 49 -34 77.5
t-91 28.5t-91 -28.5t-34 -77.5t34 -78t91 -29z" />
    <glyph glyph-name="zero.sups" horiz-adv-x="862" 
d="M45 1208q0 205 104 327t283 122q178 0 282.5 -122t104.5 -327t-104.5 -326.5t-282.5 -121.5q-179 0 -283 121.5t-104 326.5zM596 1208q0 117 -42.5 179.5t-121.5 62.5q-164 0 -164 -242q0 -241 164 -241q80 0 122 62t42 179z" />
    <glyph glyph-name="one.sups" horiz-adv-x="577" 
d="M227 1393l-200 -115v235l219 125h205v-860h-224v615z" />
    <glyph glyph-name="two.sups" horiz-adv-x="776" 
d="M303 989h420v-211h-662v150q0 114 58 184q59 74 217 135q104 38 137 64t33 67q0 35 -29 56.5t-78 21.5q-56 0 -91.5 -35t-39.5 -96l-223 14q8 142 105 230t249 88q147 0 239.5 -79t92.5 -204q0 -96 -62.5 -162.5t-199.5 -117.5q-122 -46 -147 -68q-16 -16 -19 -37z" />
    <glyph glyph-name="three.sups" horiz-adv-x="765" 
d="M35 1059l209 49q12 -80 46.5 -116t100.5 -36q51 0 80 23.5t29 64.5q0 39 -30 62.5t-83 23.5h-78v166h74q102 0 102 82q0 38 -27.5 60t-74.5 22q-108 0 -129 -108l-207 37q19 122 110 195t226 73t223 -70t88 -178q0 -123 -100 -176v-2q60 -31 93.5 -85t33.5 -118
q0 -123 -88 -195.5t-240 -72.5q-149 0 -243.5 79t-114.5 220z" />
    <glyph glyph-name="four.sups" horiz-adv-x="780" 
d="M442 926h-422v207l299 505h349v-505h98v-207h-98v-148h-226v148zM442 1133v344h-2l-198 -344h200z" />
    <glyph glyph-name="five.sups" horiz-adv-x="794" 
d="M45 969l197 102q25 -55 62.5 -80.5t94.5 -25.5t92 32.5t35 83.5q0 47 -34 76t-89 29q-80 0 -137 -60l-200 56l77 456h512v-202h-350l-22 -115l2 -2q73 37 157 37q133 0 220 -78q88 -76 88 -197q0 -136 -97 -228.5t-252 -92.5q-124 0 -218 55t-138 154z" />
    <glyph glyph-name="six.sups" horiz-adv-x="819" 
d="M776 1069q0 -138 -96 -225q-96 -84 -242 -84q-185 0 -289 116.5t-104 321.5q0 204 106.5 331.5t276.5 127.5q124 0 209.5 -59t114.5 -164l-211 -54q-11 37 -40.5 57.5t-72.5 20.5q-62 0 -104 -50t-48 -124h3q74 68 194 68q131 0 217 -78.5t86 -204.5zM553 1069
q0 49 -34 78t-91 29t-91 -29t-34 -80t34 -80t91 -29t91 30t34 81z" />
    <glyph glyph-name="seven.sups" horiz-adv-x="645" 
d="M381 1427v3h-381v208h635v-200l-313 -660h-261z" />
    <glyph glyph-name="eight.sups" horiz-adv-x="817" 
d="M45 1028q0 74 44 134t116 85v2q-51 23 -82 70t-31 102q0 101 88 168q89 68 230 68q138 0 226.5 -67.5t88.5 -168.5q0 -57 -29.5 -103t-83.5 -69v-2q72 -25 117 -85.5t45 -133.5q0 -123 -98.5 -195.5t-265.5 -72.5t-266 72.5t-99 195.5zM514 1403q0 35 -28.5 56.5
t-75.5 21.5q-49 0 -78 -21.5t-29 -56.5q0 -37 29 -58.5t78 -21.5t76.5 21.5t27.5 58.5zM549 1059q0 48 -36.5 75t-102.5 27t-104 -27.5t-38 -74.5t38 -75t104 -28q65 0 102 27.5t37 75.5z" />
    <glyph glyph-name="nine.sups" horiz-adv-x="802" 
d="M760 1241q0 -235 -93 -358t-270 -123q-117 0 -200.5 54.5t-118.5 152.5l198 80q37 -93 121 -93q56 0 91.5 43.5t39.5 116.5q-60 -45 -163 -45q-143 0 -231.5 78t-88.5 205q0 135 95.5 220t248.5 85q172 0 271.5 -111t99.5 -305zM393 1247q60 0 92.5 28t32.5 79
q0 49 -34 77.5t-91 28.5t-91 -28.5t-34 -77.5t34 -78t91 -29z" />
    <glyph glyph-name="braceleft.case" horiz-adv-x="788" 
d="M258 55v326q0 69 -23.5 95t-89.5 26h-57v364h57q66 0 89.5 26t23.5 95v285q0 177 79 251t269 74h176v-272h-139q-63 0 -88 -30t-25 -105v-297q0 -87 -53 -147t-131 -60v-4q78 0 131 -60t53 -147v-336q0 -75 25 -105t88 -30h139v-274h-176q-190 0 -269 74t-79 251z" />
    <glyph glyph-name="braceright.case" horiz-adv-x="788" 
d="M6 -270v274h139q63 0 88 30t25 105v336q0 87 53 147t131 60v4q-78 0 -131 60t-53 147v297q0 75 -25 105t-88 30h-139v272h176q190 0 269 -74t79 -251v-285q0 -69 23.5 -95t89.5 -26h57v-364h-57q-66 0 -89.5 -26t-23.5 -95v-326q0 -177 -79 -251t-269 -74h-176z" />
    <glyph glyph-name="bracketleft.case" horiz-adv-x="661" 
d="M129 1597h524v-262h-250v-1341h250v-264h-524v1867z" />
    <glyph glyph-name="bracketright.case" horiz-adv-x="661" 
d="M8 -270v264h250v1341h-250v262h524v-1867h-524z" />
    <glyph glyph-name="parenleft.case" horiz-adv-x="772" 
d="M150 707q0 533 417 1007l197 -145q-165 -214 -244 -424q-74 -204 -74 -438q0 -235 74 -439q79 -210 244 -424l-197 -145q-417 474 -417 1008z" />
    <glyph glyph-name="parenright.case" horiz-adv-x="772" 
d="M8 -156q167 217 242 424q76 201 76 439q0 237 -76 438q-75 207 -242 424l197 145q418 -475 418 -1007q0 -264 -106.5 -519.5t-311.5 -488.5z" />
    <glyph glyph-name="emdash.ccmp" horiz-adv-x="1738" 
d="M68 877h1601v-291h-1601v291z" />
    <glyph glyph-name="endash.ccmp" horiz-adv-x="1153" 
d="M68 877h1015v-291h-1015v291z" />
    <glyph glyph-name="hyphen.ccmp" horiz-adv-x="712" 
d="M68 877h577v-291h-577v291z" />
    <glyph glyph-name="uni00AD.ccmp" horiz-adv-x="712" 
d="M68 877h577v-291h-577v291z" />
    <glyph glyph-name="guillemotleft.case" horiz-adv-x="1159" 
d="M547 664l229 397h295l-237 -397l237 -400h-295zM109 664l229 397h295l-238 -397l238 -400h-295z" />
    <glyph glyph-name="guillemotright.case" horiz-adv-x="1159" 
d="M88 264l238 400l-238 397h295l229 -397l-229 -400h-295zM526 264l238 400l-238 397h295l230 -397l-230 -400h-295z" />
    <glyph glyph-name="guilsinglleft.case" horiz-adv-x="720" 
d="M109 664l229 397h295l-238 -397l238 -400h-295z" />
    <glyph glyph-name="guilsinglright.case" horiz-adv-x="720" 
d="M88 264l238 400l-238 397h295l229 -397l-229 -400h-295z" />
    <glyph glyph-name="uni0E3F.tnum" 
d="M737 2v-238h-153v236h-434v1434h434v213h153v-213h11q194 0 318 -108.5t124 -278.5q0 -85 -39 -155.5t-107 -113.5v-4q93 -44 146 -132t53 -198q0 -213 -126 -322t-380 -120zM475 874h109v259h-109v-259zM737 1133v-259q123 12 123 132q0 115 -123 127zM584 301v305h-109
v-305h109zM913 455q0 151 -165 151h-11v-305h11q86 0 125.5 37t39.5 117z" />
    <glyph glyph-name="cent.tnum" 
d="M918 436l313 -57q-31 -171 -153 -280.5t-306 -129.5v-205h-154v201q-231 22 -375.5 181.5t-144.5 396.5t144.5 396t375.5 181v178h154v-182q184 -20 306 -129t153 -280l-313 -58q-30 125 -146 160v-533q119 35 146 160zM618 270v545q-88 -20 -137 -91t-49 -181t49 -181.5
t137 -91.5z" />
    <glyph glyph-name="currency.tnum" 
d="M1057 377l137 -137l-96 -97l-137 133q-124 -100 -295 -100q-172 0 -299 103l-136 -136l-96 97l137 139q-86 127 -86 297q0 164 84 295l-135 135l96 96l129 -131q128 107 306 107q175 0 303 -107l131 131l96 -96l-137 -137q86 -127 86 -293q0 -168 -88 -299zM844 674
q0 110 -45 167.5t-131 57.5q-88 0 -133.5 -57.5t-45.5 -167.5q0 -106 46 -162.5t133 -56.5q86 0 131 56.5t45 162.5z" />
    <glyph glyph-name="dollar.tnum" 
d="M750 -37v-199h-154v205q-235 25 -376.5 156.5t-172.5 357.5l332 60q23 -121 74.5 -185t142.5 -84v340q-175 56 -269 102.5t-161 125.5q-72 84 -72 211q0 173 140.5 289.5t361.5 125.5v179h154v-183q201 -26 333.5 -142t163.5 -290l-327 -63q-49 145 -170 186v-276
q177 -56 281 -110.5t173 -143.5q78 -96 78 -236q0 -182 -145.5 -299.5t-386.5 -126.5zM596 928v241q-76 -6 -119 -36.5t-43 -79.5q0 -37 39 -65.5t123 -59.5zM942 389q0 55 -47.5 96t-144.5 78v-299q92 4 142 36.5t50 88.5z" />
    <glyph glyph-name="Euro.tnum" 
d="M1284 504q-27 -249 -176 -395t-371 -146q-213 0 -359 128.5t-200 361.5h-164v221h136v41v47h-136v221h166q56 229 203 358t354 129q219 0 368.5 -143t174.5 -377l-338 -57q-17 123 -70 188.5t-135 65.5q-69 0 -121.5 -42t-83.5 -122h271v-221h-311v-47v-41h235v-221h-197
q62 -166 207 -166q171 0 209 274z" />
    <glyph glyph-name="florin.tnum" 
d="M922 1147l-9 -62h261v-282h-312l-162 -922q-59 -317 -393 -317h-166v282h121q48 0 73 20.5t32 67.5l153 869h-237v282h288l19 115q53 318 391 318h209v-283h-162q-94 0 -106 -88z" />
    <glyph glyph-name="lira.tnum" 
d="M1288 754q0 -222 -83 -393.5t-233 -266t-343 -94.5h-353v600l-161 -59l-72 204l233 84v103l-161 -60l-72 205l233 86v271h353v-142l243 88l72 -204l-315 -115v-103l243 89l72 -203l-315 -115v-405q142 0 224.5 115t82.5 315h352z" />
    <glyph glyph-name="uni20BD.tnum" 
d="M586 354h231v-198h-231v-156h-353v156h-186v198h186v97h-186v198h186v785h519q239 0 375.5 -131t136.5 -363q0 -233 -135.5 -361t-376.5 -128h-166v-97zM586 766h147q86 0 135.5 46.5t49.5 131.5q0 172 -179 172h-153v-350z" />
    <glyph glyph-name="uni20A8.tnum" 
d="M891 1237v-4q74 -77 98 -184h172v-193h-170q-19 -119 -83.5 -206t-168.5 -134v-4l281 -512h-375l-242 467h-233v303h285q140 0 184 86h-469v193h471q-40 81 -186 81h-285v304h991v-197h-270z" />
    <glyph glyph-name="sterling.tnum" 
d="M616 324h592v-324h-1122v324h64q97 0 153.5 46.5t56.5 127.5q0 32 -8 59h-266v256h121q-84 128 -84 234q0 193 147.5 308t395.5 115q234 0 387 -112q156 -114 190 -307l-342 -76q-40 172 -235 172q-82 0 -131.5 -39t-49.5 -102q0 -38 17 -78t61 -115h408v-256h-291
q6 -27 6 -61q0 -104 -70 -168v-4z" />
    <glyph glyph-name="uni20A9.tnum" 
d="M1237 967l-14 -103h114v-192h-137l-84 -672h-297l-151 664h-4l-152 -664h-297l-84 672h-137v192h115l-15 103h-100v194h78l-35 273h305l27 -273h594l26 273h305l-34 -273h77v-194h-100zM397 864h113l22 103h-145zM944 967h-147l22 -103h115zM434 512l35 160h-53l14 -160
h4zM915 672h-55l35 -160h4z" />
    <glyph glyph-name="yen.tnum" 
d="M918 711h307v-222h-381v-88h381v-221h-381v-180h-355v180h-383v221h383v88h-383v222h310l-381 723h389l240 -547h4l239 547h389z" />
    <glyph glyph-name="plus.tnum" 
d="M1204 604h-395v-428h-287v428h-397v266h397v428h287v-428h395v-266z" />
    <glyph glyph-name="minus.tnum" 
d="M176 870h977v-266h-977v266z" />
    <glyph glyph-name="multiply.tnum" 
d="M156 387l323 318l-323 319l192 188l318 -321l317 321l191 -188l-322 -319l322 -318l-191 -188l-317 321l-318 -321z" />
    <glyph glyph-name="divide.tnum" 
d="M451 1196q0 93 61 154t152 61q93 0 154 -61t61 -154q0 -92 -61.5 -152.5t-153.5 -60.5q-91 0 -152 60.5t-61 152.5zM176 870h977v-266h-977v266zM451 268q0 93 61 154t152 61q93 0 154 -61t61 -154q0 -91 -61.5 -152t-153.5 -61q-91 0 -152 61t-61 152z" />
    <glyph glyph-name="equal.tnum" 
d="M178 1053h975v-269h-975v269zM178 627h975v-269h-975v269z" />
    <glyph glyph-name="notequal.tnum" 
d="M809 784l-90 -157h434v-269h-588l-141 -245l-148 86l93 159h-191v269h344l90 157h-434v269h590l141 247l146 -86l-92 -161h190v-269h-344z" />
    <glyph glyph-name="greater.tnum" 
d="M188 393l568 324l-568 325l158 254l797 -477v-207l-797 -475z" />
    <glyph glyph-name="less.tnum" 
d="M188 612v207l797 477l158 -254l-568 -325l568 -324l-158 -256z" />
    <glyph glyph-name="greaterequal.tnum" 
d="M211 561l571 301l-571 301l137 242l797 -449v-190l-797 -444zM184 270h961v-270h-961v270z" />
    <glyph glyph-name="lessequal.tnum" 
d="M186 766v190l797 449l137 -242l-571 -301l571 -301l-137 -239zM186 0v270h961v-270h-961z" />
    <glyph glyph-name="plusminus.tnum" 
d="M1204 1069v-268h-395v-338h-287v338h-397v268h397v338h287v-338h395zM127 344h1077v-272h-1077v272z" />
    <glyph glyph-name="approxequal.tnum" 
d="M51 877q99 344 393 344q64 0 125 -22t152 -71q104 -59 151 -59q81 0 134 152l278 -113q-102 -344 -395 -344q-63 0 -124 21.5t-151 70.5q-106 57 -151 57q-87 0 -133 -149zM51 348q99 344 393 344q65 0 126 -21.5t151 -70.5q104 -59 151 -59q81 0 134 151l278 -112
q-102 -344 -395 -344q-63 0 -124 21.5t-151 70.5q-106 57 -151 57q-87 0 -133 -149z" />
    <glyph glyph-name="percent.tnum" 
d="M6 1352q0 208 107 328t295 120t293.5 -120t105.5 -328t-105.5 -328.5t-293.5 -120.5t-295 120.5t-107 328.5zM547 1352q0 207 -139 207q-142 0 -142 -207q0 -205 142 -205q139 0 139 205zM109 555l925 532l133 -227l-927 -532zM526 82q0 208 106 328t294 120
q186 0 292.5 -120.5t106.5 -327.5q0 -208 -106.5 -328.5t-292.5 -120.5q-188 0 -294 120.5t-106 328.5zM1065 82q0 207 -139 207q-142 0 -142 -207t142 -207q139 0 139 207z" />
    <glyph glyph-name="perthousand.tnum" 
d="M35 1440q0 207 106.5 327.5t292.5 120.5q188 0 294 -120t106 -328t-106 -328.5t-294 -120.5q-186 0 -292.5 120.5t-106.5 328.5zM573 1440q0 207 -139 207t-139 -207q0 -205 139 -205t139 205zM68 719l991 358l86 -225l-995 -358zM4 -27q0 208 106.5 328.5t292.5 120.5
q102 0 164 -33q102 238 363 238q185 0 291 -120.5t106 -328.5t-106 -328t-291 -120q-104 0 -166 34q-44 -117 -136 -178t-225 -61q-186 0 -292.5 120.5t-106.5 327.5zM1069 178q0 205 -145 205q-73 0 -107.5 -50.5t-34.5 -154.5q0 -207 142 -207q145 0 145 207zM551 -27
q0 205 -141 205q-146 0 -146 -205q0 -206 146 -206q141 0 141 206z" />
    <glyph glyph-name="at.case" horiz-adv-x="1587" 
d="M88 713q-2 160 54 302.5t152.5 242.5t229.5 157t281 55q204 0 361.5 -89t244 -250t86.5 -369q0 -465 -305 -465q-139 0 -201 100h-4q-38 -47 -99.5 -73.5t-133.5 -26.5q-132 0 -206.5 63.5t-74.5 169.5q0 99 57 158.5t185 91.5q105 25 139.5 46t34.5 53q0 25 -22 41
t-60 16q-48 0 -79.5 -28.5t-41.5 -82.5l-211 54q23 117 112 186.5t218 69.5q148 0 231.5 -85.5t83.5 -234.5v-227q0 -51 17 -75t55 -24q46 0 72 68.5t26 204.5q0 233 -130.5 377.5t-354.5 144.5q-147 0 -264 -76t-181.5 -206.5t-64.5 -288.5q0 -274 130.5 -418.5
t367.5 -144.5q97 0 176 17.5t172 59.5l71 -178q-113 -47 -207 -66.5t-212 -19.5q-330 0 -517.5 198.5t-187.5 551.5zM885 586v100h-2q-4 -13 -24 -23.5t-89 -35.5q-65 -24 -65 -72q0 -59 71 -59q47 0 78 26t31 64z" />
    <glyph glyph-name="_646" horiz-adv-x="0" 
d="M-479 434v60l-299 -279l-109 115l408 381v-60l373 348l106 -114z" />
    <glyph glyph-name="_648" horiz-adv-x="0" 
d="M-594 389v55l-313 -292l-109 114l469 441v-39l432 407l115 -123z" />
    <glyph glyph-name="_649" horiz-adv-x="0" 
d="M-330 1563h330v-308h-330v308z" />
    <glyph glyph-name="_650" horiz-adv-x="0" 
d="M-799 838h799v-209h-799v209z" />
    </font>
</defs>
</svg>
