<?xml version="1.0" standalone="no"?>
<!DOCTYPE svg PUBLIC "-//W3C//DTD SVG 1.1//EN" "http://www.w3.org/Graphics/SVG/1.1/DTD/svg11.dtd" >
<svg xmlns="http://www.w3.org/2000/svg" xmlns:xlink="http://www.w3.org/1999/xlink" version="1.1">
<metadata>
Created by FontForge 20170731 at Thu Jul 23 15:58:59 2020
 By Aleksey,,,
Copyright (c) 2017 by Timo Gaessner. All rights reserved.
</metadata>
<defs>
<font id="MaisonNeue-ExtraThin" horiz-adv-x="1331" >
  <font-face 
    font-family="Maison Neue ExtraThin"
    font-weight="250"
    font-stretch="normal"
    units-per-em="2048"
    panose-1="2 11 2 4 4 0 0 0 0 0"
    ascent="1638"
    descent="-410"
    x-height="1085"
    cap-height="1434"
    bbox="-1327 -614 4426 1995"
    underline-thickness="40"
    underline-position="-286"
    unicode-range="U+000D-FEFF"
  />
<missing-glyph horiz-adv-x="1404" 
d="M109 856q0 171 80.5 309t217 213.5t300.5 75.5q122 1 233.5 -44t193.5 -123.5t129.5 -191t45.5 -239.5v-866h-58l-133 133l-139 -133l-129 133l-145 -133l-142 133l-129 -133l-137 133l-135 -133h-53v866zM442 743l131 -129l29 29l-131 129l131 131l-29 29l-131 -131
l-129 131l-28 -29l129 -131l-129 -129l28 -29zM975 743l131 -129l29 29l-131 129l131 131l-29 29l-131 -131l-129 131l-29 -29l129 -131l-129 -129l29 -29z" />
    <glyph glyph-name="fi" unicode="fi" horiz-adv-x="940" 
d="M801 1085v-1085h-62v1030h-450v-1030h-62v1030h-178v55h178v134q0 94 52 145t149 51h129v-57h-125q-75 0 -109 -35.5t-34 -110.5v-127h512zM809 1395v-113h-117v113h117z" />
    <glyph glyph-name="fl" unicode="fl" horiz-adv-x="958" 
d="M801 1495v-1495h-62v1030h-450v-1030h-62v1030h-178v55h178v134q0 94 52 145t149 51h129v-57h-125q-75 0 -109 -35.5t-34 -110.5v-127h450v410h62z" />
    <glyph glyph-name="W_W_W" unicode="WWW" horiz-adv-x="4466" 
d="M41 1434h68l262 -1328h4l432 1328h61l432 -1328h5l432 1328h61l432 -1328h4l435 1328h61l432 -1328h4l432 1328h62l432 -1328h4l262 1328h68l-289 -1434h-72l-434 1329h-4l-434 -1329h-60l-432 1329h-4l-434 -1329h-59l-435 1329h-4l-432 -1329h-59l-434 1329h-4
l-435 -1329h-71z" />
    <glyph glyph-name="w_w_w" unicode="www" horiz-adv-x="3543" 
d="M59 1085h64l229 -985h4l320 985h65l320 -985h4l319 985h66l319 -985h5l319 985h66l321 -985h4l320 985h65l320 -985h4l229 985h62l-254 -1085h-64l-327 1004h-5l-327 -1004h-51l-328 1004h-4l-328 -1004h-49l-328 1004h-4l-328 -1004h-49l-327 1004h-4l-328 -1004h-64z
" />
    <glyph glyph-name=".notdef" horiz-adv-x="1404" 
d="M109 856q0 171 80.5 309t217 213.5t300.5 75.5q122 1 233.5 -44t193.5 -123.5t129.5 -191t45.5 -239.5v-866h-58l-133 133l-139 -133l-129 133l-145 -133l-142 133l-129 -133l-137 133l-135 -133h-53v866zM442 743l131 -129l29 29l-131 129l131 131l-29 29l-131 -131
l-129 131l-28 -29l129 -131l-129 -129l28 -29zM975 743l131 -129l29 29l-131 129l131 131l-29 29l-131 -131l-129 131l-29 -29l129 -131l-129 -129l29 -29z" />
    <glyph glyph-name=".null" horiz-adv-x="0" 
 />
    <glyph glyph-name="nonmarkingreturn" horiz-adv-x="682" 
 />
    <glyph glyph-name="CR" unicode="&#xd;" horiz-adv-x="768" 
 />
    <glyph glyph-name="space" unicode=" " horiz-adv-x="569" 
 />
    <glyph glyph-name="exclam" unicode="!" horiz-adv-x="757" 
d="M348 1434h64v-1074h-64v1074zM303 150h154v-150h-154v150z" />
    <glyph glyph-name="quotedbl" unicode="&#x22;" horiz-adv-x="718" 
d="M219 1434h62v-410h-62v410zM440 1434h62v-410h-62v410z" />
    <glyph glyph-name="numbersign" unicode="#" horiz-adv-x="1658" 
d="M1135 977l-91 -510h361l-8 -53h-361l-73 -414h-60l74 414h-404l-73 -414h-60l74 414h-356l8 53h356l90 510h-358l8 51h361l71 406h60l-72 -406h403l72 406h60l-72 -406h356l-6 -51h-360zM1075 977h-403l-90 -510h403z" />
    <glyph glyph-name="dollar" unicode="$" horiz-adv-x="1306" 
d="M1206 338q0 -165 -140.5 -267t-373.5 -102h-8v-194h-49v196q-239 14 -382 140t-153 344l66 6q10 -196 133.5 -306t335.5 -122v684q-176 48 -265 86.5t-151 105.5q-65 74 -65 189q0 162 132.5 264t336.5 102h12v176h49v-178q196 -15 326 -127t151 -272l-65 -8
q-23 142 -133 235.5t-279 110.5v-637q186 -49 285 -93t166 -120q71 -83 71 -213zM635 778v625h-12q-176 0 -291 -84.5t-115 -218.5q3 -41 14 -75.5t27.5 -60.5t46 -49.5t59 -40t77 -34.5t89 -31t105.5 -31zM1141 336q0 198 -217 287q-77 34 -240 79v-671h10q205 0 326 83.5
t121 221.5z" />
    <glyph glyph-name="percent" unicode="%" horiz-adv-x="2013" 
d="M494 -96l1003 1671l53 -31l-999 -1667zM158 1004q0 209 89.5 328.5t244.5 119.5q156 0 245.5 -119.5t89.5 -328.5t-90 -329t-245 -120q-154 0 -244 120t-90 329zM766 1004q0 184 -72.5 287.5t-201.5 103.5q-128 0 -200.5 -104t-72.5 -287t73 -287.5t200 -104.5
q129 0 201.5 103.5t72.5 288.5zM1186 430q0 209 90 329t246 120t246 -120t90 -329t-90 -328.5t-246 -119.5t-246 119.5t-90 328.5zM1794 430q0 183 -72.5 287t-199.5 104q-129 0 -202 -104t-73 -287t73 -287t202 -104q127 0 199.5 104t72.5 287z" />
    <glyph glyph-name="ampersand" unicode="&#x26;" horiz-adv-x="1390" 
d="M1266 121l-176 160q-31 -141 -156.5 -226.5t-312.5 -85.5q-215 0 -339 106t-124 290q0 286 329 456l-10 8q-106 97 -151 173.5t-45 158.5q0 135 94 217q95 86 243 86q150 0 243 -82.5t106 -228.5l-60 -8q-17 128 -91 195t-198 67q-123 0 -199.5 -67t-76.5 -179
q0 -70 38.5 -136.5t125.5 -143.5l536 -482v398h60v-451l203 -182zM1038 324l-508 458q-160 -80 -235.5 -181t-75.5 -236q0 -154 109 -246t293 -92q176 0 287 80.5t130 216.5z" />
    <glyph glyph-name="quotesingle" unicode="'" horiz-adv-x="497" 
d="M219 1434h62v-410h-62v410z" />
    <glyph glyph-name="parenleft" unicode="(" horiz-adv-x="737" 
d="M219 602q0 561 402 995l43 -36q-379 -415 -379 -959q0 -543 379 -958l-43 -35q-402 428 -402 993z" />
    <glyph glyph-name="parenright" unicode=")" horiz-adv-x="737" 
d="M74 -356q379 415 379 958q0 544 -379 959l43 36q401 -433 401 -995q0 -566 -401 -993z" />
    <glyph glyph-name="asterisk" unicode="*" horiz-adv-x="952" 
d="M217 766l211 262l-270 162l28 43l265 -156v322h53v-322l262 156l29 -43l-271 -162l211 -262l-43 -35l-215 273l-217 -273z" />
    <glyph glyph-name="plus" unicode="+" horiz-adv-x="1212" 
d="M1055 727h-418v-434h-59v434h-420v57h420v412h59v-412h418v-57z" />
    <glyph glyph-name="comma" unicode="," horiz-adv-x="593" 
d="M221 -82q35 7 48.5 25.5t13.5 56.5h-64v143h156v-125q0 -145 -154 -157v57z" />
    <glyph glyph-name="hyphen" unicode="-" horiz-adv-x="739" 
d="M137 641h467v-59h-467v59z" />
    <glyph glyph-name="period" unicode="." horiz-adv-x="591" 
d="M219 150h154v-150h-154v150z" />
    <glyph glyph-name="slash" unicode="/" horiz-adv-x="899" 
d="M66 -31l716 1520l54 -25l-719 -1517z" />
    <glyph glyph-name="zero" unicode="0" horiz-adv-x="1304" 
d="M100 688q0 328 151.5 522.5t401.5 194.5q249 0 400 -194.5t151 -522.5t-151 -522.5t-400 -194.5q-250 0 -401.5 194.5t-151.5 522.5zM1143 688q0 302 -135 481t-355 179q-221 0 -356 -179t-135 -481t135 -480.5t356 -178.5q220 0 355 178.5t135 480.5z" />
    <glyph glyph-name="one" unicode="1" horiz-adv-x="704" 
d="M412 1307l-340 -220v66l346 223h55v-1376h-61v1307z" />
    <glyph glyph-name="two" unicode="2" horiz-adv-x="1232" 
d="M215 57h864v-57h-925v70q0 193 55 292q41 68 123 123q72 49 303 160q220 105 304.5 190t84.5 205q0 139 -103.5 223.5t-271.5 84.5q-192 0 -312.5 -107t-127.5 -287l-62 4q9 200 148.5 323.5t353.5 123.5q192 0 314 -102.5t122 -262.5q0 -137 -92.5 -234.5t-328.5 -207.5
q-152 -71 -227.5 -112.5t-111 -72.5t-61.5 -75q-27 -43 -37.5 -101.5t-11.5 -179.5z" />
    <glyph glyph-name="three" unicode="3" horiz-adv-x="1216" 
d="M127 440l61 6q4 -206 113 -311.5t311 -105.5q181 0 288.5 91.5t107.5 248.5q0 177 -110.5 262.5t-332.5 85.5h-59v55h59q180 0 288 81.5t108 215.5q0 128 -93.5 203.5t-251.5 75.5q-164 0 -267 -82.5t-126 -231.5l-61 8q26 168 148 265.5t306 97.5q176 0 291 -92
q115 -89 115 -242q0 -242 -277 -319v-4q155 -30 239.5 -125.5t84.5 -253.5q0 -183 -124 -290.5t-333 -107.5q-228 0 -354.5 122t-130.5 347z" />
    <glyph glyph-name="four" unicode="4" horiz-adv-x="1155" 
d="M799 293h-762v53l727 1030h96v-1026h201v-57h-201v-293h-61v293zM801 350v977h-4l-691 -977h695z" />
    <glyph glyph-name="five" unicode="5" horiz-adv-x="1175" 
d="M98 350l60 12q26 -160 138.5 -246.5t295.5 -86.5q194 0 314 119.5t120 312.5q0 191 -117 305.5t-317 114.5q-124 0 -229.5 -51t-174.5 -144l-51 12l142 678h698v-57h-651l-113 -535l4 -2q70 73 168 113.5t209 40.5q219 0 356 -130t137 -343q0 -221 -137.5 -356.5
t-357.5 -135.5q-203 0 -333 100t-161 279z" />
    <glyph glyph-name="six" unicode="6" horiz-adv-x="1214" 
d="M1133 451q0 -221 -130 -350.5t-344 -129.5q-262 0 -410.5 185t-148.5 508q-2 162 41.5 301.5t119.5 236t180.5 150.5t222.5 53q173 0 291.5 -93.5t150.5 -258.5l-59 -13q-35 149 -134 228.5t-249 79.5q-218 0 -359 -188.5t-141 -495.5q0 -50 6 -115h6q30 162 165 265.5
t308 103.5q218 0 351 -126.5t133 -340.5zM1071 451q0 189 -115.5 300t-308.5 111q-113 0 -211 -53t-157.5 -148t-59.5 -210q0 -187 121 -304.5t319 -117.5q188 0 300 113t112 309z" />
    <glyph glyph-name="seven" unicode="7" horiz-adv-x="1038" 
d="M874 1315v4h-827v57h895v-55l-643 -1321h-66z" />
    <glyph glyph-name="eight" unicode="8" horiz-adv-x="1159" 
d="M68 365q0 134 89.5 233t243.5 137v4q-251 79 -251 314q0 149 122.5 250.5t307.5 101.5t307.5 -101.5t122.5 -250.5q0 -231 -252 -314v-4q155 -38 244.5 -137t89.5 -233q0 -177 -141 -286.5t-371 -109.5t-371 109.5t-141 286.5zM948 1051q0 127 -104 212t-264 85
t-264.5 -85t-104.5 -212q0 -133 99 -210t270 -77q170 0 269 78t99 209zM1028 367q0 147 -127 243.5t-321 96.5q-196 0 -322.5 -96t-126.5 -244q0 -154 122.5 -246t326.5 -92q203 0 325.5 92t122.5 246z" />
    <glyph glyph-name="nine" unicode="9" horiz-adv-x="1183" 
d="M1083 756q0 -397 -125.5 -592t-379.5 -195q-171 0 -285.5 92t-145.5 256l60 17q29 -147 125 -226t246 -79q442 0 442 700q0 77 -4 117h-4q-20 -165 -143.5 -262t-313.5 -97q-220 0 -347.5 123.5t-127.5 337.5q0 202 133 329.5t344 127.5q252 0 389 -168.5t137 -480.5z
M975 946q0 180 -115 289q-114 111 -303 111q-186 0 -300 -109t-114 -289q0 -186 111 -294.5t303 -108.5t305 109t113 292z" />
    <glyph glyph-name="colon" unicode=":" horiz-adv-x="591" 
d="M219 905h154v-149h-154v149zM219 150h154v-150h-154v150z" />
    <glyph glyph-name="semicolon" unicode=";" horiz-adv-x="593" 
d="M221 -82q35 7 48.5 25.5t13.5 56.5h-64v143h156v-125q0 -145 -154 -157v57zM221 905h154v-149h-154v149z" />
    <glyph glyph-name="less" unicode="&#x3c;" horiz-adv-x="1134" 
d="M158 686v70l786 473l33 -51l-758 -457l758 -457l-33 -51z" />
    <glyph glyph-name="equal" unicode="=" horiz-adv-x="1155" 
d="M158 946h839v-59h-839v59zM158 578h839v-60h-839v60z" />
    <glyph glyph-name="greater" unicode="&#x3e;" horiz-adv-x="1134" 
d="M158 264l757 457l-757 457l32 51l787 -473v-70l-787 -473z" />
    <glyph glyph-name="question" unicode="?" horiz-adv-x="1173" 
d="M469 489q0 116 40 177t177 155q126 84 176 154q47 68 47 162q0 119 -85.5 192.5t-225.5 73.5q-160 0 -255 -100t-101 -271l-66 4q3 192 120 310t302 118q164 0 270 -92q107 -88 107 -235q0 -115 -55 -191q-48 -70 -199 -174q-125 -85 -158 -134t-33 -149v-153h-61v153z
M432 150h154v-150h-154v150z" />
    <glyph glyph-name="at" unicode="@" horiz-adv-x="1660" 
d="M158 598q-2 155 50.5 294t143.5 238.5t217.5 157t266.5 55.5q300 0 484.5 -194t184.5 -508q0 -235 -65.5 -345t-204.5 -110q-73 0 -118.5 36t-57.5 102h-4q-29 -66 -101.5 -106t-160.5 -40q-109 0 -173.5 58.5t-64.5 156.5q0 91 50 145.5t171 92.5q146 47 200 85t54 93
q0 69 -49 110.5t-133 41.5q-94 0 -151.5 -54.5t-71.5 -154.5l-60 10q17 119 92 186.5t191 67.5q112 0 179 -64.5t67 -173.5v-336q0 -110 33 -157t108 -47q112 0 162.5 96t50.5 307q0 292 -168 470.5t-444 178.5q-126 3 -242.5 -51t-201 -146.5t-133.5 -222.5t-46 -272
q0 -333 160.5 -514.5t453.5 -181.5q251 0 422 131l29 -47q-194 -138 -451 -138q-318 0 -493.5 197t-175.5 553zM1036 442v273h-2q-23 -62 -246 -135q-96 -32 -134 -73t-38 -110q0 -76 47.5 -120t131.5 -44q109 0 175 57.5t66 151.5z" />
    <glyph glyph-name="A" unicode="A" horiz-adv-x="1165" 
d="M963 330h-760l-123 -330h-70l539 1434h67l539 -1434h-70zM942 387l-356 963h-4l-359 -963h719z" />
    <glyph glyph-name="B" unicode="B" horiz-adv-x="1284" 
d="M201 1434h475q206 0 316 -90.5t110 -258.5q0 -122 -64 -205t-178 -114v-4q137 -24 216 -117t79 -239q0 -201 -122 -303.5t-363 -102.5h-469v1434zM655 788q184 0 282.5 77t98.5 220q0 140 -92 213.5t-270 73.5h-410v-584h391zM668 61q422 0 422 345q0 164 -100 243.5
t-304 79.5h-422v-668h404z" />
    <glyph glyph-name="C" unicode="C" horiz-adv-x="1329" 
d="M100 719q0 220 74.5 389t211.5 262.5t316 93.5q217 0 361 -127.5t182 -353.5l-63 -12q-35 207 -161 319.5t-321 112.5q-240 0 -387 -188t-147 -496q0 -311 147 -499.5t387 -188.5q198 0 323.5 117.5t160.5 336.5l65 -10q-35 -238 -180.5 -372t-368.5 -134
q-177 0 -313.5 93.5t-211.5 264t-75 392.5z" />
    <glyph glyph-name="D" unicode="D" horiz-adv-x="1333" 
d="M201 1434h411q185 0 326.5 -90.5t218 -253t76.5 -371.5q0 -340 -166.5 -529.5t-454.5 -189.5h-411v1434zM604 61q268 0 415.5 174t147.5 484q0 194 -66 341.5t-194 229.5t-301 82h-342v-1311h340z" />
    <glyph glyph-name="E" unicode="E" horiz-adv-x="1144" 
d="M201 1434h823v-62h-760v-602h703v-59h-703v-650h760v-61h-823v1434z" />
    <glyph glyph-name="F" unicode="F" horiz-adv-x="1126" 
d="M201 1434h823v-62h-760v-645h703v-59h-703v-668h-63v1434z" />
    <glyph glyph-name="G" unicode="G" horiz-adv-x="1353" 
d="M100 719q0 220 74.5 389t211.5 262.5t316 93.5q209 0 352.5 -119.5t186.5 -328.5l-63 -10q-41 190 -166 293.5t-312 103.5q-240 0 -387 -188t-147 -496q0 -311 147 -499.5t387 -188.5q239 0 364 144t124 419h-469v59h532v-73q0 -293 -143.5 -452t-407.5 -159
q-177 0 -313.5 93.5t-211.5 264t-75 392.5z" />
    <glyph glyph-name="H" unicode="H" 
d="M201 1434h63v-662h801v662h65v-1434h-65v717h-801v-717h-63v1434z" />
    <glyph glyph-name="I" unicode="I" horiz-adv-x="464" 
d="M201 1434h63v-1434h-63v1434z" />
    <glyph glyph-name="J" unicode="J" horiz-adv-x="995" 
d="M61 377l62 6q11 -180 86.5 -266t224.5 -86q157 0 232 100t75 305v998h66v-1000q0 -229 -94.5 -347t-278.5 -118q-349 0 -373 408z" />
    <glyph glyph-name="K" unicode="K" horiz-adv-x="1138" 
d="M201 1434h63v-848h4l738 848h84l-562 -639l592 -795h-80l-551 748h-4l-221 -252v-496h-63v1434z" />
    <glyph glyph-name="L" unicode="L" horiz-adv-x="1038" 
d="M201 1434h63v-1373h703v-61h-766v1434z" />
    <glyph glyph-name="M" unicode="M" horiz-adv-x="1705" 
d="M201 1434h92l559 -1328h4l557 1328h94v-1434h-65v1337h-4l-566 -1337h-38l-566 1337h-4v-1337h-63v1434z" />
    <glyph glyph-name="N" unicode="N" horiz-adv-x="1351" 
d="M201 1434h82l798 -1338h4v1338h66v-1434h-82l-801 1337h-4v-1337h-63v1434z" />
    <glyph glyph-name="O" unicode="O" horiz-adv-x="1402" 
d="M100 717q0 335 165.5 541t436.5 206q133 0 245 -54.5t190 -151.5t122 -236.5t44 -304.5q0 -221 -75 -391t-212 -263.5t-314 -93.5q-179 0 -316 93.5t-211.5 263.5t-74.5 391zM1237 717q0 310 -147.5 498t-387.5 188q-243 0 -389.5 -187.5t-146.5 -498.5t146.5 -498.5
t389.5 -187.5q240 0 387.5 188t147.5 498z" />
    <glyph glyph-name="P" unicode="P" horiz-adv-x="1216" 
d="M201 1434h485q222 0 346.5 -111.5t124.5 -312.5q0 -203 -122 -312.5t-349 -109.5h-422v-588h-63v1434zM686 649q196 0 302 94t106 267q0 177 -105 269.5t-303 92.5h-422v-723h422z" />
    <glyph glyph-name="Q" unicode="Q" horiz-adv-x="1402" 
d="M1120 154l142 -146l-41 -39l-142 144q-153 -144 -377 -144q-179 0 -316 93.5t-211.5 263.5t-74.5 391q0 335 165.5 541t436.5 206q133 0 245 -54.5t190 -151.5t122 -236.5t44 -304.5q0 -355 -183 -563zM1036 158l-364 370l41 39l362 -368q78 91 120 224t42 294
q0 310 -147.5 498t-387.5 188q-243 0 -389.5 -187.5t-146.5 -498.5t146.5 -498.5t389.5 -187.5q195 0 334 127z" />
    <glyph glyph-name="R" unicode="R" horiz-adv-x="1214" 
d="M750 635l331 -635h-73l-328 635h-416v-635h-63v1434h485q215 0 332 -103.5t117 -292.5q0 -173 -101 -278.5t-284 -122.5v-2zM1071 1038q0 164 -101 249t-292 85h-414v-676h414q189 0 291 88.5t102 253.5z" />
    <glyph glyph-name="S" unicode="S" horiz-adv-x="1181" 
d="M80 455l65 6q11 -207 135 -318.5t345 -111.5q191 0 302 82t111 223q0 97 -42.5 164t-140 120.5t-271.5 104.5q-252 77 -347.5 157.5t-95.5 217.5q0 161 119.5 262.5t308.5 101.5q192 0 326.5 -110.5t159.5 -290.5l-66 -8q-21 157 -139 252q-116 96 -281 96
q-159 0 -262 -86q-100 -81 -100 -217q0 -114 87 -183t314 -137q279 -83 386.5 -179t107.5 -263q0 -166 -129 -268q-128 -101 -348 -101q-246 0 -390.5 128.5t-154.5 357.5z" />
    <glyph glyph-name="T" unicode="T" horiz-adv-x="1140" 
d="M537 1372h-465v62h997v-62h-467v-1372h-65v1372z" />
    <glyph glyph-name="U" unicode="U" horiz-adv-x="1355" 
d="M190 471v963h64v-961q0 -226 103.5 -334t320.5 -108q215 0 319.5 109t104.5 331v963h65v-963q0 -502 -489 -502q-488 0 -488 502z" />
    <glyph glyph-name="V" unicode="V" horiz-adv-x="1150" 
d="M10 1434h70l493 -1350h5l493 1350h70l-529 -1434h-71z" />
    <glyph glyph-name="W" unicode="W" horiz-adv-x="1675" 
d="M41 1434h68l262 -1328h4l432 1328h61l432 -1328h5l262 1328h67l-288 -1434h-72l-434 1329h-4l-435 -1329h-71z" />
    <glyph glyph-name="X" unicode="X" horiz-adv-x="1054" 
d="M487 727l-454 707h76l417 -658h4l416 658h78l-455 -707l465 -727h-76l-428 678h-4l-428 -678h-78z" />
    <glyph glyph-name="Y" unicode="Y" horiz-adv-x="1105" 
d="M520 586l-520 848h74l477 -783h4l477 783h74l-520 -848v-586h-66v586z" />
    <glyph glyph-name="Z" unicode="Z" horiz-adv-x="1286" 
d="M100 53l1000 1315v4h-938v62h1024v-54l-1000 -1314v-5h957v-61h-1043v53z" />
    <glyph glyph-name="bracketleft" unicode="[" horiz-adv-x="589" 
d="M201 1495h315v-57h-254v-1749h254v-58h-315v1864z" />
    <glyph glyph-name="backslash" unicode="\" horiz-adv-x="899" 
d="M63 1462l54 25l717 -1520l-52 -22z" />
    <glyph glyph-name="bracketright" unicode="]" horiz-adv-x="589" 
d="M74 -369v58h254v1749h-254v57h315v-1864h-315z" />
    <glyph glyph-name="asciicircum" unicode="^" horiz-adv-x="1112" 
d="M864 678l-307 665l-309 -665h-70l357 756h45l356 -756h-72z" />
    <glyph glyph-name="underscore" unicode="_" horiz-adv-x="1267" 
d="M137 -180h993v-51h-993v51z" />
    <glyph glyph-name="grave" unicode="`" horiz-adv-x="563" 
d="M158 1415h121l129 -207h-72z" />
    <glyph glyph-name="a" unicode="a" horiz-adv-x="1040" 
d="M119 262q0 134 91 212.5t310 133.5q172 44 239.5 93t67.5 128q0 109 -75 169.5t-211 60.5q-146 0 -240 -79t-111 -216l-61 10q20 156 132 249t282 93q164 0 257 -79t93 -218v-819h-59v178h-5q-43 -94 -145 -149q-111 -60 -229 -60q-158 0 -247 78t-89 215zM831 340v369
h-4q-24 -50 -88 -83t-202 -69q-195 -51 -276 -118t-81 -177t73.5 -172.5t203.5 -62.5q155 0 264.5 92t109.5 221z" />
    <glyph glyph-name="b" unicode="b" horiz-adv-x="1185" 
d="M223 170h-4v-170h-59v1495h61v-577h4q51 93 149 145.5t220 52.5q206 0 340.5 -161t134.5 -410q0 -167 -60.5 -298.5t-169 -204.5t-247.5 -73q-118 0 -216.5 53.5t-152.5 147.5zM1008 543q0 225 -116 370.5t-298 145.5q-153 0 -263 -98.5t-110 -233.5v-365
q0 -138 108.5 -236.5t260.5 -98.5q186 0 302 143t116 373z" />
    <glyph glyph-name="c" unicode="c" horiz-adv-x="1150" 
d="M119 543q0 249 136 411t347 162q171 0 291 -102q121 -103 151 -277l-59 -12q-29 157 -131.5 245.5t-251.5 88.5q-184 0 -303 -146.5t-119 -369.5t119 -369.5t303 -146.5q149 0 251.5 88t131.5 245l59 -10q-31 -174 -151 -277.5t-291 -103.5q-211 0 -347 162.5t-136 411.5
z" />
    <glyph glyph-name="d" unicode="d" horiz-adv-x="1185" 
d="M117 545q0 249 134.5 410t340.5 161q122 0 220 -52.5t149 -145.5h4v577h61v-1495h-59v170h-4q-54 -94 -152.5 -147.5t-216.5 -53.5q-139 0 -247.5 73t-169 204.5t-60.5 298.5zM965 362v365q0 135 -110 233.5t-263 98.5q-182 0 -298 -145.5t-116 -370.5q0 -230 116 -373
t302 -143q152 0 260.5 98.5t108.5 236.5z" />
    <glyph glyph-name="e" unicode="e" horiz-adv-x="1185" 
d="M119 543q0 249 131 411t342 162q217 0 346 -151.5t129 -409.5v-20h-887q2 -234 114 -371t306 -137q279 0 387 264l53 -25q-57 -146 -168.5 -221.5t-269.5 -75.5q-223 0 -353 155t-130 419zM1004 588q-3 212 -116 341.5t-296 129.5q-176 0 -289.5 -134t-122.5 -337h824z
" />
    <glyph glyph-name="f" unicode="f" horiz-adv-x="595" 
d="M227 1030h-178v55h178v134q0 94 52 145t149 51h129v-57h-125q-75 0 -109 -35.5t-34 -110.5v-127h284v-55h-284v-1030h-62v1030z" />
    <glyph glyph-name="g" unicode="g" horiz-adv-x="1175" 
d="M205 -199l57 23q38 -127 128 -192.5t224 -65.5q164 0 259.5 106t95.5 289v213h-4q-57 -98 -155.5 -150.5t-227.5 -52.5q-132 0 -238 74t-165.5 205.5t-59.5 294.5q0 250 133 410.5t340 160.5q122 0 219.5 -52t151.5 -146h4v167h61v-1126q0 -207 -112 -329t-302 -122
q-152 0 -261.5 78.5t-147.5 214.5zM967 362v365q0 136 -110 234t-265 98q-180 0 -296 -145.5t-116 -370.5q0 -224 113.5 -369t290.5 -145q160 0 271.5 97t111.5 236z" />
    <glyph glyph-name="h" unicode="h" horiz-adv-x="1132" 
d="M160 1495h61v-588h4q49 98 146 153.5t219 55.5q178 0 284 -106q111 -108 111 -281v-729h-61v709q0 161 -90.5 255.5t-245.5 94.5q-159 0 -263 -99t-104 -251v-709h-61v1495z" />
    <glyph glyph-name="i" unicode="i" horiz-adv-x="378" 
d="M160 1085h61v-1085h-61v1085zM133 1395h117v-113h-117v113z" />
    <glyph glyph-name="j" unicode="j" horiz-adv-x="401" 
d="M-20 -244h77q66 0 95.5 28.5t29.5 94.5v1206h62v-1204q0 -98 -44 -141t-141 -43h-79v59zM154 1395h116v-113h-116v113z" />
    <glyph glyph-name="k" unicode="k" horiz-adv-x="929" 
d="M160 1495h61v-1006h4l551 596h88l-403 -428l420 -657h-76l-385 614h-4l-195 -213v-401h-61v1495z" />
    <glyph glyph-name="l" unicode="l" horiz-adv-x="378" 
d="M160 1495h61v-1495h-61v1495z" />
    <glyph glyph-name="m" unicode="m" horiz-adv-x="1681" 
d="M160 1085h59v-147h4q40 84 123 131t182 47q112 0 199.5 -55t122.5 -150h4q41 98 128 151.5t204 53.5q146 0 246 -92q100 -90 100 -254v-770h-62v760q0 140 -79.5 219.5t-206.5 79.5q-140 0 -223.5 -86t-83.5 -228v-745h-62v764q0 133 -82 214t-211 81q-133 0 -217 -89.5
t-84 -230.5v-739h-61v1085z" />
    <glyph glyph-name="n" unicode="n" horiz-adv-x="1132" 
d="M160 1085h59v-178h4q51 98 148 153.5t219 55.5q183 0 289 -106.5t106 -290.5v-719h-61v709q0 166 -88 258t-248 92q-159 0 -263 -99t-104 -251v-709h-61v1085z" />
    <glyph glyph-name="o" unicode="o" horiz-adv-x="1222" 
d="M119 543q0 253 137 413t354 160t355.5 -160t138.5 -413q0 -252 -138.5 -413t-355.5 -161q-216 0 -353.5 161t-137.5 413zM1042 543q0 228 -120 372t-312 144q-189 0 -309.5 -144.5t-120.5 -371.5t120.5 -371.5t309.5 -144.5q192 0 312 144t120 372z" />
    <glyph glyph-name="p" unicode="p" horiz-adv-x="1185" 
d="M160 1085h61v-170h4q55 94 151 147.5t216 53.5q211 0 344 -160.5t133 -414.5q0 -164 -60.5 -294.5t-169 -204t-243.5 -73.5q-122 0 -221 52.5t-150 144.5h-4v-627h-61v1546zM1008 543q0 230 -115.5 373t-300.5 143q-155 0 -263 -98.5t-108 -237.5v-365q0 -135 110 -233
t263 -98q182 0 298 145.5t116 370.5z" />
    <glyph glyph-name="q" unicode="q" horiz-adv-x="1185" 
d="M965 -461v627h-4q-51 -92 -150 -144.5t-221 -52.5q-135 0 -243.5 73.5t-169 204t-60.5 294.5q0 254 133 414.5t344 160.5q120 0 216 -53.5t151 -147.5h4v170h61v-1546h-61zM965 358v365q0 139 -108 237.5t-263 98.5q-185 0 -300.5 -143t-115.5 -373q0 -225 116 -370.5
t298 -145.5q153 0 263 98t110 233z" />
    <glyph glyph-name="r" unicode="r" horiz-adv-x="567" 
d="M160 1085h59v-124h4q30 65 87 103t134 38q43 0 74 -8l-10 -62q-31 8 -68 8q-105 0 -162 -79t-57 -220v-741h-61v1085z" />
    <glyph glyph-name="s" unicode="s" horiz-adv-x="1001" 
d="M98 373l60 8q37 -354 383 -354q139 0 220 63t81 172q0 108 -74 167.5t-276 111.5q-202 55 -278.5 117t-76.5 171q0 121 97 204t241 83q160 0 264 -85t127 -234l-61 -13q-23 131 -109 203t-221 72q-118 0 -197 -66t-79 -164q0 -86 66 -134.5t249 -98.5
q218 -58 303.5 -131.5t85.5 -200.5q0 -135 -97.5 -215t-264.5 -80q-198 0 -312 104t-131 300z" />
    <glyph glyph-name="t" unicode="t" horiz-adv-x="581" 
d="M264 1030v-860q0 -61 27 -87t90 -26h84v-57h-84q-94 0 -136 40t-42 130v860h-154v55h154v226h61v-226h264v-55h-264z" />
    <glyph glyph-name="u" unicode="u" horiz-adv-x="1107" 
d="M139 356v729h62v-708q0 -170 84.5 -260t244.5 -90q154 0 255.5 99t101.5 251v708h61v-1085h-61v178h-4q-50 -99 -145 -154t-216 -55q-180 0 -281.5 102t-101.5 285z" />
    <glyph glyph-name="v" unicode="v" horiz-adv-x="1003" 
d="M20 1085h68l412 -995h4l411 995h68l-457 -1085h-51z" />
    <glyph glyph-name="w" unicode="w" horiz-adv-x="1415" 
d="M59 1085h64l229 -985h4l320 985h65l320 -985h4l229 985h62l-254 -1085h-64l-327 1004h-4l-328 -1004h-64z" />
    <glyph glyph-name="x" unicode="x" horiz-adv-x="856" 
d="M389 553l-358 532h71l322 -487h4l326 487h71l-360 -532l373 -553h-72l-338 508h-4l-334 -508h-72z" />
    <glyph glyph-name="y" unicode="y" horiz-adv-x="954" 
d="M446 90l-426 995h68l387 -921h4l387 921h68l-660 -1546h-63z" />
    <glyph glyph-name="z" unicode="z" horiz-adv-x="970" 
d="M53 51l783 973v4h-734v57h813v-51l-782 -973v-4h776v-57h-856v51z" />
    <glyph glyph-name="braceleft" unicode="{" horiz-adv-x="714" 
d="M324 -139v555q0 75 -24 105t-85 30h-57v65h57q61 0 85 30.5t24 105.5v514q0 118 46 173.5t144 55.5h125v-59h-123q-68 0 -99.5 -42t-31.5 -134v-529q0 -67 -26.5 -103.5t-71.5 -41.5v-4q45 -6 71.5 -43t26.5 -103v-569q0 -92 31.5 -134t99.5 -42h123v-60h-125
q-98 0 -144 55.5t-46 174.5z" />
    <glyph glyph-name="bar" unicode="|" horiz-adv-x="534" 
d="M240 1587h55v-2201h-55v2201z" />
    <glyph glyph-name="braceright" unicode="}" horiz-adv-x="714" 
d="M76 -369v60h123q68 0 99.5 42t31.5 134v569q0 66 26.5 103t71.5 43v4q-45 5 -71.5 41.5t-26.5 103.5v529q0 92 -31.5 134t-99.5 42h-123v59h125q98 0 144 -55.5t46 -173.5v-514q0 -75 24 -105.5t85 -30.5h57v-65h-57q-61 0 -85 -30t-24 -105v-555q0 -119 -46 -174.5
t-144 -55.5h-125z" />
    <glyph glyph-name="asciitilde" unicode="~" horiz-adv-x="1282" 
d="M158 618q17 116 80 181t159 65q63 0 118 -23.5t142 -80.5q77 -50 126 -71t100 -21q150 0 184 196l57 -12q-17 -114 -80 -180t-159 -66q-63 0 -118 24t-142 81q-73 50 -123.5 72t-102.5 22q-74 0 -122.5 -51t-61.5 -148z" />
    <glyph glyph-name="uni00A0" unicode="&#xa0;" horiz-adv-x="569" 
 />
    <glyph glyph-name="exclamdown" unicode="&#xa1;" horiz-adv-x="593" 
d="M375 1085v-149h-154v149h154zM330 725v-1073h-64v1073h64z" />
    <glyph glyph-name="cent" unicode="&#xa2;" horiz-adv-x="1284" 
d="M1096 360l59 -10q-32 -167 -157 -270t-304 -111v-194h-49v194q-221 9 -363.5 170t-142.5 404t142 403.5t364 169.5v176h49v-176q178 -7 303.5 -110t157.5 -269l-59 -12q-30 151 -138 238.5t-264 93.5v-1028q156 6 264 93.5t138 237.5zM645 29v1028q-195 -9 -319.5 -153
t-124.5 -361t124.5 -361t319.5 -153z" />
    <glyph glyph-name="sterling" unicode="&#xa3;" horiz-adv-x="1202" 
d="M406 61h677v-61h-923v61h67q123 0 211 93.5t88 220.5q0 71 -28.5 140.5t-87.5 156.5h-250v55h213l-97 141q-35 61 -55 115q-24 65 -24 131q0 160 120.5 255t323.5 95q207 0 329 -99t142 -282l-63 -8q-40 328 -408 328q-176 0 -276.5 -77.5t-100.5 -211.5q0 -75 33 -144
t119 -198l30 -45h437v-55h-400q103 -156 103 -297q0 -98 -50.5 -184.5t-129.5 -124.5v-5z" />
    <glyph glyph-name="currency" unicode="&#xa4;" horiz-adv-x="1236" 
d="M1079 172l-133 135q-132 -129 -328 -129q-197 0 -327 127l-131 -133l-41 37l135 135q-115 142 -115 334q0 198 113 332l-133 135l39 37l131 -131q132 129 329 129q196 0 328 -129l133 131l39 -37l-135 -135q115 -137 115 -332t-115 -332l137 -137zM1032 678
q0 191 -117 316.5t-297 125.5q-179 0 -297 -126t-118 -316q0 -192 117 -316t298 -124q182 0 298 123.5t116 316.5z" />
    <glyph glyph-name="yen" unicode="&#xa5;" horiz-adv-x="1146" 
d="M635 633h436v-58h-465v-221h465v-57h-465v-297h-65v297h-469v57h469v221h-469v58h440l-492 801h74l477 -783h4l478 783h73z" />
    <glyph glyph-name="brokenbar" unicode="&#xa6;" horiz-adv-x="534" 
d="M240 1587h55v-870h-55v870zM240 256h55v-870h-55v870z" />
    <glyph glyph-name="section" unicode="&#xa7;" horiz-adv-x="1306" 
d="M1038 -45q0 -139 -103.5 -228t-264.5 -89q-170 0 -281.5 97t-128.5 257l66 6q17 -140 109.5 -220.5t234.5 -80.5q135 0 219 71.5t84 186.5q0 86 -52.5 147t-168.5 111l-271 115q-155 66 -218.5 132.5t-63.5 160.5q0 151 204 282q-135 99 -135 246q0 139 103.5 227
t265.5 88q170 0 281.5 -97t128.5 -257l-66 -6q-17 140 -109.5 220.5t-234.5 80.5q-135 0 -219 -70.5t-84 -185.5q0 -87 53 -149t168 -109l270 -115q155 -66 219 -132.5t64 -160.5q0 -148 -207 -284q137 -94 137 -244zM782 264q45 -19 68 -33q194 123 194 252q0 75 -52 125.5
t-189 110.5l-279 119q-34 13 -69 32q-193 -120 -193 -249q0 -74 52.5 -125t189.5 -111z" />
    <glyph glyph-name="dieresis" unicode="&#xa8;" horiz-adv-x="780" 
d="M158 1325h139v-137h-139v137zM485 1325h140v-137h-140v137z" />
    <glyph glyph-name="copyright" unicode="&#xa9;" horiz-adv-x="1507" 
d="M137 662q-3 180 81 326t226 225.5t310 76.5q168 3 310 -76.5t225.5 -225.5t80.5 -326q2 -135 -46.5 -254t-132 -201.5t-198 -129t-239.5 -44.5q-168 -3 -310 76.5t-226 226t-81 326.5zM1317 662q0 171 -75 304t-203 204t-285 71q-156 0 -284 -71t-204 -204t-76 -304
t76 -304t204 -203.5t284 -70.5q157 0 285 70.5t203 203.5t75 304zM449 662q0 172 84 276t223 104q112 0 186.5 -68.5t93.5 -187.5l-57 -8q-13 99 -72.5 155t-150.5 56q-115 0 -182.5 -88.5t-67.5 -238.5t67.5 -239t182.5 -89q91 0 150.5 56t72.5 155l57 -8
q-19 -119 -93.5 -187.5t-186.5 -68.5q-139 0 -223 104.5t-84 276.5z" />
    <glyph glyph-name="ordfeminine" unicode="&#xaa;" horiz-adv-x="538" 
d="M41 1008q0 72 50.5 114t168.5 68q87 20 121.5 43.5t34.5 60.5q0 54 -37 81.5t-107 27.5q-73 0 -119.5 -40.5t-54.5 -109.5l-51 9q7 84 69.5 135t155.5 51q91 0 144 -44.5t53 -119.5v-416h-49v78h-2q-25 -41 -78.5 -66.5t-116.5 -25.5q-85 0 -133.5 41t-48.5 113z
M418 1051v170h-2q-11 -24 -43.5 -39t-106.5 -35q-94 -23 -134 -54.5t-40 -82.5t36 -80t99 -29q81 0 136 43.5t55 106.5z" />
    <glyph glyph-name="guillemotleft" unicode="&#xab;" horiz-adv-x="894" 
d="M451 582l219 376h67l-223 -376l223 -379h-67zM178 582l219 376h68l-223 -376l223 -379h-68z" />
    <glyph glyph-name="logicalnot" unicode="&#xac;" horiz-adv-x="1232" 
d="M1012 786h-854v62h917v-451h-63v389z" />
    <glyph glyph-name="uni00AD" unicode="&#xad;" horiz-adv-x="739" 
d="M137 641h467v-59h-467v59z" />
    <glyph glyph-name="registered" unicode="&#xae;" horiz-adv-x="1507" 
d="M1370 662q2 -135 -46.5 -254t-132 -201.5t-198 -129t-239.5 -44.5q-168 -3 -310 76.5t-226 226t-81 326.5q-3 180 81 326t226 225.5t310 76.5q168 3 310 -76.5t225.5 -225.5t80.5 -326zM1317 662q0 171 -75 304t-203 204t-285 71q-156 0 -284 -71t-204 -204t-76 -304
t76 -304t204 -203.5t284 -70.5q157 0 285 70.5t203 203.5t75 304zM862 610l166 -313h-63l-160 309h-201v-309h-57v729h268q113 0 176.5 -54.5t63.5 -152.5q0 -88 -51 -143.5t-142 -65.5zM995 819q0 75 -47 114.5t-135 39.5h-209v-314h209q86 0 134 42.5t48 117.5z" />
    <glyph glyph-name="macron" unicode="&#xaf;" horiz-adv-x="788" 
d="M158 1264h473v-56h-473v56z" />
    <glyph glyph-name="degree" unicode="&#xb0;" horiz-adv-x="866" 
d="M117 1126q0 140 88 229t227 89q141 0 229.5 -89t88.5 -229t-88.5 -228.5t-229.5 -88.5q-139 0 -227 88.5t-88 228.5zM694 1126q0 118 -72.5 191.5t-189.5 73.5q-116 0 -188 -73.5t-72 -191.5t72 -191t188 -73q117 0 189.5 73t72.5 191z" />
    <glyph glyph-name="plusminus" unicode="&#xb1;" horiz-adv-x="1212" 
d="M1055 856v-57h-418v-426h-59v426h-420v57h420v406h59v-406h418zM158 252h897v-55h-897v55z" />
    <glyph glyph-name="acute" unicode="&#xb4;" horiz-adv-x="563" 
d="M285 1415h123l-181 -207h-69z" />
    <glyph glyph-name="paragraph" unicode="&#xb6;" horiz-adv-x="1017" 
d="M379 842q-121 5 -202 87.5t-81 209.5q0 134 82.5 214.5t212.5 80.5h426v-1713h-65v1653h-308v-1653h-65v1121z" />
    <glyph glyph-name="periodcentered" unicode="&#xb7;" horiz-adv-x="468" 
d="M160 872h153v-149h-153v149z" />
    <glyph glyph-name="cedilla" unicode="&#xb8;" horiz-adv-x="679" 
d="M524 -246q0 -72 -52 -119t-130 -47q-112 0 -184 84l41 37q32 -38 65.5 -54.5t77.5 -16.5q54 0 91.5 33.5t37.5 82.5q0 51 -33.5 81t-87.5 30q-80 0 -135 -64l-43 21l113 207l43 -25l-72 -121q43 27 98 27q74 0 122 -43.5t48 -112.5z" />
    <glyph glyph-name="ordmasculine" unicode="&#xba;" horiz-adv-x="620" 
d="M39 1151q0 130 76.5 213.5t195.5 83.5t195 -83.5t76 -213.5t-76 -213.5t-195 -83.5t-195.5 83.5t-76.5 213.5zM528 1151q0 110 -60 179t-157 69q-98 0 -158.5 -69t-60.5 -179t60.5 -179t158.5 -69q97 0 157 69t60 179z" />
    <glyph glyph-name="guillemotright" unicode="&#xbb;" horiz-adv-x="894" 
d="M158 203l223 379l-223 376h67l219 -376l-219 -379h-67zM430 203l223 379l-223 376h68l219 -376l-219 -379h-68z" />
    <glyph glyph-name="onequarter" unicode="&#xbc;" horiz-adv-x="1564" 
d="M272 1368l-213 -133v61l217 138h54v-861h-58v795zM178 -96l1002 1671l51 -29l-1002 -1669zM1348 178h-471v53l434 629h94v-627h121v-55h-121v-178h-57v178zM1348 233v582h-2l-404 -582h406z" />
    <glyph glyph-name="onehalf" unicode="&#xbd;" horiz-adv-x="1650" 
d="M272 1368l-213 -133v61l217 138h54v-861h-58v795zM178 -96l1002 1671l51 -29l-1002 -1669zM1053 55h522v-55h-582v55q0 124 37 185q27 40 80 75q54 35 178 93q132 64 183 115t51 122q0 82 -59.5 131t-159.5 49q-113 0 -181.5 -62t-74.5 -171l-60 4q6 127 93.5 205
t222.5 78q123 0 200.5 -65.5t77.5 -168.5q0 -87 -57.5 -149t-202.5 -131q-97 -46 -174 -91q-45 -26 -66 -61q-16 -22 -21 -53t-7 -105z" />
    <glyph glyph-name="threequarters" unicode="&#xbe;" horiz-adv-x="1800" 
d="M59 850l60 6q1 -122 65.5 -184t184.5 -62q106 0 168.5 53.5t62.5 145.5q0 201 -256 201h-45v51h43q104 0 166.5 47.5t62.5 126.5q0 73 -55.5 117.5t-146.5 44.5q-197 0 -232 -185l-57 9q20 109 96 170t193 61q114 0 187 -59.5t73 -155.5q0 -138 -146 -195v-2
q174 -52 174 -233q0 -115 -79 -183.5t-209 -68.5q-143 0 -224.5 77t-85.5 218zM414 -96l1001 1671l51 -29l-1001 -1669zM1583 178h-471v53l434 629h94v-627h121v-55h-121v-178h-57v178zM1583 233v582h-2l-403 -582h405z" />
    <glyph glyph-name="questiondown" unicode="&#xbf;" horiz-adv-x="1173" 
d="M741 936h-153v149h153v-149zM705 596q0 -116 -40.5 -177t-177.5 -155q-132 -89 -178 -155q-45 -62 -45 -160q0 -119 85.5 -192.5t225.5 -73.5q161 0 256 99.5t101 270.5l65 -4q-3 -192 -120 -310t-302 -118q-163 0 -272 92q-104 88 -104 236q0 111 53 188q55 75 201 176
q87 59 124.5 96.5t51.5 77t14 109.5v154h62v-154z" />
    <glyph glyph-name="Agrave" unicode="&#xc0;" horiz-adv-x="1165" 
d="M963 330h-760l-123 -330h-70l539 1434h67l539 -1434h-70zM942 387l-356 963h-4l-359 -963h719zM387 1763h121l129 -207h-72z" />
    <glyph glyph-name="Aacute" unicode="&#xc1;" horiz-adv-x="1165" 
d="M963 330h-760l-123 -330h-70l539 1434h67l539 -1434h-70zM942 387l-356 963h-4l-359 -963h719zM659 1763h123l-180 -207h-70z" />
    <glyph glyph-name="Acircumflex" unicode="&#xc2;" horiz-adv-x="1165" 
d="M963 330h-760l-123 -330h-70l539 1434h67l539 -1434h-70zM942 387l-356 963h-4l-359 -963h719zM725 1516l-141 172l-142 -172l-47 36l142 174h92l143 -174z" />
    <glyph glyph-name="Atilde" unicode="&#xc3;" horiz-adv-x="1165" 
d="M963 330h-760l-123 -330h-70l539 1434h67l539 -1434h-70zM942 387l-356 963h-4l-359 -963h719zM573 1595q-75 43 -112 43q-67 0 -76 -82h-43q5 66 37 103t86 37q52 0 129 -47q71 -43 113 -43q66 0 75 80h43q-5 -67 -35.5 -103.5t-84.5 -36.5q-55 0 -132 49z" />
    <glyph glyph-name="Adieresis" unicode="&#xc4;" horiz-adv-x="1165" 
d="M963 330h-760l-123 -330h-70l539 1434h67l539 -1434h-70zM942 387l-356 963h-4l-359 -963h719zM350 1673h139v-137h-139v137zM678 1673h139v-137h-139v137z" />
    <glyph glyph-name="Aring" unicode="&#xc5;" horiz-adv-x="1165" 
d="M963 330h-760l-123 -330h-70l539 1434h67l539 -1434h-70zM942 387l-356 963h-4l-359 -963h719zM375 1589q0 88 59 145.5t150 57.5q92 0 150.5 -57.5t58.5 -145.5t-58.5 -145.5t-150.5 -57.5q-91 0 -150 57.5t-59 145.5zM739 1589q0 68 -44 112t-111 44q-68 0 -112 -44.5
t-44 -111.5t44 -111t112 -44t111.5 44t43.5 111z" />
    <glyph glyph-name="AE" unicode="&#xc6;" horiz-adv-x="1703" 
d="M946 1372v-602h578v-61h-578v-648h635v-61h-700v332h-648l-149 -332h-74l649 1434h922v-62h-635zM881 391v981h-181l-440 -981h621z" />
    <glyph glyph-name="Ccedilla" unicode="&#xc7;" horiz-adv-x="1329" 
d="M100 719q0 220 74.5 389t211.5 262.5t316 93.5q217 0 361 -127.5t182 -353.5l-63 -12q-35 207 -161 319.5t-321 112.5q-240 0 -387 -188t-147 -496q0 -311 147 -499.5t387 -188.5q198 0 323.5 117.5t160.5 336.5l65 -10q-35 -238 -180.5 -372t-368.5 -134
q-177 0 -313.5 93.5t-211.5 264t-75 392.5zM926 -274q0 -72 -52.5 -119t-130.5 -47q-112 0 -184 84l41 37q32 -38 65.5 -55t77.5 -17q54 0 91.5 34t37.5 83q0 51 -33 80.5t-87 29.5q-82 0 -136 -63l-43 20l113 207l43 -25l-72 -120q42 26 99 26q74 0 122 -43t48 -112z" />
    <glyph glyph-name="Egrave" unicode="&#xc8;" horiz-adv-x="1144" 
d="M201 1434h823v-62h-760v-602h703v-59h-703v-650h760v-61h-823v1434zM432 1763h121l129 -207h-72z" />
    <glyph glyph-name="Eacute" unicode="&#xc9;" horiz-adv-x="1144" 
d="M201 1434h823v-62h-760v-602h703v-59h-703v-650h760v-61h-823v1434zM705 1763h122l-180 -207h-69z" />
    <glyph glyph-name="Ecircumflex" unicode="&#xca;" horiz-adv-x="1144" 
d="M201 1434h823v-62h-760v-602h703v-59h-703v-650h760v-61h-823v1434zM770 1516l-141 172l-142 -172l-47 36l142 174h92l143 -174z" />
    <glyph glyph-name="Edieresis" unicode="&#xcb;" horiz-adv-x="1144" 
d="M201 1434h823v-62h-760v-602h703v-59h-703v-650h760v-61h-823v1434zM395 1673h140v-137h-140v137zM723 1673h139v-137h-139v137z" />
    <glyph glyph-name="Igrave" unicode="&#xcc;" horiz-adv-x="464" 
d="M201 1434h63v-1434h-63v1434zM37 1763h121l129 -207h-72z" />
    <glyph glyph-name="Iacute" unicode="&#xcd;" horiz-adv-x="464" 
d="M201 1434h63v-1434h-63v1434zM309 1763h123l-180 -207h-70z" />
    <glyph glyph-name="Icircumflex" unicode="&#xce;" horiz-adv-x="464" 
d="M201 1434h63v-1434h-63v1434zM375 1516l-142 172l-141 -172l-47 36l141 174h93l143 -174z" />
    <glyph glyph-name="Idieresis" unicode="&#xcf;" horiz-adv-x="464" 
d="M201 1434h63v-1434h-63v1434zM0 1673h139v-137h-139v137zM328 1673h139v-137h-139v137z" />
    <glyph glyph-name="Eth" unicode="&#xd0;" horiz-adv-x="1333" 
d="M201 1434h411q185 0 326.5 -90.5t218 -253t76.5 -371.5q0 -340 -166.5 -529.5t-454.5 -189.5h-411v1434zM604 61q268 0 415.5 174t147.5 484q0 194 -66 341.5t-194 229.5t-301 82h-342v-1311h340zM8 748h678v-56h-678v56z" />
    <glyph glyph-name="Ntilde" unicode="&#xd1;" horiz-adv-x="1351" 
d="M201 1434h82l798 -1338h4v1338h66v-1434h-82l-801 1337h-4v-1337h-63v1434zM666 1595q-75 43 -113 43q-67 0 -76 -82h-43q5 66 37 103t86 37q52 0 129 -47q71 -43 113 -43q66 0 75 80h44q-5 -66 -36 -103t-85 -37t-131 49z" />
    <glyph glyph-name="Ograve" unicode="&#xd2;" horiz-adv-x="1402" 
d="M100 717q0 335 165.5 541t436.5 206q133 0 245 -54.5t190 -151.5t122 -236.5t44 -304.5q0 -221 -75 -391t-212 -263.5t-314 -93.5q-179 0 -316 93.5t-211.5 263.5t-74.5 391zM1237 717q0 310 -147.5 498t-387.5 188q-243 0 -389.5 -187.5t-146.5 -498.5t146.5 -498.5
t389.5 -187.5q240 0 387.5 188t147.5 498zM506 1794h121l129 -207h-72z" />
    <glyph glyph-name="Oacute" unicode="&#xd3;" horiz-adv-x="1402" 
d="M100 717q0 335 165.5 541t436.5 206q133 0 245 -54.5t190 -151.5t122 -236.5t44 -304.5q0 -221 -75 -391t-212 -263.5t-314 -93.5q-179 0 -316 93.5t-211.5 263.5t-74.5 391zM1237 717q0 310 -147.5 498t-387.5 188q-243 0 -389.5 -187.5t-146.5 -498.5t146.5 -498.5
t389.5 -187.5q240 0 387.5 188t147.5 498zM778 1794h123l-180 -207h-70z" />
    <glyph glyph-name="Ocircumflex" unicode="&#xd4;" horiz-adv-x="1402" 
d="M100 717q0 335 165.5 541t436.5 206q133 0 245 -54.5t190 -151.5t122 -236.5t44 -304.5q0 -221 -75 -391t-212 -263.5t-314 -93.5q-179 0 -316 93.5t-211.5 263.5t-74.5 391zM1237 717q0 310 -147.5 498t-387.5 188q-243 0 -389.5 -187.5t-146.5 -498.5t146.5 -498.5
t389.5 -187.5q240 0 387.5 188t147.5 498zM844 1546l-142 172l-141 -172l-47 37l141 174h93l143 -174z" />
    <glyph glyph-name="Otilde" unicode="&#xd5;" horiz-adv-x="1402" 
d="M100 717q0 335 165.5 541t436.5 206q133 0 245 -54.5t190 -151.5t122 -236.5t44 -304.5q0 -221 -75 -391t-212 -263.5t-314 -93.5q-179 0 -316 93.5t-211.5 263.5t-74.5 391zM1237 717q0 310 -147.5 498t-387.5 188q-243 0 -389.5 -187.5t-146.5 -498.5t146.5 -498.5
t389.5 -187.5q240 0 387.5 188t147.5 498zM692 1626q-75 43 -112 43q-67 0 -76 -82h-43q5 66 37 102.5t86 36.5q52 0 129 -47q71 -43 112 -43q67 0 76 80h43q-5 -66 -36 -102.5t-85 -36.5t-131 49z" />
    <glyph glyph-name="Odieresis" unicode="&#xd6;" horiz-adv-x="1402" 
d="M100 717q0 335 165.5 541t436.5 206q133 0 245 -54.5t190 -151.5t122 -236.5t44 -304.5q0 -221 -75 -391t-212 -263.5t-314 -93.5q-179 0 -316 93.5t-211.5 263.5t-74.5 391zM1237 717q0 310 -147.5 498t-387.5 188q-243 0 -389.5 -187.5t-146.5 -498.5t146.5 -498.5
t389.5 -187.5q240 0 387.5 188t147.5 498zM469 1704h139v-137h-139v137zM797 1704h139v-137h-139v137z" />
    <glyph glyph-name="multiply" unicode="&#xd7;" horiz-adv-x="1052" 
d="M158 414l327 325l-327 328l43 41l325 -328l328 328l41 -41l-326 -328l326 -325l-41 -43l-328 327l-325 -327z" />
    <glyph glyph-name="Oslash" unicode="&#xd8;" horiz-adv-x="1419" 
d="M1311 717q0 -335 -166 -541.5t-434 -206.5q-188 0 -336 109l-62 -111l-45 25l68 119q-109 99 -168 255t-59 351q0 221 75 390.5t212 263t315 93.5q189 0 333 -108l64 110l43 -24l-68 -117q110 -101 169 -257t59 -351zM367 166l647 1137q-124 100 -303 100
q-243 0 -390 -188t-147 -498q0 -177 50 -318t143 -233zM1245 717q0 177 -49.5 318.5t-142.5 232.5l-647 -1137q126 -100 305 -100q240 0 387 188t147 498z" />
    <glyph glyph-name="Ugrave" unicode="&#xd9;" horiz-adv-x="1355" 
d="M190 471v963h64v-961q0 -226 103.5 -334t320.5 -108q215 0 319.5 109t104.5 331v963h65v-963q0 -502 -489 -502q-488 0 -488 502zM481 1763h121l129 -207h-72z" />
    <glyph glyph-name="Uacute" unicode="&#xda;" horiz-adv-x="1355" 
d="M190 471v963h64v-961q0 -226 103.5 -334t320.5 -108q215 0 319.5 109t104.5 331v963h65v-963q0 -502 -489 -502q-488 0 -488 502zM754 1763h123l-181 -207h-69z" />
    <glyph glyph-name="Ucircumflex" unicode="&#xdb;" horiz-adv-x="1355" 
d="M190 471v963h64v-961q0 -226 103.5 -334t320.5 -108q215 0 319.5 109t104.5 331v963h65v-963q0 -502 -489 -502q-488 0 -488 502zM819 1516l-141 172l-141 -172l-48 36l142 174h92l143 -174z" />
    <glyph glyph-name="Udieresis" unicode="&#xdc;" horiz-adv-x="1355" 
d="M190 471v963h64v-961q0 -226 103.5 -334t320.5 -108q215 0 319.5 109t104.5 331v963h65v-963q0 -502 -489 -502q-488 0 -488 502zM444 1673h140v-137h-140v137zM772 1673h139v-137h-139v137z" />
    <glyph glyph-name="Yacute" unicode="&#xdd;" horiz-adv-x="1105" 
d="M520 586l-520 848h74l477 -783h4l477 783h74l-520 -848v-586h-66v586zM629 1763h123l-181 -207h-69z" />
    <glyph glyph-name="Thorn" unicode="&#xde;" horiz-adv-x="1216" 
d="M1157 727q0 -204 -122.5 -314t-348.5 -110h-422v-303h-63v1434h63v-285h422q222 0 346.5 -111t124.5 -311zM1094 727q0 176 -104.5 268t-303.5 92h-422v-722h422q197 0 302.5 93t105.5 269z" />
    <glyph glyph-name="germandbls" unicode="&#xdf;" horiz-adv-x="1114" 
d="M160 1038q0 202 107.5 314t293.5 112q165 0 266 -98q103 -95 103 -258q0 -108 -60.5 -189t-167.5 -118v-4q136 -29 214.5 -127.5t78.5 -239.5q0 -209 -117.5 -319.5t-338.5 -110.5h-125v57h125q192 0 293.5 96t101.5 275q0 153 -93.5 243.5t-254.5 90.5h-172v57h137
q138 0 227 80q90 84 90 207q0 139 -83 220t-224 81q-162 0 -251 -97.5t-89 -279.5v-1030h-61v1038z" />
    <glyph glyph-name="agrave" unicode="&#xe0;" horiz-adv-x="1040" 
d="M119 262q0 134 91 212.5t310 133.5q172 44 239.5 93t67.5 128q0 109 -75 169.5t-211 60.5q-146 0 -240 -79t-111 -216l-61 10q20 156 132 249t282 93q164 0 257 -79t93 -218v-819h-59v178h-5q-43 -94 -145 -149q-111 -60 -229 -60q-158 0 -247 78t-89 215zM831 340v369
h-4q-24 -50 -88 -83t-202 -69q-195 -51 -276 -118t-81 -177t73.5 -172.5t203.5 -62.5q155 0 264.5 92t109.5 221zM346 1446h121l129 -207h-72z" />
    <glyph glyph-name="aacute" unicode="&#xe1;" horiz-adv-x="1040" 
d="M119 262q0 134 91 212.5t310 133.5q172 44 239.5 93t67.5 128q0 109 -75 169.5t-211 60.5q-146 0 -240 -79t-111 -216l-61 10q20 156 132 249t282 93q164 0 257 -79t93 -218v-819h-59v178h-5q-43 -94 -145 -149q-111 -60 -229 -60q-158 0 -247 78t-89 215zM831 340v369
h-4q-24 -50 -88 -83t-202 -69q-195 -51 -276 -118t-81 -177t73.5 -172.5t203.5 -62.5q155 0 264.5 92t109.5 221zM618 1446h123l-180 -207h-69z" />
    <glyph glyph-name="acircumflex" unicode="&#xe2;" horiz-adv-x="1040" 
d="M119 262q0 134 91 212.5t310 133.5q172 44 239.5 93t67.5 128q0 109 -75 169.5t-211 60.5q-146 0 -240 -79t-111 -216l-61 10q20 156 132 249t282 93q164 0 257 -79t93 -218v-819h-59v178h-5q-43 -94 -145 -149q-111 -60 -229 -60q-158 0 -247 78t-89 215zM831 340v369
h-4q-24 -50 -88 -83t-202 -69q-195 -51 -276 -118t-81 -177t73.5 -172.5t203.5 -62.5q155 0 264.5 92t109.5 221zM684 1198l-141 172l-142 -172l-47 37l142 174h92l143 -174z" />
    <glyph glyph-name="atilde" unicode="&#xe3;" horiz-adv-x="1040" 
d="M119 262q0 134 91 212.5t310 133.5q172 44 239.5 93t67.5 128q0 109 -75 169.5t-211 60.5q-146 0 -240 -79t-111 -216l-61 10q20 156 132 249t282 93q164 0 257 -79t93 -218v-819h-59v178h-5q-43 -94 -145 -149q-111 -60 -229 -60q-158 0 -247 78t-89 215zM831 340v369
h-4q-24 -50 -88 -83t-202 -69q-195 -51 -276 -118t-81 -177t73.5 -172.5t203.5 -62.5q155 0 264.5 92t109.5 221zM532 1278q-75 43 -112 43q-67 0 -76 -82h-43q5 66 37 102.5t86 36.5q52 0 129 -47q71 -43 113 -43q66 0 75 80h43q-5 -66 -35.5 -102.5t-84.5 -36.5
q-55 0 -132 49z" />
    <glyph glyph-name="adieresis" unicode="&#xe4;" horiz-adv-x="1040" 
d="M119 262q0 134 91 212.5t310 133.5q172 44 239.5 93t67.5 128q0 109 -75 169.5t-211 60.5q-146 0 -240 -79t-111 -216l-61 10q20 156 132 249t282 93q164 0 257 -79t93 -218v-819h-59v178h-5q-43 -94 -145 -149q-111 -60 -229 -60q-158 0 -247 78t-89 215zM831 340v369
h-4q-24 -50 -88 -83t-202 -69q-195 -51 -276 -118t-81 -177t73.5 -172.5t203.5 -62.5q155 0 264.5 92t109.5 221zM309 1356h140v-137h-140v137zM637 1356h139v-137h-139v137z" />
    <glyph glyph-name="aring" unicode="&#xe5;" horiz-adv-x="1040" 
d="M340 1378q0 82 55.5 136.5t141.5 54.5t141 -54.5t55 -136.5q0 -85 -55 -138.5t-141 -53.5t-141.5 53.5t-55.5 138.5zM684 1378q0 63 -42 104.5t-105 41.5t-105.5 -41.5t-42.5 -104.5t42.5 -105t105.5 -42t105 42t42 105zM119 262q0 134 91 212.5t310 133.5
q172 44 239.5 93t67.5 128q0 109 -75 169.5t-211 60.5q-146 0 -240 -79t-111 -216l-61 10q20 156 132 249t282 93q164 0 257 -79t93 -218v-819h-59v178h-5q-43 -94 -145 -149q-111 -60 -229 -60q-158 0 -247 78t-89 215zM831 340v369h-4q-24 -50 -88 -83t-202 -69
q-195 -51 -276 -118t-81 -177t73.5 -172.5t203.5 -62.5q155 0 264.5 92t109.5 221z" />
    <glyph glyph-name="ae" unicode="&#xe6;" horiz-adv-x="1880" 
d="M1761 535h-866q2 -235 111.5 -372.5t298.5 -137.5q270 0 378 266l52 -27q-57 -143 -166.5 -219t-261.5 -76q-154 0 -266.5 81.5t-163.5 230.5q-25 -134 -141 -223t-281 -89q-158 0 -247 78t-89 215q0 104 53.5 173t140.5 104q74 32 211 71q118 33 173.5 56t93.5 61
q40 40 40 104q0 107 -76 168.5t-214 61.5q-146 0 -241 -79t-114 -216l-57 8q20 155 133.5 248.5t280.5 93.5q156 0 249 -73t97 -203l-8 -39q44 147 155.5 231t261.5 84q204 0 333.5 -154.5t129.5 -406.5v-20zM1702 588q-3 210 -116.5 341.5t-287.5 131.5q-175 0 -286 -129
q-108 -126 -117 -344h807zM834 711h-5q-28 -53 -94 -86.5t-196 -67.5q-131 -36 -197.5 -66t-114.5 -83q-49 -55 -49 -146q0 -115 72.5 -176t206.5 -61q157 0 267 92t110 223v371z" />
    <glyph glyph-name="ccedilla" unicode="&#xe7;" horiz-adv-x="1150" 
d="M119 543q0 249 136 411t347 162q171 0 291 -102q121 -103 151 -277l-59 -12q-29 157 -131.5 245.5t-251.5 88.5q-184 0 -303 -146.5t-119 -369.5t119 -369.5t303 -146.5q149 0 251.5 88t131.5 245l59 -10q-31 -174 -151 -277.5t-291 -103.5q-211 0 -347 162.5t-136 411.5
zM827 -274q0 -72 -52 -119t-130 -47q-112 0 -184 84l41 37q32 -38 65.5 -55t77.5 -17q54 0 91.5 34t37.5 83q0 51 -33 80.5t-88 29.5q-81 0 -135 -63l-43 20l113 207l43 -25l-72 -120q42 26 98 26q74 0 122 -43t48 -112z" />
    <glyph glyph-name="egrave" unicode="&#xe8;" horiz-adv-x="1185" 
d="M119 543q0 249 131 411t342 162q217 0 346 -151.5t129 -409.5v-20h-887q2 -234 114 -371t306 -137q279 0 387 264l53 -25q-57 -146 -168.5 -221.5t-269.5 -75.5q-223 0 -353 155t-130 419zM1004 588q-3 212 -116 341.5t-296 129.5q-176 0 -289.5 -134t-122.5 -337h824z
M395 1446h121l129 -207h-72z" />
    <glyph glyph-name="eacute" unicode="&#xe9;" horiz-adv-x="1185" 
d="M119 543q0 249 131 411t342 162q217 0 346 -151.5t129 -409.5v-20h-887q2 -234 114 -371t306 -137q279 0 387 264l53 -25q-57 -146 -168.5 -221.5t-269.5 -75.5q-223 0 -353 155t-130 419zM1004 588q-3 212 -116 341.5t-296 129.5q-176 0 -289.5 -134t-122.5 -337h824z
M668 1446h123l-181 -207h-69z" />
    <glyph glyph-name="ecircumflex" unicode="&#xea;" horiz-adv-x="1185" 
d="M119 543q0 249 131 411t342 162q217 0 346 -151.5t129 -409.5v-20h-887q2 -234 114 -371t306 -137q279 0 387 264l53 -25q-57 -146 -168.5 -221.5t-269.5 -75.5q-223 0 -353 155t-130 419zM1004 588q-3 212 -116 341.5t-296 129.5q-176 0 -289.5 -134t-122.5 -337h824z
M733 1198l-141 172l-141 -172l-48 37l142 174h92l143 -174z" />
    <glyph glyph-name="edieresis" unicode="&#xeb;" horiz-adv-x="1185" 
d="M119 543q0 249 131 411t342 162q217 0 346 -151.5t129 -409.5v-20h-887q2 -234 114 -371t306 -137q279 0 387 264l53 -25q-57 -146 -168.5 -221.5t-269.5 -75.5q-223 0 -353 155t-130 419zM1004 588q-3 212 -116 341.5t-296 129.5q-176 0 -289.5 -134t-122.5 -337h824z
M358 1356h140v-137h-140v137zM686 1356h139v-137h-139v137z" />
    <glyph glyph-name="igrave" unicode="&#xec;" horiz-adv-x="378" 
d="M160 1085h61v-1085h-61v1085zM-6 1415h121l129 -207h-72z" />
    <glyph glyph-name="iacute" unicode="&#xed;" horiz-adv-x="378" 
d="M160 1085h61v-1085h-61v1085zM266 1415h123l-180 -207h-70z" />
    <glyph glyph-name="icircumflex" unicode="&#xee;" horiz-adv-x="378" 
d="M160 1085h61v-1085h-61v1085zM332 1167l-142 172l-141 -172l-47 37l141 174h93l143 -174z" />
    <glyph glyph-name="idieresis" unicode="&#xef;" horiz-adv-x="374" 
d="M-27 1325h140v-137h-140v137zM264 1325h139v-137h-139v137zM160 1085h61v-1085h-61v1085z" />
    <glyph glyph-name="eth" unicode="&#xf0;" horiz-adv-x="1222" 
d="M1104 543q0 -253 -137.5 -413.5t-354.5 -160.5t-355 161t-138 413q0 253 137 413t354 160q123 0 225.5 -60.5t159.5 -166.5h4q-72 243 -241 469l-307 -109l-17 41l295 105q-38 48 -168 188v4h68q87 -90 151 -174l295 103l17 -41l-283 -101q295 -392 295 -831zM1042 543
q0 227 -120.5 371.5t-309.5 144.5q-192 0 -312 -144t-120 -372t120 -372t312 -144q189 0 309.5 144.5t120.5 371.5z" />
    <glyph glyph-name="ntilde" unicode="&#xf1;" horiz-adv-x="1132" 
d="M160 1085h59v-178h4q51 98 148 153.5t219 55.5q183 0 289 -106.5t106 -290.5v-719h-61v709q0 166 -88 258t-248 92q-159 0 -263 -99t-104 -251v-709h-61v1085zM563 1278q-75 43 -112 43q-67 0 -76 -82h-43q5 66 37 102.5t86 36.5q52 0 129 -47q71 -43 112 -43q67 0 76 80
h43q-5 -66 -36 -102.5t-85 -36.5t-131 49z" />
    <glyph glyph-name="ograve" unicode="&#xf2;" horiz-adv-x="1222" 
d="M119 543q0 253 137 413t354 160t355.5 -160t138.5 -413q0 -252 -138.5 -413t-355.5 -161q-216 0 -353.5 161t-137.5 413zM1042 543q0 228 -120 372t-312 144q-189 0 -309.5 -144.5t-120.5 -371.5t120.5 -371.5t309.5 -144.5q192 0 312 144t120 372zM414 1446h121
l129 -207h-72z" />
    <glyph glyph-name="oacute" unicode="&#xf3;" horiz-adv-x="1222" 
d="M119 543q0 253 137 413t354 160t355.5 -160t138.5 -413q0 -252 -138.5 -413t-355.5 -161q-216 0 -353.5 161t-137.5 413zM1042 543q0 228 -120 372t-312 144q-189 0 -309.5 -144.5t-120.5 -371.5t120.5 -371.5t309.5 -144.5q192 0 312 144t120 372zM686 1446h123
l-180 -207h-70z" />
    <glyph glyph-name="ocircumflex" unicode="&#xf4;" horiz-adv-x="1222" 
d="M119 543q0 253 137 413t354 160t355.5 -160t138.5 -413q0 -252 -138.5 -413t-355.5 -161q-216 0 -353.5 161t-137.5 413zM1042 543q0 228 -120 372t-312 144q-189 0 -309.5 -144.5t-120.5 -371.5t120.5 -371.5t309.5 -144.5q192 0 312 144t120 372zM752 1198l-142 172
l-141 -172l-47 37l141 174h92l144 -174z" />
    <glyph glyph-name="otilde" unicode="&#xf5;" horiz-adv-x="1222" 
d="M119 543q0 253 137 413t354 160t355.5 -160t138.5 -413q0 -252 -138.5 -413t-355.5 -161q-216 0 -353.5 161t-137.5 413zM1042 543q0 228 -120 372t-312 144q-189 0 -309.5 -144.5t-120.5 -371.5t120.5 -371.5t309.5 -144.5q192 0 312 144t120 372zM600 1278
q-75 43 -113 43q-66 0 -75 -82h-43q5 66 37 102.5t86 36.5q52 0 129 -47q71 -43 112 -43q67 0 76 80h43q-5 -66 -36 -102.5t-85 -36.5t-131 49z" />
    <glyph glyph-name="odieresis" unicode="&#xf6;" horiz-adv-x="1222" 
d="M119 543q0 253 137 413t354 160t355.5 -160t138.5 -413q0 -252 -138.5 -413t-355.5 -161q-216 0 -353.5 161t-137.5 413zM1042 543q0 228 -120 372t-312 144q-189 0 -309.5 -144.5t-120.5 -371.5t120.5 -371.5t309.5 -144.5q192 0 312 144t120 372zM377 1356h139v-137
h-139v137zM705 1356h139v-137h-139v137z" />
    <glyph glyph-name="divide" unicode="&#xf7;" horiz-adv-x="1110" 
d="M463 1133q0 41 26.5 68.5t67.5 27.5q39 0 65.5 -27.5t26.5 -68.5q0 -42 -26.5 -68.5t-65.5 -26.5q-41 0 -67.5 26t-26.5 69zM158 784h794v-57h-794v57zM463 371q0 41 26.5 68.5t67.5 27.5q39 0 65.5 -27.5t26.5 -68.5q0 -42 -26.5 -68.5t-65.5 -26.5q-41 0 -67.5 26
t-26.5 69z" />
    <glyph glyph-name="oslash" unicode="&#xf8;" horiz-adv-x="1243" 
d="M1006 918q108 -150 108 -375q0 -252 -137.5 -413t-353.5 -161q-104 0 -196 42t-159 118l-108 -117l-33 31l113 121q-111 154 -111 379q0 253 138.5 413t355.5 160q216 0 356 -162l102 111l35 -29zM281 207l657 704q-117 148 -315 148q-193 0 -314 -144t-121 -372
q0 -196 93 -336zM965 874l-658 -702q126 -145 316 -145q192 0 312 144t120 372q0 191 -90 331z" />
    <glyph glyph-name="ugrave" unicode="&#xf9;" horiz-adv-x="1107" 
d="M139 356v729h62v-708q0 -170 84.5 -260t244.5 -90q154 0 255.5 99t101.5 251v708h61v-1085h-61v178h-4q-50 -99 -145 -154t-216 -55q-180 0 -281.5 102t-101.5 285zM346 1415h121l129 -207h-72z" />
    <glyph glyph-name="uacute" unicode="&#xfa;" horiz-adv-x="1107" 
d="M139 356v729h62v-708q0 -170 84.5 -260t244.5 -90q154 0 255.5 99t101.5 251v708h61v-1085h-61v178h-4q-50 -99 -145 -154t-216 -55q-180 0 -281.5 102t-101.5 285zM618 1415h123l-180 -207h-69z" />
    <glyph glyph-name="ucircumflex" unicode="&#xfb;" horiz-adv-x="1107" 
d="M139 356v729h62v-708q0 -170 84.5 -260t244.5 -90q154 0 255.5 99t101.5 251v708h61v-1085h-61v178h-4q-50 -99 -145 -154t-216 -55q-180 0 -281.5 102t-101.5 285zM684 1167l-141 172l-142 -172l-47 37l142 174h92l143 -174z" />
    <glyph glyph-name="udieresis" unicode="&#xfc;" horiz-adv-x="1107" 
d="M139 356v729h62v-708q0 -170 84.5 -260t244.5 -90q154 0 255.5 99t101.5 251v708h61v-1085h-61v178h-4q-50 -99 -145 -154t-216 -55q-180 0 -281.5 102t-101.5 285zM309 1325h140v-137h-140v137zM637 1325h139v-137h-139v137z" />
    <glyph glyph-name="yacute" unicode="&#xfd;" horiz-adv-x="954" 
d="M446 90l-426 995h68l387 -921h4l387 921h68l-660 -1546h-63zM553 1415h123l-180 -207h-70z" />
    <glyph glyph-name="thorn" unicode="&#xfe;" horiz-adv-x="1185" 
d="M1069 541q0 -164 -60.5 -294.5t-169 -204t-243.5 -73.5q-122 0 -221 52.5t-150 144.5h-4v-627h-61v1956h61v-580h4q55 94 151 147.5t216 53.5q211 0 344 -160.5t133 -414.5zM1008 543q0 230 -115.5 373t-300.5 143q-155 0 -263 -98.5t-108 -237.5v-365q0 -135 110 -233
t263 -98q182 0 298 145.5t116 370.5z" />
    <glyph glyph-name="ydieresis" unicode="&#xff;" horiz-adv-x="954" 
d="M446 90l-426 995h68l387 -921h4l387 921h68l-660 -1546h-63zM244 1325h139v-137h-139v137zM571 1325h140v-137h-140v137z" />
    <glyph glyph-name="Amacron" unicode="&#x100;" horiz-adv-x="1165" 
d="M963 330h-760l-123 -330h-70l539 1434h67l539 -1434h-70zM942 387l-356 963h-4l-359 -963h719zM346 1612h473v-56h-473v56z" />
    <glyph glyph-name="amacron" unicode="&#x101;" horiz-adv-x="1040" 
d="M119 262q0 134 91 212.5t310 133.5q172 44 239.5 93t67.5 128q0 109 -75 169.5t-211 60.5q-146 0 -240 -79t-111 -216l-61 10q20 156 132 249t282 93q164 0 257 -79t93 -218v-819h-59v178h-5q-43 -94 -145 -149q-111 -60 -229 -60q-158 0 -247 78t-89 215zM831 340v369
h-4q-24 -50 -88 -83t-202 -69q-195 -51 -276 -118t-81 -177t73.5 -172.5t203.5 -62.5q155 0 264.5 92t109.5 221zM305 1294h473v-55h-473v55z" />
    <glyph glyph-name="Abreve" unicode="&#x102;" horiz-adv-x="1165" 
d="M963 330h-760l-123 -330h-70l539 1434h67l539 -1434h-70zM942 387l-356 963h-4l-359 -963h719zM381 1733h47q22 -127 156 -127q65 0 104.5 33t50.5 94h45q-5 -89 -58 -143t-142 -54q-90 0 -144 54t-59 143z" />
    <glyph glyph-name="abreve" unicode="&#x103;" horiz-adv-x="1040" 
d="M119 262q0 134 91 212.5t310 133.5q172 44 239.5 93t67.5 128q0 109 -75 169.5t-211 60.5q-146 0 -240 -79t-111 -216l-61 10q20 156 132 249t282 93q164 0 257 -79t93 -218v-819h-59v178h-5q-43 -94 -145 -149q-111 -60 -229 -60q-158 0 -247 78t-89 215zM831 340v369
h-4q-24 -50 -88 -83t-202 -69q-195 -51 -276 -118t-81 -177t73.5 -172.5t203.5 -62.5q155 0 264.5 92t109.5 221zM340 1415h47q22 -127 156 -127q65 0 104.5 33t50.5 94h45q-5 -89 -58 -142.5t-142 -53.5q-90 0 -144 53.5t-59 142.5z" />
    <glyph glyph-name="Aogonek" unicode="&#x104;" horiz-adv-x="1165" 
d="M963 330h-760l-123 -330h-70l539 1434h67l539 -1434h-70zM942 387l-356 963h-4l-359 -963h719zM911 -225q0 65 55.5 130.5t149.5 117.5l35 -23q-180 -104 -180 -219q0 -82 92 -82q61 0 123 45l28 -49q-71 -53 -153 -53q-150 0 -150 133z" />
    <glyph glyph-name="aogonek" unicode="&#x105;" horiz-adv-x="1040" 
d="M119 262q0 134 91 212.5t310 133.5q172 44 239.5 93t67.5 128q0 109 -75 169.5t-211 60.5q-146 0 -240 -79t-111 -216l-61 10q20 156 132 249t282 93q164 0 257 -79t93 -218v-819h-59v178h-5q-43 -94 -145 -149q-111 -60 -229 -60q-158 0 -247 78t-89 215zM831 340v369
h-4q-24 -50 -88 -83t-202 -69q-195 -51 -276 -118t-81 -177t73.5 -172.5t203.5 -62.5q155 0 264.5 92t109.5 221zM651 -225q0 65 55.5 130.5t149.5 117.5l35 -23q-180 -104 -180 -219q0 -82 92 -82q61 0 123 45l28 -49q-71 -53 -153 -53q-150 0 -150 133z" />
    <glyph glyph-name="Cacute" unicode="&#x106;" horiz-adv-x="1329" 
d="M100 719q0 220 74.5 389t211.5 262.5t316 93.5q217 0 361 -127.5t182 -353.5l-63 -12q-35 207 -161 319.5t-321 112.5q-240 0 -387 -188t-147 -496q0 -311 147 -499.5t387 -188.5q198 0 323.5 117.5t160.5 336.5l65 -10q-35 -238 -180.5 -372t-368.5 -134
q-177 0 -313.5 93.5t-211.5 264t-75 392.5zM778 1794h123l-180 -207h-70z" />
    <glyph glyph-name="cacute" unicode="&#x107;" horiz-adv-x="1150" 
d="M119 543q0 249 136 411t347 162q171 0 291 -102q121 -103 151 -277l-59 -12q-29 157 -131.5 245.5t-251.5 88.5q-184 0 -303 -146.5t-119 -369.5t119 -369.5t303 -146.5q149 0 251.5 88t131.5 245l59 -10q-31 -174 -151 -277.5t-291 -103.5q-211 0 -347 162.5t-136 411.5
zM678 1446h123l-180 -207h-70z" />
    <glyph glyph-name="Ccircumflex" unicode="&#x108;" horiz-adv-x="1329" 
d="M100 719q0 220 74.5 389t211.5 262.5t316 93.5q217 0 361 -127.5t182 -353.5l-63 -12q-35 207 -161 319.5t-321 112.5q-240 0 -387 -188t-147 -496q0 -311 147 -499.5t387 -188.5q198 0 323.5 117.5t160.5 336.5l65 -10q-35 -238 -180.5 -372t-368.5 -134
q-177 0 -313.5 93.5t-211.5 264t-75 392.5zM844 1546l-142 172l-141 -172l-47 37l141 174h93l143 -174z" />
    <glyph glyph-name="ccircumflex" unicode="&#x109;" horiz-adv-x="1150" 
d="M119 543q0 249 136 411t347 162q171 0 291 -102q121 -103 151 -277l-59 -12q-29 157 -131.5 245.5t-251.5 88.5q-184 0 -303 -146.5t-119 -369.5t119 -369.5t303 -146.5q149 0 251.5 88t131.5 245l59 -10q-31 -174 -151 -277.5t-291 -103.5q-211 0 -347 162.5t-136 411.5
zM743 1198l-141 172l-141 -172l-47 37l141 174h92l144 -174z" />
    <glyph glyph-name="Cdotaccent" unicode="&#x10a;" horiz-adv-x="1329" 
d="M100 719q0 220 74.5 389t211.5 262.5t316 93.5q217 0 361 -127.5t182 -353.5l-63 -12q-35 207 -161 319.5t-321 112.5q-240 0 -387 -188t-147 -496q0 -311 147 -499.5t387 -188.5q198 0 323.5 117.5t160.5 336.5l65 -10q-35 -238 -180.5 -372t-368.5 -134
q-177 0 -313.5 93.5t-211.5 264t-75 392.5zM633 1724h139v-137h-139v137z" />
    <glyph glyph-name="cdotaccent" unicode="&#x10b;" horiz-adv-x="1150" 
d="M119 543q0 249 136 411t347 162q171 0 291 -102q121 -103 151 -277l-59 -12q-29 157 -131.5 245.5t-251.5 88.5q-184 0 -303 -146.5t-119 -369.5t119 -369.5t303 -146.5q149 0 251.5 88t131.5 245l59 -10q-31 -174 -151 -277.5t-291 -103.5q-211 0 -347 162.5t-136 411.5
zM532 1376h140v-137h-140v137z" />
    <glyph glyph-name="Ccaron" unicode="&#x10c;" horiz-adv-x="1329" 
d="M100 719q0 220 74.5 389t211.5 262.5t316 93.5q217 0 361 -127.5t182 -353.5l-63 -12q-35 207 -161 319.5t-321 112.5q-240 0 -387 -188t-147 -496q0 -311 147 -499.5t387 -188.5q198 0 323.5 117.5t160.5 336.5l65 -10q-35 -238 -180.5 -372t-368.5 -134
q-177 0 -313.5 93.5t-211.5 264t-75 392.5zM891 1741l-143 -174h-93l-141 174l47 37l141 -170l142 170z" />
    <glyph glyph-name="ccaron" unicode="&#x10d;" horiz-adv-x="1150" 
d="M119 543q0 249 136 411t347 162q171 0 291 -102q121 -103 151 -277l-59 -12q-29 157 -131.5 245.5t-251.5 88.5q-184 0 -303 -146.5t-119 -369.5t119 -369.5t303 -146.5q149 0 251.5 88t131.5 245l59 -10q-31 -174 -151 -277.5t-291 -103.5q-211 0 -347 162.5t-136 411.5
zM791 1393l-144 -174h-92l-141 174l47 37l141 -170l141 170z" />
    <glyph glyph-name="Dcaron" unicode="&#x10e;" horiz-adv-x="1333" 
d="M201 1434h411q185 0 326.5 -90.5t218 -253t76.5 -371.5q0 -340 -166.5 -529.5t-454.5 -189.5h-411v1434zM604 61q268 0 415.5 174t147.5 484q0 194 -66 341.5t-194 229.5t-301 82h-342v-1311h340zM786 1710l-143 -174h-92l-141 174l47 37l141 -170l141 170z" />
    <glyph glyph-name="dcaron" unicode="&#x10f;" horiz-adv-x="1222" 
d="M117 545q0 249 134.5 410t340.5 161q122 0 220 -52.5t149 -145.5h4v577h61v-1495h-59v170h-4q-54 -94 -152.5 -147.5t-216.5 -53.5q-139 0 -247.5 73t-169 204.5t-60.5 298.5zM965 362v365q0 135 -110 233.5t-263 98.5q-182 0 -298 -145.5t-116 -370.5q0 -230 116 -373
t302 -143q152 0 260.5 98.5t108.5 236.5zM1130 1303q29 6 40.5 21.5t11.5 47.5h-54v121h134v-104q0 -124 -132 -136v50z" />
    <glyph glyph-name="Dcroat" unicode="&#x110;" horiz-adv-x="1333" 
d="M201 1434h411q185 0 326.5 -90.5t218 -253t76.5 -371.5q0 -340 -166.5 -529.5t-454.5 -189.5h-411v1434zM604 61q268 0 415.5 174t147.5 484q0 194 -66 341.5t-194 229.5t-301 82h-342v-1311h340zM8 748h678v-56h-678v56z" />
    <glyph glyph-name="dcroat" unicode="&#x111;" horiz-adv-x="1185" 
d="M117 545q0 249 134.5 410t340.5 161q122 0 220 -52.5t149 -145.5h4v577h61v-1495h-59v170h-4q-54 -94 -152.5 -147.5t-216.5 -53.5q-139 0 -247.5 73t-169 204.5t-60.5 298.5zM965 362v365q0 135 -110 233.5t-263 98.5q-182 0 -298 -145.5t-116 -370.5q0 -230 116 -373
t302 -143q152 0 260.5 98.5t108.5 236.5zM696 1354h480v-51h-480v51z" />
    <glyph glyph-name="Emacron" unicode="&#x112;" horiz-adv-x="1144" 
d="M201 1434h823v-62h-760v-602h703v-59h-703v-650h760v-61h-823v1434zM391 1612h473v-56h-473v56z" />
    <glyph glyph-name="emacron" unicode="&#x113;" horiz-adv-x="1185" 
d="M119 543q0 249 131 411t342 162q217 0 346 -151.5t129 -409.5v-20h-887q2 -234 114 -371t306 -137q279 0 387 264l53 -25q-57 -146 -168.5 -221.5t-269.5 -75.5q-223 0 -353 155t-130 419zM1004 588q-3 212 -116 341.5t-296 129.5q-176 0 -289.5 -134t-122.5 -337h824z
M354 1294h473v-55h-473v55z" />
    <glyph glyph-name="Ebreve" unicode="&#x114;" horiz-adv-x="1144" 
d="M201 1434h823v-62h-760v-602h703v-59h-703v-650h760v-61h-823v1434zM426 1733h47q22 -127 156 -127q65 0 104.5 33t50.5 94h45q-5 -89 -58 -143t-142 -54q-90 0 -144 54t-59 143z" />
    <glyph glyph-name="ebreve" unicode="&#x115;" horiz-adv-x="1185" 
d="M119 543q0 249 131 411t342 162q217 0 346 -151.5t129 -409.5v-20h-887q2 -234 114 -371t306 -137q279 0 387 264l53 -25q-57 -146 -168.5 -221.5t-269.5 -75.5q-223 0 -353 155t-130 419zM1004 588q-3 212 -116 341.5t-296 129.5q-176 0 -289.5 -134t-122.5 -337h824z
M389 1415h47q22 -127 156 -127q65 0 105 33t51 94h45q-5 -89 -58 -142.5t-143 -53.5t-144 53.5t-59 142.5z" />
    <glyph glyph-name="Edotaccent" unicode="&#x116;" horiz-adv-x="1144" 
d="M201 1434h823v-62h-760v-602h703v-59h-703v-650h760v-61h-823v1434zM559 1694h139v-138h-139v138z" />
    <glyph glyph-name="edotaccent" unicode="&#x117;" horiz-adv-x="1185" 
d="M119 543q0 249 131 411t342 162q217 0 346 -151.5t129 -409.5v-20h-887q2 -234 114 -371t306 -137q279 0 387 264l53 -25q-57 -146 -168.5 -221.5t-269.5 -75.5q-223 0 -353 155t-130 419zM1004 588q-3 212 -116 341.5t-296 129.5q-176 0 -289.5 -134t-122.5 -337h824z
M522 1376h140v-137h-140v137z" />
    <glyph glyph-name="Eogonek" unicode="&#x118;" horiz-adv-x="1144" 
d="M201 1434h823v-62h-760v-602h703v-59h-703v-650h760v-61h-823v1434zM682 -225q0 65 55.5 130.5t149.5 117.5l35 -23q-181 -105 -181 -219q0 -82 93 -82q60 0 122 45l29 -49q-71 -53 -154 -53q-149 0 -149 133z" />
    <glyph glyph-name="eogonek" unicode="&#x119;" horiz-adv-x="1185" 
d="M119 543q0 249 131 411t342 162q217 0 346 -151.5t129 -409.5v-20h-887q2 -234 114 -371t306 -137q279 0 387 264l53 -25q-57 -146 -168.5 -221.5t-269.5 -75.5q-223 0 -353 155t-130 419zM1004 588q-3 212 -116 341.5t-296 129.5q-176 0 -289.5 -134t-122.5 -337h824z
M543 -225q0 65 55.5 130.5t149.5 117.5l34 -23q-180 -104 -180 -219q0 -82 92 -82q61 0 123 45l29 -49q-71 -53 -154 -53q-149 0 -149 133z" />
    <glyph glyph-name="Ecaron" unicode="&#x11a;" horiz-adv-x="1144" 
d="M201 1434h823v-62h-760v-602h703v-59h-703v-650h760v-61h-823v1434zM817 1710l-143 -174h-92l-142 174l47 37l142 -170l141 170z" />
    <glyph glyph-name="ecaron" unicode="&#x11b;" horiz-adv-x="1185" 
d="M119 543q0 249 131 411t342 162q217 0 346 -151.5t129 -409.5v-20h-887q2 -234 114 -371t306 -137q279 0 387 264l53 -25q-57 -146 -168.5 -221.5t-269.5 -75.5q-223 0 -353 155t-130 419zM1004 588q-3 212 -116 341.5t-296 129.5q-176 0 -289.5 -134t-122.5 -337h824z
M780 1393l-143 -174h-92l-142 174l48 37l141 -170l141 170z" />
    <glyph glyph-name="Gcircumflex" unicode="&#x11c;" horiz-adv-x="1353" 
d="M100 719q0 220 74.5 389t211.5 262.5t316 93.5q209 0 352.5 -119.5t186.5 -328.5l-63 -10q-41 190 -166 293.5t-312 103.5q-240 0 -387 -188t-147 -496q0 -311 147 -499.5t387 -188.5q239 0 364 144t124 419h-469v59h532v-73q0 -293 -143.5 -452t-407.5 -159
q-177 0 -313.5 93.5t-211.5 264t-75 392.5zM844 1546l-142 172l-141 -172l-47 37l141 174h93l143 -174z" />
    <glyph glyph-name="gcircumflex" unicode="&#x11d;" horiz-adv-x="1175" 
d="M205 -199l57 23q38 -127 128 -192.5t224 -65.5q164 0 259.5 106t95.5 289v213h-4q-57 -98 -155.5 -150.5t-227.5 -52.5q-132 0 -238 74t-165.5 205.5t-59.5 294.5q0 250 133 410.5t340 160.5q122 0 219.5 -52t151.5 -146h4v167h61v-1126q0 -207 -112 -329t-302 -122
q-152 0 -261.5 78.5t-147.5 214.5zM967 362v365q0 136 -110 234t-265 98q-180 0 -296 -145.5t-116 -370.5q0 -224 113.5 -369t290.5 -145q160 0 271.5 97t111.5 236zM733 1198l-141 172l-141 -172l-48 37l142 174h92l143 -174z" />
    <glyph glyph-name="Gbreve" unicode="&#x11e;" horiz-adv-x="1353" 
d="M100 719q0 220 74.5 389t211.5 262.5t316 93.5q209 0 352.5 -119.5t186.5 -328.5l-63 -10q-41 190 -166 293.5t-312 103.5q-240 0 -387 -188t-147 -496q0 -311 147 -499.5t387 -188.5q239 0 364 144t124 419h-469v59h532v-73q0 -293 -143.5 -452t-407.5 -159
q-177 0 -313.5 93.5t-211.5 264t-75 392.5zM500 1763h47q22 -127 155 -127q65 0 105 33t51 94h45q-5 -89 -58 -142.5t-143 -53.5t-143.5 53.5t-58.5 142.5z" />
    <glyph glyph-name="gbreve" unicode="&#x11f;" horiz-adv-x="1175" 
d="M205 -199l57 23q38 -127 128 -192.5t224 -65.5q164 0 259.5 106t95.5 289v213h-4q-57 -98 -155.5 -150.5t-227.5 -52.5q-132 0 -238 74t-165.5 205.5t-59.5 294.5q0 250 133 410.5t340 160.5q122 0 219.5 -52t151.5 -146h4v167h61v-1126q0 -207 -112 -329t-302 -122
q-152 0 -261.5 78.5t-147.5 214.5zM967 362v365q0 136 -110 234t-265 98q-180 0 -296 -145.5t-116 -370.5q0 -224 113.5 -369t290.5 -145q160 0 271.5 97t111.5 236zM389 1415h47q22 -127 156 -127q65 0 105 33t51 94h45q-5 -89 -58 -142.5t-143 -53.5t-144 53.5t-59 142.5z
" />
    <glyph glyph-name="Gdotaccent" unicode="&#x120;" horiz-adv-x="1353" 
d="M100 719q0 220 74.5 389t211.5 262.5t316 93.5q209 0 352.5 -119.5t186.5 -328.5l-63 -10q-41 190 -166 293.5t-312 103.5q-240 0 -387 -188t-147 -496q0 -311 147 -499.5t387 -188.5q239 0 364 144t124 419h-469v59h532v-73q0 -293 -143.5 -452t-407.5 -159
q-177 0 -313.5 93.5t-211.5 264t-75 392.5zM633 1724h139v-137h-139v137z" />
    <glyph glyph-name="gdotaccent" unicode="&#x121;" horiz-adv-x="1175" 
d="M205 -199l57 23q38 -127 128 -192.5t224 -65.5q164 0 259.5 106t95.5 289v213h-4q-57 -98 -155.5 -150.5t-227.5 -52.5q-132 0 -238 74t-165.5 205.5t-59.5 294.5q0 250 133 410.5t340 160.5q122 0 219.5 -52t151.5 -146h4v167h61v-1126q0 -207 -112 -329t-302 -122
q-152 0 -261.5 78.5t-147.5 214.5zM967 362v365q0 136 -110 234t-265 98q-180 0 -296 -145.5t-116 -370.5q0 -224 113.5 -369t290.5 -145q160 0 271.5 97t111.5 236zM522 1376h140v-137h-140v137z" />
    <glyph glyph-name="uni0122" unicode="&#x122;" horiz-adv-x="1353" 
d="M100 719q0 220 74.5 389t211.5 262.5t316 93.5q209 0 352.5 -119.5t186.5 -328.5l-63 -10q-41 190 -166 293.5t-312 103.5q-240 0 -387 -188t-147 -496q0 -311 147 -499.5t387 -188.5q239 0 364 144t124 419h-469v59h532v-73q0 -293 -143.5 -452t-407.5 -159
q-177 0 -313.5 93.5t-211.5 264t-75 392.5zM637 -324q29 6 40 21.5t11 48.5h-53v121h133v-105q0 -123 -131 -135v49z" />
    <glyph glyph-name="uni0123" unicode="&#x123;" horiz-adv-x="1175" 
d="M205 -199l57 23q38 -127 128 -192.5t224 -65.5q164 0 259.5 106t95.5 289v213h-4q-57 -98 -155.5 -150.5t-227.5 -52.5q-132 0 -238 74t-165.5 205.5t-59.5 294.5q0 250 133 410.5t340 160.5q122 0 219.5 -52t151.5 -146h4v167h61v-1126q0 -207 -112 -329t-302 -122
q-152 0 -261.5 78.5t-147.5 214.5zM967 362v365q0 136 -110 234t-265 98q-180 0 -296 -145.5t-116 -370.5q0 -224 113.5 -369t290.5 -145q160 0 271.5 97t111.5 236zM662 1432q-32 -6 -44 -21.5t-12 -48.5h58v-121h-142v105q0 123 140 135v-49z" />
    <glyph glyph-name="Hcircumflex" unicode="&#x124;" 
d="M201 1434h63v-662h801v662h65v-1434h-65v717h-801v-717h-63v1434zM807 1516l-141 172l-142 -172l-47 36l141 174h93l143 -174z" />
    <glyph glyph-name="hcircumflex" unicode="&#x125;" horiz-adv-x="1132" 
d="M160 1495h61v-588h4q49 98 146 153.5t219 55.5q178 0 284 -106q111 -108 111 -281v-729h-61v709q0 161 -90.5 255.5t-245.5 94.5q-159 0 -263 -99t-104 -251v-709h-61v1495zM729 1516l-141 172l-142 -172l-47 36l142 174h92l143 -174z" />
    <glyph glyph-name="Hbar" unicode="&#x126;" horiz-adv-x="1327" 
d="M1327 1081h-199v-1081h-63v715h-803v-715h-63v1081h-199v56h199v297h63v-297h803v297h63v-297h199v-56zM1065 1081h-803v-309h803v309z" />
    <glyph glyph-name="hbar" unicode="&#x127;" horiz-adv-x="1132" 
d="M160 1495h61v-588h4q49 98 146 153.5t219 55.5q178 0 284 -106q111 -108 111 -281v-729h-61v709q0 161 -90.5 255.5t-245.5 94.5q-159 0 -263 -99t-104 -251v-709h-61v1495zM12 1354h480v-51h-480v51z" />
    <glyph glyph-name="Itilde" unicode="&#x128;" horiz-adv-x="464" 
d="M201 1434h63v-1434h-63v1434zM223 1595q-75 43 -112 43q-67 0 -76 -82h-43q5 66 37 103t86 37q52 0 129 -47q71 -43 112 -43q67 0 76 80h43q-5 -66 -36 -103t-85 -37t-131 49z" />
    <glyph glyph-name="itilde" unicode="&#x129;" horiz-adv-x="378" 
d="M160 1085h61v-1085h-61v1085zM180 1247q-75 43 -112 43q-67 0 -76 -82h-43q5 66 37 103t86 37q50 0 129 -48q71 -43 112 -43q67 0 76 80h43q-5 -66 -36 -102.5t-85 -36.5t-131 49z" />
    <glyph glyph-name="Imacron" unicode="&#x12a;" horiz-adv-x="464" 
d="M201 1434h63v-1434h-63v1434zM-4 1612h473v-56h-473v56z" />
    <glyph glyph-name="imacron" unicode="&#x12b;" horiz-adv-x="378" 
d="M160 1085h61v-1085h-61v1085zM-47 1264h473v-56h-473v56z" />
    <glyph glyph-name="Ibreve" unicode="&#x12c;" horiz-adv-x="464" 
d="M201 1434h63v-1434h-63v1434zM31 1733h47q22 -127 155 -127q65 0 105 33t51 94h45q-5 -89 -58.5 -143t-142.5 -54t-143 54t-59 143z" />
    <glyph glyph-name="ibreve" unicode="&#x12d;" horiz-adv-x="378" 
d="M160 1085h61v-1085h-61v1085zM-12 1384h47q22 -127 155 -127q65 0 105 33t51 94h45q-5 -89 -58 -142.5t-143 -53.5t-143.5 53.5t-58.5 142.5z" />
    <glyph glyph-name="Iogonek" unicode="&#x12e;" horiz-adv-x="464" 
d="M201 1434h63v-1434h-63v1434zM23 -225q0 65 55 130.5t149 117.5l35 -23q-180 -104 -180 -219q0 -82 92 -82q61 0 123 45l29 -49q-71 -53 -154 -53q-149 0 -149 133z" />
    <glyph glyph-name="iogonek" unicode="&#x12f;" horiz-adv-x="378" 
d="M160 1085h61v-1085h-61v1085zM-23 -225q0 65 55.5 130.5t149.5 117.5l35 -23q-180 -104 -180 -219q0 -82 92 -82q61 0 123 45l29 -49q-71 -53 -154 -53q-150 0 -150 133zM133 1395h117v-113h-117v113z" />
    <glyph glyph-name="Idotaccent" unicode="&#x130;" horiz-adv-x="464" 
d="M201 1434h63v-1434h-63v1434zM164 1694h139v-138h-139v138z" />
    <glyph glyph-name="dotlessi" unicode="&#x131;" horiz-adv-x="378" 
d="M160 1085h61v-1085h-61v1085z" />
    <glyph glyph-name="Jcircumflex" unicode="&#x134;" horiz-adv-x="995" 
d="M61 377l62 6q11 -180 86.5 -266t224.5 -86q157 0 232 100t75 305v998h66v-1000q0 -229 -94.5 -347t-278.5 -118q-349 0 -373 408zM918 1516l-142 172l-141 -172l-47 36l141 174h92l144 -174z" />
    <glyph glyph-name="jcircumflex" unicode="&#x135;" horiz-adv-x="401" 
d="M-20 -244h77q66 0 95.5 28.5t29.5 94.5v1206h62v-1204q0 -98 -44 -141t-141 -43h-79v59zM354 1167l-141 172l-141 -172l-47 37l141 174h92l143 -174z" />
    <glyph glyph-name="uni0136" unicode="&#x136;" horiz-adv-x="1138" 
d="M201 1434h63v-848h4l738 848h84l-562 -639l592 -795h-80l-551 748h-4l-221 -252v-496h-63v1434zM578 -293q29 6 40 21.5t11 48.5h-54v121h134v-105q0 -123 -131 -135v49z" />
    <glyph glyph-name="uni0137" unicode="&#x137;" horiz-adv-x="929" 
d="M160 1495h61v-1006h4l551 596h88l-403 -428l420 -657h-76l-385 614h-4l-195 -213v-401h-61v1495zM436 -293q29 6 40 21.5t11 48.5h-53v121h133v-105q0 -123 -131 -135v49z" />
    <glyph glyph-name="kgreenlandic" unicode="&#x138;" horiz-adv-x="937" 
d="M160 1085h61v-596h4l559 596h88l-407 -428l424 -657h-76l-389 614h-4l-199 -213v-401h-61v1085z" />
    <glyph glyph-name="Lacute" unicode="&#x139;" horiz-adv-x="1038" 
d="M201 1434h63v-1373h703v-61h-766v1434zM309 1763h123l-180 -207h-70z" />
    <glyph glyph-name="lacute" unicode="&#x13a;" horiz-adv-x="378" 
d="M160 1495h61v-1495h-61v1495zM266 1825h123l-180 -207h-70z" />
    <glyph glyph-name="uni013B" unicode="&#x13b;" horiz-adv-x="1038" 
d="M201 1434h63v-1373h703v-61h-766v1434zM520 -293q29 6 40 21.5t11 48.5h-53v121h133v-105q0 -123 -131 -135v49z" />
    <glyph glyph-name="uni013C" unicode="&#x13c;" horiz-adv-x="378" 
d="M160 1495h61v-1495h-61v1495zM129 -293q29 6 40 21.5t11 48.5h-53v121h133v-105q0 -123 -131 -135v49z" />
    <glyph glyph-name="Lcaron" unicode="&#x13d;" horiz-adv-x="978" 
d="M201 1434h63v-1373h703v-61h-766v1434zM788 1241q29 6 40.5 21.5t11.5 48.5h-54v121h134v-105q0 -123 -132 -135v49z" />
    <glyph glyph-name="lcaron" unicode="&#x13e;" horiz-adv-x="415" 
d="M160 1495h61v-1495h-61v1495zM324 1303q29 6 40 21t11 48h-53v121h133v-104q0 -124 -131 -136v50z" />
    <glyph glyph-name="Ldot" unicode="&#x13f;" horiz-adv-x="1038" 
d="M201 1434h63v-1373h703v-61h-766v1434zM635 877h153v-150h-153v150z" />
    <glyph glyph-name="ldot" unicode="&#x140;" horiz-adv-x="456" 
d="M160 1495h61v-1495h-61v1495zM338 872h154v-149h-154v149z" />
    <glyph glyph-name="Lslash" unicode="&#x141;" horiz-adv-x="1091" 
d="M311 1434h64v-1373h702v-61h-766v1434zM340 604v10l-307 -299l-33 33l360 348v-8l353 326l32 -33z" />
    <glyph glyph-name="lslash" unicode="&#x142;" horiz-adv-x="526" 
d="M233 1495h62v-1495h-62v1495zM260 770v10l-233 -225l-33 31l268 258v-10l238 229l30 -33z" />
    <glyph glyph-name="Nacute" unicode="&#x143;" horiz-adv-x="1351" 
d="M201 1434h82l798 -1338h4v1338h66v-1434h-82l-801 1337h-4v-1337h-63v1434zM752 1763h122l-180 -207h-69z" />
    <glyph glyph-name="nacute" unicode="&#x144;" horiz-adv-x="1132" 
d="M160 1085h59v-178h4q51 98 148 153.5t219 55.5q183 0 289 -106.5t106 -290.5v-719h-61v709q0 166 -88 258t-248 92q-159 0 -263 -99t-104 -251v-709h-61v1085zM649 1446h123l-180 -207h-70z" />
    <glyph glyph-name="uni0145" unicode="&#x145;" horiz-adv-x="1351" 
d="M201 1434h82l798 -1338h4v1338h66v-1434h-82l-801 1337h-4v-1337h-63v1434zM627 -293q29 6 40 21.5t11 48.5h-53v121h133v-105q0 -123 -131 -135v49z" />
    <glyph glyph-name="uni0146" unicode="&#x146;" horiz-adv-x="1132" 
d="M160 1085h59v-178h4q51 98 148 153.5t219 55.5q183 0 289 -106.5t106 -290.5v-719h-61v709q0 166 -88 258t-248 92q-159 0 -263 -99t-104 -251v-709h-61v1085zM508 -293q29 6 40 21.5t11 48.5h-53v121h133v-105q0 -123 -131 -135v49z" />
    <glyph glyph-name="Ncaron" unicode="&#x147;" horiz-adv-x="1351" 
d="M201 1434h82l798 -1338h4v1338h66v-1434h-82l-801 1337h-4v-1337h-63v1434zM864 1710l-143 -174h-92l-142 174l48 37l141 -170l141 170z" />
    <glyph glyph-name="ncaron" unicode="&#x148;" horiz-adv-x="1132" 
d="M160 1085h59v-178h4q51 98 148 153.5t219 55.5q183 0 289 -106.5t106 -290.5v-719h-61v709q0 166 -88 258t-248 92q-159 0 -263 -99t-104 -251v-709h-61v1085zM762 1393l-144 -174h-92l-141 174l47 37l141 -170l142 170z" />
    <glyph glyph-name="Eng" unicode="&#x14a;" horiz-adv-x="1349" 
d="M1149 1434v-1553q0 -98 -43.5 -141t-140.5 -43h-62v59h62q66 0 94 28.5t28 94.5v121l-819 1323h-4v-1323h-63v1434h71l809 -1309h4v1309h64z" />
    <glyph glyph-name="eng" unicode="&#x14b;" horiz-adv-x="1132" 
d="M985 719v-838q0 -98 -43.5 -141t-142.5 -43h-60v59h60q67 0 96 28.5t29 94.5v830q0 166 -88 258t-248 92q-159 0 -263 -99t-104 -251v-709h-61v1085h59v-178h4q51 98 148 153.5t219 55.5q183 0 289 -106.5t106 -290.5z" />
    <glyph glyph-name="Omacron" unicode="&#x14c;" horiz-adv-x="1402" 
d="M100 717q0 335 165.5 541t436.5 206q133 0 245 -54.5t190 -151.5t122 -236.5t44 -304.5q0 -221 -75 -391t-212 -263.5t-314 -93.5q-179 0 -316 93.5t-211.5 263.5t-74.5 391zM1237 717q0 310 -147.5 498t-387.5 188q-243 0 -389.5 -187.5t-146.5 -498.5t146.5 -498.5
t389.5 -187.5q240 0 387.5 188t147.5 498zM465 1642h473v-55h-473v55z" />
    <glyph glyph-name="omacron" unicode="&#x14d;" horiz-adv-x="1222" 
d="M119 543q0 253 137 413t354 160t355.5 -160t138.5 -413q0 -252 -138.5 -413t-355.5 -161q-216 0 -353.5 161t-137.5 413zM1042 543q0 228 -120 372t-312 144q-189 0 -309.5 -144.5t-120.5 -371.5t120.5 -371.5t309.5 -144.5q192 0 312 144t120 372zM373 1294h473v-55
h-473v55z" />
    <glyph glyph-name="Obreve" unicode="&#x14e;" horiz-adv-x="1402" 
d="M100 717q0 335 165.5 541t436.5 206q133 0 245 -54.5t190 -151.5t122 -236.5t44 -304.5q0 -221 -75 -391t-212 -263.5t-314 -93.5q-179 0 -316 93.5t-211.5 263.5t-74.5 391zM1237 717q0 310 -147.5 498t-387.5 188q-243 0 -389.5 -187.5t-146.5 -498.5t146.5 -498.5
t389.5 -187.5q240 0 387.5 188t147.5 498zM500 1763h47q22 -127 155 -127q65 0 105 33t51 94h45q-5 -89 -58 -142.5t-143 -53.5t-143.5 53.5t-58.5 142.5z" />
    <glyph glyph-name="obreve" unicode="&#x14f;" horiz-adv-x="1222" 
d="M119 543q0 253 137 413t354 160t355.5 -160t138.5 -413q0 -252 -138.5 -413t-355.5 -161q-216 0 -353.5 161t-137.5 413zM1042 543q0 228 -120 372t-312 144q-189 0 -309.5 -144.5t-120.5 -371.5t120.5 -371.5t309.5 -144.5q192 0 312 144t120 372zM408 1415h47
q22 -127 155 -127q65 0 105 33t51 94h45q-5 -89 -58 -142.5t-143 -53.5t-143.5 53.5t-58.5 142.5z" />
    <glyph glyph-name="Ohungarumlaut" unicode="&#x150;" horiz-adv-x="1402" 
d="M100 717q0 335 165.5 541t436.5 206q133 0 245 -54.5t190 -151.5t122 -236.5t44 -304.5q0 -221 -75 -391t-212 -263.5t-314 -93.5q-179 0 -316 93.5t-211.5 263.5t-74.5 391zM1237 717q0 310 -147.5 498t-387.5 188q-243 0 -389.5 -187.5t-146.5 -498.5t146.5 -498.5
t389.5 -187.5q240 0 387.5 188t147.5 498zM653 1794h123l-180 -207h-70zM881 1794h120l-180 -207h-69z" />
    <glyph glyph-name="ohungarumlaut" unicode="&#x151;" horiz-adv-x="1222" 
d="M119 543q0 253 137 413t354 160t355.5 -160t138.5 -413q0 -252 -138.5 -413t-355.5 -161q-216 0 -353.5 161t-137.5 413zM1042 543q0 228 -120 372t-312 144q-189 0 -309.5 -144.5t-120.5 -371.5t120.5 -371.5t309.5 -144.5q192 0 312 144t120 372zM561 1446h123
l-180 -207h-70zM788 1446h121l-180 -207h-70z" />
    <glyph glyph-name="OE" unicode="&#x152;" horiz-adv-x="1966" 
d="M100 717q0 335 165.5 541t436.5 206q217 0 371 -141h4v111h768v-62h-702v-602h645v-61h-645v-648h702v-61h-768v113h-4q-153 -144 -371 -144q-179 0 -316 93.5t-211.5 263.5t-74.5 391zM1077 197v1040q-144 166 -375 166q-243 0 -389.5 -187.5t-146.5 -498.5
t146.5 -498.5t389.5 -187.5q231 0 375 166z" />
    <glyph glyph-name="oe" unicode="&#x153;" horiz-adv-x="2111" 
d="M1993 535h-887q2 -236 113 -372t307 -136q279 0 387 264l51 -25q-55 -146 -167 -221.5t-271 -75.5q-171 0 -289 93.5t-166 261.5q-51 -165 -173 -260t-286 -95q-217 0 -355 161t-138 413q0 253 138 413t355 160q165 0 287.5 -95.5t173.5 -262.5q50 168 166.5 263
t278.5 95q217 0 346 -151.5t129 -409.5v-20zM1042 543q0 227 -120.5 371.5t-309.5 144.5q-191 0 -312.5 -144.5t-121.5 -371.5t121.5 -371.5t312.5 -144.5q189 0 309.5 144.5t120.5 371.5zM1929 588q-3 212 -115.5 341.5t-295.5 129.5q-176 0 -289.5 -134t-122.5 -337h823z
" />
    <glyph glyph-name="Racute" unicode="&#x154;" horiz-adv-x="1214" 
d="M750 635l331 -635h-73l-328 635h-416v-635h-63v1434h485q215 0 332 -103.5t117 -292.5q0 -173 -101 -278.5t-284 -122.5v-2zM1071 1038q0 164 -101 249t-292 85h-414v-676h414q189 0 291 88.5t102 253.5zM684 1763h123l-180 -207h-70z" />
    <glyph glyph-name="racute" unicode="&#x155;" horiz-adv-x="567" 
d="M160 1085h59v-124h4q30 65 87 103t134 38q43 0 74 -8l-10 -62q-31 8 -68 8q-105 0 -162 -79t-57 -220v-741h-61v1085zM360 1415h123l-180 -207h-70z" />
    <glyph glyph-name="uni0156" unicode="&#x156;" horiz-adv-x="1214" 
d="M750 635l331 -635h-73l-328 635h-416v-635h-63v1434h485q215 0 332 -103.5t117 -292.5q0 -173 -101 -278.5t-284 -122.5v-2zM1071 1038q0 164 -101 249t-292 85h-414v-676h414q189 0 291 88.5t102 253.5zM565 -293q29 6 40 21.5t11 48.5h-53v121h133v-105
q0 -123 -131 -135v49z" />
    <glyph glyph-name="uni0157" unicode="&#x157;" horiz-adv-x="567" 
d="M160 1085h59v-124h4q30 65 87 103t134 38q43 0 74 -8l-10 -62q-31 8 -68 8q-105 0 -162 -79t-57 -220v-741h-61v1085zM129 -293q29 6 40 21.5t11 48.5h-53v121h133v-105q0 -123 -131 -135v49z" />
    <glyph glyph-name="Rcaron" unicode="&#x158;" horiz-adv-x="1214" 
d="M750 635l331 -635h-73l-328 635h-416v-635h-63v1434h485q215 0 332 -103.5t117 -292.5q0 -173 -101 -278.5t-284 -122.5v-2zM1071 1038q0 164 -101 249t-292 85h-414v-676h414q189 0 291 88.5t102 253.5zM797 1710l-144 -174h-92l-141 174l47 37l141 -170l142 170z" />
    <glyph glyph-name="rcaron" unicode="&#x159;" horiz-adv-x="567" 
d="M160 1085h59v-124h4q30 65 87 103t134 38q43 0 74 -8l-10 -62q-31 8 -68 8q-105 0 -162 -79t-57 -220v-741h-61v1085zM473 1362l-143 -174h-92l-142 174l47 37l142 -170l141 170z" />
    <glyph glyph-name="Sacute" unicode="&#x15a;" horiz-adv-x="1181" 
d="M80 455l65 6q11 -207 135 -318.5t345 -111.5q191 0 302 82t111 223q0 97 -42.5 164t-140 120.5t-271.5 104.5q-252 77 -347.5 157.5t-95.5 217.5q0 161 119.5 262.5t308.5 101.5q192 0 326.5 -110.5t159.5 -290.5l-66 -8q-21 157 -139 252q-116 96 -281 96
q-159 0 -262 -86q-100 -81 -100 -217q0 -114 87 -183t314 -137q279 -83 386.5 -179t107.5 -263q0 -166 -129 -268q-128 -101 -348 -101q-246 0 -390.5 128.5t-154.5 357.5zM645 1794h123l-180 -207h-70z" />
    <glyph glyph-name="sacute" unicode="&#x15b;" horiz-adv-x="1001" 
d="M98 373l60 8q37 -354 383 -354q139 0 220 63t81 172q0 108 -74 167.5t-276 111.5q-202 55 -278.5 117t-76.5 171q0 121 97 204t241 83q160 0 264 -85t127 -234l-61 -13q-23 131 -109 203t-221 72q-118 0 -197 -66t-79 -164q0 -86 66 -134.5t249 -98.5
q218 -58 303.5 -131.5t85.5 -200.5q0 -135 -97.5 -215t-264.5 -80q-198 0 -312 104t-131 300zM551 1446h123l-180 -207h-70z" />
    <glyph glyph-name="Scircumflex" unicode="&#x15c;" horiz-adv-x="1181" 
d="M80 455l65 6q11 -207 135 -318.5t345 -111.5q191 0 302 82t111 223q0 97 -42.5 164t-140 120.5t-271.5 104.5q-252 77 -347.5 157.5t-95.5 217.5q0 161 119.5 262.5t308.5 101.5q192 0 326.5 -110.5t159.5 -290.5l-66 -8q-21 157 -139 252q-116 96 -281 96
q-159 0 -262 -86q-100 -81 -100 -217q0 -114 87 -183t314 -137q279 -83 386.5 -179t107.5 -263q0 -166 -129 -268q-128 -101 -348 -101q-246 0 -390.5 128.5t-154.5 357.5zM711 1546l-142 172l-141 -172l-47 37l141 174h92l144 -174z" />
    <glyph glyph-name="scircumflex" unicode="&#x15d;" horiz-adv-x="1001" 
d="M98 373l60 8q37 -354 383 -354q139 0 220 63t81 172q0 108 -74 167.5t-276 111.5q-202 55 -278.5 117t-76.5 171q0 121 97 204t241 83q160 0 264 -85t127 -234l-61 -13q-23 131 -109 203t-221 72q-118 0 -197 -66t-79 -164q0 -86 66 -134.5t249 -98.5
q218 -58 303.5 -131.5t85.5 -200.5q0 -135 -97.5 -215t-264.5 -80q-198 0 -312 104t-131 300zM616 1198l-141 172l-141 -172l-47 37l141 174h92l144 -174z" />
    <glyph glyph-name="Scedilla" unicode="&#x15e;" horiz-adv-x="1181" 
d="M80 455l65 6q11 -207 135 -318.5t345 -111.5q191 0 302 82t111 223q0 97 -42.5 164t-140 120.5t-271.5 104.5q-252 77 -347.5 157.5t-95.5 217.5q0 161 119.5 262.5t308.5 101.5q192 0 326.5 -110.5t159.5 -290.5l-66 -8q-21 157 -139 252q-116 96 -281 96
q-159 0 -262 -86q-100 -81 -100 -217q0 -114 87 -183t314 -137q279 -83 386.5 -179t107.5 -263q0 -166 -129 -268q-128 -101 -348 -101q-246 0 -390.5 128.5t-154.5 357.5zM850 -274q0 -72 -52 -119t-130 -47q-113 0 -185 84l41 37q61 -72 144 -72q54 0 91.5 34t37.5 83
q0 51 -33 80.5t-88 29.5q-81 0 -135 -63l-43 20l112 207l43 -25l-71 -120q42 26 98 26q74 0 122 -43t48 -112z" />
    <glyph glyph-name="scedilla" unicode="&#x15f;" horiz-adv-x="1001" 
d="M98 373l60 8q37 -354 383 -354q139 0 220 63t81 172q0 108 -74 167.5t-276 111.5q-202 55 -278.5 117t-76.5 171q0 121 97 204t241 83q160 0 264 -85t127 -234l-61 -13q-23 131 -109 203t-221 72q-118 0 -197 -66t-79 -164q0 -86 66 -134.5t249 -98.5
q218 -58 303.5 -131.5t85.5 -200.5q0 -135 -97.5 -215t-264.5 -80q-198 0 -312 104t-131 300zM766 -274q0 -72 -52 -119t-130 -47q-113 0 -185 84l41 37q61 -72 144 -72q54 0 91.5 34t37.5 83q0 51 -33 80.5t-88 29.5q-81 0 -135 -63l-43 20l112 207l43 -25l-71 -120
q42 26 98 26q74 0 122 -43t48 -112z" />
    <glyph glyph-name="Scaron" unicode="&#x160;" horiz-adv-x="1181" 
d="M80 455l65 6q11 -207 135 -318.5t345 -111.5q191 0 302 82t111 223q0 97 -42.5 164t-140 120.5t-271.5 104.5q-252 77 -347.5 157.5t-95.5 217.5q0 161 119.5 262.5t308.5 101.5q192 0 326.5 -110.5t159.5 -290.5l-66 -8q-21 157 -139 252q-116 96 -281 96
q-159 0 -262 -86q-100 -81 -100 -217q0 -114 87 -183t314 -137q279 -83 386.5 -179t107.5 -263q0 -166 -129 -268q-128 -101 -348 -101q-246 0 -390.5 128.5t-154.5 357.5zM758 1741l-144 -174h-92l-141 174l47 37l141 -170l142 170z" />
    <glyph glyph-name="scaron" unicode="&#x161;" horiz-adv-x="1001" 
d="M98 373l60 8q37 -354 383 -354q139 0 220 63t81 172q0 108 -74 167.5t-276 111.5q-202 55 -278.5 117t-76.5 171q0 121 97 204t241 83q160 0 264 -85t127 -234l-61 -13q-23 131 -109 203t-221 72q-118 0 -197 -66t-79 -164q0 -86 66 -134.5t249 -98.5
q218 -58 303.5 -131.5t85.5 -200.5q0 -135 -97.5 -215t-264.5 -80q-198 0 -312 104t-131 300zM664 1393l-144 -174h-92l-141 174l47 37l141 -170l141 170z" />
    <glyph glyph-name="uni0162" unicode="&#x162;" horiz-adv-x="1140" 
d="M537 1372h-465v62h997v-62h-467v-1372h-65v1372zM795 -246q0 -72 -52.5 -119t-130.5 -47q-112 0 -184 84l41 37q32 -38 65.5 -54.5t77.5 -16.5q54 0 91.5 33.5t37.5 82.5q0 51 -33 81t-87 30q-81 0 -136 -64l-43 21l113 207l43 -25l-72 -121q44 27 99 27q74 0 122 -43.5
t48 -112.5z" />
    <glyph glyph-name="uni0163" unicode="&#x163;" horiz-adv-x="581" 
d="M264 1030v-860q0 -61 27 -87t90 -26h84v-57h-84q-94 0 -136 40t-42 130v860h-154v55h154v226h61v-226h264v-55h-264zM551 -246q0 -72 -52 -119t-130 -47q-113 0 -185 84l41 37q60 -71 144 -71q54 0 91.5 33.5t37.5 82.5q0 51 -33.5 81t-87.5 30q-80 0 -135 -64l-43 21
l112 207l43 -25l-71 -121q44 27 98 27q74 0 122 -43.5t48 -112.5z" />
    <glyph glyph-name="Tcaron" unicode="&#x164;" horiz-adv-x="1140" 
d="M537 1372h-465v62h997v-62h-467v-1372h-65v1372zM758 1710l-144 -174h-92l-141 174l47 37l141 -170l142 170z" />
    <glyph glyph-name="tcaron" unicode="&#x165;" horiz-adv-x="581" 
d="M264 1030v-860q0 -61 27 -87t90 -26h84v-57h-84q-94 0 -136 40t-42 130v860h-154v55h154v226h61v-226h264v-55h-264zM438 1247q29 6 40 21.5t11 48.5h-53v121h133v-105q0 -123 -131 -135v49z" />
    <glyph glyph-name="Tbar" unicode="&#x166;" horiz-adv-x="1140" 
d="M537 1372h-465v62h997v-62h-467v-1372h-65v1372zM231 748h678v-56h-678v56z" />
    <glyph glyph-name="tbar" unicode="&#x167;" horiz-adv-x="581" 
d="M264 1030v-860q0 -61 27 -87t90 -26h84v-57h-84q-94 0 -136 40t-42 130v860h-154v55h154v226h61v-226h264v-55h-264zM51 606h479v-51h-479v51z" />
    <glyph glyph-name="Utilde" unicode="&#x168;" horiz-adv-x="1355" 
d="M190 471v963h64v-961q0 -226 103.5 -334t320.5 -108q215 0 319.5 109t104.5 331v963h65v-963q0 -502 -489 -502q-488 0 -488 502zM668 1595q-75 43 -113 43q-67 0 -76 -82h-43q5 66 37 103t86 37q52 0 129 -47q71 -43 113 -43q67 0 76 80h43q-5 -66 -36 -103t-85 -37
t-131 49z" />
    <glyph glyph-name="utilde" unicode="&#x169;" horiz-adv-x="1107" 
d="M139 356v729h62v-708q0 -170 84.5 -260t244.5 -90q154 0 255.5 99t101.5 251v708h61v-1085h-61v178h-4q-50 -99 -145 -154t-216 -55q-180 0 -281.5 102t-101.5 285zM532 1247q-75 43 -112 43q-67 0 -76 -82h-43q5 66 37 103t86 37q50 0 129 -48q71 -43 113 -43
q66 0 75 80h43q-5 -66 -35.5 -102.5t-84.5 -36.5q-55 0 -132 49z" />
    <glyph glyph-name="Umacron" unicode="&#x16a;" horiz-adv-x="1355" 
d="M190 471v963h64v-961q0 -226 103.5 -334t320.5 -108q215 0 319.5 109t104.5 331v963h65v-963q0 -502 -489 -502q-488 0 -488 502zM440 1612h473v-56h-473v56z" />
    <glyph glyph-name="umacron" unicode="&#x16b;" horiz-adv-x="1107" 
d="M139 356v729h62v-708q0 -170 84.5 -260t244.5 -90q154 0 255.5 99t101.5 251v708h61v-1085h-61v178h-4q-50 -99 -145 -154t-216 -55q-180 0 -281.5 102t-101.5 285zM305 1264h473v-56h-473v56z" />
    <glyph glyph-name="Ubreve" unicode="&#x16c;" horiz-adv-x="1355" 
d="M190 471v963h64v-961q0 -226 103.5 -334t320.5 -108q215 0 319.5 109t104.5 331v963h65v-963q0 -502 -489 -502q-488 0 -488 502zM475 1733h47q22 -127 156 -127q65 0 105 33t51 94h45q-5 -89 -58.5 -143t-142.5 -54q-90 0 -144 54t-59 143z" />
    <glyph glyph-name="ubreve" unicode="&#x16d;" horiz-adv-x="1107" 
d="M139 356v729h62v-708q0 -170 84.5 -260t244.5 -90q154 0 255.5 99t101.5 251v708h61v-1085h-61v178h-4q-50 -99 -145 -154t-216 -55q-180 0 -281.5 102t-101.5 285zM340 1384h47q22 -127 156 -127q65 0 104.5 33t50.5 94h45q-5 -89 -58 -142.5t-142 -53.5
q-90 0 -144 53.5t-59 142.5z" />
    <glyph glyph-name="Uring" unicode="&#x16e;" horiz-adv-x="1355" 
d="M190 471v963h64v-961q0 -226 103.5 -334t320.5 -108q215 0 319.5 109t104.5 331v963h65v-963q0 -502 -489 -502q-488 0 -488 502zM469 1589q0 88 59 145.5t150 57.5q92 0 150.5 -57.5t58.5 -145.5t-58.5 -145.5t-150.5 -57.5q-91 0 -150 57.5t-59 145.5zM834 1589
q0 67 -44 111.5t-112 44.5t-112 -44.5t-44 -111.5t44 -111t112 -44t112 44t44 111z" />
    <glyph glyph-name="uring" unicode="&#x16f;" horiz-adv-x="1107" 
d="M139 356v729h62v-708q0 -170 84.5 -260t244.5 -90q154 0 255.5 99t101.5 251v708h61v-1085h-61v178h-4q-50 -99 -145 -154t-216 -55q-180 0 -281.5 102t-101.5 285zM336 1257q0 88 59 145.5t150 57.5q92 0 150.5 -57.5t58.5 -145.5t-58.5 -145t-150.5 -57q-91 0 -150 57
t-59 145zM700 1257q0 68 -44 112t-111 44t-111.5 -44.5t-44.5 -111.5t44 -111t112 -44q67 0 111 44t44 111z" />
    <glyph glyph-name="Uhungarumlaut" unicode="&#x170;" horiz-adv-x="1355" 
d="M190 471v963h64v-961q0 -226 103.5 -334t320.5 -108q215 0 319.5 109t104.5 331v963h65v-963q0 -502 -489 -502q-488 0 -488 502zM629 1763h123l-181 -207h-69zM856 1763h121l-180 -207h-70z" />
    <glyph glyph-name="uhungarumlaut" unicode="&#x171;" horiz-adv-x="1107" 
d="M139 356v729h62v-708q0 -170 84.5 -260t244.5 -90q154 0 255.5 99t101.5 251v708h61v-1085h-61v178h-4q-50 -99 -145 -154t-216 -55q-180 0 -281.5 102t-101.5 285zM494 1415h122l-180 -207h-69zM721 1415h121l-180 -207h-70z" />
    <glyph glyph-name="Uogonek" unicode="&#x172;" horiz-adv-x="1355" 
d="M190 471v963h64v-961q0 -226 103.5 -334t320.5 -108q215 0 319.5 109t104.5 331v963h65v-963q0 -502 -489 -502q-488 0 -488 502zM649 -225q0 65 55.5 130.5t149.5 117.5l35 -23q-180 -104 -180 -219q0 -82 92 -82q61 0 123 45l28 -49q-71 -53 -153 -53q-150 0 -150 133z
" />
    <glyph glyph-name="uogonek" unicode="&#x173;" horiz-adv-x="1107" 
d="M139 356v729h62v-708q0 -170 84.5 -260t244.5 -90q154 0 255.5 99t101.5 251v708h61v-1085h-61v178h-4q-50 -99 -145 -154t-216 -55q-180 0 -281.5 102t-101.5 285zM707 -225q0 65 55 130.5t149 117.5l35 -23q-180 -104 -180 -219q0 -82 92 -82q61 0 123 45l29 -49
q-71 -53 -154 -53q-149 0 -149 133z" />
    <glyph glyph-name="Wcircumflex" unicode="&#x174;" horiz-adv-x="1675" 
d="M41 1434h68l262 -1328h4l432 1328h61l432 -1328h5l262 1328h67l-288 -1434h-72l-434 1329h-4l-435 -1329h-71zM979 1516l-141 172l-142 -172l-47 36l142 174h92l143 -174z" />
    <glyph glyph-name="wcircumflex" unicode="&#x175;" horiz-adv-x="1415" 
d="M59 1085h64l229 -985h4l320 985h65l320 -985h4l229 985h62l-254 -1085h-64l-327 1004h-4l-328 -1004h-64zM850 1167l-141 172l-142 -172l-47 37l142 174h92l143 -174z" />
    <glyph glyph-name="Ycircumflex" unicode="&#x176;" horiz-adv-x="1105" 
d="M520 586l-520 848h74l477 -783h4l477 783h74l-520 -848v-586h-66v586zM694 1516l-141 172l-141 -172l-47 36l141 174h92l143 -174z" />
    <glyph glyph-name="ycircumflex" unicode="&#x177;" horiz-adv-x="954" 
d="M446 90l-426 995h68l387 -921h4l387 921h68l-660 -1546h-63zM618 1167l-141 172l-141 -172l-47 37l141 174h92l144 -174z" />
    <glyph glyph-name="Ydieresis" unicode="&#x178;" horiz-adv-x="1105" 
d="M520 586l-520 848h74l477 -783h4l477 783h74l-520 -848v-586h-66v586zM319 1673h140v-137h-140v137zM647 1673h139v-137h-139v137z" />
    <glyph glyph-name="Zacute" unicode="&#x179;" horiz-adv-x="1286" 
d="M100 53l1000 1315v4h-938v62h1024v-54l-1000 -1314v-5h957v-61h-1043v53zM750 1763h122l-180 -207h-69z" />
    <glyph glyph-name="zacute" unicode="&#x17a;" horiz-adv-x="970" 
d="M53 51l783 973v4h-734v57h813v-51l-782 -973v-4h776v-57h-856v51zM563 1415h123l-180 -207h-70z" />
    <glyph glyph-name="Zdotaccent" unicode="&#x17b;" horiz-adv-x="1286" 
d="M100 53l1000 1315v4h-938v62h1024v-54l-1000 -1314v-5h957v-61h-1043v53zM604 1694h139v-138h-139v138z" />
    <glyph glyph-name="zdotaccent" unicode="&#x17c;" horiz-adv-x="970" 
d="M53 51l783 973v4h-734v57h813v-51l-782 -973v-4h776v-57h-856v51zM430 1395h117v-113h-117v113z" />
    <glyph glyph-name="Zcaron" unicode="&#x17d;" horiz-adv-x="1286" 
d="M100 53l1000 1315v4h-938v62h1024v-54l-1000 -1314v-5h957v-61h-1043v53zM862 1710l-143 -174h-92l-142 174l47 37l142 -170l141 170z" />
    <glyph glyph-name="zcaron" unicode="&#x17e;" horiz-adv-x="970" 
d="M53 51l783 973v4h-734v57h813v-51l-782 -973v-4h776v-57h-856v51zM676 1362l-144 -174h-92l-141 174l47 37l141 -170l142 170z" />
    <glyph glyph-name="longs" unicode="&#x17f;" horiz-adv-x="477" 
d="M207 1028h-158v57h158v138q0 94 52 145t149 51h129v-57h-125q-75 0 -109.5 -35t-34.5 -110v-1217h-61v1028z" />
    <glyph glyph-name="uni018E" unicode="&#x18e;" horiz-adv-x="1144" 
d="M121 0v61h760v650h-703v59h703v602h-760v62h823v-1434h-823z" />
    <glyph glyph-name="uni018F" unicode="&#x18f;" horiz-adv-x="1382" 
d="M100 709v24h1117q0 308 -143.5 489t-383.5 181q-178 0 -306.5 -103.5t-190.5 -295.5l-62 18q66 209 213.5 325.5t345.5 116.5q270 0 431 -202.5t161 -544.5t-161.5 -545t-430.5 -203q-268 0 -429 200.5t-161 539.5zM1217 674h-1051q0 -290 144 -466.5t380 -176.5
q233 0 375.5 172.5t151.5 470.5z" />
    <glyph glyph-name="florin" unicode="&#x192;" horiz-adv-x="792" 
d="M432 1214l-22 -129h280v-57h-291l-176 -1001l-24 -136q-30 -194 -234 -194h-102v59h104q78 0 118.5 34.5t53.5 113.5l199 1124h-258v57h268l25 142q30 192 233 192h125v-57h-127q-76 0 -117.5 -35.5t-54.5 -112.5z" />
    <glyph glyph-name="uni01CD" unicode="&#x1cd;" horiz-adv-x="1165" 
d="M963 330h-760l-123 -330h-70l539 1434h67l539 -1434h-70zM942 387l-356 963h-4l-359 -963h719zM772 1710l-143 -174h-92l-142 174l47 37l142 -170l141 170z" />
    <glyph glyph-name="uni01CE" unicode="&#x1ce;" horiz-adv-x="1040" 
d="M119 262q0 134 91 212.5t310 133.5q172 44 239.5 93t67.5 128q0 109 -75 169.5t-211 60.5q-146 0 -240 -79t-111 -216l-61 10q20 156 132 249t282 93q164 0 257 -79t93 -218v-819h-59v178h-5q-43 -94 -145 -149q-111 -60 -229 -60q-158 0 -247 78t-89 215zM831 340v369
h-4q-24 -50 -88 -83t-202 -69q-195 -51 -276 -118t-81 -177t73.5 -172.5t203.5 -62.5q155 0 264.5 92t109.5 221zM731 1393l-143 -174h-92l-142 174l47 37l142 -170l141 170z" />
    <glyph glyph-name="uni01CF" unicode="&#x1cf;" horiz-adv-x="464" 
d="M201 1434h63v-1434h-63v1434zM422 1710l-143 -174h-93l-141 174l47 37l141 -170l142 170z" />
    <glyph glyph-name="uni01D0" unicode="&#x1d0;" horiz-adv-x="378" 
d="M160 1085h61v-1085h-61v1085zM379 1362l-143 -174h-93l-141 174l47 37l141 -170l142 170z" />
    <glyph glyph-name="uni01D1" unicode="&#x1d1;" horiz-adv-x="1402" 
d="M100 717q0 335 165.5 541t436.5 206q133 0 245 -54.5t190 -151.5t122 -236.5t44 -304.5q0 -221 -75 -391t-212 -263.5t-314 -93.5q-179 0 -316 93.5t-211.5 263.5t-74.5 391zM1237 717q0 310 -147.5 498t-387.5 188q-243 0 -389.5 -187.5t-146.5 -498.5t146.5 -498.5
t389.5 -187.5q240 0 387.5 188t147.5 498zM891 1741l-143 -174h-93l-141 174l47 37l141 -170l142 170z" />
    <glyph glyph-name="uni01D2" unicode="&#x1d2;" horiz-adv-x="1222" 
d="M119 543q0 253 137 413t354 160t355.5 -160t138.5 -413q0 -252 -138.5 -413t-355.5 -161q-216 0 -353.5 161t-137.5 413zM1042 543q0 228 -120 372t-312 144q-189 0 -309.5 -144.5t-120.5 -371.5t120.5 -371.5t309.5 -144.5q192 0 312 144t120 372zM799 1393l-144 -174
h-92l-141 174l47 37l141 -170l142 170z" />
    <glyph glyph-name="uni01D3" unicode="&#x1d3;" horiz-adv-x="1355" 
d="M190 471v963h64v-961q0 -226 103.5 -334t320.5 -108q215 0 319.5 109t104.5 331v963h65v-963q0 -502 -489 -502q-488 0 -488 502zM866 1710l-143 -174h-92l-142 174l48 37l141 -170l141 170z" />
    <glyph glyph-name="uni01D4" unicode="&#x1d4;" horiz-adv-x="1107" 
d="M139 356v729h62v-708q0 -170 84.5 -260t244.5 -90q154 0 255.5 99t101.5 251v708h61v-1085h-61v178h-4q-50 -99 -145 -154t-216 -55q-180 0 -281.5 102t-101.5 285zM731 1362l-143 -174h-92l-142 174l47 37l142 -170l141 170z" />
    <glyph glyph-name="uni01D5" unicode="&#x1d5;" horiz-adv-x="1355" 
d="M190 471v963h64v-961q0 -226 103.5 -334t320.5 -108q215 0 319.5 109t104.5 331v963h65v-963q0 -502 -489 -502q-488 0 -488 502zM444 1673h140v-137h-140v137zM772 1673h139v-137h-139v137zM440 1810h473v-55h-473v55z" />
    <glyph glyph-name="uni01D6" unicode="&#x1d6;" horiz-adv-x="1107" 
d="M139 356v729h62v-708q0 -170 84.5 -260t244.5 -90q154 0 255.5 99t101.5 251v708h61v-1085h-61v178h-4q-50 -99 -145 -154t-216 -55q-180 0 -281.5 102t-101.5 285zM309 1325h140v-137h-140v137zM637 1325h139v-137h-139v137zM305 1462h473v-55h-473v55z" />
    <glyph glyph-name="uni01D7" unicode="&#x1d7;" horiz-adv-x="1355" 
d="M190 471v963h64v-961q0 -226 103.5 -334t320.5 -108q215 0 319.5 109t104.5 331v963h65v-963q0 -502 -489 -502q-488 0 -488 502zM444 1673h140v-137h-140v137zM772 1673h139v-137h-139v137zM754 1962h123l-181 -207h-69z" />
    <glyph glyph-name="uni01D8" unicode="&#x1d8;" horiz-adv-x="1107" 
d="M139 356v729h62v-708q0 -170 84.5 -260t244.5 -90q154 0 255.5 99t101.5 251v708h61v-1085h-61v178h-4q-50 -99 -145 -154t-216 -55q-180 0 -281.5 102t-101.5 285zM309 1325h140v-137h-140v137zM637 1325h139v-137h-139v137zM618 1614h123l-180 -207h-69z" />
    <glyph glyph-name="uni01D9" unicode="&#x1d9;" horiz-adv-x="1355" 
d="M190 471v963h64v-961q0 -226 103.5 -334t320.5 -108q215 0 319.5 109t104.5 331v963h65v-963q0 -502 -489 -502q-488 0 -488 502zM444 1673h140v-137h-140v137zM772 1673h139v-137h-139v137zM866 1909l-143 -174h-92l-142 174l48 37l141 -170l141 170z" />
    <glyph glyph-name="uni01DA" unicode="&#x1da;" horiz-adv-x="1107" 
d="M139 356v729h62v-708q0 -170 84.5 -260t244.5 -90q154 0 255.5 99t101.5 251v708h61v-1085h-61v178h-4q-50 -99 -145 -154t-216 -55q-180 0 -281.5 102t-101.5 285zM309 1325h140v-137h-140v137zM637 1325h139v-137h-139v137zM731 1561l-143 -175h-92l-142 175l47 36
l142 -170l141 170z" />
    <glyph glyph-name="uni01DB" unicode="&#x1db;" horiz-adv-x="1355" 
d="M190 471v963h64v-961q0 -226 103.5 -334t320.5 -108q215 0 319.5 109t104.5 331v963h65v-963q0 -502 -489 -502q-488 0 -488 502zM444 1673h140v-137h-140v137zM772 1673h139v-137h-139v137zM481 1962h121l129 -207h-72z" />
    <glyph glyph-name="uni01DC" unicode="&#x1dc;" horiz-adv-x="1107" 
d="M139 356v729h62v-708q0 -170 84.5 -260t244.5 -90q154 0 255.5 99t101.5 251v708h61v-1085h-61v178h-4q-50 -99 -145 -154t-216 -55q-180 0 -281.5 102t-101.5 285zM309 1325h140v-137h-140v137zM637 1325h139v-137h-139v137zM346 1614h121l129 -207h-72z" />
    <glyph glyph-name="uni01DE" unicode="&#x1de;" horiz-adv-x="1165" 
d="M963 330h-760l-123 -330h-70l539 1434h67l539 -1434h-70zM942 387l-356 963h-4l-359 -963h719zM350 1673h139v-137h-139v137zM678 1673h139v-137h-139v137zM346 1810h473v-55h-473v55z" />
    <glyph glyph-name="uni01DF" unicode="&#x1df;" horiz-adv-x="1040" 
d="M119 262q0 134 91 212.5t310 133.5q172 44 239.5 93t67.5 128q0 109 -75 169.5t-211 60.5q-146 0 -240 -79t-111 -216l-61 10q20 156 132 249t282 93q164 0 257 -79t93 -218v-819h-59v178h-5q-43 -94 -145 -149q-111 -60 -229 -60q-158 0 -247 78t-89 215zM831 340v369
h-4q-24 -50 -88 -83t-202 -69q-195 -51 -276 -118t-81 -177t73.5 -172.5t203.5 -62.5q155 0 264.5 92t109.5 221zM309 1356h140v-137h-140v137zM637 1356h139v-137h-139v137zM305 1493h473v-55h-473v55z" />
    <glyph glyph-name="Aringacute" unicode="&#x1fa;" horiz-adv-x="1165" 
d="M963 330h-760l-123 -330h-70l539 1434h67l539 -1434h-70zM942 387l-356 963h-4l-359 -963h719zM375 1589q0 88 59 145.5t150 57.5q92 0 150.5 -57.5t58.5 -145.5t-58.5 -145.5t-150.5 -57.5q-91 0 -150 57.5t-59 145.5zM739 1589q0 68 -44 112t-111 44q-68 0 -112 -44.5
t-44 -111.5t44 -111t112 -44t111.5 44t43.5 111zM659 1978h123l-180 -206h-70z" />
    <glyph glyph-name="aringacute" unicode="&#x1fb;" horiz-adv-x="1058" 
d="M340 1380q0 69 40.5 119.5t108.5 67.5l111 180h123l-156 -178q73 -7 119.5 -61t46.5 -128q0 -85 -55 -138.5t-141 -53.5t-141.5 53.5t-55.5 138.5zM389 1380q0 -63 42.5 -105t105.5 -42t105 42t42 105t-42 104.5t-105 41.5t-105.5 -41.5t-42.5 -104.5zM893 819v-819h-59
v178h-5q-43 -94 -145 -149q-111 -60 -229 -60q-158 0 -247 78t-89 215q0 134 91 212.5t310 133.5q172 44 239.5 93t67.5 128q0 109 -75 169.5t-211 60.5q-146 0 -240 -79t-111 -216l-61 10q20 156 132 249t282 93q164 0 257 -79t93 -218zM831 709h-4q-24 -50 -88 -83
t-202 -69q-195 -51 -276 -118t-81 -177t73.5 -172.5t203.5 -62.5q155 0 264.5 92t109.5 221v369z" />
    <glyph glyph-name="AEacute" unicode="&#x1fc;" horiz-adv-x="1703" 
d="M946 1372v-602h578v-61h-578v-648h635v-61h-700v332h-648l-149 -332h-74l649 1434h922v-62h-635zM881 391v981h-181l-440 -981h621zM952 1763h123l-180 -207h-70z" />
    <glyph glyph-name="aeacute" unicode="&#x1fd;" horiz-adv-x="1880" 
d="M1761 535h-866q2 -235 111.5 -372.5t298.5 -137.5q270 0 378 266l52 -27q-57 -143 -166.5 -219t-261.5 -76q-154 0 -266.5 81.5t-163.5 230.5q-25 -134 -141 -223t-281 -89q-158 0 -247 78t-89 215q0 104 53.5 173t140.5 104q74 32 211 71q118 33 173.5 56t93.5 61
q40 40 40 104q0 107 -76 168.5t-214 61.5q-146 0 -241 -79t-114 -216l-57 8q20 155 133.5 248.5t280.5 93.5q156 0 249 -73t97 -203l-8 -39q44 147 155.5 231t261.5 84q204 0 333.5 -154.5t129.5 -406.5v-20zM1702 588q-3 210 -116.5 341.5t-287.5 131.5q-175 0 -286 -129
q-108 -126 -117 -344h807zM834 711h-5q-28 -53 -94 -86.5t-196 -67.5q-131 -36 -197.5 -66t-114.5 -83q-49 -55 -49 -146q0 -115 72.5 -176t206.5 -61q157 0 267 92t110 223v371zM1016 1415h123l-181 -207h-69z" />
    <glyph glyph-name="Oslashacute" unicode="&#x1fe;" horiz-adv-x="1419" 
d="M1311 717q0 -335 -166 -541.5t-434 -206.5q-188 0 -336 109l-62 -111l-45 25l68 119q-109 99 -168 255t-59 351q0 221 75 390.5t212 263t315 93.5q189 0 333 -108l64 110l43 -24l-68 -117q110 -101 169 -257t59 -351zM367 166l647 1137q-124 100 -303 100
q-243 0 -390 -188t-147 -498q0 -177 50 -318t143 -233zM1245 717q0 177 -49.5 318.5t-142.5 232.5l-647 -1137q126 -100 305 -100q240 0 387 188t147 498zM786 1794h123l-180 -207h-70z" />
    <glyph glyph-name="oslashacute" unicode="&#x1ff;" horiz-adv-x="1243" 
d="M1006 918q108 -150 108 -375q0 -252 -137.5 -413t-353.5 -161q-104 0 -196 42t-159 118l-108 -117l-33 31l113 121q-111 154 -111 379q0 253 138.5 413t355.5 160q216 0 356 -162l102 111l35 -29zM281 207l657 704q-117 148 -315 148q-193 0 -314 -144t-121 -372
q0 -196 93 -336zM965 874l-658 -702q126 -145 316 -145q192 0 312 144t120 372q0 191 -90 331zM698 1446h123l-180 -207h-70z" />
    <glyph glyph-name="uni0218" unicode="&#x218;" horiz-adv-x="1181" 
d="M80 455l65 6q11 -207 135 -318.5t345 -111.5q191 0 302 82t111 223q0 97 -42.5 164t-140 120.5t-271.5 104.5q-252 77 -347.5 157.5t-95.5 217.5q0 161 119.5 262.5t308.5 101.5q192 0 326.5 -110.5t159.5 -290.5l-66 -8q-21 157 -139 252q-116 96 -281 96
q-159 0 -262 -86q-100 -81 -100 -217q0 -114 87 -183t314 -137q279 -83 386.5 -179t107.5 -263q0 -166 -129 -268q-128 -101 -348 -101q-246 0 -390.5 128.5t-154.5 357.5zM561 -324q29 6 40 21.5t11 48.5h-53v121h133v-105q0 -123 -131 -135v49z" />
    <glyph glyph-name="uni0219" unicode="&#x219;" horiz-adv-x="1001" 
d="M98 373l60 8q37 -354 383 -354q139 0 220 63t81 172q0 108 -74 167.5t-276 111.5q-202 55 -278.5 117t-76.5 171q0 121 97 204t241 83q160 0 264 -85t127 -234l-61 -13q-23 131 -109 203t-221 72q-118 0 -197 -66t-79 -164q0 -86 66 -134.5t249 -98.5
q218 -58 303.5 -131.5t85.5 -200.5q0 -135 -97.5 -215t-264.5 -80q-198 0 -312 104t-131 300zM477 -324q29 6 40 21.5t11 48.5h-53v121h133v-105q0 -123 -131 -135v49z" />
    <glyph glyph-name="uni021A" unicode="&#x21a;" horiz-adv-x="1140" 
d="M537 1372h-465v62h997v-62h-467v-1372h-65v1372zM506 -293q29 6 40 21.5t11 48.5h-53v121h133v-105q0 -123 -131 -135v49z" />
    <glyph glyph-name="uni021B" unicode="&#x21b;" horiz-adv-x="581" 
d="M264 1030v-860q0 -61 27 -87t90 -26h84v-57h-84q-94 0 -136 40t-42 130v860h-154v55h154v226h61v-226h264v-55h-264zM262 -293q29 6 40 21.5t11 48.5h-53v121h133v-105q0 -123 -131 -135v49z" />
    <glyph glyph-name="uni0228" unicode="&#x228;" horiz-adv-x="1144" 
d="M201 1434h823v-62h-760v-602h703v-59h-703v-650h760v-61h-823v1434zM838 -246q0 -72 -52.5 -119t-130.5 -47q-112 0 -184 84l41 37q32 -38 65.5 -54.5t77.5 -16.5q54 0 91.5 33.5t37.5 82.5q0 51 -33 81t-87 30q-81 0 -136 -64l-43 21l113 207l43 -25l-72 -121
q43 27 99 27q74 0 122 -43.5t48 -112.5z" />
    <glyph glyph-name="uni0229" unicode="&#x229;" horiz-adv-x="1185" 
d="M119 543q0 249 131 411t342 162q217 0 346 -151.5t129 -409.5v-20h-887q2 -234 114 -371t306 -137q279 0 387 264l53 -25q-57 -146 -168.5 -221.5t-269.5 -75.5q-223 0 -353 155t-130 419zM1004 588q-3 212 -116 341.5t-296 129.5q-176 0 -289.5 -134t-122.5 -337h824z
M827 -274q0 -72 -52 -119t-130 -47q-112 0 -184 84l41 37q32 -38 65.5 -55t77.5 -17q54 0 91.5 34t37.5 83q0 51 -33 80.5t-88 29.5q-81 0 -135 -63l-43 20l113 207l43 -25l-72 -120q42 26 98 26q74 0 122 -43t48 -112z" />
    <glyph glyph-name="uni0237" unicode="&#x237;" horiz-adv-x="401" 
d="M-20 -244h77q66 0 95.5 28.5t29.5 94.5v1206h62v-1204q0 -98 -44 -141t-141 -43h-79v59z" />
    <glyph glyph-name="uni0258" unicode="&#x258;" horiz-adv-x="1185" 
d="M145 266l54 25q108 -264 387 -264q194 0 306 137t114 371h-887v20q0 258 129 409.5t346 151.5q211 0 342 -162t131 -411q0 -264 -130 -419t-353 -155q-158 0 -270 75.5t-169 221.5zM594 1059q-183 0 -296 -129.5t-116 -341.5h824q-9 203 -122.5 337t-289.5 134z" />
    <glyph glyph-name="uni0259" unicode="&#x259;" horiz-adv-x="1185" 
d="M119 530v21h887q-2 235 -114 371.5t-306 136.5q-268 0 -383 -281l-53 25q57 150 169 231.5t265 81.5q223 0 353 -154.5t130 -418.5q0 -162 -58 -292.5t-166.5 -206t-248.5 -75.5q-217 0 -346 151.5t-129 409.5zM1006 498h-824q3 -212 116 -341.5t296 -129.5
q176 0 289.5 134t122.5 337z" />
    <glyph glyph-name="circumflex" unicode="&#x2c6;" horiz-adv-x="690" 
d="M487 1167l-141 172l-141 -172l-47 37l141 174h92l144 -174z" />
    <glyph glyph-name="caron" unicode="&#x2c7;" horiz-adv-x="690" 
d="M535 1362l-144 -174h-92l-141 174l47 37l141 -170l141 170z" />
    <glyph glyph-name="breve" unicode="&#x2d8;" horiz-adv-x="706" 
d="M158 1384h47q22 -127 155 -127q65 0 105 33t51 94h45q-5 -89 -58 -142.5t-143 -53.5t-143.5 53.5t-58.5 142.5z" />
    <glyph glyph-name="dotaccent" unicode="&#x2d9;" horiz-adv-x="452" 
d="M158 1346h139v-138h-139v138z" />
    <glyph glyph-name="ring" unicode="&#x2da;" horiz-adv-x="733" 
d="M158 1241q0 88 59 145.5t150 57.5q92 0 150 -57.5t58 -145.5t-58 -145.5t-150 -57.5q-91 0 -150 57.5t-59 145.5zM522 1241q0 68 -44 112t-111 44t-111.5 -44.5t-44.5 -111.5t44.5 -111.5t111.5 -44.5t111 44t44 112z" />
    <glyph glyph-name="ogonek" unicode="&#x2db;" horiz-adv-x="618" 
d="M158 -225q0 65 55 130.5t149 117.5l35 -23q-180 -104 -180 -219q0 -82 92 -82q61 0 123 45l29 -49q-71 -53 -154 -53q-149 0 -149 133z" />
    <glyph glyph-name="tilde" unicode="&#x2dc;" horiz-adv-x="798" 
d="M389 1247q-75 43 -113 43q-66 0 -75 -82h-43q5 66 37 103t86 37q50 0 129 -48q71 -43 112 -43q67 0 76 80h43q-5 -66 -36 -102.5t-85 -36.5t-131 49z" />
    <glyph glyph-name="hungarumlaut" unicode="&#x2dd;" horiz-adv-x="788" 
d="M285 1415h123l-181 -207h-69zM512 1415h121l-180 -207h-70z" />
    <glyph glyph-name="gravecomb" unicode="&#x300;" horiz-adv-x="0" 
d="M-250 1415h121l129 -207h-72z" />
    <glyph glyph-name="acutecomb" unicode="&#x301;" horiz-adv-x="0" 
d="M-123 1415h123l-180 -207h-70z" />
    <glyph glyph-name="uni0302" unicode="&#x302;" horiz-adv-x="0" 
d="M-47 1167l-141 172l-142 -172l-47 37l141 174h93l143 -174z" />
    <glyph glyph-name="tildecomb" unicode="&#x303;" horiz-adv-x="0" 
d="M-252 1247q-75 43 -113 43q-66 0 -75 -82h-43q5 66 37 103t86 37q50 0 129 -48q71 -43 112 -43q67 0 76 80h43q-5 -66 -36 -102.5t-85 -36.5t-131 49z" />
    <glyph glyph-name="uni0304" unicode="&#x304;" horiz-adv-x="0" 
d="M-473 1264h473v-56h-473v56z" />
    <glyph glyph-name="uni0306" unicode="&#x306;" horiz-adv-x="0" 
d="M-403 1384h47q22 -127 155 -127q65 0 105 33t51 94h45q-5 -89 -58.5 -142.5t-142.5 -53.5q-90 0 -143.5 53.5t-58.5 142.5z" />
    <glyph glyph-name="uni0307" unicode="&#x307;" horiz-adv-x="0" 
d="M-139 1346h139v-138h-139v138z" />
    <glyph glyph-name="uni0308" unicode="&#x308;" horiz-adv-x="0" 
d="M-467 1325h139v-137h-139v137zM-139 1325h139v-137h-139v137z" />
    <glyph glyph-name="uni030A" unicode="&#x30a;" horiz-adv-x="0" 
d="M-418 1241q0 88 59 145.5t150 57.5q92 0 150.5 -57.5t58.5 -145.5t-58.5 -145.5t-150.5 -57.5q-91 0 -150 57.5t-59 145.5zM-53 1241q0 67 -44.5 111.5t-111.5 44.5t-111.5 -44.5t-44.5 -111.5t44.5 -111.5t111.5 -44.5t111.5 44.5t44.5 111.5z" />
    <glyph glyph-name="uni030B" unicode="&#x30b;" horiz-adv-x="0" 
d="M-348 1415h123l-181 -207h-69zM-121 1415h121l-180 -207h-70z" />
    <glyph glyph-name="uni030C" unicode="&#x30c;" horiz-adv-x="0" 
d="M0 1362l-143 -174h-93l-141 174l47 37l142 -170l141 170z" />
    <glyph glyph-name="uni0312" unicode="&#x312;" horiz-adv-x="0" 
d="M-2 1401q-31 -6 -43 -22t-12 -48h57v-123h-141v107q0 123 139 135v-49z" />
    <glyph glyph-name="dotbelowcomb" unicode="&#x323;" horiz-adv-x="0" 
d="M-139 -100h139v-138h-139v138z" />
    <glyph glyph-name="uni0326" unicode="&#x326;" horiz-adv-x="0" 
d="M-129 -295q29 6 40 21.5t11 48.5h-53v123h133v-107q0 -60 -34 -94.5t-97 -40.5v49z" />
    <glyph glyph-name="uni0327" unicode="&#x327;" horiz-adv-x="0" 
d="M0 -246q0 -72 -52 -119t-130 -47q-113 0 -185 84l41 37q60 -71 144 -71q54 0 91.5 33.5t37.5 82.5q0 51 -33.5 81t-87.5 30q-80 0 -135 -64l-43 21l112 207l43 -25l-71 -121q44 27 98 27q74 0 122 -43.5t48 -112.5z" />
    <glyph glyph-name="uni0328" unicode="&#x328;" horiz-adv-x="0" 
d="M-303 -225q0 65 55.5 130.5t149.5 117.5l35 -23q-181 -105 -181 -219q0 -82 92 -82q61 0 123 45l29 -49q-71 -53 -154 -53q-149 0 -149 133z" />
    <glyph glyph-name="uni0335" unicode="&#x335;" horiz-adv-x="0" 
d="M-678 768h678v-55h-678v55z" />
    <glyph glyph-name="uni0336" unicode="&#x336;" horiz-adv-x="0" 
d="M-1327 768h1327v-55h-1327v55z" />
    <glyph glyph-name="uni0337" unicode="&#x337;" horiz-adv-x="0" 
d="M-862 31l827 1048l35 -24l-827 -1049z" />
    <glyph glyph-name="uni0338" unicode="&#x338;" horiz-adv-x="0" 
d="M-885 -6l840 1472l45 -24l-840 -1473z" />
    <glyph glyph-name="uni0394" unicode="&#x394;" horiz-adv-x="1165" 
d="M1155 0h-1145l539 1434h69zM1065 59l-479 1291h-4l-480 -1291h963z" />
    <glyph glyph-name="uni03A9" unicode="&#x3a9;" horiz-adv-x="1402" 
d="M924 57h368v-57h-493v61q123 23 224.5 121t158.5 245t55 310q0 298 -148 482t-387 184q-241 0 -388.5 -184t-147.5 -482q-2 -163 55 -310t158.5 -245t224.5 -121v-61h-493v57h370v4q-164 59 -272.5 251t-108.5 425q0 213 76 378.5t213 257t313 91.5q175 0 312 -91.5
t213 -257.5t76 -378q0 -233 -107 -423.5t-272 -252.5v-4z" />
    <glyph glyph-name="uni03BC" unicode="&#x3bc;" horiz-adv-x="1128" 
d="M969 1085v-1085h-62v178h-4q-47 -99 -141 -154t-215 -55q-237 0 -322 178h-4v-608h-61v1546h61v-708q0 -170 85 -260t245 -90q154 0 255 99t101 251v708h62z" />
    <glyph glyph-name="pi" unicode="&#x3c0;" horiz-adv-x="1300" 
d="M1206 57v-57h-88q-91 0 -132.5 41t-41.5 131v856h-618v-1028h-62v1028h-215v57h1151v-57h-194v-856q0 -62 26.5 -88.5t89.5 -26.5h84z" />
    <glyph glyph-name="uni0E3F" unicode="&#xe3f;" horiz-adv-x="1296" 
d="M1176 406q0 -201 -122.5 -303.5t-363.5 -102.5h-8v-225h-49v225h-412v1434h412v206h49v-206h14q206 0 316 -90.5t110 -258.5q0 -124 -67.5 -208t-184.5 -109v-4q142 -20 224 -115t82 -243zM285 786h348v586h-348v-586zM682 1372v-586q180 2 277.5 79.5t97.5 219.5
q0 141 -92.5 214t-270.5 73h-12zM633 61v668h-348v-668h348zM1110 406q0 164 -99.5 243.5t-303.5 79.5h-25v-668h6q422 0 422 345z" />
    <glyph glyph-name="uni1E04" unicode="&#x1e04;" horiz-adv-x="1284" 
d="M201 1434h475q206 0 316 -90.5t110 -258.5q0 -122 -64 -205t-178 -114v-4q137 -24 216 -117t79 -239q0 -201 -122 -303.5t-363 -102.5h-469v1434zM655 788q184 0 282.5 77t98.5 220q0 140 -92 213.5t-270 73.5h-410v-584h391zM668 61q422 0 422 345q0 164 -100 243.5
t-304 79.5h-422v-668h404zM567 -100h140v-138h-140v138z" />
    <glyph glyph-name="uni1E05" unicode="&#x1e05;" horiz-adv-x="1185" 
d="M223 170h-4v-170h-59v1495h61v-577h4q51 93 149 145.5t220 52.5q206 0 340.5 -161t134.5 -410q0 -167 -60.5 -298.5t-169 -204.5t-247.5 -73q-118 0 -216.5 53.5t-152.5 147.5zM1008 543q0 225 -116 370.5t-298 145.5q-153 0 -263 -98.5t-110 -233.5v-365
q0 -138 108.5 -236.5t260.5 -98.5q186 0 302 143t116 373zM530 -131h140v-137h-140v137z" />
    <glyph glyph-name="uni1E0C" unicode="&#x1e0c;" horiz-adv-x="1333" 
d="M201 1434h411q185 0 326.5 -90.5t218 -253t76.5 -371.5q0 -340 -166.5 -529.5t-454.5 -189.5h-411v1434zM604 61q268 0 415.5 174t147.5 484q0 194 -66 341.5t-194 229.5t-301 82h-342v-1311h340zM600 -100h139v-138h-139v138z" />
    <glyph glyph-name="uni1E0D" unicode="&#x1e0d;" horiz-adv-x="1185" 
d="M117 545q0 249 134.5 410t340.5 161q122 0 220 -52.5t149 -145.5h4v577h61v-1495h-59v170h-4q-54 -94 -152.5 -147.5t-216.5 -53.5q-139 0 -247.5 73t-169 204.5t-60.5 298.5zM965 362v365q0 135 -110 233.5t-263 98.5q-182 0 -298 -145.5t-116 -370.5q0 -230 116 -373
t302 -143q152 0 260.5 98.5t108.5 236.5zM516 -125h139v-137h-139v137z" />
    <glyph glyph-name="uni1E24" unicode="&#x1e24;" 
d="M201 1434h63v-662h801v662h65v-1434h-65v717h-801v-717h-63v1434zM596 -100h139v-138h-139v138z" />
    <glyph glyph-name="uni1E25" unicode="&#x1e25;" horiz-adv-x="1132" 
d="M160 1495h61v-588h4q49 98 146 153.5t219 55.5q178 0 284 -106q111 -108 111 -281v-729h-61v709q0 161 -90.5 255.5t-245.5 94.5q-159 0 -263 -99t-104 -251v-709h-61v1495zM502 -100h139v-138h-139v138z" />
    <glyph glyph-name="uni1E36" unicode="&#x1e36;" horiz-adv-x="1038" 
d="M201 1434h63v-1373h703v-61h-766v1434zM514 -100h139v-138h-139v138z" />
    <glyph glyph-name="uni1E37" unicode="&#x1e37;" horiz-adv-x="378" 
d="M160 1495h61v-1495h-61v1495zM121 -100h139v-138h-139v138z" />
    <glyph glyph-name="uni1E44" unicode="&#x1e44;" horiz-adv-x="1351" 
d="M201 1434h82l798 -1338h4v1338h66v-1434h-82l-801 1337h-4v-1337h-63v1434zM606 1694h139v-138h-139v138z" />
    <glyph glyph-name="uni1E45" unicode="&#x1e45;" horiz-adv-x="1132" 
d="M160 1085h59v-178h4q51 98 148 153.5t219 55.5q183 0 289 -106.5t106 -290.5v-719h-61v709q0 166 -88 258t-248 92q-159 0 -263 -99t-104 -251v-709h-61v1085zM504 1376h139v-137h-139v137z" />
    <glyph glyph-name="uni1E46" unicode="&#x1e46;" horiz-adv-x="1351" 
d="M201 1434h82l798 -1338h4v1338h66v-1434h-82l-801 1337h-4v-1337h-63v1434zM621 -100h139v-138h-139v138z" />
    <glyph glyph-name="uni1E47" unicode="&#x1e47;" horiz-adv-x="1132" 
d="M160 1085h59v-178h4q51 98 148 153.5t219 55.5q183 0 289 -106.5t106 -290.5v-719h-61v709q0 166 -88 258t-248 92q-159 0 -263 -99t-104 -251v-709h-61v1085zM502 -100h139v-138h-139v138z" />
    <glyph glyph-name="uni1E4C" unicode="&#x1e4c;" horiz-adv-x="1402" 
d="M100 717q0 335 165.5 541t436.5 206q133 0 245 -54.5t190 -151.5t122 -236.5t44 -304.5q0 -221 -75 -391t-212 -263.5t-314 -93.5q-179 0 -316 93.5t-211.5 263.5t-74.5 391zM1237 717q0 310 -147.5 498t-387.5 188q-243 0 -389.5 -187.5t-146.5 -498.5t146.5 -498.5
t389.5 -187.5q240 0 387.5 188t147.5 498zM692 1626q-75 43 -112 43q-67 0 -76 -82h-43q5 66 37 102.5t86 36.5q52 0 129 -47q71 -43 112 -43q67 0 76 80h43q-5 -66 -36 -102.5t-85 -36.5t-131 49zM778 1995h123l-180 -207h-70z" />
    <glyph glyph-name="uni1E4D" unicode="&#x1e4d;" horiz-adv-x="1222" 
d="M119 543q0 253 137 413t354 160t355.5 -160t138.5 -413q0 -252 -138.5 -413t-355.5 -161q-216 0 -353.5 161t-137.5 413zM1042 543q0 228 -120 372t-312 144q-189 0 -309.5 -144.5t-120.5 -371.5t120.5 -371.5t309.5 -144.5q192 0 312 144t120 372zM600 1278
q-75 43 -113 43q-66 0 -75 -82h-43q5 66 37 102.5t86 36.5q52 0 129 -47q71 -43 112 -43q67 0 76 80h43q-5 -66 -36 -102.5t-85 -36.5t-131 49zM686 1647h123l-180 -207h-70z" />
    <glyph glyph-name="uni1E62" unicode="&#x1e62;" horiz-adv-x="1181" 
d="M80 455l65 6q11 -207 135 -318.5t345 -111.5q191 0 302 82t111 223q0 97 -42.5 164t-140 120.5t-271.5 104.5q-252 77 -347.5 157.5t-95.5 217.5q0 161 119.5 262.5t308.5 101.5q192 0 326.5 -110.5t159.5 -290.5l-66 -8q-21 157 -139 252q-116 96 -281 96
q-159 0 -262 -86q-100 -81 -100 -217q0 -114 87 -183t314 -137q279 -83 386.5 -179t107.5 -263q0 -166 -129 -268q-128 -101 -348 -101q-246 0 -390.5 128.5t-154.5 357.5zM555 -131h139v-137h-139v137z" />
    <glyph glyph-name="uni1E63" unicode="&#x1e63;" horiz-adv-x="1001" 
d="M98 373l60 8q37 -354 383 -354q139 0 220 63t81 172q0 108 -74 167.5t-276 111.5q-202 55 -278.5 117t-76.5 171q0 121 97 204t241 83q160 0 264 -85t127 -234l-61 -13q-23 131 -109 203t-221 72q-118 0 -197 -66t-79 -164q0 -86 66 -134.5t249 -98.5
q218 -58 303.5 -131.5t85.5 -200.5q0 -135 -97.5 -215t-264.5 -80q-198 0 -312 104t-131 300zM471 -131h139v-137h-139v137z" />
    <glyph glyph-name="uni1E6C" unicode="&#x1e6c;" horiz-adv-x="1140" 
d="M537 1372h-465v62h997v-62h-467v-1372h-65v1372zM500 -100h139v-138h-139v138z" />
    <glyph glyph-name="uni1E6D" unicode="&#x1e6d;" horiz-adv-x="581" 
d="M264 1030v-860q0 -61 27 -87t90 -26h84v-57h-84q-94 0 -136 40t-42 130v860h-154v55h154v226h61v-226h264v-55h-264zM256 -100h139v-138h-139v138z" />
    <glyph glyph-name="Wgrave" unicode="&#x1e80;" horiz-adv-x="1675" 
d="M41 1434h68l262 -1328h4l432 1328h61l432 -1328h5l262 1328h67l-288 -1434h-72l-434 1329h-4l-435 -1329h-71zM641 1763h121l129 -207h-72z" />
    <glyph glyph-name="wgrave" unicode="&#x1e81;" horiz-adv-x="1415" 
d="M59 1085h64l229 -985h4l320 985h65l320 -985h4l229 985h62l-254 -1085h-64l-327 1004h-4l-328 -1004h-64zM512 1415h121l129 -207h-72z" />
    <glyph glyph-name="Wacute" unicode="&#x1e82;" horiz-adv-x="1675" 
d="M41 1434h68l262 -1328h4l432 1328h61l432 -1328h5l262 1328h67l-288 -1434h-72l-434 1329h-4l-435 -1329h-71zM913 1763h123l-180 -207h-70z" />
    <glyph glyph-name="wacute" unicode="&#x1e83;" horiz-adv-x="1415" 
d="M59 1085h64l229 -985h4l320 985h65l320 -985h4l229 985h62l-254 -1085h-64l-327 1004h-4l-328 -1004h-64zM784 1415h123l-180 -207h-70z" />
    <glyph glyph-name="Wdieresis" unicode="&#x1e84;" horiz-adv-x="1675" 
d="M41 1434h68l262 -1328h4l432 1328h61l432 -1328h5l262 1328h67l-288 -1434h-72l-434 1329h-4l-435 -1329h-71zM604 1673h139v-137h-139v137zM932 1673h139v-137h-139v137z" />
    <glyph glyph-name="wdieresis" unicode="&#x1e85;" horiz-adv-x="1415" 
d="M59 1085h64l229 -985h4l320 985h65l320 -985h4l229 985h62l-254 -1085h-64l-327 1004h-4l-328 -1004h-64zM475 1325h139v-137h-139v137zM803 1325h139v-137h-139v137z" />
    <glyph glyph-name="uni1E92" unicode="&#x1e92;" horiz-adv-x="1286" 
d="M100 53l1000 1315v4h-938v62h1024v-54l-1000 -1314v-5h957v-61h-1043v53zM592 -100h139v-138h-139v138z" />
    <glyph glyph-name="uni1E93" unicode="&#x1e93;" horiz-adv-x="970" 
d="M53 51l783 973v4h-734v57h813v-51l-782 -973v-4h776v-57h-856v51zM412 -100h139v-138h-139v138z" />
    <glyph glyph-name="uni1EA0" unicode="&#x1ea0;" horiz-adv-x="1165" 
d="M963 330h-760l-123 -330h-70l539 1434h67l539 -1434h-70zM942 387l-356 963h-4l-359 -963h719zM514 -100h139v-138h-139v138z" />
    <glyph glyph-name="uni1EA1" unicode="&#x1ea1;" horiz-adv-x="1040" 
d="M119 262q0 134 91 212.5t310 133.5q172 44 239.5 93t67.5 128q0 109 -75 169.5t-211 60.5q-146 0 -240 -79t-111 -216l-61 10q20 156 132 249t282 93q164 0 257 -79t93 -218v-819h-59v178h-5q-43 -94 -145 -149q-111 -60 -229 -60q-158 0 -247 78t-89 215zM831 340v369
h-4q-24 -50 -88 -83t-202 -69q-195 -51 -276 -118t-81 -177t73.5 -172.5t203.5 -62.5q155 0 264.5 92t109.5 221zM451 -131h139v-137h-139v137z" />
    <glyph glyph-name="uni1EAC" unicode="&#x1eac;" horiz-adv-x="1165" 
d="M963 330h-760l-123 -330h-70l539 1434h67l539 -1434h-70zM942 387l-356 963h-4l-359 -963h719zM725 1516l-141 172l-142 -172l-47 36l142 174h92l143 -174zM514 -100h139v-138h-139v138z" />
    <glyph glyph-name="uni1EAD" unicode="&#x1ead;" horiz-adv-x="1040" 
d="M119 262q0 134 91 212.5t310 133.5q172 44 239.5 93t67.5 128q0 109 -75 169.5t-211 60.5q-146 0 -240 -79t-111 -216l-61 10q20 156 132 249t282 93q164 0 257 -79t93 -218v-819h-59v178h-5q-43 -94 -145 -149q-111 -60 -229 -60q-158 0 -247 78t-89 215zM831 340v369
h-4q-24 -50 -88 -83t-202 -69q-195 -51 -276 -118t-81 -177t73.5 -172.5t203.5 -62.5q155 0 264.5 92t109.5 221zM684 1198l-141 172l-142 -172l-47 37l142 174h92l143 -174zM451 -131h139v-137h-139v137z" />
    <glyph glyph-name="uni1EB8" unicode="&#x1eb8;" horiz-adv-x="1144" 
d="M201 1434h823v-62h-760v-602h703v-59h-703v-650h760v-61h-823v1434zM543 -100h139v-138h-139v138z" />
    <glyph glyph-name="uni1EB9" unicode="&#x1eb9;" horiz-adv-x="1185" 
d="M119 543q0 249 131 411t342 162q217 0 346 -151.5t129 -409.5v-20h-887q2 -234 114 -371t306 -137q279 0 387 264l53 -25q-57 -146 -168.5 -221.5t-269.5 -75.5q-223 0 -353 155t-130 419zM1004 588q-3 212 -116 341.5t-296 129.5q-176 0 -289.5 -134t-122.5 -337h824z
M532 -131h140v-137h-140v137z" />
    <glyph glyph-name="uni1EBC" unicode="&#x1ebc;" horiz-adv-x="1144" 
d="M201 1434h823v-62h-760v-602h703v-59h-703v-650h760v-61h-823v1434zM618 1595q-75 43 -112 43q-67 0 -76 -82h-43q5 66 37 103t86 37q52 0 129 -47q71 -43 113 -43q66 0 75 80h43q-5 -67 -35.5 -103.5t-84.5 -36.5q-55 0 -132 49z" />
    <glyph glyph-name="uni1EBD" unicode="&#x1ebd;" horiz-adv-x="1185" 
d="M119 543q0 249 131 411t342 162q217 0 346 -151.5t129 -409.5v-20h-887q2 -234 114 -371t306 -137q279 0 387 264l53 -25q-57 -146 -168.5 -221.5t-269.5 -75.5q-223 0 -353 155t-130 419zM1004 588q-3 212 -116 341.5t-296 129.5q-176 0 -289.5 -134t-122.5 -337h824z
M582 1278q-75 43 -113 43q-67 0 -76 -82h-43q5 66 37 102.5t86 36.5q52 0 129 -47q71 -43 113 -43q67 0 76 80h43q-5 -66 -36 -102.5t-85 -36.5t-131 49z" />
    <glyph glyph-name="uni1EC6" unicode="&#x1ec6;" horiz-adv-x="1144" 
d="M201 1434h823v-62h-760v-602h703v-59h-703v-650h760v-61h-823v1434zM770 1516l-141 172l-142 -172l-47 36l142 174h92l143 -174zM543 -100h139v-138h-139v138z" />
    <glyph glyph-name="uni1EC7" unicode="&#x1ec7;" horiz-adv-x="1185" 
d="M119 543q0 249 131 411t342 162q217 0 346 -151.5t129 -409.5v-20h-887q2 -234 114 -371t306 -137q279 0 387 264l53 -25q-57 -146 -168.5 -221.5t-269.5 -75.5q-223 0 -353 155t-130 419zM1004 588q-3 212 -116 341.5t-296 129.5q-176 0 -289.5 -134t-122.5 -337h824z
M733 1198l-141 172l-141 -172l-48 37l142 174h92l143 -174zM532 -131h140v-137h-140v137z" />
    <glyph glyph-name="uni1ECA" unicode="&#x1eca;" horiz-adv-x="464" 
d="M201 1434h63v-1434h-63v1434zM164 -100h139v-138h-139v138z" />
    <glyph glyph-name="uni1ECB" unicode="&#x1ecb;" horiz-adv-x="378" 
d="M160 1085h61v-1085h-61v1085zM133 1395h117v-113h-117v113zM119 -100h139v-138h-139v138z" />
    <glyph glyph-name="uni1ECC" unicode="&#x1ecc;" horiz-adv-x="1402" 
d="M100 717q0 335 165.5 541t436.5 206q133 0 245 -54.5t190 -151.5t122 -236.5t44 -304.5q0 -221 -75 -391t-212 -263.5t-314 -93.5q-179 0 -316 93.5t-211.5 263.5t-74.5 391zM1237 717q0 310 -147.5 498t-387.5 188q-243 0 -389.5 -187.5t-146.5 -498.5t146.5 -498.5
t389.5 -187.5q240 0 387.5 188t147.5 498zM633 -131h139v-137h-139v137z" />
    <glyph glyph-name="uni1ECD" unicode="&#x1ecd;" horiz-adv-x="1222" 
d="M119 543q0 253 137 413t354 160t355.5 -160t138.5 -413q0 -252 -138.5 -413t-355.5 -161q-216 0 -353.5 161t-137.5 413zM1042 543q0 228 -120 372t-312 144q-189 0 -309.5 -144.5t-120.5 -371.5t120.5 -371.5t309.5 -144.5q192 0 312 144t120 372zM541 -131h139v-137
h-139v137z" />
    <glyph glyph-name="uni1ED8" unicode="&#x1ed8;" horiz-adv-x="1402" 
d="M100 717q0 335 165.5 541t436.5 206q133 0 245 -54.5t190 -151.5t122 -236.5t44 -304.5q0 -221 -75 -391t-212 -263.5t-314 -93.5q-179 0 -316 93.5t-211.5 263.5t-74.5 391zM1237 717q0 310 -147.5 498t-387.5 188q-243 0 -389.5 -187.5t-146.5 -498.5t146.5 -498.5
t389.5 -187.5q240 0 387.5 188t147.5 498zM844 1546l-142 172l-141 -172l-47 37l141 174h93l143 -174zM633 -131h139v-137h-139v137z" />
    <glyph glyph-name="uni1ED9" unicode="&#x1ed9;" horiz-adv-x="1222" 
d="M119 543q0 253 137 413t354 160t355.5 -160t138.5 -413q0 -252 -138.5 -413t-355.5 -161q-216 0 -353.5 161t-137.5 413zM1042 543q0 228 -120 372t-312 144q-189 0 -309.5 -144.5t-120.5 -371.5t120.5 -371.5t309.5 -144.5q192 0 312 144t120 372zM752 1198l-142 172
l-141 -172l-47 37l141 174h92l144 -174zM541 -131h139v-137h-139v137z" />
    <glyph glyph-name="uni1EE4" unicode="&#x1ee4;" horiz-adv-x="1355" 
d="M190 471v963h64v-961q0 -226 103.5 -334t320.5 -108q215 0 319.5 109t104.5 331v963h65v-963q0 -502 -489 -502q-488 0 -488 502zM608 -131h140v-137h-140v137z" />
    <glyph glyph-name="uni1EE5" unicode="&#x1ee5;" horiz-adv-x="1107" 
d="M139 356v729h62v-708q0 -170 84.5 -260t244.5 -90q154 0 255.5 99t101.5 251v708h61v-1085h-61v178h-4q-50 -99 -145 -154t-216 -55q-180 0 -281.5 102t-101.5 285zM453 -131h139v-137h-139v137z" />
    <glyph glyph-name="Ygrave" unicode="&#x1ef2;" horiz-adv-x="1105" 
d="M520 586l-520 848h74l477 -783h4l477 783h74l-520 -848v-586h-66v586zM356 1763h121l129 -207h-71z" />
    <glyph glyph-name="ygrave" unicode="&#x1ef3;" horiz-adv-x="954" 
d="M446 90l-426 995h68l387 -921h4l387 921h68l-660 -1546h-63zM281 1415h120l129 -207h-71z" />
    <glyph glyph-name="uni1EF4" unicode="&#x1ef4;" horiz-adv-x="1105" 
d="M520 586l-520 848h74l477 -783h4l477 783h74l-520 -848v-586h-66v586zM483 -100h140v-138h-140v138z" />
    <glyph glyph-name="uni1EF5" unicode="&#x1ef5;" horiz-adv-x="954" 
d="M446 90l-426 995h68l387 -921h4l387 921h68l-660 -1546h-63zM545 -100h139v-138h-139v138z" />
    <glyph glyph-name="uni1EF8" unicode="&#x1ef8;" horiz-adv-x="1105" 
d="M520 586l-520 848h74l477 -783h4l477 783h74l-520 -848v-586h-66v586zM543 1595q-75 43 -113 43q-67 0 -76 -82h-43q5 66 37 103t86 37q52 0 129 -47q71 -43 113 -43q67 0 76 80h43q-5 -66 -36 -103t-85 -37t-131 49z" />
    <glyph glyph-name="uni1EF9" unicode="&#x1ef9;" horiz-adv-x="954" 
d="M446 90l-426 995h68l387 -921h4l387 921h68l-660 -1546h-63zM467 1247q-75 43 -113 43q-66 0 -75 -82h-43q5 66 36.5 103t85.5 37q50 0 129 -48q71 -43 113 -43q67 0 76 80h43q-5 -66 -36 -102.5t-85 -36.5t-131 49z" />
    <glyph glyph-name="uni2002" unicode="&#x2002;" horiz-adv-x="1536" 
 />
    <glyph glyph-name="uni2003" unicode="&#x2003;" horiz-adv-x="2048" 
 />
    <glyph glyph-name="uni2004" unicode="&#x2004;" horiz-adv-x="716" 
 />
    <glyph glyph-name="uni2005" unicode="&#x2005;" horiz-adv-x="512" 
 />
    <glyph glyph-name="uni2007" unicode="&#x2007;" 
 />
    <glyph glyph-name="uni2008" unicode="&#x2008;" horiz-adv-x="591" 
 />
    <glyph glyph-name="uni2009" unicode="&#x2009;" horiz-adv-x="307" 
 />
    <glyph glyph-name="uni200A" unicode="&#x200a;" horiz-adv-x="153" 
 />
    <glyph glyph-name="uni200B" unicode="&#x200b;" horiz-adv-x="0" 
 />
    <glyph glyph-name="endash" unicode="&#x2013;" horiz-adv-x="1161" 
d="M137 641h887v-59h-887v59z" />
    <glyph glyph-name="emdash" unicode="&#x2014;" horiz-adv-x="1744" 
d="M137 641h1471v-59h-1471v59z" />
    <glyph glyph-name="quoteleft" unicode="&#x2018;" horiz-adv-x="512" 
d="M332 1376q-35 -7 -48.5 -25.5t-13.5 -56.5h64v-143h-156v125q0 146 154 158v-58z" />
    <glyph glyph-name="quoteright" unicode="&#x2019;" horiz-adv-x="512" 
d="M180 1208q35 7 48.5 25.5t13.5 56.5h-64v144h156v-125q0 -146 -154 -158v57z" />
    <glyph glyph-name="quotesinglbase" unicode="&#x201a;" horiz-adv-x="593" 
d="M221 -82q35 7 48.5 25.5t13.5 56.5h-64v143h156v-125q0 -145 -154 -157v57z" />
    <glyph glyph-name="quotedblleft" unicode="&#x201c;" horiz-adv-x="825" 
d="M373 1376q-35 -7 -48.5 -25.5t-13.5 -56.5h64v-143h-156v125q0 146 154 158v-58zM604 1376q-35 -7 -48 -25t-13 -57h63v-143h-155v125q0 146 153 158v-58z" />
    <glyph glyph-name="quotedblright" unicode="&#x201d;" horiz-adv-x="825" 
d="M221 1208q35 7 48.5 25.5t13.5 56.5h-64v144h156v-125q0 -146 -154 -158v57zM453 1208q35 7 48 25t13 57h-63v144h155v-125q0 -146 -153 -158v57z" />
    <glyph glyph-name="quotedblbase" unicode="&#x201e;" horiz-adv-x="825" 
d="M221 -82q35 7 48.5 25.5t13.5 56.5h-64v143h156v-125q0 -145 -154 -157v57zM453 -82q35 7 48 25t13 57h-63v143h155v-125q0 -145 -153 -157v57z" />
    <glyph glyph-name="dagger" unicode="&#x2020;" horiz-adv-x="1251" 
d="M594 1026h-457v59h457v498h63v-498h457v-59h-457v-1415h-63v1415z" />
    <glyph glyph-name="daggerdbl" unicode="&#x2021;" horiz-adv-x="1251" 
d="M594 59h-457v62h457v905h-457v59h457v467h63v-467h457v-59h-457v-905h457v-62h-457v-448h-63v448z" />
    <glyph glyph-name="bullet" unicode="&#x2022;" horiz-adv-x="645" 
d="M219 795q0 50 28 79t77 29q47 0 74.5 -29t27.5 -79q0 -48 -27.5 -77.5t-74.5 -29.5q-49 0 -77 29.5t-28 77.5z" />
    <glyph glyph-name="ellipsis" unicode="&#x2026;" horiz-adv-x="1388" 
d="M618 150h154v-150h-154v150zM219 150h154v-150h-154v150zM1018 150h153v-150h-153v150z" />
    <glyph glyph-name="perthousand" unicode="&#x2030;" horiz-adv-x="2820" 
d="M494 -96l1003 1671l53 -31l-999 -1667zM158 1004q0 209 89.5 328.5t244.5 119.5q156 0 245.5 -119.5t89.5 -328.5t-90 -329t-245 -120q-154 0 -244 120t-90 329zM766 1004q0 184 -72.5 287.5t-201.5 103.5q-128 0 -200.5 -104t-72.5 -287t73 -287.5t200 -104.5
q129 0 201.5 103.5t72.5 288.5zM1186 430q0 209 90 329t246 120t246 -120t90 -329t-90 -328.5t-246 -119.5t-246 119.5t-90 328.5zM1993 430q0 209 90 329t246 120q155 0 244 -120t89 -329t-89 -328.5t-244 -119.5q-156 0 -246 119.5t-90 328.5zM1794 430q0 183 -72.5 287
t-199.5 104q-129 0 -202 -104t-73 -287t73 -287t202 -104q127 0 199.5 104t72.5 287zM2601 430q0 185 -71.5 288t-200.5 103t-202 -104t-73 -287t73 -287t202 -104t200.5 103t71.5 288z" />
    <glyph glyph-name="guilsinglleft" unicode="&#x2039;" horiz-adv-x="622" 
d="M178 582l219 376h68l-223 -376l223 -379h-68z" />
    <glyph glyph-name="guilsinglright" unicode="&#x203a;" horiz-adv-x="622" 
d="M158 203l223 379l-223 376h67l219 -376l-219 -379h-67z" />
    <glyph glyph-name="fraction" unicode="&#x2044;" horiz-adv-x="425" 
d="M-313 -96l1001 1671l51 -29l-1001 -1669z" />
    <glyph glyph-name="uni207A" unicode="&#x207a;" horiz-adv-x="905" 
d="M748 408h-267v-269h-57v269h-266v53h266v260h57v-260h267v-53z" />
    <glyph glyph-name="uni207B" unicode="&#x207b;" horiz-adv-x="843" 
d="M158 461h528v-53h-528v53z" />
    <glyph glyph-name="lira" unicode="&#x20a4;" horiz-adv-x="1081" 
d="M1001 748q0 -335 -166 -541.5t-434 -206.5h-65v784l-217 -77l-21 51l238 86v221l-217 -78l-21 51l238 86v310h65v-285l342 125l21 -53l-363 -131v-222l342 125l21 -53l-363 -131v-748q159 0 281 85.5t189 241.5t67 360h63z" />
    <glyph glyph-name="uni20A8" unicode="&#x20a8;" horiz-adv-x="1255" 
d="M821 1378v-4q202 -81 211 -311h123v-57h-123q-7 -159 -108.5 -254.5t-276.5 -112.5v-4l332 -635h-74l-327 635h-418v61h415q180 0 282.5 80.5t109.5 229.5h-807v57h807q-7 152 -107 230.5t-285 78.5h-415v62h995v-56h-334z" />
    <glyph glyph-name="uni20A9" unicode="&#x20a9;" horiz-adv-x="1812" 
d="M1602 934l-52 -248h222v-53h-232l-127 -633h-65l-207 633h-465l-209 -633h-68l-127 633h-231v53h221l-51 248h-170v51h160l-90 449h63l88 -449h469l148 449h57l147 -449h469l88 449h62l-90 -449h160v-51h-170zM791 985h235l-115 352h-4zM322 686h311l82 248h-443z
M1124 686l-82 248h-268l-82 -248h432zM1542 934h-442l80 -248h313zM616 633h-284l104 -535h4zM1483 633h-285l174 -535h4z" />
    <glyph glyph-name="Euro" unicode="&#x20ac;" horiz-adv-x="1607" 
d="M1507 473q-41 -240 -200 -371q-165 -133 -406 -133q-250 0 -424 154q-172 153 -219 418h-207v55h199q-6 58 -6 123q0 14 4 100h-197v55h205q40 269 214.5 429.5t432.5 160.5q239 0 398 -127.5t202 -353.5l-63 -10q-41 205 -182 317.5t-357 112.5q-232 0 -387 -143
q-154 -142 -195 -386h725v-55h-733q-4 -86 -4 -100q0 -76 8 -123h570v-55h-561q43 -236 197 -373t380 -137q222 0 362.5 117.5t178.5 336.5z" />
    <glyph glyph-name="uni20BD" unicode="&#x20bd;" horiz-adv-x="1417" 
d="M385 346h453v-55h-453v-291h-63v291h-224v55h224v242h-224v55h224v791h487q222 0 345.5 -111t123.5 -313q0 -203 -121.5 -312.5t-347.5 -109.5h-424v-242zM385 649h422q196 0 301.5 93.5t105.5 267.5q0 177 -104.5 269.5t-302.5 92.5h-422v-723z" />
    <glyph glyph-name="uni2116" unicode="&#x2116;" horiz-adv-x="2156" 
d="M1376 1004q0 209 89.5 328.5t244.5 119.5q156 0 246 -119.5t90 -328.5t-90 -329t-246 -120q-154 0 -244 120t-90 329zM199 1434h82l800 -1338h4v1338h64v-1434h-82l-801 1337h-4v-1337h-63v1434zM1985 1004q0 183 -73 287t-202 104t-200.5 -103t-71.5 -288t71.5 -288.5
t200.5 -103.5t202 104.5t73 287.5zM1376 412h670v-54h-670v54z" />
    <glyph glyph-name="uni2117" unicode="&#x2117;" horiz-adv-x="1507" 
d="M137 662q-3 180 81 326t226 225.5t310 76.5q168 3 310 -76.5t225.5 -225.5t80.5 -326q2 -135 -46.5 -254t-132 -201.5t-198 -129t-239.5 -44.5q-168 -3 -310 76.5t-226 226t-81 326.5zM1317 662q0 171 -75 304t-203 204t-285 71q-156 0 -284 -71t-204 -204t-76 -304
t76 -304t204 -203.5t284 -70.5q157 0 285 70.5t203 203.5t75 304zM565 1024h262q115 0 177.5 -57.5t62.5 -163.5q0 -103 -62.5 -160t-175.5 -57h-206v-291h-58v729zM823 639q90 0 138.5 43t48.5 123q0 82 -48.5 125t-140.5 43h-198v-334h200z" />
    <glyph glyph-name="trademark" unicode="&#x2122;" horiz-adv-x="1548" 
d="M350 1384h-223v50h500v-50h-224v-645h-53v645zM766 1434h70l251 -611h3l251 611h70v-695h-51v602h-2l-252 -602h-35l-252 602h-2v-602h-51v695z" />
    <glyph glyph-name="oneeighth" unicode="&#x215b;" horiz-adv-x="1701" 
d="M272 1368l-213 -133v61l217 138h54v-861h-58v795zM178 -96l1002 1671l51 -29l-1002 -1669zM987 231q0 83 52.5 145t140.5 87v2q-142 53 -142 188q0 100 76 163t195 63q121 0 196.5 -63t75.5 -163q0 -134 -143 -188v-2q88 -25 141 -87t53 -145q0 -115 -87.5 -182
t-235.5 -67q-146 0 -234 68t-88 181zM1526 651q0 78 -60 127t-157 49q-94 0 -154.5 -49t-60.5 -127q0 -75 58.5 -120.5t156.5 -45.5q99 0 158 45.5t59 120.5zM1573 236q0 88 -73.5 143t-190.5 55q-116 0 -189 -55t-73 -143q0 -91 71.5 -145t190.5 -54q121 0 192.5 54
t71.5 145z" />
    <glyph glyph-name="threeeighths" unicode="&#x215c;" horiz-adv-x="1937" 
d="M59 850l60 6q1 -122 65.5 -184t184.5 -62q106 0 168.5 53.5t62.5 145.5q0 201 -256 201h-45v51h43q104 0 166.5 47.5t62.5 126.5q0 73 -55.5 117.5t-146.5 44.5q-197 0 -232 -185l-57 9q20 109 96 170t193 61q114 0 187 -59.5t73 -155.5q0 -138 -146 -195v-2
q174 -52 174 -233q0 -115 -79 -183.5t-209 -68.5q-143 0 -224.5 77t-85.5 218zM414 -96l1001 1671l51 -29l-1001 -1669zM1223 231q0 83 52 145t140 87v2q-141 53 -141 188q0 100 75.5 163t194.5 63q121 0 197 -63t76 -163q0 -134 -144 -188v-2q88 -25 141.5 -87t53.5 -145
q0 -115 -88 -182t-236 -67q-146 0 -233.5 68t-87.5 181zM1761 651q0 78 -60 127t-157 49q-94 0 -154.5 -49t-60.5 -127q0 -75 58.5 -120.5t156.5 -45.5q99 0 158 45.5t59 120.5zM1808 236q0 88 -73.5 143t-190.5 55q-116 0 -189 -55t-73 -143q0 -91 71.5 -145t190.5 -54
q121 0 192.5 54t71.5 145z" />
    <glyph glyph-name="fiveeighths" unicode="&#x215d;" horiz-adv-x="1976" 
d="M70 793l55 14q17 -96 83.5 -146.5t172.5 -50.5q115 0 185.5 68.5t70.5 181.5t-69.5 180.5t-186.5 67.5q-68 0 -129.5 -30.5t-106.5 -84.5l-51 13l86 428h443v-56h-398l-63 -305l2 -2q89 86 223 86q137 0 223 -81t86 -214q0 -137 -87 -222t-228 -85q-124 0 -207.5 64
t-103.5 174zM453 -96l1001 1671l51 -29l-1001 -1669zM1262 231q0 83 52 145t140 87v2q-141 53 -141 188q0 100 75.5 163t194.5 63q121 0 196.5 -63t75.5 -163q0 -134 -143 -188v-2q88 -25 141.5 -87t53.5 -145q0 -115 -88 -182t-236 -67q-146 0 -233.5 68t-87.5 181z
M1800 651q0 78 -60 127t-157 49q-94 0 -154.5 -49t-60.5 -127q0 -75 58.5 -120.5t156.5 -45.5q99 0 158 45.5t59 120.5zM1847 236q0 88 -73.5 143t-190.5 55q-116 0 -189 -55t-73 -143q0 -91 71.5 -145t190.5 -54q121 0 192.5 54t71.5 145z" />
    <glyph glyph-name="seveneighths" unicode="&#x215e;" horiz-adv-x="1724" 
d="M500 1376v2h-500v56h565v-52l-387 -809h-67zM201 -96l1001 1671l51 -29l-1001 -1669zM1010 231q0 83 52 145t140 87v2q-141 53 -141 188q0 100 75.5 163t194.5 63q121 0 197 -63t76 -163q0 -134 -144 -188v-2q88 -25 141.5 -87t53.5 -145q0 -115 -88 -182t-236 -67
q-146 0 -233.5 68t-87.5 181zM1548 651q0 78 -60 127t-157 49q-94 0 -154.5 -49t-60.5 -127q0 -75 58.5 -120.5t156.5 -45.5q99 0 158 45.5t59 120.5zM1595 236q0 88 -73.5 143t-190.5 55q-116 0 -189 -55t-73 -143q0 -91 71.5 -145t190.5 -54q121 0 192.5 54t71.5 145z" />
    <glyph glyph-name="arrowleft" unicode="&#x2190;" horiz-adv-x="1466" 
d="M1329 680h-1079l387 -371l-43 -45l-457 445l457 444l43 -45l-385 -369h1077v-59z" />
    <glyph glyph-name="arrowup" unicode="&#x2191;" horiz-adv-x="1163" 
d="M981 813l-369 385v-1077h-61v1077l-369 -385l-45 45l445 457l444 -457z" />
    <glyph glyph-name="arrowright" unicode="&#x2192;" horiz-adv-x="1466" 
d="M1329 709l-457 -445l-43 45l388 371h-1080v59h1077l-385 369l43 45z" />
    <glyph glyph-name="arrowdown" unicode="&#x2193;" horiz-adv-x="1163" 
d="M1026 578l-444 -457l-445 457l45 45l369 -385v1077h61v-1077l369 385z" />
    <glyph glyph-name="arrowboth" unicode="&#x2194;" horiz-adv-x="1622" 
d="M1487 709l-459 -445l-43 45l393 373h-1134l393 -373l-41 -45l-459 445l459 444l41 -43l-391 -373h1130l-391 373l43 43z" />
    <glyph glyph-name="arrowupdn" unicode="&#x2195;" horiz-adv-x="1163" 
d="M981 561l45 -45l-444 -459l-445 459l45 45l371 -391v1090l-371 -390l-45 43l445 459l444 -459l-45 -43l-371 390v-1090z" />
    <glyph glyph-name="uni2196" unicode="&#x2196;" horiz-adv-x="1136" 
d="M961 285l-766 766l12 -539h-62l-8 639l637 -10l-2 -60l-536 13l765 -766z" />
    <glyph glyph-name="uni2197" unicode="&#x2197;" horiz-adv-x="1136" 
d="M901 1094l-536 -13l-3 60l637 10l-8 -639h-61l12 539l-766 -766l-41 43z" />
    <glyph glyph-name="uni2198" unicode="&#x2198;" horiz-adv-x="1136" 
d="M176 1149l766 -766l-12 539h61l8 -639l-637 10l3 59l536 -12l-766 766z" />
    <glyph glyph-name="uni2199" unicode="&#x2199;" horiz-adv-x="1136" 
d="M236 342l536 12l2 -59l-637 -10l8 639h62l-12 -539l766 766l40 -43z" />
    <glyph glyph-name="uni21B3" unicode="&#x21b3;" horiz-adv-x="1454" 
d="M1317 709l-457 -445l-43 45l387 371h-964v754h61v-695h901l-385 369l43 45z" />
    <glyph glyph-name="partialdiff" unicode="&#x2202;" horiz-adv-x="1185" 
d="M1085 799q0 -828 -512 -828q-217 0 -335.5 133t-118.5 375q0 254 119 398.5t329 144.5q226 0 451 -135q-11 334 -99.5 497.5t-259.5 163.5q-129 0 -231 -114l-45 43q116 131 276 131q426 0 426 -809zM1020 799v20q-236 144 -449 144q-183 0 -286 -128t-103 -356
q0 -213 102.5 -329.5t288.5 -116.5q226 0 336.5 189t110.5 577z" />
    <glyph glyph-name="emptyset" unicode="&#x2205;" horiz-adv-x="1761" 
d="M1624 717q3 -205 -95.5 -378.5t-271 -273.5t-376.5 -96q-260 0 -455 150l-178 -215l-47 37l178 217q-116 103 -179 248t-63 311q-3 153 55 293t157.5 240t239 158.5t292.5 55.5q261 0 452 -147l180 217l48 -41l-179 -217q116 -103 179 -248t63 -311zM420 207l874 1061
q-182 133 -413 133q-141 2 -267.5 -51t-216.5 -144.5t-142 -219.5t-50 -269q0 -153 56 -284.5t159 -225.5zM1556 717q0 153 -56 284.5t-159 225.5l-876 -1059q176 -135 416 -135q140 -2 266 51t216.5 144.5t142.5 219.5t50 269z" />
    <glyph glyph-name="product" unicode="&#x220f;" horiz-adv-x="1497" 
d="M324 1372h-252v62h1353v-62h-254v-1661h-61v1661h-723v-1661h-63v1661z" />
    <glyph glyph-name="summation" unicode="&#x2211;" horiz-adv-x="1251" 
d="M178 -143l584 757l-584 758v62h946v-60h-868l586 -760l-586 -759h868v-60h-946v62z" />
    <glyph glyph-name="minus" unicode="&#x2212;" horiz-adv-x="1110" 
d="M158 784h794v-57h-794v57z" />
    <glyph glyph-name="radical" unicode="&#x221a;" horiz-adv-x="1333" 
d="M1296 1434l-581 -1434h-58l-303 756h-278v61h323l285 -723h4l533 1340h75z" />
    <glyph glyph-name="infinity" unicode="&#x221e;" horiz-adv-x="1536" 
d="M158 623q0 167 85 269.5t222 102.5q209 0 303 -278q94 278 307 278q135 0 220 -103.5t85 -268.5q0 -166 -85 -269.5t-220 -103.5q-213 0 -307 278q-94 -278 -303 -278q-137 0 -222 103t-85 270zM743 623q-37 153 -109 235t-169 82q-110 0 -180 -88.5t-70 -228.5t70 -230
t180 -90q97 0 169 83t109 237zM1323 623q0 139 -70.5 228t-179.5 89q-97 0 -169 -82t-109 -235q37 -154 109 -237t169 -83q109 0 179.5 90.5t70.5 229.5z" />
    <glyph glyph-name="integral" unicode="&#x222b;" horiz-adv-x="999" 
d="M158 -430q181 0 245 73t64 279v1190q0 233 81.5 322.5t293.5 89.5v-62q-184 0 -247 -72.5t-63 -279.5v-1190q0 -232 -81 -322t-293 -90v62z" />
    <glyph glyph-name="approxequal" unicode="&#x2248;" horiz-adv-x="1234" 
d="M158 786q17 110 77 172t152 62q59 0 108.5 -21t139.5 -77q78 -51 120.5 -71t92.5 -20q72 0 117.5 48t58.5 141l55 -12q-17 -107 -78 -170.5t-151 -63.5q-59 0 -108.5 21t-139.5 77q-78 51 -120.5 71t-92.5 20q-146 0 -176 -189zM158 477q17 110 77 172t152 62
q59 0 108 -21t140 -78q77 -51 120 -70.5t93 -19.5q72 0 117.5 48t58.5 141l55 -13q-17 -107 -78 -170t-151 -63q-59 0 -108.5 21t-139.5 77q-77 51 -120 70.5t-93 19.5q-146 0 -176 -188z" />
    <glyph glyph-name="notequal" unicode="&#x2260;" horiz-adv-x="1155" 
d="M694 887l-172 -309h475v-60h-508l-127 -227l-43 22l113 205h-274v60h307l172 309h-479v59h512l125 225l45 -22l-113 -203h270v-59h-303z" />
    <glyph glyph-name="lessequal" unicode="&#x2264;" horiz-adv-x="1163" 
d="M158 758v69l786 473l35 -49l-760 -458l758 -459l-33 -49zM158 0v59h848v-59h-848z" />
    <glyph glyph-name="greaterequal" unicode="&#x2265;" horiz-adv-x="1163" 
d="M186 334l758 459l-760 458l35 49l787 -473v-69l-787 -473zM158 59h848v-59h-848v59z" />
    <glyph glyph-name="lozenge" unicode="&#x25ca;" horiz-adv-x="1288" 
d="M158 717l444 717h84l444 -717l-444 -717h-84zM1061 717l-418 672l-418 -672l418 -670z" />
    <glyph glyph-name="uniF8FF" unicode="&#xf8ff;" horiz-adv-x="1404" 
d="M102 866q-3 115 46.5 226.5t132 193.5t193.5 131t226 47q116 2 228.5 -47t195.5 -131t132.5 -193.5t46.5 -226.5v-866h-58l-133 133l-139 -133l-129 133l-146 -133l-141 133l-129 -133l-137 133l-135 -133h-54v866zM588 772q0 62 -42.5 105t-103.5 43q-60 0 -102.5 -43.5
t-42.5 -104.5q0 -60 42.5 -101.5t102.5 -41.5t103 41.5t43 101.5zM1110 772q0 62 -43 105t-104 43q-60 0 -102 -43t-42 -105q0 -57 43.5 -100t100.5 -43q60 0 103.5 43t43.5 100z" />
    <glyph glyph-name="uniFEFF" unicode="&#xfeff;" horiz-adv-x="0" 
 />
    <glyph glyph-name="NULL" horiz-adv-x="0" 
 />
    <glyph glyph-name="_123" horiz-adv-x="1140" 
d="M537 1372h-465v62h997v-62h-467v-1372h-65v1372z" />
    <glyph glyph-name="_125" horiz-adv-x="1140" 
d="M537 1372h-465v62h997v-62h-467v-1372h-65v1372zM231 748h678v-56h-678v56z" />
    <glyph glyph-name="_127" horiz-adv-x="1140" 
d="M537 1372h-465v62h997v-62h-467v-1372h-65v1372zM758 1710l-144 -174h-92l-141 174l47 37l141 -170l142 170z" />
    <glyph glyph-name="_129" horiz-adv-x="1140" 
d="M537 1372h-465v62h997v-62h-467v-1372h-65v1372zM795 -246q0 -72 -52.5 -119t-130.5 -47q-112 0 -184 84l41 37q32 -38 65.5 -54.5t77.5 -16.5q54 0 91.5 33.5t37.5 82.5q0 51 -33 81t-87 30q-81 0 -136 -64l-43 21l113 207l43 -25l-72 -121q44 27 99 27q74 0 122 -43.5
t48 -112.5z" />
    <glyph glyph-name="_131" horiz-adv-x="1140" 
d="M537 1372h-465v62h997v-62h-467v-1372h-65v1372zM506 -293q29 6 40 21.5t11 48.5h-53v121h133v-105q0 -123 -131 -135v49z" />
    <glyph glyph-name="_133" horiz-adv-x="1140" 
d="M537 1372h-465v62h997v-62h-467v-1372h-65v1372zM500 -100h139v-138h-139v138z" />
    <glyph glyph-name="i.locl" horiz-adv-x="378" 
d="M160 1085h61v-1085h-61v1085zM133 1395h117v-113h-117v113z" />
    <glyph glyph-name="A.ordn" horiz-adv-x="538" 
d="M41 1008q0 72 50.5 114t168.5 68q87 20 121.5 43.5t34.5 60.5q0 54 -37 81.5t-107 27.5q-73 0 -119.5 -40.5t-54.5 -109.5l-51 9q7 84 69.5 135t155.5 51q91 0 144 -44.5t53 -119.5v-416h-49v78h-2q-25 -41 -78.5 -66.5t-116.5 -25.5q-85 0 -133.5 41t-48.5 113z
M418 1051v170h-2q-11 -24 -43.5 -39t-106.5 -35q-94 -23 -134 -54.5t-40 -82.5t36 -80t99 -29q81 0 136 43.5t55 106.5z" />
    <glyph glyph-name="B.ccmp" horiz-adv-x="612" 
d="M573 1151q0 -134 -72.5 -215.5t-193.5 -81.5q-55 0 -105.5 24t-76.5 62h-2v-72h-53v779h53v-285h2q64 86 182 86q121 0 193.5 -81.5t72.5 -215.5zM520 1151q0 115 -59 181.5t-158 66.5q-71 0 -125.5 -45t-54.5 -101v-204q0 -56 54.5 -101t125.5 -45q98 0 157.5 68
t59.5 180z" />
    <glyph glyph-name="C.ccmp" horiz-adv-x="593" 
d="M39 1151q0 130 75 213.5t191 83.5q95 0 165 -56.5t83 -148.5l-51 -10q-17 81 -69 123.5t-128 42.5q-92 0 -152.5 -71t-60.5 -177t60.5 -177t152.5 -71q76 0 128 42.5t69 123.5l51 -10q-13 -92 -83 -148.5t-165 -56.5q-116 0 -191 83.5t-75 213.5z" />
    <glyph glyph-name="D.ccmp" horiz-adv-x="612" 
d="M487 1362h2v285h54v-779h-54v72h-2q-26 -38 -76.5 -62t-105.5 -24q-121 0 -193.5 81.5t-72.5 215.5t72.5 215.5t193.5 81.5q118 0 182 -86zM489 1049v204q0 56 -54.5 101t-125.5 45q-99 0 -158 -66.5t-59 -181.5q0 -112 59.5 -180t157.5 -68q71 0 125.5 45t54.5 101z" />
    <glyph glyph-name="E.ccmp" horiz-adv-x="602" 
d="M563 1135h-469q1 -110 56.5 -171t152.5 -61q72 0 119 31t78 98l45 -26q-68 -152 -244 -152q-121 0 -191.5 80t-70.5 217q0 129 73.5 213t188.5 84q118 0 190 -79t72 -210v-24zM508 1180q0 100 -56.5 159.5t-150.5 59.5q-88 0 -144.5 -60.5t-62.5 -158.5h414z" />
    <glyph glyph-name="F.ccmp" horiz-adv-x="325" 
d="M106 1386h-88v48h88v67q0 113 119 113h72v-45h-70q-69 0 -69 -70v-65h149v-48h-149v-518h-52v518z" />
    <glyph glyph-name="G.ccmp" horiz-adv-x="612" 
d="M86 760l45 22q53 -127 182 -127q81 0 128.5 51t47.5 138v96h-2q-27 -39 -77 -62.5t-109 -23.5q-117 0 -189.5 82t-72.5 215q0 131 74 214t192 83q58 0 108 -23t76 -63h3v72h51v-588q0 -106 -63 -173t-167 -67q-79 0 -138.5 40t-88.5 114zM489 1040v211q0 62 -52.5 105
t-127.5 43q-98 0 -157.5 -68.5t-59.5 -181.5q0 -111 58.5 -178.5t156.5 -67.5q74 0 128 41t54 96z" />
    <glyph glyph-name="H.ccmp" horiz-adv-x="593" 
d="M70 1647h53v-299h2q29 47 79 73.5t111 26.5q98 0 159 -59t61 -156v-365h-54v346q0 87 -44.5 137t-127.5 50q-84 0 -135 -51.5t-51 -132.5v-349h-53v779z" />
    <glyph glyph-name="I.ordn" horiz-adv-x="221" 
d="M70 1608h80v-78h-80v78zM84 1434h53v-566h-53v566z" />
    <glyph glyph-name="J.ordn" horiz-adv-x="221" 
d="M70 1608h82v-78h-82v78zM-25 752h45q35 0 50.5 14.5t15.5 46.5v621h51v-623q0 -57 -26.5 -81.5t-87.5 -24.5h-48v47z" />
    <glyph glyph-name="K.ccmp" horiz-adv-x="489" 
d="M70 1647h53v-508h2l272 295h74l-213 -224l221 -342h-61l-193 303h-2l-100 -104v-199h-53v779z" />
    <glyph glyph-name="L.ccmp" horiz-adv-x="192" 
d="M70 1647h53v-779h-53v779z" />
    <glyph glyph-name="M.ccmp" horiz-adv-x="884" 
d="M70 1434h53v-70h2q25 39 67 61.5t91 22.5q61 0 108 -28.5t64 -76.5h2q25 48 72.5 76.5t103.5 28.5q85 0 138.5 -51t53.5 -133v-396h-53v387q0 65 -39.5 104.5t-103.5 39.5q-69 0 -113.5 -42.5t-44.5 -109.5v-379h-49v387q0 63 -40 103.5t-106 40.5q-67 0 -110 -43
t-43 -111v-377h-53v566z" />
    <glyph glyph-name="N.ccmp" horiz-adv-x="593" 
d="M70 1434h53v-84h2q30 45 80.5 71.5t109.5 26.5q98 0 159 -59t61 -156v-365h-54v346q0 86 -44.5 135.5t-127.5 49.5q-84 0 -135 -51t-51 -131v-349h-53v566z" />
    <glyph glyph-name="O.ordn" horiz-adv-x="620" 
d="M39 1151q0 130 76.5 213.5t195.5 83.5t195 -83.5t76 -213.5t-76 -213.5t-195 -83.5t-195.5 83.5t-76.5 213.5zM528 1151q0 110 -60 179t-157 69q-98 0 -158.5 -69t-60.5 -179t60.5 -179t158.5 -69q97 0 157 69t60 179z" />
    <glyph glyph-name="P.ccmp" horiz-adv-x="614" 
d="M573 1151q0 -133 -72.5 -215t-191.5 -82q-57 0 -107.5 23.5t-76.5 64.5h-2v-321h-53v813h53v-74h2q26 41 76 64.5t108 23.5q119 0 191.5 -82t72.5 -215zM522 1151q0 115 -59 181.5t-158 66.5q-73 0 -127.5 -45t-54.5 -101v-204q0 -56 54.5 -101t127.5 -45q98 0 157.5 68
t59.5 180z" />
    <glyph glyph-name="Q.ccmp" horiz-adv-x="614" 
d="M489 1360h3v74h53v-813h-53v321h-3q-26 -41 -76.5 -64.5t-107.5 -23.5q-119 0 -191.5 82t-72.5 215t72.5 215t191.5 82q58 0 108 -23.5t76 -64.5zM492 1049v204q0 56 -55 101t-128 45q-99 0 -158 -66.5t-59 -181.5q0 -112 59.5 -180t157.5 -68q73 0 128 45t55 101z" />
    <glyph glyph-name="R.ccmp" horiz-adv-x="311" 
d="M303 1436l-10 -52q-28 7 -51 7q-57 0 -88 -42.5t-31 -117.5v-363h-53v566h51v-50h2q18 25 51.5 41.5t69.5 16.5q35 0 59 -6z" />
    <glyph glyph-name="S.ccmp" horiz-adv-x="573" 
d="M59 1061l52 10q21 -170 194 -170q74 0 115 31t41 88q0 44 -38 70.5t-138 52.5q-113 26 -158 60.5t-45 94.5q0 66 53.5 108t138.5 42q88 0 146.5 -43t75.5 -121l-52 -10q-12 61 -55.5 94t-112.5 33q-62 0 -101.5 -29t-39.5 -74q0 -36 34.5 -58.5t129.5 -49.5
q122 -35 168.5 -71.5t46.5 -96.5q0 -78 -56 -123t-153 -45q-106 0 -170 53.5t-76 153.5z" />
    <glyph glyph-name="T.ccmp" horiz-adv-x="319" 
d="M154 1384v-405q0 -32 14 -45.5t49 -13.5h66v-52h-68q-60 0 -87.5 26.5t-27.5 82.5v407h-82v50h82v120h54v-120h147v-50h-147z" />
    <glyph glyph-name="U.ccmp" horiz-adv-x="577" 
d="M508 1434v-566h-51v86h-2q-26 -47 -76.5 -73.5t-112.5 -26.5q-207 0 -207 219v361h54v-353q0 -92 38.5 -135t120.5 -43t132.5 51t50.5 133v347h53z" />
    <glyph glyph-name="V.ccmp" horiz-adv-x="575" 
d="M29 1434h59l201 -490h2l198 490h58l-236 -566h-45z" />
    <glyph glyph-name="W.ccmp" horiz-adv-x="804" 
d="M29 1434h53l121 -480h2l168 480h57l170 -480h2l121 480h53l-141 -566h-53l-179 500h-2l-180 -500h-51z" />
    <glyph glyph-name="X.ccmp" horiz-adv-x="542" 
d="M240 1159l-201 275h63l168 -240h2l168 240h64l-201 -275l211 -291h-65l-177 250h-2l-176 -250h-65z" />
    <glyph glyph-name="Y.ccmp" horiz-adv-x="557" 
d="M528 1434l-352 -813h-57l135 313l-225 500h61l191 -437h2l186 437h59z" />
    <glyph glyph-name="Z.ccmp" horiz-adv-x="546" 
d="M29 913l413 469v2h-397v50h469v-45l-414 -469v-2h418v-50h-489v45z" />
    <glyph glyph-name="a.salt" horiz-adv-x="1163" 
d="M1004 1085v-1085h-60v145h-4q-50 -79 -144.5 -127.5t-199.5 -48.5q-213 0 -345 157.5t-132 416.5q0 258 132 415.5t345 157.5q105 0 199.5 -48.5t144.5 -127.5h4v145h60zM942 311v463q0 110 -103 197.5t-243 87.5q-186 0 -301 -141.5t-115 -374.5t115 -374.5t301 -141.5
q140 0 243 87.5t103 196.5z" />
    <glyph glyph-name="aacute.salt" horiz-adv-x="1163" 
d="M1004 1085v-1085h-60v145h-4q-50 -79 -144.5 -127.5t-199.5 -48.5q-213 0 -345 157.5t-132 416.5q0 258 132 415.5t345 157.5q105 0 199.5 -48.5t144.5 -127.5h4v145h60zM942 311v463q0 110 -103 197.5t-243 87.5q-186 0 -301 -141.5t-115 -374.5t115 -374.5t301 -141.5
q140 0 243 87.5t103 196.5zM676 1446h123l-181 -207h-69z" />
    <glyph glyph-name="abreve.salt" horiz-adv-x="1163" 
d="M1004 1085v-1085h-60v145h-4q-50 -79 -144.5 -127.5t-199.5 -48.5q-213 0 -345 157.5t-132 416.5q0 258 132 415.5t345 157.5q105 0 199.5 -48.5t144.5 -127.5h4v145h60zM942 311v463q0 110 -103 197.5t-243 87.5q-186 0 -301 -141.5t-115 -374.5t115 -374.5t301 -141.5
q140 0 243 87.5t103 196.5zM397 1415h47q22 -127 156 -127q65 0 105 33t51 94h45q-5 -89 -58 -142.5t-143 -53.5t-144 53.5t-59 142.5z" />
    <glyph glyph-name="uni01CE.salt" horiz-adv-x="1163" 
d="M1004 1085v-1085h-60v145h-4q-50 -79 -144.5 -127.5t-199.5 -48.5q-213 0 -345 157.5t-132 416.5q0 258 132 415.5t345 157.5q105 0 199.5 -48.5t144.5 -127.5h4v145h60zM942 311v463q0 110 -103 197.5t-243 87.5q-186 0 -301 -141.5t-115 -374.5t115 -374.5t301 -141.5
q140 0 243 87.5t103 196.5zM788 1393l-143 -174h-92l-141 174l47 37l141 -170l141 170z" />
    <glyph glyph-name="acircumflex.salt" horiz-adv-x="1163" 
d="M1004 1085v-1085h-60v145h-4q-50 -79 -144.5 -127.5t-199.5 -48.5q-213 0 -345 157.5t-132 416.5q0 258 132 415.5t345 157.5q105 0 199.5 -48.5t144.5 -127.5h4v145h60zM942 311v463q0 110 -103 197.5t-243 87.5q-186 0 -301 -141.5t-115 -374.5t115 -374.5t301 -141.5
q140 0 243 87.5t103 196.5zM741 1198l-141 172l-141 -172l-47 37l141 174h92l143 -174z" />
    <glyph glyph-name="uni1EAD.salt" horiz-adv-x="1163" 
d="M1004 1085v-1085h-60v145h-4q-50 -79 -144.5 -127.5t-199.5 -48.5q-213 0 -345 157.5t-132 416.5q0 258 132 415.5t345 157.5q105 0 199.5 -48.5t144.5 -127.5h4v145h60zM942 311v463q0 110 -103 197.5t-243 87.5q-186 0 -301 -141.5t-115 -374.5t115 -374.5t301 -141.5
q140 0 243 87.5t103 196.5zM741 1198l-141 172l-141 -172l-47 37l141 174h92l143 -174zM530 -131h140v-137h-140v137z" />
    <glyph glyph-name="adieresis.salt" horiz-adv-x="1163" 
d="M1004 1085v-1085h-60v145h-4q-50 -79 -144.5 -127.5t-199.5 -48.5q-213 0 -345 157.5t-132 416.5q0 258 132 415.5t345 157.5q105 0 199.5 -48.5t144.5 -127.5h4v145h60zM942 311v463q0 110 -103 197.5t-243 87.5q-186 0 -301 -141.5t-115 -374.5t115 -374.5t301 -141.5
q140 0 243 87.5t103 196.5zM367 1356h139v-137h-139v137zM694 1356h140v-137h-140v137z" />
    <glyph glyph-name="uni01DF.salt" horiz-adv-x="1163" 
d="M1004 1085v-1085h-60v145h-4q-50 -79 -144.5 -127.5t-199.5 -48.5q-213 0 -345 157.5t-132 416.5q0 258 132 415.5t345 157.5q105 0 199.5 -48.5t144.5 -127.5h4v145h60zM942 311v463q0 110 -103 197.5t-243 87.5q-186 0 -301 -141.5t-115 -374.5t115 -374.5t301 -141.5
q140 0 243 87.5t103 196.5zM367 1356h139v-137h-139v137zM694 1356h140v-137h-140v137zM362 1493h474v-55h-474v55z" />
    <glyph glyph-name="uni1EA1.salt" horiz-adv-x="1163" 
d="M1004 1085v-1085h-60v145h-4q-50 -79 -144.5 -127.5t-199.5 -48.5q-213 0 -345 157.5t-132 416.5q0 258 132 415.5t345 157.5q105 0 199.5 -48.5t144.5 -127.5h4v145h60zM942 311v463q0 110 -103 197.5t-243 87.5q-186 0 -301 -141.5t-115 -374.5t115 -374.5t301 -141.5
q140 0 243 87.5t103 196.5zM530 -131h140v-137h-140v137z" />
    <glyph glyph-name="agrave.salt" horiz-adv-x="1163" 
d="M1004 1085v-1085h-60v145h-4q-50 -79 -144.5 -127.5t-199.5 -48.5q-213 0 -345 157.5t-132 416.5q0 258 132 415.5t345 157.5q105 0 199.5 -48.5t144.5 -127.5h4v145h60zM942 311v463q0 110 -103 197.5t-243 87.5q-186 0 -301 -141.5t-115 -374.5t115 -374.5t301 -141.5
q140 0 243 87.5t103 196.5zM403 1446h121l129 -207h-71z" />
    <glyph glyph-name="amacron.salt" horiz-adv-x="1163" 
d="M1004 1085v-1085h-60v145h-4q-50 -79 -144.5 -127.5t-199.5 -48.5q-213 0 -345 157.5t-132 416.5q0 258 132 415.5t345 157.5q105 0 199.5 -48.5t144.5 -127.5h4v145h60zM942 311v463q0 110 -103 197.5t-243 87.5q-186 0 -301 -141.5t-115 -374.5t115 -374.5t301 -141.5
q140 0 243 87.5t103 196.5zM362 1294h474v-55h-474v55z" />
    <glyph glyph-name="aogonek.salt" horiz-adv-x="1163" 
d="M1004 1085v-1085h-60v145h-4q-50 -79 -144.5 -127.5t-199.5 -48.5q-213 0 -345 157.5t-132 416.5q0 258 132 415.5t345 157.5q105 0 199.5 -48.5t144.5 -127.5h4v145h60zM942 311v463q0 110 -103 197.5t-243 87.5q-186 0 -301 -141.5t-115 -374.5t115 -374.5t301 -141.5
q140 0 243 87.5t103 196.5zM762 -225q0 65 55.5 130.5t149.5 117.5l34 -23q-180 -104 -180 -219q0 -82 92 -82q61 0 123 45l29 -49q-71 -53 -154 -53q-149 0 -149 133z" />
    <glyph glyph-name="aring.salt" horiz-adv-x="1179" 
d="M401 1380q0 82 55.5 136.5t141.5 54.5t141.5 -54.5t55.5 -136.5q0 -85 -55.5 -138.5t-141.5 -53.5t-141.5 53.5t-55.5 138.5zM745 1380q0 63 -42 104.5t-105 41.5t-105 -41.5t-42 -104.5t42 -105t105 -42t105 42t42 105zM1004 1085v-1085h-60v145h-4
q-50 -79 -144.5 -127.5t-199.5 -48.5q-213 0 -345 157.5t-132 416.5q0 258 132 415.5t345 157.5q105 0 199.5 -48.5t144.5 -127.5h4v145h60zM942 311v463q0 110 -103 197.5t-243 87.5q-186 0 -301 -141.5t-115 -374.5t115 -374.5t301 -141.5q140 0 243 87.5t103 196.5z" />
    <glyph glyph-name="aringacute.salt" horiz-adv-x="1163" 
d="M401 1380q0 72 44 124.5t116 64.5l111 178h123l-156 -180q69 -12 112.5 -63.5t43.5 -123.5q0 -85 -55.5 -138.5t-141.5 -53.5t-141.5 53.5t-55.5 138.5zM451 1380q0 -63 42 -105t105 -42t105 42t42 105t-42 104.5t-105 41.5t-105 -41.5t-42 -104.5zM1004 1085v-1085h-60
v145h-4q-50 -79 -144.5 -127.5t-199.5 -48.5q-213 0 -345 157.5t-132 416.5q0 258 132 415.5t345 157.5q105 0 199.5 -48.5t144.5 -127.5h4v145h60zM942 774q0 110 -103 197.5t-243 87.5q-186 0 -301 -141.5t-115 -374.5t115 -374.5t301 -141.5q140 0 243 87.5t103 196.5
v463z" />
    <glyph glyph-name="atilde.salt" horiz-adv-x="1163" 
d="M1004 1085v-1085h-60v145h-4q-50 -79 -144.5 -127.5t-199.5 -48.5q-213 0 -345 157.5t-132 416.5q0 258 132 415.5t345 157.5q105 0 199.5 -48.5t144.5 -127.5h4v145h60zM942 311v463q0 110 -103 197.5t-243 87.5q-186 0 -301 -141.5t-115 -374.5t115 -374.5t301 -141.5
q140 0 243 87.5t103 196.5zM590 1278q-75 43 -113 43q-67 0 -76 -82h-43q5 66 37 102.5t86 36.5q52 0 129 -47q71 -43 113 -43q67 0 76 80h43q-5 -66 -36 -102.5t-85 -36.5t-131 49z" />
    <glyph glyph-name="aring.ss02" horiz-adv-x="1040" 
d="M119 262q0 134 91 212.5t310 133.5q172 44 239.5 93t67.5 128q0 109 -75 169.5t-211 60.5q-146 0 -240 -79t-111 -216l-61 10q20 156 132 249t282 93q164 0 257 -79t93 -218v-819h-59v178h-5q-43 -94 -145 -149q-111 -60 -229 -60q-158 0 -247 78t-89 215zM831 340v369
h-4q-24 -50 -88 -83t-202 -69q-195 -51 -276 -118t-81 -177t73.5 -172.5t203.5 -62.5q155 0 264.5 92t109.5 221zM334 1272q0 88 59 145.5t150 57.5q92 0 150.5 -57.5t58.5 -145.5t-58.5 -145.5t-150.5 -57.5q-91 0 -150 57.5t-59 145.5zM698 1272q0 68 -44 111.5t-111 43.5
q-68 0 -112 -44t-44 -111q0 -68 44.5 -112t111.5 -44t111 44t44 112z" />
    <glyph glyph-name="aringacute.ss02" horiz-adv-x="1040" 
d="M119 262q0 134 91 212.5t310 133.5q172 44 239.5 93t67.5 128q0 109 -75 169.5t-211 60.5q-146 0 -240 -79t-111 -216l-61 10q20 156 132 249t282 93q164 0 257 -79t93 -218v-819h-59v178h-5q-43 -94 -145 -149q-111 -60 -229 -60q-158 0 -247 78t-89 215zM831 340v369
h-4q-24 -50 -88 -83t-202 -69q-195 -51 -276 -118t-81 -177t73.5 -172.5t203.5 -62.5q155 0 264.5 92t109.5 221zM334 1272q0 88 59 145.5t150 57.5q92 0 150.5 -57.5t58.5 -145.5t-58.5 -145.5t-150.5 -57.5q-91 0 -150 57.5t-59 145.5zM698 1272q0 68 -44 111.5t-111 43.5
q-68 0 -112 -44t-44 -111q0 -68 44.5 -112t111.5 -44t111 44t44 112zM618 1661h123l-180 -207h-69z" />
    <glyph glyph-name="f.ss03" horiz-adv-x="559" 
d="M227 1028h-178v57h178v134q0 94 52 145t149 51h129v-57h-125q-75 0 -109 -35.5t-34 -110.5v-127h223v-57h-223v-1028h-62v1028z" />
    <glyph glyph-name="j.ss03" horiz-adv-x="378" 
d="M131 1395h117v-113h-117v113zM162 1085h61v-1546h-61v1546z" />
    <glyph glyph-name="t.ss03" horiz-adv-x="575" 
d="M264 1030v-860q0 -61 27 -87t90 -26h84v-57h-84q-94 0 -136 40t-42 130v860h-154v55h154v226h61v-226h258v-55h-258z" />
    <glyph glyph-name="zero.ccmp" horiz-adv-x="1304" 
d="M100 717q0 340 152.5 543.5t400.5 203.5q249 0 400 -203t151 -544t-151 -544.5t-400 -203.5q-248 0 -400.5 204t-152.5 544zM1141 717q0 315 -133.5 500.5t-354.5 185.5t-354 -185.5t-133 -500.5t133 -500.5t354 -185.5t354.5 185.5t133.5 500.5z" />
    <glyph glyph-name="one.ccmp" horiz-adv-x="706" 
d="M412 1360l-340 -227v67l346 234h59v-1434h-65v1360z" />
    <glyph glyph-name="two.ccmp" horiz-adv-x="1234" 
d="M219 61h860v-61h-925v72q0 115 13.5 183.5t43.5 121.5q42 74 123 131q80 57 299 164q222 109 306.5 197.5t84.5 213.5q0 143 -104 231.5t-271 88.5q-190 0 -308.5 -111t-129.5 -297l-64 4q9 210 148 337.5t354 127.5q193 0 315.5 -106.5t122.5 -274.5q0 -143 -92 -244
t-329 -218q-152 -73 -227 -116t-111 -75t-62 -78q-27 -52 -35 -104q-9 -59 -12 -187z" />
    <glyph glyph-name="three.ccmp" horiz-adv-x="1218" 
d="M127 459l63 6q6 -214 114.5 -324t307.5 -110q181 0 288.5 94.5t107.5 257.5q0 185 -110 275t-331 90h-61v59h61q179 0 286.5 84t107.5 223q0 131 -93.5 210t-251.5 79q-161 0 -263.5 -85.5t-127.5 -240.5l-63 8q26 177 147.5 278t306.5 101q179 0 295 -96
q115 -95 115 -252q0 -251 -274 -334v-4q152 -30 236.5 -130.5t84.5 -264.5q0 -190 -125.5 -302t-335.5 -112q-227 0 -353 127.5t-132 362.5z" />
    <glyph glyph-name="four.ccmp" horiz-adv-x="1157" 
d="M799 307h-762v53l725 1074h102v-1069h197v-58h-197v-307h-65v307zM801 365v1017h-4l-688 -1017h692z" />
    <glyph glyph-name="five.ccmp" horiz-adv-x="1179" 
d="M98 365l64 12q26 -166 138.5 -257t291.5 -91q194 0 314 124.5t120 325.5q0 198 -117 318q-118 121 -317 121q-123 0 -226.5 -53t-172.5 -150l-56 12l144 707h696v-60h-647l-115 -555l4 -2q73 75 171.5 116.5t207.5 41.5q219 0 356.5 -136.5t137.5 -357.5
q0 -230 -138.5 -371t-361.5 -141q-202 0 -332.5 105t-161.5 291z" />
    <glyph glyph-name="six.ccmp" horiz-adv-x="1216" 
d="M1135 469q0 -230 -131 -365t-345 -135q-263 0 -411 191.5t-148 531.5q-2 169 41.5 314.5t119.5 246t180.5 157t222.5 54.5q174 0 293 -97.5t151 -268.5l-61 -15q-32 154 -131.5 237t-249.5 83q-218 0 -359 -195.5t-141 -513.5q0 -87 2 -114h6q33 163 170 268.5t307 105.5
q218 0 351 -131t133 -354zM1071 469q0 196 -114.5 311t-305.5 115q-114 0 -212.5 -55t-158 -153.5t-59.5 -217.5q0 -192 121 -315t317 -123q187 0 299.5 117.5t112.5 320.5z" />
    <glyph glyph-name="seven.ccmp" horiz-adv-x="1038" 
d="M870 1368v4h-823v62h897v-58l-641 -1376h-72z" />
    <glyph glyph-name="eight.ccmp" horiz-adv-x="1159" 
d="M68 381q0 140 88.5 243t242.5 144v4q-249 82 -249 326q0 154 123 260t307 106t307 -106t123 -260q0 -247 -248 -326v-4q153 -42 241.5 -144.5t88.5 -242.5q0 -186 -141 -299t-371 -113t-371 113t-141 299zM946 1096q0 130 -104.5 219.5t-261.5 89.5q-158 0 -261.5 -89.5
t-103.5 -219.5q0 -139 98.5 -218t266.5 -79q171 0 268.5 79t97.5 218zM1026 383q0 155 -126 254.5t-320 99.5t-320.5 -99.5t-126.5 -254.5q0 -160 122 -256t325 -96q202 0 324 96t122 256z" />
    <glyph glyph-name="nine.ccmp" horiz-adv-x="1183" 
d="M1083 786q0 -414 -124.5 -615.5t-380.5 -201.5q-171 0 -286.5 97.5t-144.5 267.5l62 14q29 -153 125 -235t244 -82q221 0 329.5 183t108.5 558q0 46 -2 62h-4q-33 -146 -153 -235t-302 -89q-220 0 -347.5 128.5t-127.5 348.5q0 213 133 345t344 132q252 0 389 -176.5
t137 -501.5zM975 985q0 188 -115 303t-303 115q-184 0 -299 -115q-113 -113 -113 -301q0 -192 111 -305t301 -113q192 0 305 112.5t113 303.5z" />
    <glyph glyph-name="zero.tnum" 
d="M115 717q0 342 151 544.5t400 202.5q248 0 400.5 -203.5t152.5 -543.5t-152.5 -544t-400.5 -204q-249 0 -400 203.5t-151 544.5zM1153 717q0 315 -133 500.5t-354 185.5t-354.5 -185.5t-133.5 -500.5t133.5 -500.5t354.5 -185.5t354 185.5t133 500.5z" />
    <glyph glyph-name="one.tnum" 
d="M1044 59v-59h-757v59h350v1301l-340 -227v67l346 234h59v-1375h342z" />
    <glyph glyph-name="two.tnum" 
d="M268 61h860v-61h-925v72q0 115 13.5 183.5t43.5 121.5q42 74 123 131q80 57 299 164q222 109 306.5 197.5t84.5 213.5q0 143 -104 231.5t-271 88.5q-190 0 -308.5 -111t-129.5 -297l-63 4q9 210 147.5 337.5t353.5 127.5q193 0 316 -107t123 -274q0 -143 -92.5 -244
t-329.5 -218q-152 -73 -227 -116t-111 -75t-62 -78q-26 -50 -34 -104q-10 -66 -13 -187z" />
    <glyph glyph-name="three.tnum" 
d="M193 459l63 6q6 -214 114.5 -324t307.5 -110q181 0 288 94.5t107 257.5q0 185 -109.5 275t-330.5 90h-62v59h62q179 0 286 84t107 223q0 131 -93 210t-251 79q-161 0 -263.5 -85.5t-127.5 -240.5l-64 8q26 177 148 278t307 101q179 0 295 -96q115 -95 115 -252
q0 -251 -275 -334v-4q153 -30 237.5 -130.5t84.5 -264.5q0 -190 -125.5 -302t-335.5 -112q-227 0 -353 127.5t-132 362.5z" />
    <glyph glyph-name="four.tnum" 
d="M913 307h-761v53l725 1074h102v-1069h197v-58h-197v-307h-66v307zM915 365v1017h-4l-688 -1017h692z" />
    <glyph glyph-name="five.tnum" 
d="M168 365l63 12q26 -166 139 -257t292 -91q194 0 314 124.5t120 325.5q0 198 -117 318q-118 121 -317 121q-123 0 -227 -53t-173 -150l-55 12l143 707h697v-60h-648l-114 -555l4 -2q73 75 171.5 116.5t207.5 41.5q219 0 356 -136.5t137 -357.5q0 -230 -138 -371t-361 -141
q-202 0 -332.5 105t-161.5 291z" />
    <glyph glyph-name="six.tnum" 
d="M1184 469q0 -230 -130.5 -365t-344.5 -135q-263 0 -411 191.5t-148 531.5q-2 169 41 314.5t119 246t180.5 157t222.5 54.5q174 0 293 -97.5t151 -268.5l-61 -15q-32 154 -131.5 237t-249.5 83q-218 0 -359 -195.5t-141 -513.5q0 -87 2 -114h6q33 163 170 268.5t307 105.5
q218 0 351 -131t133 -354zM1120 469q0 196 -114.5 311t-305.5 115q-114 0 -212.5 -55t-158 -153.5t-59.5 -217.5q0 -192 121.5 -315t317.5 -123q187 0 299 117.5t112 320.5z" />
    <glyph glyph-name="seven.tnum" 
d="M1040 1368v4h-823v62h897v-58l-641 -1376h-72z" />
    <glyph glyph-name="eight.tnum" 
d="M154 381q0 140 88.5 243t242.5 144v4q-249 82 -249 326q0 154 123 260t307 106t307 -106t123 -260q0 -247 -248 -326v-4q153 -42 241.5 -144.5t88.5 -242.5q0 -186 -141 -299t-371 -113t-371 113t-141 299zM1032 1096q0 130 -104.5 219.5t-261.5 89.5
q-158 0 -261.5 -89.5t-103.5 -219.5q0 -139 98.5 -218t266.5 -79q171 0 268.5 79t97.5 218zM1112 383q0 155 -126 254.5t-320 99.5t-320.5 -99.5t-126.5 -254.5q0 -160 122 -256t325 -96q202 0 324 96t122 256z" />
    <glyph glyph-name="nine.tnum" 
d="M1169 786q0 -414 -124.5 -615.5t-380.5 -201.5q-171 0 -286.5 97.5t-144.5 267.5l62 14q29 -153 125 -235t244 -82q221 0 329.5 183t108.5 558q0 46 -2 62h-4q-33 -146 -153 -235t-302 -89q-220 0 -347.5 128.5t-127.5 348.5q0 213 133 345t344 132q252 0 389 -176.5
t137 -501.5zM1061 985q0 188 -115 303t-303 115q-184 0 -299 -115q-113 -113 -113 -301q0 -192 111 -305t301 -113q192 0 305 112.5t113 303.5z" />
    <glyph glyph-name="zero.zero" horiz-adv-x="1304" 
d="M1204 688q0 -328 -151 -522.5t-400 -194.5q-250 0 -401.5 194.5t-151.5 522.5t151.5 522.5t401.5 194.5q249 0 400 -194.5t151 -522.5zM356 141l537 1137q-107 70 -240 70q-221 0 -356 -179t-135 -481q0 -372 194 -547zM1145 688q0 187 -54 331t-153 226l-539 -1139
q109 -77 254 -77q222 0 357 178.5t135 480.5z" />
    <glyph glyph-name="zero.ordn" horiz-adv-x="1304" 
d="M1204 717q0 -341 -151 -544.5t-400 -203.5q-248 0 -400.5 204t-152.5 544t152.5 543.5t400.5 203.5q249 0 400 -203t151 -544zM354 150l555 1171q-116 84 -256 84q-220 0 -354.5 -186.5t-134.5 -501.5q0 -377 190 -567zM1141 717q0 190 -49 335.5t-142 233.5l-553 -1173
q110 -84 256 -84q221 0 354.5 186.5t133.5 501.5z" />
    <glyph glyph-name="zero.tnum_zero" 
d="M1217 717q0 -341 -151 -544.5t-400 -203.5q-248 0 -400.5 204t-152.5 544t152.5 543.5t400.5 203.5q249 0 400 -203t151 -544zM367 150l555 1171q-116 84 -256 84q-220 0 -355 -186.5t-135 -501.5q0 -376 191 -567zM1153 717q0 190 -49 335.5t-141 233.5l-553 -1173
q110 -84 256 -84q221 0 354 186.5t133 501.5z" />
    <glyph glyph-name="zero.subs" horiz-adv-x="808" 
d="M70 125q0 209 89 328.5t244 119.5q156 0 246 -119.5t90 -328.5t-90 -329t-246 -120q-154 0 -243.5 120t-89.5 329zM680 125q0 185 -73.5 289t-203.5 104q-129 0 -201.5 -104t-72.5 -289t72.5 -289t201.5 -104q130 0 203.5 104t73.5 289z" />
    <glyph glyph-name="one.subs" horiz-adv-x="491" 
d="M272 489l-213 -133v62l217 137h54v-860h-58v794z" />
    <glyph glyph-name="two.subs" horiz-adv-x="733" 
d="M135 -250h522v-55h-581v55q0 123 37 184q28 42 80 76q49 32 178 92q131 63 182 114.5t51 123.5q0 82 -59.5 131t-159.5 49q-113 0 -181.5 -62t-74.5 -171l-59 4q6 127 93 204.5t222 77.5q123 0 201 -65t78 -168q0 -87 -58 -149.5t-203 -131.5q-106 -51 -174 -90
q-43 -25 -65 -61q-17 -22 -22 -54t-7 -104z" />
    <glyph glyph-name="three.subs" horiz-adv-x="727" 
d="M59 -29l60 6q1 -122 65.5 -183.5t184.5 -61.5q106 0 168.5 53t62.5 145q0 201 -256 201h-45v51h43q104 0 166.5 47.5t62.5 126.5q0 73 -55.5 117.5t-146.5 44.5q-198 0 -232 -184l-57 8q20 109 96 170t193 61q114 0 187 -59.5t73 -155.5q0 -137 -146 -194v-2
q174 -52 174 -234q0 -115 -79 -183.5t-209 -68.5q-143 0 -224.5 77t-85.5 218z" />
    <glyph glyph-name="four.subs" horiz-adv-x="708" 
d="M492 -127h-472v53l435 629h94v-627h121v-55h-121v-178h-57v178zM492 -72v582h-3l-403 -582h406z" />
    <glyph glyph-name="five.subs" horiz-adv-x="765" 
d="M70 -86l55 14q17 -96 83 -146t173 -50q115 0 185.5 68.5t70.5 181.5t-69.5 180t-186.5 67q-69 0 -130.5 -30t-105.5 -84l-51 12l86 428h443v-55h-398l-63 -305l2 -2q89 86 223 86q137 0 223 -81t86 -214q0 -137 -87 -222.5t-228 -85.5q-124 0 -207.5 64t-103.5 174z" />
    <glyph glyph-name="six.subs" horiz-adv-x="790" 
d="M721 -23q0 -137 -82.5 -219t-218.5 -82q-166 0 -258 115t-92 322q0 202 99.5 331t254.5 129q109 0 182 -58.5t96 -162.5l-55 -12q-43 178 -223 178q-134 0 -214.5 -109.5t-80.5 -293.5q0 -31 2 -45h2q26 88 106 143t183 55q133 0 216 -81t83 -210zM662 -23
q0 109 -66.5 175.5t-175.5 66.5t-182.5 -69.5t-73.5 -172.5q0 -109 70.5 -177t185.5 -68q110 0 176 66.5t66 178.5z" />
    <glyph glyph-name="seven.subs" horiz-adv-x="575" 
d="M500 498v2h-500v55h565v-51l-387 -809h-67z" />
    <glyph glyph-name="eight.subs" horiz-adv-x="784" 
d="M70 -74q0 83 52 145t140 87v2q-141 53 -141 188q0 100 75.5 162.5t194.5 62.5q121 0 197 -62.5t76 -162.5q0 -134 -144 -188v-2q88 -25 141.5 -87t53.5 -145q0 -115 -88 -182.5t-236 -67.5q-146 0 -233.5 68.5t-87.5 181.5zM608 346q0 78 -60 127t-157 49
q-94 0 -154.5 -49t-60.5 -127q0 -75 58.5 -120.5t156.5 -45.5q99 0 158 45.5t59 120.5zM655 -70q0 88 -73.5 143.5t-190.5 55.5q-116 0 -189 -55.5t-73 -143.5q0 -90 71.5 -144t190.5 -54q121 0 192.5 53.5t71.5 144.5z" />
    <glyph glyph-name="nine.subs" horiz-adv-x="772" 
d="M702 162q0 -486 -317 -486q-110 0 -183 59.5t-93 162.5l55 12q19 -86 76 -132t145 -46q130 0 194 102.5t64 315.5v16h-2q-30 -79 -100.5 -123.5t-169.5 -44.5q-139 0 -220 78t-81 209q0 125 84.5 206.5t218.5 81.5q156 0 242.5 -107.5t86.5 -303.5zM614 285
q0 106 -66 169.5t-175 63.5q-110 0 -177 -65t-67 -168q0 -109 66 -172.5t178 -63.5q110 0 175.5 63.5t65.5 172.5z" />
    <glyph glyph-name="zero.dnom" horiz-adv-x="808" 
d="M70 430q0 209 89 329t244 120q156 0 246 -120t90 -329t-90 -328.5t-246 -119.5q-154 0 -243.5 119.5t-89.5 328.5zM680 430q0 185 -73.5 289t-203.5 104q-129 0 -201.5 -104t-72.5 -289t72.5 -289t201.5 -104q130 0 203.5 104t73.5 289z" />
    <glyph glyph-name="one.dnom" horiz-adv-x="491" 
d="M272 795l-213 -133v61l217 137h54v-860h-58v795z" />
    <glyph glyph-name="two.dnom" horiz-adv-x="733" 
d="M135 55h522v-55h-581v55q0 124 37 185q27 40 80 75q54 35 178 93q132 64 182.5 115t50.5 122q0 82 -59.5 131t-159.5 49q-113 0 -181.5 -62t-74.5 -171l-59 4q6 127 93 205t222 78q123 0 201 -65.5t78 -168.5q0 -87 -57.5 -149t-203.5 -131q-97 -46 -174 -91
q-43 -25 -65 -61q-17 -22 -22 -54t-7 -104z" />
    <glyph glyph-name="three.dnom" horiz-adv-x="727" 
d="M59 276l60 7q1 -122 65.5 -184t184.5 -62q106 0 168.5 53.5t62.5 145.5q0 200 -256 200h-45v51h43q104 0 166.5 47.5t62.5 127.5q0 73 -55.5 117t-146.5 44q-198 0 -232 -184l-57 8q20 109 96 170.5t193 61.5q114 0 187 -59.5t73 -155.5q0 -138 -146 -195v-2
q174 -52 174 -234q0 -115 -79 -183t-209 -68q-143 0 -224.5 76.5t-85.5 217.5z" />
    <glyph glyph-name="four.dnom" horiz-adv-x="708" 
d="M492 178h-472v53l435 629h94v-627h121v-55h-121v-178h-57v178zM492 233v582h-3l-403 -582h406z" />
    <glyph glyph-name="five.dnom" horiz-adv-x="765" 
d="M70 219l55 14q17 -96 83 -146t173 -50q115 0 185.5 68.5t70.5 181.5t-69.5 180.5t-186.5 67.5q-68 0 -129.5 -30.5t-106.5 -84.5l-51 12l86 428h443v-55h-398l-63 -305l2 -2q89 86 223 86q137 0 223 -81t86 -214q0 -137 -87 -222t-228 -85q-124 0 -207.5 63.5
t-103.5 173.5z" />
    <glyph glyph-name="six.dnom" horiz-adv-x="790" 
d="M721 283q0 -137 -82.5 -219t-218.5 -82q-166 0 -258 114.5t-92 321.5q0 202 99.5 331.5t254.5 129.5q108 0 181.5 -58.5t96.5 -163.5l-55 -12q-43 178 -223 178q-134 0 -214.5 -109.5t-80.5 -293.5q0 -31 2 -45h2q26 88 106 143t183 55q133 0 216 -80.5t83 -209.5z
M662 283q0 109 -66.5 175t-175.5 66t-182.5 -69t-73.5 -172q0 -109 70.5 -177.5t185.5 -68.5q110 0 176 67t66 179z" />
    <glyph glyph-name="seven.dnom" horiz-adv-x="575" 
d="M500 803v2h-500v55h565v-51l-387 -809h-67z" />
    <glyph glyph-name="eight.dnom" horiz-adv-x="784" 
d="M70 231q0 83 52 145t140 87v2q-141 53 -141 188q0 100 75.5 163t194.5 63q121 0 197 -63t76 -163q0 -134 -144 -188v-2q88 -25 141.5 -87t53.5 -145q0 -115 -88 -182t-236 -67q-146 0 -233.5 68t-87.5 181zM608 651q0 78 -60 127t-157 49q-94 0 -154.5 -49t-60.5 -127
q0 -75 58.5 -120.5t156.5 -45.5q99 0 158 45.5t59 120.5zM655 236q0 88 -73.5 143t-190.5 55q-116 0 -189 -55t-73 -143q0 -91 71.5 -145t190.5 -54q121 0 192.5 54t71.5 145z" />
    <glyph glyph-name="nine.dnom" horiz-adv-x="772" 
d="M702 467q0 -485 -317 -485q-110 0 -183 59t-93 162l55 12q19 -86 76 -132t145 -46q130 0 194 102.5t64 315.5v16h-2q-30 -79 -100.5 -123.5t-169.5 -44.5q-139 0 -220 78t-81 209q0 126 84.5 207.5t218.5 81.5q156 0 242.5 -108t86.5 -304zM614 590q0 106 -66 169.5
t-175 63.5q-110 0 -177 -65t-67 -168q0 -109 66 -172.5t178 -63.5q110 0 175.5 63.5t65.5 172.5z" />
    <glyph glyph-name="zero.numr" horiz-adv-x="808" 
d="M70 1004q0 209 89 328.5t244 119.5q156 0 246 -119.5t90 -328.5t-90 -329t-246 -120q-154 0 -243.5 120t-89.5 329zM680 1004q0 185 -73.5 289t-203.5 104q-129 0 -201.5 -104t-72.5 -289t72.5 -289.5t201.5 -104.5q130 0 203.5 104.5t73.5 289.5z" />
    <glyph glyph-name="one.numr" horiz-adv-x="491" 
d="M272 1368l-213 -133v61l217 138h54v-861h-58v795z" />
    <glyph glyph-name="two.numr" horiz-adv-x="733" 
d="M135 629h522v-56h-581v56q0 123 37 184q28 42 80 76q49 32 178 92q131 63 182 114.5t51 123.5q0 82 -59.5 131t-159.5 49q-113 0 -181.5 -62.5t-74.5 -171.5l-59 4q6 127 93 205t222 78q123 0 201 -65t78 -168q0 -87 -58 -149.5t-203 -131.5q-106 -51 -174 -90
q-42 -24 -65 -62q-17 -22 -22 -53.5t-7 -103.5z" />
    <glyph glyph-name="three.numr" horiz-adv-x="727" 
d="M59 850l60 6q1 -122 65.5 -184t184.5 -62q106 0 168.5 53.5t62.5 145.5q0 201 -256 201h-45v51h43q104 0 166.5 47.5t62.5 126.5q0 73 -55.5 117.5t-146.5 44.5q-197 0 -232 -185l-57 9q20 109 96 170t193 61q114 0 187 -59.5t73 -155.5q0 -138 -146 -195v-2
q174 -52 174 -233q0 -115 -79 -183.5t-209 -68.5q-143 0 -224.5 77t-85.5 218z" />
    <glyph glyph-name="four.numr" horiz-adv-x="708" 
d="M492 752h-472v53l435 629h94v-627h121v-55h-121v-179h-57v179zM492 807v582h-3l-403 -582h406z" />
    <glyph glyph-name="five.numr" horiz-adv-x="765" 
d="M70 793l55 14q17 -96 83.5 -146.5t172.5 -50.5q115 0 185.5 68.5t70.5 181.5t-69.5 180.5t-186.5 67.5q-68 0 -129.5 -30.5t-106.5 -84.5l-51 13l86 428h443v-56h-398l-63 -305l2 -2q89 86 223 86q137 0 223 -81t86 -214q0 -137 -87 -222t-228 -85q-124 0 -207.5 64
t-103.5 174z" />
    <glyph glyph-name="six.numr" horiz-adv-x="790" 
d="M721 856q0 -136 -82.5 -218.5t-218.5 -82.5q-166 0 -258 114.5t-92 321.5q0 202 99.5 331.5t254.5 129.5q109 0 182 -58.5t96 -162.5l-55 -12q-43 178 -223 178q-134 0 -214.5 -110t-80.5 -294q0 -31 2 -45h2q26 88 106.5 143.5t182.5 55.5q133 0 216 -81t83 -210z
M662 856q0 109 -66.5 175.5t-175.5 66.5t-182.5 -69.5t-73.5 -172.5q0 -109 70.5 -177.5t185.5 -68.5q110 0 176 67t66 179z" />
    <glyph glyph-name="seven.numr" horiz-adv-x="575" 
d="M500 1376v2h-500v56h565v-52l-387 -809h-67z" />
    <glyph glyph-name="eight.numr" horiz-adv-x="784" 
d="M70 805q0 83 52 144.5t140 86.5v2q-141 53 -141 189q0 100 75.5 162.5t194.5 62.5q121 0 197 -62.5t76 -162.5q0 -67 -38 -115.5t-106 -73.5v-2q88 -25 141.5 -86.5t53.5 -144.5q0 -115 -88 -182.5t-236 -67.5q-146 0 -233.5 68.5t-87.5 181.5zM608 1225q0 78 -60 127
t-157 49q-94 0 -154.5 -49t-60.5 -127q0 -75 58.5 -120.5t156.5 -45.5q99 0 158 45.5t59 120.5zM655 809q0 88 -73.5 143.5t-190.5 55.5q-116 0 -189 -55.5t-73 -143.5q0 -91 71.5 -145t190.5 -54q121 0 192.5 54t71.5 145z" />
    <glyph glyph-name="nine.numr" horiz-adv-x="772" 
d="M702 1040q0 -485 -317 -485q-110 0 -183 59t-93 162l55 12q19 -86 76 -132t145 -46q130 0 194 102.5t64 315.5v16h-2q-29 -79 -100 -123t-170 -44q-139 0 -220 77.5t-81 208.5q0 126 84.5 207.5t218.5 81.5q156 0 242.5 -108t86.5 -304zM614 1163q0 106 -66 170t-175 64
q-110 0 -177 -65.5t-67 -168.5q0 -109 65.5 -172t178.5 -63q111 0 176 63.5t65 171.5z" />
    <glyph glyph-name="zero.sups" horiz-adv-x="808" 
d="M70 1208q0 209 89 329t244 120q156 0 246 -120t90 -329t-90 -328.5t-246 -119.5q-154 0 -243.5 119.5t-89.5 328.5zM680 1208q0 185 -73.5 289.5t-203.5 104.5q-129 0 -201.5 -104.5t-72.5 -289.5t72.5 -289t201.5 -104q130 0 203.5 104t73.5 289z" />
    <glyph glyph-name="one.sups" horiz-adv-x="491" 
d="M272 1573l-213 -133v61l217 137h54v-860h-58v795z" />
    <glyph glyph-name="two.sups" horiz-adv-x="733" 
d="M135 834h522v-56h-581v56q0 123 37 184q28 42 80 76q49 32 178 92q132 64 182.5 115t50.5 122q0 82 -59.5 131.5t-159.5 49.5q-113 0 -181.5 -62.5t-74.5 -171.5l-59 4q6 127 93 205t222 78q123 0 201 -65.5t78 -168.5q0 -87 -57.5 -149t-203.5 -131q-106 -51 -174 -90
q-42 -24 -65 -62q-17 -22 -22 -53.5t-7 -103.5z" />
    <glyph glyph-name="three.sups" horiz-adv-x="727" 
d="M59 1055l60 6q1 -122 65.5 -184t184.5 -62q106 0 168.5 53.5t62.5 145.5q0 200 -256 200h-45v52h43q104 0 166.5 47.5t62.5 126.5q0 73 -55.5 117.5t-146.5 44.5q-197 0 -232 -185l-57 8q20 109 96 170.5t193 61.5q114 0 187 -59.5t73 -155.5q0 -138 -146 -195v-2
q174 -52 174 -233q0 -115 -79 -183.5t-209 -68.5q-143 0 -224.5 77t-85.5 218z" />
    <glyph glyph-name="four.sups" horiz-adv-x="708" 
d="M492 956h-472v54l435 628h94v-626h121v-56h-121v-178h-57v178zM492 1012v581h-3l-403 -581h406z" />
    <glyph glyph-name="five.sups" horiz-adv-x="765" 
d="M70 997l55 15q17 -96 83.5 -146.5t172.5 -50.5q115 0 185.5 68.5t70.5 181.5t-69.5 180.5t-186.5 67.5q-68 0 -129.5 -30.5t-106.5 -84.5l-51 12l86 428h443v-55h-398l-63 -305l2 -2q89 86 223 86q137 0 223 -81t86 -214q0 -137 -87 -222t-228 -85q-124 0 -207.5 63.5
t-103.5 173.5z" />
    <glyph glyph-name="six.sups" horiz-adv-x="790" 
d="M721 1061q0 -137 -82.5 -219t-218.5 -82q-166 0 -258 114.5t-92 321.5q0 202 99.5 331.5t254.5 129.5q109 0 182 -58.5t96 -162.5l-55 -13q-44 179 -223 179q-134 0 -214.5 -110t-80.5 -294q0 -31 2 -45h2q26 88 106.5 143.5t182.5 55.5q133 0 216 -81t83 -210zM662 1061
q0 109 -66.5 175.5t-175.5 66.5t-182.5 -69.5t-73.5 -172.5q0 -109 70.5 -177.5t185.5 -68.5q110 0 176 67t66 179z" />
    <glyph glyph-name="seven.sups" horiz-adv-x="575" 
d="M500 1581v2h-500v55h565v-51l-387 -809h-67z" />
    <glyph glyph-name="eight.sups" horiz-adv-x="784" 
d="M70 1010q0 83 52 144.5t140 86.5v2q-141 53 -141 189q0 100 75.5 162.5t194.5 62.5q121 0 197 -62.5t76 -162.5q0 -67 -38 -115.5t-106 -73.5v-2q88 -25 141.5 -86.5t53.5 -144.5q0 -115 -88 -182.5t-236 -67.5q-146 0 -233.5 68.5t-87.5 181.5zM608 1430q0 78 -60 127
t-157 49q-94 0 -154.5 -49t-60.5 -127q0 -75 58.5 -120.5t156.5 -45.5q99 0 158 45.5t59 120.5zM655 1014q0 88 -73.5 143t-190.5 55q-116 0 -189 -55t-73 -143q0 -91 71.5 -145t190.5 -54q121 0 192.5 54t71.5 145z" />
    <glyph glyph-name="nine.sups" horiz-adv-x="772" 
d="M702 1245q0 -485 -317 -485q-110 0 -183 59t-93 162l55 12q19 -86 76 -132t145 -46q130 0 194 102.5t64 315.5v16h-2q-30 -79 -100.5 -123.5t-169.5 -44.5q-139 0 -220 78t-81 209q0 126 84.5 207.5t218.5 81.5q156 0 242.5 -108t86.5 -304zM614 1368q0 106 -66 170
t-175 64q-110 0 -177 -65.5t-67 -168.5q0 -109 65.5 -172t178.5 -63q111 0 176 63.5t65 171.5z" />
    <glyph glyph-name="braceleft.case" horiz-adv-x="714" 
d="M324 -37v555q0 75 -24 105t-85 30h-57v66h57q61 0 85 30t24 105v514q0 118 46 173.5t144 55.5h125v-59h-123q-68 0 -99.5 -42t-31.5 -134v-528q0 -67 -26.5 -104t-71.5 -42v-4q45 -6 71.5 -42.5t26.5 -102.5v-570q0 -92 31.5 -134t99.5 -42h123v-59h-125q-98 0 -144 55.5
t-46 173.5z" />
    <glyph glyph-name="braceright.case" horiz-adv-x="714" 
d="M76 -266v59h123q68 0 99.5 42t31.5 134v570q0 66 26.5 102.5t71.5 42.5v4q-45 5 -71.5 42t-26.5 104v528q0 92 -31.5 134t-99.5 42h-123v59h125q98 0 144 -55.5t46 -173.5v-514q0 -75 24 -105t85 -30h57v-66h-57q-61 0 -85 -30t-24 -105v-555q0 -118 -46 -173.5
t-144 -55.5h-125z" />
    <glyph glyph-name="bracketleft.case" horiz-adv-x="589" 
d="M201 1597h315v-57h-254v-1749h254v-57h-315v1863z" />
    <glyph glyph-name="bracketright.case" horiz-adv-x="589" 
d="M74 -266v57h254v1749h-254v57h315v-1863h-315z" />
    <glyph glyph-name="parenleft.case" horiz-adv-x="737" 
d="M219 705q0 561 402 995l43 -37q-379 -415 -379 -958q0 -544 379 -959l-43 -35q-402 428 -402 994z" />
    <glyph glyph-name="parenright.case" horiz-adv-x="737" 
d="M74 -254q379 415 379 959q0 543 -379 958l43 37q401 -433 401 -995q0 -567 -401 -994z" />
    <glyph glyph-name="emdash.ccmp" horiz-adv-x="1744" 
d="M137 774h1471v-59h-1471v59z" />
    <glyph glyph-name="endash.ccmp" horiz-adv-x="1161" 
d="M137 774h887v-59h-887v59z" />
    <glyph glyph-name="hyphen.ccmp" horiz-adv-x="739" 
d="M137 774h467v-59h-467v59z" />
    <glyph glyph-name="uni00AD.ccmp" horiz-adv-x="739" 
d="M137 774h467v-59h-467v59z" />
    <glyph glyph-name="guillemotleft.case" horiz-adv-x="894" 
d="M451 684l219 377h67l-223 -377l223 -379h-67zM178 684l219 377h68l-223 -377l223 -379h-68z" />
    <glyph glyph-name="guillemotright.case" horiz-adv-x="894" 
d="M158 305l223 379l-223 377h67l219 -377l-219 -379h-67zM430 305l223 379l-223 377h68l219 -377l-219 -379h-68z" />
    <glyph glyph-name="guilsinglleft.case" horiz-adv-x="622" 
d="M178 684l219 377h68l-223 -377l223 -379h-68z" />
    <glyph glyph-name="guilsinglright.case" horiz-adv-x="622" 
d="M158 305l223 379l-223 377h67l219 -377l-219 -379h-67z" />
    <glyph glyph-name="uni0E3F.tnum" 
d="M1192 406q0 -406 -483 -406h-43v-225h-50v225h-415v1434h415v206h50v-206h47q206 0 316 -90.5t110 -258.5q0 -124 -67.5 -208t-184.5 -109v-4q142 -20 223.5 -115t81.5 -243zM266 786h350v586h-350v-586zM666 1372v-586h26q185 0 283 76.5t98 222.5q0 141 -92 214
t-270 73h-45zM616 61v668h-350v-668h350zM1126 406q0 164 -99.5 243.5t-303.5 79.5h-57v-668h41q419 0 419 345z" />
    <glyph glyph-name="cent.tnum" 
d="M1114 360l60 -10q-32 -167 -157 -270t-304 -111v-194h-49v194q-221 9 -363.5 170t-142.5 404t142 403.5t364 169.5v176h49v-176q178 -7 303.5 -110t157.5 -269l-60 -12q-30 151 -138 238.5t-263 93.5v-1028q156 6 263.5 93t137.5 238zM664 29v1028q-195 -9 -320 -153
t-125 -361t125 -361t320 -153z" />
    <glyph glyph-name="currency.tnum" 
d="M1126 172l-135 135q-132 -129 -327 -129q-94 0 -179.5 32.5t-148.5 92.5l-131 -131l-39 37l135 135q-117 139 -117 334q0 197 113 334l-133 133l39 37l131 -131q135 129 330 129q191 0 329 -129l131 131l39 -37l-133 -135q113 -137 113 -332t-115 -332l137 -137z
M1079 678q0 191 -117.5 316.5t-297.5 125.5q-178 0 -297 -126.5t-119 -315.5q0 -192 118 -316t298 -124q181 0 298 124t117 316z" />
    <glyph glyph-name="dollar.tnum" 
d="M1219 338q0 -165 -140 -267t-372 -102h-11v-194h-49v196q-241 14 -382.5 139.5t-151.5 344.5l65 6q10 -196 133.5 -306t335.5 -122v684q-176 48 -265 86.5t-151 105.5q-65 74 -65 189q0 162 132.5 264t336.5 102h12v176h49v-178q199 -15 326 -127q132 -113 152 -272
l-66 -8q-23 142 -133 235.5t-279 110.5v-637q186 -49 285 -93t166 -120q72 -84 72 -213zM647 778v625h-12q-176 0 -291 -84.5t-115 -218.5q3 -41 14 -75.5t27.5 -60.5t46 -49.5t59 -40t77 -34.5t89 -31t105.5 -31zM1153 336q0 198 -217 287q-77 34 -240 79v-671h11
q205 0 325.5 83.5t120.5 221.5z" />
    <glyph glyph-name="Euro.tnum" 
d="M1251 475q-32 -235 -163.5 -370.5t-327.5 -135.5q-215 0 -363 154q-143 152 -184 418h-166v55h160q-6 58 -6 123q0 14 4 100h-158v55h164q34 269 182 429.5t367 160.5q192 0 323 -129t166 -352l-63 -10q-32 203 -145 316.5t-281 113.5q-195 0 -325.5 -142t-162.5 -387
h607v-55h-613q-4 -86 -4 -100q0 -65 6 -123h451v-55h-445q37 -236 166.5 -373t319.5 -137q172 0 284 118t144 334z" />
    <glyph glyph-name="florin.tnum" 
d="M801 1214l-23 -129h279v-57h-289l-201 -1137q-35 -194 -235 -194h-101v59h105q78 0 118 34.5t52 113.5l22 127l179 997h-258v57h268l22 142q34 192 236 192h123v-57h-127q-75 0 -116 -35t-54 -113z" />
    <glyph glyph-name="lira.tnum" 
d="M1116 748q0 -335 -166 -541.5t-434 -206.5h-65v784l-218 -77l-20 51l238 86v221l-218 -78l-20 51l238 86v310h65v-285l342 125l21 -53l-363 -131v-222l342 125l21 -53l-363 -131v-748q240 0 387.5 188.5t147.5 498.5h65z" />
    <glyph glyph-name="uni20BD.tnum" 
d="M375 346h395v-55h-395v-291h-64v291h-213v55h213v242h-213v55h213v791h430q222 0 346.5 -111.5t124.5 -312.5q0 -202 -122.5 -312t-348.5 -110h-366v-242zM375 649h364q196 0 302 94t106 267q0 177 -105 269.5t-303 92.5h-364v-723z" />
    <glyph glyph-name="uni20A8.tnum" 
d="M829 1378v-4q203 -83 209 -311h125v-55h-123q-11 -161 -110.5 -256.5t-276.5 -112.5v-4l334 -635h-76l-325 635h-420v61h416q180 0 281.5 80t111.5 232h-809v55h809q-7 152 -107.5 230.5t-285.5 78.5h-416v62h997v-56h-334z" />
    <glyph glyph-name="sterling.tnum" 
d="M436 61h678v-61h-924v61h68q121 0 209 93.5t88 220.5q0 133 -117 297h-248v55h211q-85 124 -131 211q-43 82 -43 176q0 160 120.5 255t322.5 95q204 0 327 -99t146 -282l-66 -8q-40 328 -407 328q-173 0 -275 -78t-102 -211q0 -80 35.5 -154t122.5 -194l26 -39h434v-55
h-399q102 -151 102 -297q0 -97 -51 -183.5t-127 -125.5v-5z" />
    <glyph glyph-name="uni20A9.tnum" 
d="M1178 881l-29 -172h164v-54h-174l-111 -655h-67l-195 655h-203l-194 -655h-66l-110 655h-175v54h164l-28 172h-136v53h125l-84 500h64l82 -500h387l45 151h55l45 -151h389l82 500h64l-84 -500h125v-53h-135zM647 934h37l-16 55h-4zM242 709h284l52 172h-365zM752 709
l-52 172h-69l-51 -172h172zM1118 881h-364l51 -172h285zM510 655h-260l92 -557h4zM1081 655h-262l166 -557h4z" />
    <glyph glyph-name="yen.tnum" 
d="M729 633h438v-58h-469v-221h469v-57h-469v-297h-65v297h-467v57h467v221h-467v58h436l-543 801h74l531 -787h4l530 787h74z" />
    <glyph glyph-name="plus.tnum" 
d="M1114 727h-418v-434h-59v434h-420v57h420v412h59v-412h418v-57z" />
    <glyph glyph-name="minus.tnum" 
d="M268 784h795v-57h-795v57z" />
    <glyph glyph-name="multiply.tnum" 
d="M301 414l328 325l-328 328l43 41l326 -328l327 328l41 -41l-325 -328l325 -325l-41 -43l-327 327l-326 -327z" />
    <glyph glyph-name="divide.tnum" 
d="M573 1133q0 41 27 68.5t68 27.5q39 0 65.5 -27.5t26.5 -68.5q0 -42 -26.5 -68.5t-65.5 -26.5q-42 0 -68.5 26.5t-26.5 68.5zM268 784h795v-57h-795v57zM573 371q0 41 27 68.5t68 27.5q39 0 65.5 -27.5t26.5 -68.5q0 -42 -26.5 -68.5t-65.5 -26.5q-42 0 -68.5 26.5
t-26.5 68.5z" />
    <glyph glyph-name="equal.tnum" 
d="M246 946h839v-59h-839v59zM246 578h839v-60h-839v60z" />
    <glyph glyph-name="notequal.tnum" 
d="M782 887l-172 -309h475v-60h-507l-127 -227l-43 22l112 205h-274v60h307l172 309h-479v59h512l125 225l45 -22l-113 -203h270v-59h-303z" />
    <glyph glyph-name="greater.tnum" 
d="M256 264l758 457l-758 457l33 51l786 -473v-70l-786 -473z" />
    <glyph glyph-name="less.tnum" 
d="M256 686v70l786 473l33 -51l-758 -457l758 -457l-33 -51z" />
    <glyph glyph-name="greaterequal.tnum" 
d="M270 334l758 459l-760 458l35 49l787 -473v-69l-787 -473zM242 59h848v-59h-848v59z" />
    <glyph glyph-name="lessequal.tnum" 
d="M242 758v69l786 473l35 -49l-760 -458l758 -459l-33 -49zM242 0v59h848v-59h-848z" />
    <glyph glyph-name="plusminus.tnum" 
d="M1114 856v-57h-418v-426h-59v426h-420v57h420v406h59v-406h418zM217 252h897v-55h-897v55z" />
    <glyph glyph-name="approxequal.tnum" 
d="M205 786q17 110 77 172t152 62q59 0 108.5 -21t139.5 -77q78 -51 120.5 -71t92.5 -20q72 0 117.5 48t58.5 141l55 -12q-17 -107 -78 -170.5t-151 -63.5q-59 0 -108.5 21t-139.5 77q-78 51 -120.5 71t-92.5 20q-146 0 -176 -189zM205 477q17 110 77 172t152 62
q59 0 108 -21t140 -78q77 -51 120 -70.5t93 -19.5q72 0 117.5 48t58.5 141l55 -13q-17 -107 -78 -170t-151 -63q-59 0 -108.5 21t-139.5 77q-77 51 -120 70.5t-93 19.5q-146 0 -176 -188z" />
    <glyph glyph-name="percent.tnum" 
d="M78 1352q0 209 90 328.5t246 119.5t246 -119.5t90 -328.5t-90 -329t-246 -120t-246 120t-90 329zM688 1352q0 183 -72.5 287t-201.5 104q-128 0 -200.5 -104t-72.5 -287t72.5 -287t200.5 -104q129 0 201.5 104t72.5 287zM276 526l768 445l31 -51l-770 -447zM584 82
q0 209 89.5 328.5t244.5 119.5q156 0 245.5 -119.5t89.5 -328.5t-90 -329t-245 -120t-244.5 120t-89.5 329zM1192 82q0 183 -72.5 287t-201.5 104t-201 -103t-72 -288t72 -288t201 -103t201.5 104t72.5 287z" />
    <glyph glyph-name="perthousand.tnum" 
d="M70 1397q0 209 90 328.5t246 119.5q155 0 244 -119.5t89 -328.5t-89 -329t-244 -120q-156 0 -246 120t-90 329zM680 1397q0 183 -72.5 287t-201.5 104t-202 -104t-73 -287t73 -287t202 -104t201.5 104t72.5 287zM131 631l891 323l20 -53l-892 -326zM31 16q0 209 89.5 329
t244.5 120q192 0 274 -180q13 184 99.5 284.5t228.5 100.5q155 0 244 -120t89 -329q0 -207 -89 -327.5t-244 -120.5q-189 0 -275 182q-12 -184 -98 -285.5t-229 -101.5q-154 0 -244 119.5t-90 328.5zM1239 221q0 183 -72.5 287t-201.5 104t-202 -104t-73 -287t73 -287
t202 -104t201.5 104t72.5 287zM641 16q0 183 -72.5 287.5t-201.5 104.5t-202 -104.5t-73 -287.5t73 -287t202 -104t201.5 104t72.5 287z" />
    <glyph glyph-name="at.case" horiz-adv-x="1660" 
d="M158 719q-2 155 50.5 294t143.5 238.5t217.5 157t266.5 55.5q300 0 484.5 -194t184.5 -508q0 -235 -65.5 -345t-204.5 -110q-73 0 -118.5 35.5t-57.5 101.5h-4q-29 -66 -101.5 -105.5t-160.5 -39.5q-109 0 -173.5 58.5t-64.5 156.5q0 91 50 145.5t171 92.5q146 47 200 85
t54 93q0 69 -49 110t-133 41q-94 0 -151.5 -54.5t-71.5 -154.5l-60 11q17 119 92 186.5t191 67.5q112 0 179 -64.5t67 -173.5v-336q0 -110 33 -157.5t108 -47.5q112 0 162.5 96.5t50.5 307.5q0 292 -168 470.5t-444 178.5q-126 3 -242.5 -51t-201 -146.5t-133.5 -222.5
t-46 -272q0 -333 160.5 -514.5t453.5 -181.5q251 0 422 131l29 -48q-192 -137 -451 -137q-318 0 -493.5 197t-175.5 553zM1036 563v273h-2q-24 -63 -246 -136q-96 -32 -134 -72.5t-38 -109.5q0 -76 47.5 -120t131.5 -44q109 0 175 57.5t66 151.5z" />
    <glyph glyph-name="_646" horiz-adv-x="0" 
d="M-270 498v10l-234 -225l-33 30l269 258v-10l237 230l31 -33z" />
    <glyph glyph-name="_648" horiz-adv-x="0" 
d="M-406 487v11l-307 -299l-32 32l360 349v-9l352 326l33 -33z" />
    <glyph glyph-name="_649" horiz-adv-x="0" 
d="M-117 1395h117v-113h-117v113z" />
    <glyph glyph-name="_650" horiz-adv-x="0" 
d="M-479 768h479v-51h-479v51z" />
    </font>
</defs>
</svg>
